<?xml version="1.0" encoding="UTF-8" standalone="no"?>
<!DOCTYPE svg PUBLIC "-//W3C//DTD SVG 1.1//EN" "http://www.w3.org/Graphics/SVG/1.1/DTD/svg11.dtd">
<svg width="651px" height="717px" version="1.1" xmlns="http://www.w3.org/2000/svg" xmlns:xlink="http://www.w3.org/1999/xlink" xml:space="preserve" xmlns:serif="http://www.serif.com/" style="fill-rule:evenodd;clip-rule:evenodd;stroke-linecap:round;stroke-linejoin:round;">
    <g id="V1.0" transform="matrix(1.33333,0,0,1.33333,-249.187,-412.724)">
        <g id="long-side-2" serif:id="long side 2" transform="matrix(6.12323e-17,-1,1,6.12323e-17,-191.264,404.605)">
            <path d="M-417.429,731.703C-385.376,728.758 -349.193,726.948 -310.751,726.589L-310.751,718.085L-282.405,718.085L-282.405,726.589C-243.659,726.95 -207.211,728.787 -174.972,731.773L-175.363,786.528L-175.362,786.527L-173.142,786.672L-170.96,787.106L-168.853,787.822L-166.858,788.805L-165.008,790.041L-163.336,791.508L-161.869,793.181L-160.633,795.031L-159.649,797.026L-158.934,799.133L-158.5,801.315L-158.354,803.535L-158.354,820.543L-158.427,821.653L-158.644,822.744L-159.001,823.797L-159.493,824.795L-160.111,825.719L-160.845,826.556L-161.681,827.289L-162.606,827.907L-163.604,828.399L-164.657,828.757L-165.748,828.974L-166.858,829.046L-166.858,820.543L-166.955,819.808L-167.074,819.457L-167.238,819.124L-167.444,818.816L-167.688,818.537L-167.967,818.293L-168.275,818.087L-168.608,817.922L-168.959,817.803L-169.693,817.707L-172.402,817.707L-174.076,818.052L-174.462,818.243L-174.827,818.471L-175.166,818.736L-175.477,819.033L-175.756,819.361L-176,819.715L-176.374,820.488L-179.489,829.045L-414.448,829.043L-417.605,820.368L-417.765,819.989L-417.964,819.627L-418.197,819.288L-418.464,818.975L-418.762,818.69L-419.087,818.437L-419.436,818.218L-419.806,818.035L-420.192,817.892L-420.59,817.788L-420.998,817.725L-421.409,817.706L-424.244,817.706L-424.614,817.731L-424.977,817.803L-425.328,817.922L-425.661,818.086L-425.969,818.293L-426.248,818.537L-426.493,818.816L-426.699,819.124L-426.863,819.457L-426.982,819.808L-427.054,820.171L-427.08,820.541L-427.08,829.045L-430.654,828.997L-431.382,828.852L-432.084,828.614L-432.749,828.286L-433.366,827.874L-433.923,827.385L-434.412,826.827L-434.824,826.211L-435.152,825.546L-435.391,824.844L-435.535,824.116L-435.584,823.376L-435.584,803.534L-435.438,801.314L-435.004,799.132L-434.289,797.025L-433.305,795.03L-432.069,793.18L-430.602,791.507L-428.93,790.04L-427.08,788.804L-425.084,787.82L-422.978,787.105L-420.796,786.526L-418.576,786.526L-418.185,731.773L-417.429,731.703ZM-333.725,811.753L-333.725,820.824L-362.071,820.824L-362.071,811.753L-333.725,811.753ZM-260.213,820.824L-260.213,811.753L-231.866,811.753L-231.866,820.824L-260.213,820.824ZM-297.759,782.485C-297.759,781.898 -298.235,781.422 -298.822,781.422C-302.746,781.422 -316.389,781.422 -320.312,781.422C-320.9,781.422 -321.375,781.898 -321.375,782.485C-321.375,785.115 -321.375,791.903 -321.375,794.532C-321.375,795.119 -320.9,795.595 -320.312,795.595C-316.389,795.595 -302.746,795.595 -298.822,795.595C-298.235,795.595 -297.759,795.119 -297.759,794.532C-297.759,791.903 -297.759,785.115 -297.759,782.485ZM-265.359,782.485C-265.359,781.898 -265.835,781.422 -266.422,781.422C-270.346,781.422 -283.989,781.422 -287.912,781.422C-288.5,781.422 -288.975,781.898 -288.975,782.485C-288.975,785.115 -288.975,791.903 -288.975,794.532C-288.975,795.119 -288.5,795.595 -287.912,795.595C-283.989,795.595 -270.346,795.595 -266.422,795.595C-265.835,795.595 -265.359,795.119 -265.359,794.532C-265.359,791.903 -265.359,785.115 -265.359,782.485ZM-330.721,775.965C-330.721,775.378 -331.197,774.902 -331.784,774.902C-338.875,774.902 -379.26,774.902 -386.351,774.902C-386.938,774.902 -387.414,775.378 -387.414,775.965C-387.414,779.019 -387.414,787.794 -387.414,790.847C-387.414,791.434 -386.938,791.91 -386.351,791.91C-379.26,791.91 -338.875,791.91 -331.784,791.91C-331.197,791.91 -330.721,791.434 -330.721,790.847C-330.721,787.794 -330.721,779.019 -330.721,775.965Z" style="fill:none;stroke:black;stroke-width:1px;"/>
            <g>
                <g transform="matrix(6.12323e-17,-1,1,6.12323e-17,-1088.92,1138.45)">
                    <g transform="matrix(6,0,0,6,359.129,774.486)">
                        <path d="M0.312,-0.678L0.557,-0.678C0.583,-0.678 0.607,-0.692 0.607,-0.728C0.607,-0.764 0.583,-0.778 0.557,-0.778L0.212,-0.778L0.212,-0.339L0.507,-0.339L0.507,-0.1L0.276,-0.1C0.26,-0.1 0.237,-0.114 0.223,-0.12L0.193,-0.133C0.182,-0.138 0.173,-0.141 0.161,-0.141C0.135,-0.141 0.113,-0.117 0.113,-0.091C0.113,-0.056 0.143,-0.047 0.17,-0.035L0.208,-0.018C0.233,-0.007 0.248,0 0.274,0L0.496,0C0.532,0 0.558,-0.004 0.583,-0.034C0.604,-0.059 0.607,-0.081 0.607,-0.112L0.607,-0.326C0.607,-0.361 0.604,-0.385 0.576,-0.411C0.552,-0.434 0.528,-0.439 0.496,-0.439L0.312,-0.439L0.312,-0.678Z" style="fill-rule:nonzero;"/>
                    </g>
                    <g transform="matrix(6,0,0,6,363.449,774.486)">
                        <path d="M0.36,-0.186L0.213,-0.568L0.213,-0.728C0.213,-0.76 0.199,-0.778 0.163,-0.778C0.127,-0.778 0.113,-0.76 0.113,-0.728L0.113,-0.57C0.113,-0.557 0.114,-0.543 0.119,-0.531L0.31,-0.044C0.32,-0.019 0.329,0 0.36,0C0.391,0 0.4,-0.019 0.41,-0.044L0.601,-0.531C0.606,-0.543 0.607,-0.557 0.607,-0.57L0.607,-0.728C0.607,-0.76 0.593,-0.778 0.557,-0.778C0.521,-0.778 0.507,-0.76 0.507,-0.728L0.507,-0.568L0.36,-0.186Z" style="fill-rule:nonzero;"/>
                    </g>
                </g>
                <g transform="matrix(6.12323e-17,-1,1,6.12323e-17,-1081.72,1138.45)">
                    <g transform="matrix(6,0,0,6,359.129,774.486)">
                        <path d="M0.213,-0.1L0.213,-0.728C0.213,-0.76 0.199,-0.778 0.163,-0.778C0.127,-0.778 0.113,-0.76 0.113,-0.728L0.113,0L0.557,0C0.583,0 0.607,-0.014 0.607,-0.05C0.607,-0.086 0.583,-0.1 0.557,-0.1L0.213,-0.1Z" style="fill-rule:nonzero;"/>
                    </g>
                    <g transform="matrix(6,0,0,6,363.449,774.486)">
                        <path d="M0.228,-0.637C0.224,-0.643 0.213,-0.655 0.213,-0.664C0.213,-0.681 0.236,-0.678 0.247,-0.678L0.459,-0.678C0.49,-0.678 0.507,-0.673 0.507,-0.639C0.507,-0.611 0.525,-0.592 0.555,-0.592C0.591,-0.592 0.607,-0.618 0.607,-0.65C0.607,-0.685 0.586,-0.722 0.56,-0.745C0.531,-0.77 0.499,-0.778 0.461,-0.778L0.249,-0.778C0.217,-0.778 0.194,-0.778 0.166,-0.76C0.132,-0.738 0.113,-0.704 0.113,-0.664C0.113,-0.629 0.125,-0.609 0.146,-0.582L0.489,-0.141C0.493,-0.135 0.507,-0.12 0.507,-0.112C0.507,-0.097 0.482,-0.1 0.474,-0.1L0.257,-0.1C0.229,-0.1 0.213,-0.104 0.213,-0.134C0.213,-0.161 0.195,-0.185 0.166,-0.185C0.131,-0.185 0.113,-0.157 0.113,-0.125C0.113,-0.09 0.133,-0.054 0.16,-0.032C0.19,-0.007 0.223,0 0.261,0L0.481,0C0.55,0 0.607,-0.038 0.607,-0.113C0.607,-0.147 0.592,-0.17 0.572,-0.196L0.228,-0.637Z" style="fill-rule:nonzero;"/>
                    </g>
                    <g transform="matrix(6,0,0,6,367.769,774.486)">
                        <path d="M0.41,-0.1L0.41,-0.778L0.163,-0.778C0.137,-0.778 0.113,-0.764 0.113,-0.728C0.113,-0.692 0.137,-0.678 0.163,-0.678L0.31,-0.678L0.31,-0.1L0.163,-0.1C0.137,-0.1 0.113,-0.086 0.113,-0.05C0.113,-0.014 0.137,0 0.163,0L0.557,0C0.583,0 0.607,-0.014 0.607,-0.05L0.607,-0.302C0.607,-0.331 0.594,-0.352 0.557,-0.352C0.52,-0.352 0.507,-0.331 0.507,-0.302L0.507,-0.1L0.41,-0.1Z" style="fill-rule:nonzero;"/>
                    </g>
                </g>
                <g transform="matrix(6.12323e-17,-1,1,6.12323e-17,-1074.52,1138.45)">
                    <g transform="matrix(6,0,0,6,359.129,774.486)">
                        <path d="M0.507,-0.254L0.507,-0.152C0.507,-0.108 0.477,-0.1 0.441,-0.1L0.282,-0.1C0.225,-0.1 0.213,-0.117 0.213,-0.172L0.213,-0.368C0.213,-0.417 0.213,-0.459 0.244,-0.498L0.353,-0.637C0.386,-0.679 0.382,-0.678 0.437,-0.678L0.557,-0.678C0.583,-0.678 0.607,-0.692 0.607,-0.728C0.607,-0.764 0.583,-0.778 0.557,-0.778L0.423,-0.778C0.358,-0.778 0.323,-0.761 0.283,-0.71L0.165,-0.559C0.127,-0.51 0.113,-0.477 0.113,-0.413L0.113,-0.163C0.113,-0.113 0.12,-0.076 0.16,-0.04C0.195,-0.008 0.229,0 0.275,0L0.447,0C0.542,0 0.607,-0.06 0.607,-0.157L0.607,-0.354L0.41,-0.354C0.384,-0.354 0.36,-0.34 0.36,-0.304C0.36,-0.268 0.384,-0.254 0.41,-0.254L0.507,-0.254Z" style="fill-rule:nonzero;"/>
                    </g>
                    <g transform="matrix(6,0,0,6,363.449,774.486)">
                        <path d="M0.507,-0.171L0.505,-0.171L0.506,-0.171L0.245,-0.778L0.113,-0.778L0.113,-0.05C0.113,-0.018 0.127,0 0.163,0C0.199,0 0.213,-0.018 0.213,-0.05L0.213,-0.6L0.215,-0.6L0.215,-0.599L0.476,0.001L0.608,0.001L0.608,-0.727C0.608,-0.759 0.594,-0.777 0.558,-0.777C0.522,-0.777 0.508,-0.759 0.508,-0.727L0.507,-0.171Z" style="fill-rule:nonzero;"/>
                    </g>
                    <g transform="matrix(6,0,0,6,367.769,774.486)">
                        <path d="M0.211,-0.1L0.163,-0.1C0.137,-0.1 0.113,-0.086 0.113,-0.05C0.113,-0.014 0.137,0 0.163,0L0.329,0C0.407,0 0.452,-0.023 0.487,-0.094L0.578,-0.276C0.596,-0.312 0.607,-0.346 0.607,-0.386C0.607,-0.432 0.597,-0.461 0.577,-0.502L0.489,-0.678C0.455,-0.746 0.416,-0.778 0.338,-0.778L0.171,-0.778C0.14,-0.778 0.113,-0.764 0.113,-0.728C0.113,-0.69 0.141,-0.678 0.174,-0.678L0.211,-0.678L0.211,-0.1ZM0.311,-0.678L0.323,-0.678C0.369,-0.678 0.378,-0.679 0.399,-0.636L0.482,-0.467C0.496,-0.438 0.507,-0.419 0.507,-0.385C0.507,-0.36 0.499,-0.343 0.488,-0.32L0.4,-0.142C0.382,-0.105 0.372,-0.1 0.33,-0.1L0.311,-0.1L0.311,-0.678Z" style="fill-rule:nonzero;"/>
                    </g>
                </g>
                <g transform="matrix(6.12323e-17,-1,1,6.12323e-17,-1056.52,1138.45)">
                    <g transform="matrix(6,0,0,6,359.129,774.486)">
                        <path d="M0.312,-0.678L0.557,-0.678C0.583,-0.678 0.607,-0.692 0.607,-0.728C0.607,-0.764 0.583,-0.778 0.557,-0.778L0.212,-0.778L0.212,-0.339L0.507,-0.339L0.507,-0.1L0.276,-0.1C0.26,-0.1 0.237,-0.114 0.223,-0.12L0.193,-0.133C0.182,-0.138 0.173,-0.141 0.161,-0.141C0.135,-0.141 0.113,-0.117 0.113,-0.091C0.113,-0.056 0.143,-0.047 0.17,-0.035L0.208,-0.018C0.233,-0.007 0.248,0 0.274,0L0.496,0C0.532,0 0.558,-0.004 0.583,-0.034C0.604,-0.059 0.607,-0.081 0.607,-0.112L0.607,-0.326C0.607,-0.361 0.604,-0.385 0.576,-0.411C0.552,-0.434 0.528,-0.439 0.496,-0.439L0.312,-0.439L0.312,-0.678Z" style="fill-rule:nonzero;"/>
                    </g>
                    <g transform="matrix(6,0,0,6,363.449,774.486)">
                        <path d="M0.36,-0.186L0.213,-0.568L0.213,-0.728C0.213,-0.76 0.199,-0.778 0.163,-0.778C0.127,-0.778 0.113,-0.76 0.113,-0.728L0.113,-0.57C0.113,-0.557 0.114,-0.543 0.119,-0.531L0.31,-0.044C0.32,-0.019 0.329,0 0.36,0C0.391,0 0.4,-0.019 0.41,-0.044L0.601,-0.531C0.606,-0.543 0.607,-0.557 0.607,-0.57L0.607,-0.728C0.607,-0.76 0.593,-0.778 0.557,-0.778C0.521,-0.778 0.507,-0.76 0.507,-0.728L0.507,-0.568L0.36,-0.186Z" style="fill-rule:nonzero;"/>
                    </g>
                </g>
                <g transform="matrix(6.12323e-17,-1,1,6.12323e-17,-1049.32,1138.45)">
                    <g transform="matrix(6,0,0,6,359.129,774.486)">
                        <path d="M0.213,-0.1L0.213,-0.728C0.213,-0.76 0.199,-0.778 0.163,-0.778C0.127,-0.778 0.113,-0.76 0.113,-0.728L0.113,0L0.557,0C0.583,0 0.607,-0.014 0.607,-0.05C0.607,-0.086 0.583,-0.1 0.557,-0.1L0.213,-0.1Z" style="fill-rule:nonzero;"/>
                    </g>
                    <g transform="matrix(6,0,0,6,363.449,774.486)">
                        <path d="M0.228,-0.637C0.224,-0.643 0.213,-0.655 0.213,-0.664C0.213,-0.681 0.236,-0.678 0.247,-0.678L0.459,-0.678C0.49,-0.678 0.507,-0.673 0.507,-0.639C0.507,-0.611 0.525,-0.592 0.555,-0.592C0.591,-0.592 0.607,-0.618 0.607,-0.65C0.607,-0.685 0.586,-0.722 0.56,-0.745C0.531,-0.77 0.499,-0.778 0.461,-0.778L0.249,-0.778C0.217,-0.778 0.194,-0.778 0.166,-0.76C0.132,-0.738 0.113,-0.704 0.113,-0.664C0.113,-0.629 0.125,-0.609 0.146,-0.582L0.489,-0.141C0.493,-0.135 0.507,-0.12 0.507,-0.112C0.507,-0.097 0.482,-0.1 0.474,-0.1L0.257,-0.1C0.229,-0.1 0.213,-0.104 0.213,-0.134C0.213,-0.161 0.195,-0.185 0.166,-0.185C0.131,-0.185 0.113,-0.157 0.113,-0.125C0.113,-0.09 0.133,-0.054 0.16,-0.032C0.19,-0.007 0.223,0 0.261,0L0.481,0C0.55,0 0.607,-0.038 0.607,-0.113C0.607,-0.147 0.592,-0.17 0.572,-0.196L0.228,-0.637Z" style="fill-rule:nonzero;"/>
                    </g>
                    <g transform="matrix(6,0,0,6,367.769,774.486)">
                        <path d="M0.213,-0.339L0.495,-0.339C0.528,-0.339 0.551,-0.344 0.576,-0.367C0.604,-0.393 0.607,-0.42 0.607,-0.456L0.607,-0.661C0.607,-0.697 0.604,-0.724 0.576,-0.75C0.551,-0.773 0.528,-0.778 0.495,-0.778L0.163,-0.778C0.137,-0.778 0.113,-0.764 0.113,-0.728C0.113,-0.692 0.137,-0.678 0.163,-0.678L0.507,-0.678L0.507,-0.439L0.226,-0.439C0.151,-0.439 0.113,-0.401 0.113,-0.326L0.113,0L0.557,0C0.583,0 0.607,-0.014 0.607,-0.05C0.607,-0.086 0.583,-0.1 0.557,-0.1L0.213,-0.1L0.213,-0.339Z" style="fill-rule:nonzero;"/>
                    </g>
                </g>
                <g transform="matrix(6.12323e-17,-1,1,6.12323e-17,-1042.12,1138.45)">
                    <g transform="matrix(6,0,0,6,359.129,774.486)">
                        <path d="M0.507,-0.254L0.507,-0.152C0.507,-0.108 0.477,-0.1 0.441,-0.1L0.282,-0.1C0.225,-0.1 0.213,-0.117 0.213,-0.172L0.213,-0.368C0.213,-0.417 0.213,-0.459 0.244,-0.498L0.353,-0.637C0.386,-0.679 0.382,-0.678 0.437,-0.678L0.557,-0.678C0.583,-0.678 0.607,-0.692 0.607,-0.728C0.607,-0.764 0.583,-0.778 0.557,-0.778L0.423,-0.778C0.358,-0.778 0.323,-0.761 0.283,-0.71L0.165,-0.559C0.127,-0.51 0.113,-0.477 0.113,-0.413L0.113,-0.163C0.113,-0.113 0.12,-0.076 0.16,-0.04C0.195,-0.008 0.229,0 0.275,0L0.447,0C0.542,0 0.607,-0.06 0.607,-0.157L0.607,-0.354L0.41,-0.354C0.384,-0.354 0.36,-0.34 0.36,-0.304C0.36,-0.268 0.384,-0.254 0.41,-0.254L0.507,-0.254Z" style="fill-rule:nonzero;"/>
                    </g>
                    <g transform="matrix(6,0,0,6,363.449,774.486)">
                        <path d="M0.507,-0.171L0.505,-0.171L0.506,-0.171L0.245,-0.778L0.113,-0.778L0.113,-0.05C0.113,-0.018 0.127,0 0.163,0C0.199,0 0.213,-0.018 0.213,-0.05L0.213,-0.6L0.215,-0.6L0.215,-0.599L0.476,0.001L0.608,0.001L0.608,-0.727C0.608,-0.759 0.594,-0.777 0.558,-0.777C0.522,-0.777 0.508,-0.759 0.508,-0.727L0.507,-0.171Z" style="fill-rule:nonzero;"/>
                    </g>
                    <g transform="matrix(6,0,0,6,367.769,774.486)">
                        <path d="M0.211,-0.1L0.163,-0.1C0.137,-0.1 0.113,-0.086 0.113,-0.05C0.113,-0.014 0.137,0 0.163,0L0.329,0C0.407,0 0.452,-0.023 0.487,-0.094L0.578,-0.276C0.596,-0.312 0.607,-0.346 0.607,-0.386C0.607,-0.432 0.597,-0.461 0.577,-0.502L0.489,-0.678C0.455,-0.746 0.416,-0.778 0.338,-0.778L0.171,-0.778C0.14,-0.778 0.113,-0.764 0.113,-0.728C0.113,-0.69 0.141,-0.678 0.174,-0.678L0.211,-0.678L0.211,-0.1ZM0.311,-0.678L0.323,-0.678C0.369,-0.678 0.378,-0.679 0.399,-0.636L0.482,-0.467C0.496,-0.438 0.507,-0.419 0.507,-0.385C0.507,-0.36 0.499,-0.343 0.488,-0.32L0.4,-0.142C0.382,-0.105 0.372,-0.1 0.33,-0.1L0.311,-0.1L0.311,-0.678Z" style="fill-rule:nonzero;"/>
                    </g>
                </g>
                <g transform="matrix(1,0,0,1,-703.256,-2.77431)">
                    <g transform="matrix(6,0,0,6,361.289,774.486)">
                        <path d="M0.213,-0.339L0.495,-0.339C0.528,-0.339 0.551,-0.344 0.576,-0.367C0.604,-0.393 0.607,-0.42 0.607,-0.456L0.607,-0.661C0.607,-0.697 0.604,-0.724 0.576,-0.75C0.551,-0.773 0.528,-0.778 0.495,-0.778L0.163,-0.778C0.137,-0.778 0.113,-0.764 0.113,-0.728C0.113,-0.692 0.137,-0.678 0.163,-0.678L0.507,-0.678L0.507,-0.439L0.226,-0.439C0.151,-0.439 0.113,-0.401 0.113,-0.326L0.113,0L0.557,0C0.583,0 0.607,-0.014 0.607,-0.05C0.607,-0.086 0.583,-0.1 0.557,-0.1L0.213,-0.1L0.213,-0.339Z" style="fill-rule:nonzero;"/>
                    </g>
                    <g transform="matrix(6,0,0,6,365.609,774.486)">
                        <path d="M0.113,0L0.393,0C0.52,0 0.607,-0.077 0.607,-0.208C0.607,-0.282 0.598,-0.335 0.541,-0.389C0.594,-0.436 0.607,-0.489 0.607,-0.547C0.607,-0.688 0.54,-0.778 0.393,-0.778L0.113,-0.778L0.113,0ZM0.213,-0.339L0.393,-0.339C0.484,-0.339 0.507,-0.292 0.507,-0.208C0.507,-0.132 0.465,-0.1 0.393,-0.1L0.213,-0.1L0.213,-0.339ZM0.213,-0.678L0.393,-0.678C0.484,-0.678 0.507,-0.631 0.507,-0.547C0.507,-0.471 0.465,-0.439 0.393,-0.439L0.213,-0.439L0.213,-0.678Z" style="fill-rule:nonzero;"/>
                    </g>
                </g>
                <g transform="matrix(1,0,0,1,-717.656,-2.77431)">
                    <g transform="matrix(6,0,0,6,361.289,774.486)">
                        <path d="M0.213,-0.339L0.495,-0.339C0.528,-0.339 0.551,-0.344 0.576,-0.367C0.604,-0.393 0.607,-0.42 0.607,-0.456L0.607,-0.661C0.607,-0.697 0.604,-0.724 0.576,-0.75C0.551,-0.773 0.528,-0.778 0.495,-0.778L0.163,-0.778C0.137,-0.778 0.113,-0.764 0.113,-0.728C0.113,-0.692 0.137,-0.678 0.163,-0.678L0.507,-0.678L0.507,-0.439L0.226,-0.439C0.151,-0.439 0.113,-0.401 0.113,-0.326L0.113,0L0.557,0C0.583,0 0.607,-0.014 0.607,-0.05C0.607,-0.086 0.583,-0.1 0.557,-0.1L0.213,-0.1L0.213,-0.339Z" style="fill-rule:nonzero;"/>
                    </g>
                    <g transform="matrix(6,0,0,6,365.609,774.486)">
                        <path d="M0.113,-0.05C0.106,-0.026 0.133,0 0.161,0C0.192,0 0.208,-0.026 0.215,-0.05L0.253,-0.17L0.466,-0.17L0.503,-0.05C0.51,-0.026 0.526,0 0.557,0C0.585,0 0.612,-0.026 0.605,-0.05L0.412,-0.727C0.405,-0.753 0.393,-0.778 0.36,-0.778C0.328,-0.778 0.317,-0.754 0.309,-0.727L0.113,-0.05ZM0.438,-0.27L0.281,-0.27L0.359,-0.541L0.361,-0.541L0.438,-0.27Z" style="fill-rule:nonzero;"/>
                    </g>
                </g>
                <g transform="matrix(1,0,0,1,-732.056,-2.77431)">
                    <g transform="matrix(6,0,0,6,361.289,774.486)">
                        <path d="M0.41,-0.1L0.41,-0.778L0.163,-0.778C0.137,-0.778 0.113,-0.764 0.113,-0.728C0.113,-0.692 0.137,-0.678 0.163,-0.678L0.31,-0.678L0.31,-0.1L0.163,-0.1C0.137,-0.1 0.113,-0.086 0.113,-0.05C0.113,-0.014 0.137,0 0.163,0L0.557,0C0.583,0 0.607,-0.014 0.607,-0.05L0.607,-0.302C0.607,-0.331 0.594,-0.352 0.557,-0.352C0.52,-0.352 0.507,-0.331 0.507,-0.302L0.507,-0.1L0.41,-0.1Z" style="fill-rule:nonzero;"/>
                    </g>
                    <g transform="matrix(6,0,0,6,365.609,774.486)">
                        <path d="M0.113,-0.05C0.106,-0.026 0.133,0 0.161,0C0.192,0 0.208,-0.026 0.215,-0.05L0.253,-0.17L0.466,-0.17L0.503,-0.05C0.51,-0.026 0.526,0 0.557,0C0.585,0 0.612,-0.026 0.605,-0.05L0.412,-0.727C0.405,-0.753 0.393,-0.778 0.36,-0.778C0.328,-0.778 0.317,-0.754 0.309,-0.727L0.113,-0.05ZM0.438,-0.27L0.281,-0.27L0.359,-0.541L0.361,-0.541L0.438,-0.27Z" style="fill-rule:nonzero;"/>
                    </g>
                </g>
                <g transform="matrix(1,0,0,1,-745.74,-2.77431)">
                    <g transform="matrix(5.9,0,0,5.9,361.361,774.486)">
                        <path d="M0.41,-0.1L0.41,-0.778L0.163,-0.778C0.137,-0.778 0.113,-0.764 0.113,-0.728C0.113,-0.692 0.137,-0.678 0.163,-0.678L0.31,-0.678L0.31,-0.1L0.163,-0.1C0.137,-0.1 0.113,-0.086 0.113,-0.05C0.113,-0.014 0.137,0 0.163,0L0.557,0C0.583,0 0.607,-0.014 0.607,-0.05L0.607,-0.302C0.607,-0.331 0.594,-0.352 0.557,-0.352C0.52,-0.352 0.507,-0.331 0.507,-0.302L0.507,-0.1L0.41,-0.1Z" style="fill-rule:nonzero;"/>
                    </g>
                    <g transform="matrix(5.9,0,0,5.9,365.609,774.486)">
                        <path d="M0.113,0L0.393,0C0.52,0 0.607,-0.077 0.607,-0.208C0.607,-0.282 0.598,-0.335 0.541,-0.389C0.594,-0.436 0.607,-0.489 0.607,-0.547C0.607,-0.688 0.54,-0.778 0.393,-0.778L0.113,-0.778L0.113,0ZM0.213,-0.339L0.393,-0.339C0.484,-0.339 0.507,-0.292 0.507,-0.208C0.507,-0.132 0.465,-0.1 0.393,-0.1L0.213,-0.1L0.213,-0.339ZM0.213,-0.678L0.393,-0.678C0.484,-0.678 0.507,-0.631 0.507,-0.547C0.507,-0.471 0.465,-0.439 0.393,-0.439L0.213,-0.439L0.213,-0.678Z" style="fill-rule:nonzero;"/>
                    </g>
                </g>
                <g transform="matrix(1,0,0,1,-675.866,36.3592)">
                    <g transform="matrix(10,0,0,10,298.871,710.162)">
                        <path d="M0.36,-0.602L0.238,-0.778L0.113,-0.778L0.113,-0.05C0.113,-0.018 0.127,0 0.163,0C0.199,0 0.213,-0.018 0.213,-0.05L0.213,-0.64L0.215,-0.64L0.31,-0.499L0.31,-0.483C0.31,-0.452 0.324,-0.423 0.36,-0.423C0.398,-0.423 0.41,-0.452 0.41,-0.483L0.41,-0.499L0.505,-0.64L0.507,-0.64L0.507,-0.05C0.507,-0.018 0.521,0 0.557,0C0.593,0 0.607,-0.018 0.607,-0.05L0.607,-0.778L0.482,-0.778L0.36,-0.602Z" style="fill-rule:nonzero;"/>
                    </g>
                    <g transform="matrix(10,0,0,10,306.071,710.162)">
                        <path d="M0.125,-0.179C0.125,-0.116 0.141,-0.092 0.191,-0.05C0.241,-0.008 0.261,0 0.322,0L0.398,0C0.459,0 0.479,-0.008 0.529,-0.05C0.579,-0.092 0.595,-0.116 0.595,-0.179L0.595,-0.36C0.595,-0.424 0.582,-0.446 0.534,-0.485C0.487,-0.524 0.465,-0.539 0.398,-0.539L0.322,-0.539C0.255,-0.539 0.233,-0.524 0.186,-0.485C0.138,-0.446 0.125,-0.424 0.125,-0.36L0.125,-0.179ZM0.221,-0.36C0.221,-0.38 0.228,-0.393 0.256,-0.417C0.277,-0.435 0.292,-0.443 0.322,-0.443L0.398,-0.443C0.428,-0.443 0.443,-0.435 0.464,-0.417C0.492,-0.393 0.499,-0.38 0.499,-0.36L0.499,-0.179C0.499,-0.159 0.492,-0.146 0.464,-0.122C0.443,-0.104 0.428,-0.096 0.398,-0.096L0.322,-0.096C0.292,-0.096 0.277,-0.104 0.256,-0.122C0.228,-0.146 0.221,-0.159 0.221,-0.179L0.221,-0.36Z" style="fill-rule:nonzero;"/>
                    </g>
                    <g transform="matrix(10,0,0,10,313.271,710.162)">
                        <path d="M0.318,-0.443L0.479,-0.443C0.507,-0.443 0.545,-0.449 0.545,-0.491C0.545,-0.532 0.511,-0.539 0.479,-0.539L0.318,-0.539L0.318,-0.637C0.318,-0.67 0.311,-0.703 0.27,-0.703C0.229,-0.703 0.222,-0.67 0.222,-0.637L0.222,-0.539L0.191,-0.539C0.159,-0.539 0.125,-0.532 0.125,-0.491C0.125,-0.449 0.163,-0.443 0.191,-0.443L0.222,-0.443L0.222,-0.182C0.222,-0.13 0.22,-0.089 0.257,-0.048C0.291,-0.011 0.333,0 0.381,0L0.43,0C0.481,0 0.527,-0.007 0.562,-0.049C0.578,-0.068 0.595,-0.102 0.595,-0.129C0.595,-0.156 0.573,-0.177 0.546,-0.177C0.522,-0.177 0.504,-0.161 0.498,-0.138C0.488,-0.099 0.47,-0.096 0.431,-0.096L0.382,-0.096C0.316,-0.096 0.318,-0.127 0.318,-0.181L0.318,-0.443Z" style="fill-rule:nonzero;"/>
                    </g>
                    <g transform="matrix(10,0,0,10,320.471,710.162)">
                        <path d="M0.125,-0.179C0.125,-0.116 0.141,-0.092 0.191,-0.05C0.241,-0.008 0.261,0 0.322,0L0.398,0C0.459,0 0.479,-0.008 0.529,-0.05C0.579,-0.092 0.595,-0.116 0.595,-0.179L0.595,-0.36C0.595,-0.424 0.582,-0.446 0.534,-0.485C0.487,-0.524 0.465,-0.539 0.398,-0.539L0.322,-0.539C0.255,-0.539 0.233,-0.524 0.186,-0.485C0.138,-0.446 0.125,-0.424 0.125,-0.36L0.125,-0.179ZM0.221,-0.36C0.221,-0.38 0.228,-0.393 0.256,-0.417C0.277,-0.435 0.292,-0.443 0.322,-0.443L0.398,-0.443C0.428,-0.443 0.443,-0.435 0.464,-0.417C0.492,-0.393 0.499,-0.38 0.499,-0.36L0.499,-0.179C0.499,-0.159 0.492,-0.146 0.464,-0.122C0.443,-0.104 0.428,-0.096 0.398,-0.096L0.322,-0.096C0.292,-0.096 0.277,-0.104 0.256,-0.122C0.228,-0.146 0.221,-0.159 0.221,-0.179L0.221,-0.36Z" style="fill-rule:nonzero;"/>
                    </g>
                    <g transform="matrix(10,0,0,10,327.671,710.162)">
                        <path d="M0.125,-0.066C0.125,-0.033 0.132,0 0.173,0C0.214,0 0.221,-0.033 0.221,-0.066L0.221,-0.309L0.355,-0.42C0.372,-0.434 0.385,-0.443 0.403,-0.443L0.431,-0.443C0.454,-0.443 0.477,-0.443 0.489,-0.426C0.499,-0.412 0.499,-0.4 0.499,-0.384C0.499,-0.353 0.513,-0.325 0.548,-0.325C0.589,-0.325 0.595,-0.359 0.595,-0.392C0.595,-0.436 0.584,-0.469 0.552,-0.501C0.526,-0.527 0.495,-0.539 0.458,-0.539L0.381,-0.539C0.351,-0.539 0.323,-0.52 0.296,-0.498L0.221,-0.436L0.221,-0.475C0.221,-0.507 0.211,-0.539 0.173,-0.539C0.129,-0.539 0.125,-0.503 0.125,-0.468L0.125,-0.066Z" style="fill-rule:nonzero;"/>
                    </g>
                    <g transform="matrix(10,0,0,10,291.671,722.162)">
                        <path d="M0.481,-0.696C0.457,-0.743 0.416,-0.778 0.36,-0.778C0.304,-0.778 0.263,-0.743 0.239,-0.696L0.139,-0.497C0.12,-0.458 0.113,-0.429 0.113,-0.386C0.113,-0.338 0.126,-0.308 0.146,-0.267L0.238,-0.083C0.262,-0.035 0.302,0 0.36,0C0.418,0 0.458,-0.035 0.482,-0.083L0.574,-0.267C0.594,-0.308 0.607,-0.338 0.607,-0.386C0.607,-0.429 0.6,-0.458 0.581,-0.497L0.481,-0.696ZM0.484,-0.467C0.499,-0.438 0.507,-0.419 0.507,-0.386C0.507,-0.36 0.501,-0.342 0.49,-0.32L0.394,-0.13C0.387,-0.116 0.38,-0.1 0.36,-0.1C0.34,-0.1 0.333,-0.116 0.326,-0.13L0.23,-0.32C0.219,-0.342 0.213,-0.36 0.213,-0.386C0.213,-0.419 0.221,-0.438 0.236,-0.467L0.326,-0.648C0.334,-0.664 0.339,-0.678 0.36,-0.678C0.381,-0.678 0.386,-0.664 0.394,-0.648L0.484,-0.467Z" style="fill-rule:nonzero;"/>
                    </g>
                    <g transform="matrix(10,0,0,10,298.871,722.162)">
                        <path d="M0.595,-0.473C0.595,-0.506 0.588,-0.539 0.547,-0.539C0.506,-0.539 0.499,-0.506 0.499,-0.473L0.499,-0.194L0.358,-0.105C0.349,-0.099 0.339,-0.096 0.328,-0.096L0.296,-0.096C0.273,-0.096 0.248,-0.102 0.24,-0.116C0.232,-0.13 0.231,-0.156 0.23,-0.178L0.22,-0.473C0.219,-0.504 0.214,-0.539 0.173,-0.539C0.129,-0.539 0.124,-0.502 0.125,-0.467L0.135,-0.165C0.137,-0.113 0.136,-0.072 0.179,-0.035C0.211,-0.008 0.241,0 0.268,0L0.339,0C0.365,0 0.391,-0.012 0.422,-0.032L0.5,-0.083L0.5,-0.067C0.5,-0.034 0.507,0 0.548,0C0.599,0 0.595,-0.049 0.595,-0.071L0.595,-0.473Z" style="fill-rule:nonzero;"/>
                    </g>
                    <g transform="matrix(10,0,0,10,306.071,722.162)">
                        <path d="M0.318,-0.443L0.479,-0.443C0.507,-0.443 0.545,-0.449 0.545,-0.491C0.545,-0.532 0.511,-0.539 0.479,-0.539L0.318,-0.539L0.318,-0.637C0.318,-0.67 0.311,-0.703 0.27,-0.703C0.229,-0.703 0.222,-0.67 0.222,-0.637L0.222,-0.539L0.191,-0.539C0.159,-0.539 0.125,-0.532 0.125,-0.491C0.125,-0.449 0.163,-0.443 0.191,-0.443L0.222,-0.443L0.222,-0.182C0.222,-0.13 0.22,-0.089 0.257,-0.048C0.291,-0.011 0.333,0 0.381,0L0.43,0C0.481,0 0.527,-0.007 0.562,-0.049C0.578,-0.068 0.595,-0.102 0.595,-0.129C0.595,-0.156 0.573,-0.177 0.546,-0.177C0.522,-0.177 0.504,-0.161 0.498,-0.138C0.488,-0.099 0.47,-0.096 0.431,-0.096L0.382,-0.096C0.316,-0.096 0.318,-0.127 0.318,-0.181L0.318,-0.443Z" style="fill-rule:nonzero;"/>
                    </g>
                    <g transform="matrix(10,0,0,10,313.271,722.162)">
                        <path d="M0.595,-0.311C0.595,-0.379 0.59,-0.406 0.534,-0.45L0.476,-0.495C0.45,-0.515 0.419,-0.539 0.396,-0.539L0.33,-0.539C0.303,-0.539 0.265,-0.503 0.24,-0.481L0.221,-0.464L0.221,-0.476C0.221,-0.508 0.212,-0.539 0.173,-0.539C0.129,-0.539 0.125,-0.502 0.125,-0.468L0.125,0.138C0.125,0.171 0.132,0.204 0.173,0.204C0.214,0.204 0.221,0.171 0.221,0.138L0.221,-0.055L0.24,-0.037C0.271,-0.008 0.291,0.02 0.334,0.02L0.399,0.02C0.425,0.02 0.456,-0.007 0.476,-0.023L0.534,-0.069C0.59,-0.113 0.595,-0.139 0.595,-0.208L0.595,-0.311ZM0.499,-0.195C0.499,-0.177 0.494,-0.166 0.479,-0.153L0.407,-0.093C0.398,-0.085 0.387,-0.076 0.374,-0.076L0.349,-0.076C0.337,-0.076 0.322,-0.089 0.308,-0.103L0.235,-0.172C0.225,-0.181 0.221,-0.199 0.221,-0.213L0.221,-0.307C0.221,-0.328 0.228,-0.339 0.248,-0.358L0.308,-0.415C0.318,-0.425 0.335,-0.443 0.349,-0.443L0.374,-0.443C0.387,-0.443 0.398,-0.434 0.407,-0.426L0.479,-0.366C0.494,-0.353 0.499,-0.342 0.499,-0.324L0.499,-0.195Z" style="fill-rule:nonzero;"/>
                    </g>
                    <g transform="matrix(10,0,0,10,320.471,722.162)">
                        <path d="M0.595,-0.473C0.595,-0.506 0.588,-0.539 0.547,-0.539C0.506,-0.539 0.499,-0.506 0.499,-0.473L0.499,-0.194L0.358,-0.105C0.349,-0.099 0.339,-0.096 0.328,-0.096L0.296,-0.096C0.273,-0.096 0.248,-0.102 0.24,-0.116C0.232,-0.13 0.231,-0.156 0.23,-0.178L0.22,-0.473C0.219,-0.504 0.214,-0.539 0.173,-0.539C0.129,-0.539 0.124,-0.502 0.125,-0.467L0.135,-0.165C0.137,-0.113 0.136,-0.072 0.179,-0.035C0.211,-0.008 0.241,0 0.268,0L0.339,0C0.365,0 0.391,-0.012 0.422,-0.032L0.5,-0.083L0.5,-0.067C0.5,-0.034 0.507,0 0.548,0C0.599,0 0.595,-0.049 0.595,-0.071L0.595,-0.473Z" style="fill-rule:nonzero;"/>
                    </g>
                    <g transform="matrix(10,0,0,10,327.671,722.162)">
                        <path d="M0.318,-0.443L0.479,-0.443C0.507,-0.443 0.545,-0.449 0.545,-0.491C0.545,-0.532 0.511,-0.539 0.479,-0.539L0.318,-0.539L0.318,-0.637C0.318,-0.67 0.311,-0.703 0.27,-0.703C0.229,-0.703 0.222,-0.67 0.222,-0.637L0.222,-0.539L0.191,-0.539C0.159,-0.539 0.125,-0.532 0.125,-0.491C0.125,-0.449 0.163,-0.443 0.191,-0.443L0.222,-0.443L0.222,-0.182C0.222,-0.13 0.22,-0.089 0.257,-0.048C0.291,-0.011 0.333,0 0.381,0L0.43,0C0.481,0 0.527,-0.007 0.562,-0.049C0.578,-0.068 0.595,-0.102 0.595,-0.129C0.595,-0.156 0.573,-0.177 0.546,-0.177C0.522,-0.177 0.504,-0.161 0.498,-0.138C0.488,-0.099 0.47,-0.096 0.431,-0.096L0.382,-0.096C0.316,-0.096 0.318,-0.127 0.318,-0.181L0.318,-0.443Z" style="fill-rule:nonzero;"/>
                    </g>
                    <g transform="matrix(10,0,0,10,334.871,722.162)">
                        <path d="M0.435,-0.443C0.461,-0.443 0.478,-0.441 0.494,-0.424C0.506,-0.411 0.517,-0.404 0.535,-0.404C0.561,-0.404 0.584,-0.425 0.584,-0.452C0.584,-0.479 0.564,-0.491 0.546,-0.506C0.51,-0.536 0.488,-0.539 0.435,-0.539L0.271,-0.539C0.199,-0.539 0.139,-0.493 0.139,-0.417C0.139,-0.355 0.17,-0.324 0.223,-0.3L0.449,-0.197C0.471,-0.187 0.499,-0.172 0.499,-0.149C0.499,-0.093 0.453,-0.096 0.419,-0.096L0.289,-0.096C0.259,-0.096 0.229,-0.098 0.212,-0.117C0.201,-0.129 0.19,-0.134 0.175,-0.134C0.148,-0.134 0.125,-0.113 0.125,-0.086C0.125,-0.062 0.151,-0.044 0.169,-0.03C0.205,-0.002 0.239,0 0.289,0L0.437,0C0.529,0 0.595,-0.046 0.595,-0.143C0.595,-0.212 0.563,-0.251 0.501,-0.279L0.261,-0.388C0.247,-0.394 0.235,-0.4 0.235,-0.416C0.235,-0.447 0.269,-0.443 0.289,-0.443L0.435,-0.443Z" style="fill-rule:nonzero;"/>
                    </g>
                </g>
                <g transform="matrix(1,0,0,1,-610.166,36.3592)">
                    <g transform="matrix(10,0,0,10,298.871,710.162)">
                        <path d="M0.213,-0.1L0.213,-0.728C0.213,-0.76 0.199,-0.778 0.163,-0.778C0.127,-0.778 0.113,-0.76 0.113,-0.728L0.113,0L0.557,0C0.583,0 0.607,-0.014 0.607,-0.05C0.607,-0.086 0.583,-0.1 0.557,-0.1L0.213,-0.1Z" style="fill-rule:nonzero;"/>
                    </g>
                    <g transform="matrix(10,0,0,10,306.071,710.162)">
                        <path d="M0.41,-0.472C0.41,-0.529 0.394,-0.539 0.339,-0.539L0.238,-0.539C0.206,-0.539 0.172,-0.532 0.172,-0.491C0.172,-0.449 0.21,-0.443 0.238,-0.443L0.314,-0.443L0.314,-0.096L0.238,-0.096C0.206,-0.096 0.172,-0.089 0.172,-0.048C0.172,-0.006 0.21,0 0.238,0L0.482,0C0.51,0 0.548,-0.006 0.548,-0.048C0.548,-0.089 0.514,-0.096 0.482,-0.096L0.41,-0.096L0.41,-0.472ZM0.265,-0.687C0.265,-0.653 0.284,-0.642 0.31,-0.642L0.365,-0.642C0.391,-0.642 0.41,-0.653 0.41,-0.687L0.41,-0.733C0.41,-0.767 0.391,-0.778 0.365,-0.778L0.31,-0.778C0.284,-0.778 0.265,-0.767 0.265,-0.733L0.265,-0.687Z" style="fill-rule:nonzero;"/>
                    </g>
                    <g transform="matrix(10,0,0,10,313.271,710.162)">
                        <path d="M0.428,-0.4C0.436,-0.409 0.454,-0.433 0.468,-0.433C0.494,-0.433 0.489,-0.399 0.49,-0.382L0.5,-0.065C0.501,-0.033 0.509,0 0.548,0C0.591,0 0.596,-0.038 0.595,-0.072L0.585,-0.404C0.584,-0.441 0.586,-0.469 0.562,-0.5C0.543,-0.525 0.514,-0.539 0.482,-0.539C0.44,-0.539 0.428,-0.529 0.398,-0.499L0.39,-0.491C0.368,-0.521 0.339,-0.539 0.302,-0.539C0.269,-0.539 0.254,-0.526 0.229,-0.507L0.221,-0.501C0.215,-0.523 0.199,-0.539 0.175,-0.539C0.134,-0.539 0.125,-0.505 0.125,-0.471L0.125,-0.066C0.125,-0.033 0.132,0 0.173,0C0.214,0 0.221,-0.033 0.221,-0.066L0.221,-0.378L0.263,-0.417C0.271,-0.424 0.278,-0.433 0.289,-0.433C0.314,-0.433 0.312,-0.403 0.312,-0.387L0.312,-0.066C0.312,-0.033 0.319,0 0.36,0C0.401,0 0.408,-0.033 0.408,-0.066L0.408,-0.378L0.428,-0.4Z" style="fill-rule:nonzero;"/>
                    </g>
                    <g transform="matrix(10,0,0,10,320.471,710.162)">
                        <path d="M0.41,-0.472C0.41,-0.529 0.394,-0.539 0.339,-0.539L0.238,-0.539C0.206,-0.539 0.172,-0.532 0.172,-0.491C0.172,-0.449 0.21,-0.443 0.238,-0.443L0.314,-0.443L0.314,-0.096L0.238,-0.096C0.206,-0.096 0.172,-0.089 0.172,-0.048C0.172,-0.006 0.21,0 0.238,0L0.482,0C0.51,0 0.548,-0.006 0.548,-0.048C0.548,-0.089 0.514,-0.096 0.482,-0.096L0.41,-0.096L0.41,-0.472ZM0.265,-0.687C0.265,-0.653 0.284,-0.642 0.31,-0.642L0.365,-0.642C0.391,-0.642 0.41,-0.653 0.41,-0.687L0.41,-0.733C0.41,-0.767 0.391,-0.778 0.365,-0.778L0.31,-0.778C0.284,-0.778 0.265,-0.767 0.265,-0.733L0.265,-0.687Z" style="fill-rule:nonzero;"/>
                    </g>
                    <g transform="matrix(10,0,0,10,327.671,710.162)">
                        <path d="M0.318,-0.443L0.479,-0.443C0.507,-0.443 0.545,-0.449 0.545,-0.491C0.545,-0.532 0.511,-0.539 0.479,-0.539L0.318,-0.539L0.318,-0.637C0.318,-0.67 0.311,-0.703 0.27,-0.703C0.229,-0.703 0.222,-0.67 0.222,-0.637L0.222,-0.539L0.191,-0.539C0.159,-0.539 0.125,-0.532 0.125,-0.491C0.125,-0.449 0.163,-0.443 0.191,-0.443L0.222,-0.443L0.222,-0.182C0.222,-0.13 0.22,-0.089 0.257,-0.048C0.291,-0.011 0.333,0 0.381,0L0.43,0C0.481,0 0.527,-0.007 0.562,-0.049C0.578,-0.068 0.595,-0.102 0.595,-0.129C0.595,-0.156 0.573,-0.177 0.546,-0.177C0.522,-0.177 0.504,-0.161 0.498,-0.138C0.488,-0.099 0.47,-0.096 0.431,-0.096L0.382,-0.096C0.316,-0.096 0.318,-0.127 0.318,-0.181L0.318,-0.443Z" style="fill-rule:nonzero;"/>
                    </g>
                    <g transform="matrix(10,0,0,10,288.071,722.162)">
                        <path d="M0.228,-0.637C0.224,-0.643 0.213,-0.655 0.213,-0.664C0.213,-0.681 0.236,-0.678 0.247,-0.678L0.459,-0.678C0.49,-0.678 0.507,-0.673 0.507,-0.639C0.507,-0.611 0.525,-0.592 0.555,-0.592C0.591,-0.592 0.607,-0.618 0.607,-0.65C0.607,-0.685 0.586,-0.722 0.56,-0.745C0.531,-0.77 0.499,-0.778 0.461,-0.778L0.249,-0.778C0.217,-0.778 0.194,-0.778 0.166,-0.76C0.132,-0.738 0.113,-0.704 0.113,-0.664C0.113,-0.629 0.125,-0.609 0.146,-0.582L0.489,-0.141C0.493,-0.135 0.507,-0.12 0.507,-0.112C0.507,-0.097 0.482,-0.1 0.474,-0.1L0.257,-0.1C0.229,-0.1 0.213,-0.104 0.213,-0.134C0.213,-0.161 0.195,-0.185 0.166,-0.185C0.131,-0.185 0.113,-0.157 0.113,-0.125C0.113,-0.09 0.133,-0.054 0.16,-0.032C0.19,-0.007 0.223,0 0.261,0L0.481,0C0.55,0 0.607,-0.038 0.607,-0.113C0.607,-0.147 0.592,-0.17 0.572,-0.196L0.228,-0.637Z" style="fill-rule:nonzero;"/>
                    </g>
                    <g transform="matrix(10,0,0,10,295.271,722.162)">
                        <path d="M0.408,-0.31C0.408,-0.343 0.401,-0.377 0.36,-0.377C0.319,-0.377 0.312,-0.343 0.312,-0.31L0.312,-0.222L0.26,-0.133L0.23,-0.222L0.22,-0.47C0.219,-0.503 0.213,-0.539 0.172,-0.539C0.13,-0.539 0.124,-0.503 0.125,-0.47L0.135,-0.203L0.182,-0.061C0.192,-0.032 0.197,0 0.231,0L0.268,0C0.285,0 0.299,-0.018 0.308,-0.031L0.36,-0.109L0.412,-0.031C0.421,-0.018 0.435,0 0.452,0L0.489,0C0.523,0 0.528,-0.032 0.538,-0.061L0.585,-0.203L0.595,-0.47C0.596,-0.503 0.59,-0.539 0.548,-0.539C0.507,-0.539 0.501,-0.503 0.5,-0.47L0.49,-0.222L0.46,-0.133L0.408,-0.222L0.408,-0.31Z" style="fill-rule:nonzero;"/>
                    </g>
                    <g transform="matrix(10,0,0,10,302.471,722.162)">
                        <path d="M0.41,-0.472C0.41,-0.529 0.394,-0.539 0.339,-0.539L0.238,-0.539C0.206,-0.539 0.172,-0.532 0.172,-0.491C0.172,-0.449 0.21,-0.443 0.238,-0.443L0.314,-0.443L0.314,-0.096L0.238,-0.096C0.206,-0.096 0.172,-0.089 0.172,-0.048C0.172,-0.006 0.21,0 0.238,0L0.482,0C0.51,0 0.548,-0.006 0.548,-0.048C0.548,-0.089 0.514,-0.096 0.482,-0.096L0.41,-0.096L0.41,-0.472ZM0.265,-0.687C0.265,-0.653 0.284,-0.642 0.31,-0.642L0.365,-0.642C0.391,-0.642 0.41,-0.653 0.41,-0.687L0.41,-0.733C0.41,-0.767 0.391,-0.778 0.365,-0.778L0.31,-0.778C0.284,-0.778 0.265,-0.767 0.265,-0.733L0.265,-0.687Z" style="fill-rule:nonzero;"/>
                    </g>
                    <g transform="matrix(10,0,0,10,309.671,722.162)">
                        <path d="M0.318,-0.443L0.479,-0.443C0.507,-0.443 0.545,-0.449 0.545,-0.491C0.545,-0.532 0.511,-0.539 0.479,-0.539L0.318,-0.539L0.318,-0.637C0.318,-0.67 0.311,-0.703 0.27,-0.703C0.229,-0.703 0.222,-0.67 0.222,-0.637L0.222,-0.539L0.191,-0.539C0.159,-0.539 0.125,-0.532 0.125,-0.491C0.125,-0.449 0.163,-0.443 0.191,-0.443L0.222,-0.443L0.222,-0.182C0.222,-0.13 0.22,-0.089 0.257,-0.048C0.291,-0.011 0.333,0 0.381,0L0.43,0C0.481,0 0.527,-0.007 0.562,-0.049C0.578,-0.068 0.595,-0.102 0.595,-0.129C0.595,-0.156 0.573,-0.177 0.546,-0.177C0.522,-0.177 0.504,-0.161 0.498,-0.138C0.488,-0.099 0.47,-0.096 0.431,-0.096L0.382,-0.096C0.316,-0.096 0.318,-0.127 0.318,-0.181L0.318,-0.443Z" style="fill-rule:nonzero;"/>
                    </g>
                    <g transform="matrix(10,0,0,10,316.871,722.162)">
                        <path d="M0.125,-0.223C0.125,-0.164 0.136,-0.135 0.182,-0.097L0.253,-0.038C0.298,-0.001 0.321,0 0.377,0L0.529,0C0.561,0 0.595,-0.007 0.595,-0.048C0.595,-0.09 0.557,-0.096 0.529,-0.096L0.36,-0.096C0.341,-0.096 0.322,-0.106 0.305,-0.12L0.247,-0.169C0.232,-0.181 0.221,-0.191 0.221,-0.21L0.221,-0.329C0.221,-0.348 0.232,-0.358 0.247,-0.37L0.305,-0.419C0.322,-0.433 0.341,-0.443 0.36,-0.443L0.529,-0.443C0.557,-0.443 0.595,-0.449 0.595,-0.491C0.595,-0.532 0.561,-0.539 0.529,-0.539L0.377,-0.539C0.321,-0.539 0.298,-0.538 0.253,-0.501L0.182,-0.442C0.136,-0.404 0.125,-0.375 0.125,-0.316L0.125,-0.223Z" style="fill-rule:nonzero;"/>
                    </g>
                    <g transform="matrix(10,0,0,10,324.071,722.162)">
                        <path d="M0.437,-0.443C0.491,-0.443 0.488,-0.407 0.49,-0.361L0.5,-0.065C0.501,-0.033 0.509,0 0.548,0C0.591,0 0.596,-0.038 0.595,-0.072L0.585,-0.374C0.583,-0.426 0.585,-0.467 0.542,-0.504C0.502,-0.539 0.468,-0.539 0.449,-0.539L0.385,-0.539C0.353,-0.539 0.324,-0.523 0.299,-0.507L0.221,-0.456L0.221,-0.671C0.221,-0.704 0.214,-0.737 0.173,-0.737C0.132,-0.737 0.125,-0.704 0.125,-0.671L0.125,-0.066C0.125,-0.033 0.132,0 0.173,0C0.214,0 0.221,-0.033 0.221,-0.066L0.221,-0.345L0.363,-0.434C0.373,-0.44 0.383,-0.443 0.393,-0.443L0.437,-0.443Z" style="fill-rule:nonzero;"/>
                    </g>
                    <g transform="matrix(10,0,0,10,331.271,722.162)">
                        <path d="M0.529,0C0.557,0 0.595,-0.006 0.595,-0.048C0.595,-0.089 0.561,-0.096 0.529,-0.096L0.323,-0.096C0.291,-0.096 0.272,-0.1 0.259,-0.114L0.235,-0.14C0.228,-0.147 0.221,-0.159 0.221,-0.168L0.221,-0.2L0.529,-0.2C0.586,-0.2 0.595,-0.216 0.595,-0.271L0.595,-0.348C0.595,-0.401 0.589,-0.438 0.545,-0.473L0.506,-0.504C0.469,-0.534 0.447,-0.539 0.4,-0.539L0.312,-0.539C0.273,-0.539 0.251,-0.538 0.206,-0.499L0.172,-0.47C0.132,-0.436 0.125,-0.406 0.125,-0.355L0.125,-0.17C0.125,-0.118 0.136,-0.096 0.174,-0.062L0.215,-0.026C0.245,0 0.261,0 0.301,0L0.529,0ZM0.221,-0.364C0.221,-0.392 0.229,-0.399 0.241,-0.408L0.274,-0.432C0.29,-0.443 0.305,-0.443 0.323,-0.443L0.404,-0.443C0.419,-0.443 0.438,-0.442 0.45,-0.431L0.487,-0.399C0.5,-0.387 0.499,-0.372 0.499,-0.354L0.499,-0.296L0.221,-0.296L0.221,-0.364Z" style="fill-rule:nonzero;"/>
                    </g>
                    <g transform="matrix(10,0,0,10,338.471,722.162)">
                        <path d="M0.435,-0.443C0.461,-0.443 0.478,-0.441 0.494,-0.424C0.506,-0.411 0.517,-0.404 0.535,-0.404C0.561,-0.404 0.584,-0.425 0.584,-0.452C0.584,-0.479 0.564,-0.491 0.546,-0.506C0.51,-0.536 0.488,-0.539 0.435,-0.539L0.271,-0.539C0.199,-0.539 0.139,-0.493 0.139,-0.417C0.139,-0.355 0.17,-0.324 0.223,-0.3L0.449,-0.197C0.471,-0.187 0.499,-0.172 0.499,-0.149C0.499,-0.093 0.453,-0.096 0.419,-0.096L0.289,-0.096C0.259,-0.096 0.229,-0.098 0.212,-0.117C0.201,-0.129 0.19,-0.134 0.175,-0.134C0.148,-0.134 0.125,-0.113 0.125,-0.086C0.125,-0.062 0.151,-0.044 0.169,-0.03C0.205,-0.002 0.239,0 0.289,0L0.437,0C0.529,0 0.595,-0.046 0.595,-0.143C0.595,-0.212 0.563,-0.251 0.501,-0.279L0.261,-0.388C0.247,-0.394 0.235,-0.4 0.235,-0.416C0.235,-0.447 0.269,-0.443 0.289,-0.443L0.435,-0.443Z" style="fill-rule:nonzero;"/>
                    </g>
                </g>
            </g>
        </g>
        <g id="long-side-1" serif:id="long side 1" transform="matrix(6.12323e-17,1,-1,6.12323e-17,1053.21,998.543)">
            <path d="M-417.429,731.703C-385.376,728.758 -349.193,726.948 -310.751,726.589L-310.751,718.085L-282.405,718.085L-282.405,726.589C-243.659,726.95 -207.211,728.787 -174.972,731.773L-175.363,786.528L-175.362,786.527L-173.142,786.672L-170.96,787.106L-168.853,787.822L-166.858,788.805L-165.008,790.041L-163.336,791.508L-161.869,793.181L-160.633,795.031L-159.649,797.026L-158.934,799.133L-158.5,801.315L-158.354,803.535L-158.354,820.543L-158.427,821.653L-158.644,822.744L-159.001,823.797L-159.493,824.795L-160.111,825.719L-160.845,826.556L-161.681,827.289L-162.606,827.907L-163.604,828.399L-164.657,828.757L-165.748,828.974L-166.858,829.046L-166.858,820.543L-166.955,819.808L-167.074,819.457L-167.238,819.124L-167.444,818.816L-167.688,818.537L-167.967,818.293L-168.275,818.087L-168.608,817.922L-168.959,817.803L-169.693,817.707L-172.402,817.707L-174.076,818.052L-174.462,818.243L-174.827,818.471L-175.166,818.736L-175.477,819.033L-175.756,819.361L-176,819.715L-176.374,820.488L-179.489,829.045L-414.448,829.043L-417.605,820.368L-417.765,819.989L-417.964,819.627L-418.197,819.288L-418.464,818.975L-418.762,818.69L-419.087,818.437L-419.436,818.218L-419.806,818.035L-420.192,817.892L-420.59,817.788L-420.998,817.725L-421.409,817.706L-424.244,817.706L-424.614,817.731L-424.977,817.803L-425.328,817.922L-425.661,818.086L-425.969,818.293L-426.248,818.537L-426.493,818.816L-426.699,819.124L-426.863,819.457L-426.982,819.808L-427.054,820.171L-427.08,820.541L-427.08,829.045L-430.654,828.997L-431.382,828.852L-432.084,828.614L-432.749,828.286L-433.366,827.874L-433.923,827.385L-434.412,826.827L-434.824,826.211L-435.152,825.546L-435.391,824.844L-435.535,824.116L-435.584,823.376L-435.584,803.534L-435.438,801.314L-435.004,799.132L-434.289,797.025L-433.305,795.03L-432.069,793.18L-430.602,791.507L-428.93,790.04L-427.08,788.804L-425.084,787.82L-422.978,787.105L-420.796,786.526L-418.576,786.526L-418.185,731.773L-417.429,731.703ZM-333.725,811.753L-333.725,820.824L-362.071,820.824L-362.071,811.753L-333.725,811.753ZM-260.213,820.824L-260.213,811.753L-231.866,811.753L-231.866,820.824L-260.213,820.824ZM-210.798,766.895C-210.798,766.308 -211.274,765.832 -211.861,765.832C-216.335,765.832 -233.608,765.832 -238.082,765.832C-238.669,765.832 -239.145,766.308 -239.145,766.895C-239.145,771.971 -239.145,793.708 -239.145,798.784C-239.145,799.371 -238.669,799.847 -238.082,799.847C-233.608,799.847 -216.335,799.847 -211.861,799.847C-211.274,799.847 -210.798,799.371 -210.798,798.784C-210.798,793.708 -210.798,771.971 -210.798,766.895ZM-259.186,762.643C-259.186,762.361 -259.298,762.09 -259.497,761.891C-259.697,761.692 -259.967,761.58 -260.249,761.58C-266.52,761.58 -298.623,761.58 -304.895,761.58C-305.176,761.58 -305.447,761.692 -305.646,761.891C-305.846,762.09 -305.958,762.361 -305.958,762.643C-305.958,768.139 -305.958,793.288 -305.958,798.784C-305.958,799.066 -305.846,799.337 -305.646,799.536C-305.447,799.735 -305.176,799.847 -304.895,799.847C-298.623,799.847 -266.52,799.847 -260.249,799.847C-259.967,799.847 -259.697,799.735 -259.497,799.536C-259.298,799.337 -259.186,799.066 -259.186,798.784C-259.186,793.288 -259.186,768.139 -259.186,762.643ZM-344.048,745.635C-344.048,745.353 -344.16,745.082 -344.359,744.883C-344.558,744.684 -344.829,744.572 -345.111,744.572C-350.469,744.572 -374.476,744.572 -379.835,744.572C-380.117,744.572 -380.387,744.684 -380.587,744.883C-380.786,745.082 -380.898,745.353 -380.898,745.635C-380.898,750.109 -380.898,767.381 -380.898,771.855C-380.898,772.137 -380.786,772.408 -380.587,772.607C-380.387,772.806 -380.117,772.918 -379.835,772.918C-374.476,772.918 -350.469,772.918 -345.111,772.918C-344.829,772.918 -344.558,772.806 -344.359,772.607C-344.16,772.408 -344.048,772.137 -344.048,771.855C-344.048,767.381 -344.048,750.109 -344.048,745.635Z" style="fill:none;stroke:black;stroke-width:1px;"/>
            <g>
                <g id="path6005" transform="matrix(0.980982,0,0,0.980982,-1361.42,547.769)">
                    <path d="M1183.89,243.166C1183.31,243.131 1182.76,243.014 1182.26,242.815C1181.64,242.573 1181.11,242.239 1180.66,241.815C1180.22,241.385 1179.87,240.879 1179.63,240.296C1179.38,239.708 1179.25,239.071 1179.25,238.385C1179.25,238.153 1179.26,237.918 1179.29,237.681C1179.32,237.444 1179.36,237.212 1179.4,236.985C1179.45,236.758 1179.5,236.543 1179.57,236.34C1179.63,236.133 1179.69,235.945 1179.77,235.777L1181.07,235.777C1181,235.95 1180.92,236.143 1180.85,236.355C1180.78,236.567 1180.71,236.787 1180.66,237.014C1180.6,237.242 1180.55,237.474 1180.52,237.711C1180.48,237.948 1180.46,238.177 1180.46,238.4C1180.46,238.864 1180.56,239.296 1180.74,239.696C1180.92,240.091 1181.17,240.434 1181.5,240.726C1181.83,241.017 1182.23,241.247 1182.7,241.415C1183.17,241.583 1183.7,241.667 1184.28,241.667L1184.28,241.667C1184.81,241.667 1185.31,241.59 1185.75,241.437C1186.19,241.279 1186.57,241.059 1186.88,240.778C1187.2,240.491 1187.44,240.15 1187.62,239.755C1187.79,239.355 1187.88,238.913 1187.88,238.429C1187.88,237.98 1187.82,237.535 1187.7,237.096C1187.58,236.651 1187.41,236.227 1187.19,235.822L1188.5,235.822C1188.7,236.192 1188.85,236.607 1188.95,237.066C1189.05,237.525 1189.1,238.027 1189.1,238.57C1189.1,239.247 1188.98,239.869 1188.75,240.437C1188.51,241 1188.18,241.486 1187.75,241.896C1187.33,242.301 1186.82,242.617 1186.23,242.844C1185.81,243.003 1185.35,243.105 1184.87,243.151L1184.91,245.71C1185.9,245.756 1186.75,245.984 1187.48,246.393C1188.29,246.854 1188.92,247.506 1189.37,248.349C1189.82,249.188 1190.05,250.183 1190.05,251.336C1190.05,253.037 1189.56,254.401 1188.58,255.429C1187.6,256.453 1186.25,256.965 1184.53,256.965C1183.39,256.965 1182.42,256.739 1181.61,256.285C1180.8,255.832 1180.17,255.183 1179.7,254.341C1179.24,253.498 1179.01,252.496 1179.01,251.336C1179.01,249.639 1179.51,248.277 1180.49,247.249C1181.36,246.34 1182.5,245.832 1183.93,245.723L1183.89,243.166ZM1188.88,251.336C1188.88,249.908 1188.49,248.753 1187.72,247.872C1186.94,246.992 1185.88,246.552 1184.53,246.552C1183.16,246.552 1182.1,246.994 1181.34,247.878C1180.57,248.762 1180.19,249.915 1180.19,251.336C1180.19,252.746 1180.58,253.895 1181.35,254.783C1182.13,255.671 1183.19,256.115 1184.53,256.115C1185.41,256.115 1186.17,255.922 1186.8,255.537C1187.44,255.148 1187.94,254.592 1188.32,253.87C1188.69,253.145 1188.88,252.3 1188.88,251.336ZM1180.97,250.754L1188.06,250.754L1188.06,252.101L1180.97,252.101L1180.97,250.754ZM1183.58,233.539C1182.65,233.482 1181.85,233.26 1181.15,232.874C1180.35,232.421 1179.71,231.772 1179.25,230.93C1178.79,230.087 1178.56,229.085 1178.56,227.925C1178.56,226.228 1179.05,224.866 1180.04,223.838C1181.02,222.806 1182.37,222.29 1184.08,222.29C1185.23,222.29 1186.21,222.521 1187.03,222.982C1187.84,223.443 1188.47,224.095 1188.92,224.938C1189.37,225.777 1189.6,226.772 1189.6,227.925C1189.6,229.626 1189.11,230.99 1188.13,232.018C1187.24,232.945 1186.05,233.452 1184.56,233.54L1184.6,236.21C1185.6,236.397 1186.3,237.282 1186.3,238.291C1186.3,239.428 1185.41,240.407 1184.2,240.407C1183,240.407 1182.1,239.428 1182.1,238.291C1182.1,237.347 1182.72,236.511 1183.62,236.255L1183.58,233.539ZM1188.43,227.925C1188.43,226.497 1188.04,225.342 1187.27,224.461C1186.49,223.581 1185.43,223.141 1184.08,223.141C1182.71,223.141 1181.65,223.583 1180.88,224.467C1180.12,225.351 1179.74,226.504 1179.74,227.925C1179.74,229.335 1180.12,230.484 1180.9,231.372C1181.68,232.26 1182.74,232.704 1184.08,232.704C1184.96,232.704 1185.72,232.511 1186.35,232.126C1186.99,231.736 1187.49,231.181 1187.86,230.459C1188.24,229.733 1188.43,228.889 1188.43,227.925ZM1184.71,224.192L1184.71,227.343L1187.87,227.343L1187.87,228.69L1184.71,228.69L1184.71,231.841L1183.38,231.841L1183.38,228.69L1180.22,228.69L1180.22,227.343L1183.38,227.343L1183.38,224.192L1184.71,224.192Z" style="fill-rule:nonzero;"/>
                </g>
                <g transform="matrix(1,0,0,1,-679.343,76.2045)">
                    <g transform="matrix(10,0,0,10,306.071,710.162)">
                        <path d="M0.445,0C0.495,0 0.534,-0.012 0.569,-0.051C0.602,-0.088 0.607,-0.124 0.607,-0.17L0.607,-0.728C0.607,-0.76 0.593,-0.778 0.557,-0.778C0.521,-0.778 0.507,-0.76 0.507,-0.728L0.507,-0.17C0.507,-0.114 0.49,-0.1 0.445,-0.1L0.275,-0.1C0.23,-0.1 0.213,-0.114 0.213,-0.17L0.213,-0.728C0.213,-0.76 0.199,-0.778 0.163,-0.778C0.127,-0.778 0.113,-0.76 0.113,-0.728L0.113,-0.17C0.113,-0.124 0.118,-0.088 0.151,-0.051C0.186,-0.012 0.225,0 0.275,0L0.445,0Z" style="fill-rule:nonzero;"/>
                    </g>
                    <g transform="matrix(10,0,0,10,313.271,710.162)">
                        <path d="M0.228,-0.637C0.224,-0.643 0.213,-0.655 0.213,-0.664C0.213,-0.681 0.236,-0.678 0.247,-0.678L0.459,-0.678C0.49,-0.678 0.507,-0.673 0.507,-0.639C0.507,-0.611 0.525,-0.592 0.555,-0.592C0.591,-0.592 0.607,-0.618 0.607,-0.65C0.607,-0.685 0.586,-0.722 0.56,-0.745C0.531,-0.77 0.499,-0.778 0.461,-0.778L0.249,-0.778C0.217,-0.778 0.194,-0.778 0.166,-0.76C0.132,-0.738 0.113,-0.704 0.113,-0.664C0.113,-0.629 0.125,-0.609 0.146,-0.582L0.489,-0.141C0.493,-0.135 0.507,-0.12 0.507,-0.112C0.507,-0.097 0.482,-0.1 0.474,-0.1L0.257,-0.1C0.229,-0.1 0.213,-0.104 0.213,-0.134C0.213,-0.161 0.195,-0.185 0.166,-0.185C0.131,-0.185 0.113,-0.157 0.113,-0.125C0.113,-0.09 0.133,-0.054 0.16,-0.032C0.19,-0.007 0.223,0 0.261,0L0.481,0C0.55,0 0.607,-0.038 0.607,-0.113C0.607,-0.147 0.592,-0.17 0.572,-0.196L0.228,-0.637Z" style="fill-rule:nonzero;"/>
                    </g>
                    <g transform="matrix(10,0,0,10,320.471,710.162)">
                        <path d="M0.113,0L0.393,0C0.52,0 0.607,-0.077 0.607,-0.208C0.607,-0.282 0.598,-0.335 0.541,-0.389C0.594,-0.436 0.607,-0.489 0.607,-0.547C0.607,-0.688 0.54,-0.778 0.393,-0.778L0.113,-0.778L0.113,0ZM0.213,-0.339L0.393,-0.339C0.484,-0.339 0.507,-0.292 0.507,-0.208C0.507,-0.132 0.465,-0.1 0.393,-0.1L0.213,-0.1L0.213,-0.339ZM0.213,-0.678L0.393,-0.678C0.484,-0.678 0.507,-0.631 0.507,-0.547C0.507,-0.471 0.465,-0.439 0.393,-0.439L0.213,-0.439L0.213,-0.678Z" style="fill-rule:nonzero;"/>
                    </g>
                </g>
                <g transform="matrix(1,0,0,1,-541.842,50.0005)">
                    <g transform="matrix(10,0,0,10,298.871,710.162)">
                        <path d="M0.312,-0.678L0.557,-0.678C0.583,-0.678 0.607,-0.692 0.607,-0.728C0.607,-0.764 0.583,-0.778 0.557,-0.778L0.212,-0.778L0.212,-0.339L0.507,-0.339L0.507,-0.1L0.276,-0.1C0.26,-0.1 0.237,-0.114 0.223,-0.12L0.193,-0.133C0.182,-0.138 0.173,-0.141 0.161,-0.141C0.135,-0.141 0.113,-0.117 0.113,-0.091C0.113,-0.056 0.143,-0.047 0.17,-0.035L0.208,-0.018C0.233,-0.007 0.248,0 0.274,0L0.496,0C0.532,0 0.558,-0.004 0.583,-0.034C0.604,-0.059 0.607,-0.081 0.607,-0.112L0.607,-0.326C0.607,-0.361 0.604,-0.385 0.576,-0.411C0.552,-0.434 0.528,-0.439 0.496,-0.439L0.312,-0.439L0.312,-0.678Z" style="fill-rule:nonzero;"/>
                    </g>
                    <g transform="matrix(10,0,0,10,306.071,710.162)">
                        <path d="M0.243,-0.449C0.202,-0.449 0.183,-0.433 0.183,-0.388C0.183,-0.343 0.202,-0.327 0.243,-0.327L0.477,-0.327C0.518,-0.327 0.537,-0.343 0.537,-0.388C0.537,-0.433 0.518,-0.449 0.477,-0.449L0.243,-0.449Z" style="fill-rule:nonzero;"/>
                    </g>
                    <g transform="matrix(10,0,0,10,313.271,710.162)">
                        <path d="M0.263,-0.354L0.263,-0.728C0.263,-0.753 0.251,-0.778 0.213,-0.778C0.175,-0.778 0.163,-0.753 0.163,-0.728L0.163,-0.254L0.457,-0.254L0.457,-0.05C0.457,-0.018 0.471,0 0.507,0C0.543,0 0.557,-0.018 0.557,-0.05L0.557,-0.254C0.583,-0.254 0.607,-0.268 0.607,-0.304C0.607,-0.34 0.583,-0.354 0.557,-0.354L0.557,-0.643C0.557,-0.668 0.545,-0.693 0.507,-0.693C0.469,-0.693 0.457,-0.668 0.457,-0.643L0.457,-0.354L0.263,-0.354Z" style="fill-rule:nonzero;"/>
                    </g>
                    <g transform="matrix(10,0,0,10,320.471,710.162)">
                        <path d="M0.213,-0.678C0.242,-0.678 0.263,-0.698 0.263,-0.728C0.263,-0.754 0.242,-0.778 0.216,-0.778L0.156,-0.778C0.121,-0.778 0.113,-0.751 0.113,-0.728L0.113,-0.063C0.113,-0.017 0.131,0 0.178,0L0.542,0C0.587,0 0.607,-0.016 0.607,-0.063L0.607,-0.287C0.607,-0.333 0.597,-0.354 0.547,-0.354L0.213,-0.354L0.213,-0.678ZM0.507,-0.254L0.507,-0.1L0.213,-0.1L0.213,-0.254L0.507,-0.254Z" style="fill-rule:nonzero;"/>
                    </g>
                    <g transform="matrix(10,0,0,10,327.671,710.162)">
                        <path d="M0.36,-0.186L0.213,-0.568L0.213,-0.728C0.213,-0.76 0.199,-0.778 0.163,-0.778C0.127,-0.778 0.113,-0.76 0.113,-0.728L0.113,-0.57C0.113,-0.557 0.114,-0.543 0.119,-0.531L0.31,-0.044C0.32,-0.019 0.329,0 0.36,0C0.391,0 0.4,-0.019 0.41,-0.044L0.601,-0.531C0.606,-0.543 0.607,-0.557 0.607,-0.57L0.607,-0.728C0.607,-0.76 0.593,-0.778 0.557,-0.778C0.521,-0.778 0.507,-0.76 0.507,-0.728L0.507,-0.568L0.36,-0.186Z" style="fill-rule:nonzero;"/>
                    </g>
                </g>
                <g transform="matrix(1,0,0,1,-599.442,33.7486)">
                    <g transform="matrix(10,0,0,10,298.871,710.162)">
                        <path d="M0.228,-0.637C0.224,-0.643 0.213,-0.655 0.213,-0.664C0.213,-0.681 0.236,-0.678 0.247,-0.678L0.459,-0.678C0.49,-0.678 0.507,-0.673 0.507,-0.639C0.507,-0.611 0.525,-0.592 0.555,-0.592C0.591,-0.592 0.607,-0.618 0.607,-0.65C0.607,-0.685 0.586,-0.722 0.56,-0.745C0.531,-0.77 0.499,-0.778 0.461,-0.778L0.249,-0.778C0.217,-0.778 0.194,-0.778 0.166,-0.76C0.132,-0.738 0.113,-0.704 0.113,-0.664C0.113,-0.629 0.125,-0.609 0.146,-0.582L0.489,-0.141C0.493,-0.135 0.507,-0.12 0.507,-0.112C0.507,-0.097 0.482,-0.1 0.474,-0.1L0.257,-0.1C0.229,-0.1 0.213,-0.104 0.213,-0.134C0.213,-0.161 0.195,-0.185 0.166,-0.185C0.131,-0.185 0.113,-0.157 0.113,-0.125C0.113,-0.09 0.133,-0.054 0.16,-0.032C0.19,-0.007 0.223,0 0.261,0L0.481,0C0.55,0 0.607,-0.038 0.607,-0.113C0.607,-0.147 0.592,-0.17 0.572,-0.196L0.228,-0.637Z" style="fill-rule:nonzero;"/>
                    </g>
                    <g transform="matrix(10,0,0,10,306.071,710.162)">
                        <path d="M0.318,-0.443L0.479,-0.443C0.507,-0.443 0.545,-0.449 0.545,-0.491C0.545,-0.532 0.511,-0.539 0.479,-0.539L0.318,-0.539L0.318,-0.637C0.318,-0.67 0.311,-0.703 0.27,-0.703C0.229,-0.703 0.222,-0.67 0.222,-0.637L0.222,-0.539L0.191,-0.539C0.159,-0.539 0.125,-0.532 0.125,-0.491C0.125,-0.449 0.163,-0.443 0.191,-0.443L0.222,-0.443L0.222,-0.182C0.222,-0.13 0.22,-0.089 0.257,-0.048C0.291,-0.011 0.333,0 0.381,0L0.43,0C0.481,0 0.527,-0.007 0.562,-0.049C0.578,-0.068 0.595,-0.102 0.595,-0.129C0.595,-0.156 0.573,-0.177 0.546,-0.177C0.522,-0.177 0.504,-0.161 0.498,-0.138C0.488,-0.099 0.47,-0.096 0.431,-0.096L0.382,-0.096C0.316,-0.096 0.318,-0.127 0.318,-0.181L0.318,-0.443Z" style="fill-rule:nonzero;"/>
                    </g>
                    <g transform="matrix(10,0,0,10,313.271,710.162)">
                        <path d="M0.405,-0.443C0.474,-0.443 0.49,-0.431 0.49,-0.359L0.49,-0.337L0.284,-0.337C0.242,-0.337 0.205,-0.33 0.172,-0.301C0.136,-0.269 0.125,-0.24 0.125,-0.194L0.125,-0.152C0.125,-0.102 0.135,-0.067 0.175,-0.034C0.21,-0.005 0.241,0 0.284,0L0.376,0C0.407,0 0.408,0 0.435,-0.014L0.501,-0.048C0.5,-0.021 0.525,0 0.55,0C0.582,0 0.596,-0.028 0.595,-0.056L0.585,-0.382C0.584,-0.43 0.579,-0.459 0.542,-0.496C0.504,-0.534 0.468,-0.539 0.418,-0.539L0.286,-0.539C0.254,-0.539 0.22,-0.532 0.22,-0.491C0.22,-0.449 0.258,-0.443 0.286,-0.443L0.405,-0.443ZM0.427,-0.241C0.48,-0.241 0.495,-0.225 0.495,-0.172L0.495,-0.151L0.389,-0.096L0.283,-0.096C0.26,-0.096 0.221,-0.103 0.221,-0.135L0.221,-0.199C0.221,-0.234 0.259,-0.241 0.285,-0.241L0.427,-0.241Z" style="fill-rule:nonzero;"/>
                    </g>
                    <g transform="matrix(10,0,0,10,320.471,710.162)">
                        <path d="M0.318,-0.443L0.479,-0.443C0.507,-0.443 0.545,-0.449 0.545,-0.491C0.545,-0.532 0.511,-0.539 0.479,-0.539L0.318,-0.539L0.318,-0.637C0.318,-0.67 0.311,-0.703 0.27,-0.703C0.229,-0.703 0.222,-0.67 0.222,-0.637L0.222,-0.539L0.191,-0.539C0.159,-0.539 0.125,-0.532 0.125,-0.491C0.125,-0.449 0.163,-0.443 0.191,-0.443L0.222,-0.443L0.222,-0.182C0.222,-0.13 0.22,-0.089 0.257,-0.048C0.291,-0.011 0.333,0 0.381,0L0.43,0C0.481,0 0.527,-0.007 0.562,-0.049C0.578,-0.068 0.595,-0.102 0.595,-0.129C0.595,-0.156 0.573,-0.177 0.546,-0.177C0.522,-0.177 0.504,-0.161 0.498,-0.138C0.488,-0.099 0.47,-0.096 0.431,-0.096L0.382,-0.096C0.316,-0.096 0.318,-0.127 0.318,-0.181L0.318,-0.443Z" style="fill-rule:nonzero;"/>
                    </g>
                    <g transform="matrix(10,0,0,10,327.671,710.162)">
                        <path d="M0.529,0C0.557,0 0.595,-0.006 0.595,-0.048C0.595,-0.089 0.561,-0.096 0.529,-0.096L0.323,-0.096C0.291,-0.096 0.272,-0.1 0.259,-0.114L0.235,-0.14C0.228,-0.147 0.221,-0.159 0.221,-0.168L0.221,-0.2L0.529,-0.2C0.586,-0.2 0.595,-0.216 0.595,-0.271L0.595,-0.348C0.595,-0.401 0.589,-0.438 0.545,-0.473L0.506,-0.504C0.469,-0.534 0.447,-0.539 0.4,-0.539L0.312,-0.539C0.273,-0.539 0.251,-0.538 0.206,-0.499L0.172,-0.47C0.132,-0.436 0.125,-0.406 0.125,-0.355L0.125,-0.17C0.125,-0.118 0.136,-0.096 0.174,-0.062L0.215,-0.026C0.245,0 0.261,0 0.301,0L0.529,0ZM0.221,-0.364C0.221,-0.392 0.229,-0.399 0.241,-0.408L0.274,-0.432C0.29,-0.443 0.305,-0.443 0.323,-0.443L0.404,-0.443C0.419,-0.443 0.438,-0.442 0.45,-0.431L0.487,-0.399C0.5,-0.387 0.499,-0.372 0.499,-0.354L0.499,-0.296L0.221,-0.296L0.221,-0.364Z" style="fill-rule:nonzero;"/>
                    </g>
                    <g transform="matrix(10,0,0,10,291.671,722.162)">
                        <path d="M0.36,-0.602L0.238,-0.778L0.113,-0.778L0.113,-0.05C0.113,-0.018 0.127,0 0.163,0C0.199,0 0.213,-0.018 0.213,-0.05L0.213,-0.64L0.215,-0.64L0.31,-0.499L0.31,-0.483C0.31,-0.452 0.324,-0.423 0.36,-0.423C0.398,-0.423 0.41,-0.452 0.41,-0.483L0.41,-0.499L0.505,-0.64L0.507,-0.64L0.507,-0.05C0.507,-0.018 0.521,0 0.557,0C0.593,0 0.607,-0.018 0.607,-0.05L0.607,-0.778L0.482,-0.778L0.36,-0.602Z" style="fill-rule:nonzero;"/>
                    </g>
                    <g transform="matrix(10,0,0,10,298.871,722.162)">
                        <path d="M0.405,-0.443C0.474,-0.443 0.49,-0.431 0.49,-0.359L0.49,-0.337L0.284,-0.337C0.242,-0.337 0.205,-0.33 0.172,-0.301C0.136,-0.269 0.125,-0.24 0.125,-0.194L0.125,-0.152C0.125,-0.102 0.135,-0.067 0.175,-0.034C0.21,-0.005 0.241,0 0.284,0L0.376,0C0.407,0 0.408,0 0.435,-0.014L0.501,-0.048C0.5,-0.021 0.525,0 0.55,0C0.582,0 0.596,-0.028 0.595,-0.056L0.585,-0.382C0.584,-0.43 0.579,-0.459 0.542,-0.496C0.504,-0.534 0.468,-0.539 0.418,-0.539L0.286,-0.539C0.254,-0.539 0.22,-0.532 0.22,-0.491C0.22,-0.449 0.258,-0.443 0.286,-0.443L0.405,-0.443ZM0.427,-0.241C0.48,-0.241 0.495,-0.225 0.495,-0.172L0.495,-0.151L0.389,-0.096L0.283,-0.096C0.26,-0.096 0.221,-0.103 0.221,-0.135L0.221,-0.199C0.221,-0.234 0.259,-0.241 0.285,-0.241L0.427,-0.241Z" style="fill-rule:nonzero;"/>
                    </g>
                    <g transform="matrix(10,0,0,10,306.071,722.162)">
                        <path d="M0.125,-0.223C0.125,-0.164 0.136,-0.135 0.182,-0.097L0.253,-0.038C0.298,-0.001 0.321,0 0.377,0L0.529,0C0.561,0 0.595,-0.007 0.595,-0.048C0.595,-0.09 0.557,-0.096 0.529,-0.096L0.36,-0.096C0.341,-0.096 0.322,-0.106 0.305,-0.12L0.247,-0.169C0.232,-0.181 0.221,-0.191 0.221,-0.21L0.221,-0.329C0.221,-0.348 0.232,-0.358 0.247,-0.37L0.305,-0.419C0.322,-0.433 0.341,-0.443 0.36,-0.443L0.529,-0.443C0.557,-0.443 0.595,-0.449 0.595,-0.491C0.595,-0.532 0.561,-0.539 0.529,-0.539L0.377,-0.539C0.321,-0.539 0.298,-0.538 0.253,-0.501L0.182,-0.442C0.136,-0.404 0.125,-0.375 0.125,-0.316L0.125,-0.223Z" style="fill-rule:nonzero;"/>
                    </g>
                    <g transform="matrix(10,0,0,10,313.271,722.162)">
                        <path d="M0.437,-0.443C0.491,-0.443 0.488,-0.407 0.49,-0.361L0.5,-0.065C0.501,-0.033 0.509,0 0.548,0C0.591,0 0.596,-0.038 0.595,-0.072L0.585,-0.374C0.583,-0.426 0.585,-0.467 0.542,-0.504C0.502,-0.539 0.468,-0.539 0.449,-0.539L0.385,-0.539C0.353,-0.539 0.324,-0.523 0.299,-0.507L0.221,-0.456L0.221,-0.671C0.221,-0.704 0.214,-0.737 0.173,-0.737C0.132,-0.737 0.125,-0.704 0.125,-0.671L0.125,-0.066C0.125,-0.033 0.132,0 0.173,0C0.214,0 0.221,-0.033 0.221,-0.066L0.221,-0.345L0.363,-0.434C0.373,-0.44 0.383,-0.443 0.393,-0.443L0.437,-0.443Z" style="fill-rule:nonzero;"/>
                    </g>
                    <g transform="matrix(10,0,0,10,320.471,722.162)">
                        <path d="M0.41,-0.472C0.41,-0.529 0.394,-0.539 0.339,-0.539L0.238,-0.539C0.206,-0.539 0.172,-0.532 0.172,-0.491C0.172,-0.449 0.21,-0.443 0.238,-0.443L0.314,-0.443L0.314,-0.096L0.238,-0.096C0.206,-0.096 0.172,-0.089 0.172,-0.048C0.172,-0.006 0.21,0 0.238,0L0.482,0C0.51,0 0.548,-0.006 0.548,-0.048C0.548,-0.089 0.514,-0.096 0.482,-0.096L0.41,-0.096L0.41,-0.472ZM0.265,-0.687C0.265,-0.653 0.284,-0.642 0.31,-0.642L0.365,-0.642C0.391,-0.642 0.41,-0.653 0.41,-0.687L0.41,-0.733C0.41,-0.767 0.391,-0.778 0.365,-0.778L0.31,-0.778C0.284,-0.778 0.265,-0.767 0.265,-0.733L0.265,-0.687Z" style="fill-rule:nonzero;"/>
                    </g>
                    <g transform="matrix(10,0,0,10,327.671,722.162)">
                        <path d="M0.363,-0.434C0.373,-0.44 0.383,-0.443 0.393,-0.443L0.425,-0.443C0.483,-0.443 0.488,-0.42 0.49,-0.361L0.5,-0.065C0.501,-0.033 0.509,0 0.548,0C0.591,0 0.596,-0.038 0.595,-0.072L0.585,-0.374C0.583,-0.426 0.585,-0.467 0.542,-0.504C0.513,-0.529 0.49,-0.539 0.453,-0.539L0.382,-0.539C0.351,-0.539 0.324,-0.523 0.299,-0.507L0.221,-0.456L0.221,-0.469C0.221,-0.503 0.216,-0.539 0.173,-0.539C0.129,-0.539 0.125,-0.503 0.125,-0.468L0.125,-0.066C0.125,-0.033 0.132,0 0.173,0C0.214,0 0.221,-0.033 0.221,-0.066L0.221,-0.345L0.363,-0.434Z" style="fill-rule:nonzero;"/>
                    </g>
                    <g transform="matrix(10,0,0,10,334.871,722.162)">
                        <path d="M0.529,0C0.557,0 0.595,-0.006 0.595,-0.048C0.595,-0.089 0.561,-0.096 0.529,-0.096L0.323,-0.096C0.291,-0.096 0.272,-0.1 0.259,-0.114L0.235,-0.14C0.228,-0.147 0.221,-0.159 0.221,-0.168L0.221,-0.2L0.529,-0.2C0.586,-0.2 0.595,-0.216 0.595,-0.271L0.595,-0.348C0.595,-0.401 0.589,-0.438 0.545,-0.473L0.506,-0.504C0.469,-0.534 0.447,-0.539 0.4,-0.539L0.312,-0.539C0.273,-0.539 0.251,-0.538 0.206,-0.499L0.172,-0.47C0.132,-0.436 0.125,-0.406 0.125,-0.355L0.125,-0.17C0.125,-0.118 0.136,-0.096 0.174,-0.062L0.215,-0.026C0.245,0 0.261,0 0.301,0L0.529,0ZM0.221,-0.364C0.221,-0.392 0.229,-0.399 0.241,-0.408L0.274,-0.432C0.29,-0.443 0.305,-0.443 0.323,-0.443L0.404,-0.443C0.419,-0.443 0.438,-0.442 0.45,-0.431L0.487,-0.399C0.5,-0.387 0.499,-0.372 0.499,-0.354L0.499,-0.296L0.221,-0.296L0.221,-0.364Z" style="fill-rule:nonzero;"/>
                    </g>
                </g>
            </g>
        </g>
        <g id="short-side-2" serif:id="short side 2" transform="matrix(-1,-1.22465e-16,1.22465e-16,-1,705.069,1026.74)">
            <path d="M162.942,662.236L162.942,662.532L162.942,683.225L162.893,683.965L162.749,684.692L162.51,685.394L162.182,686.059L161.77,686.676L161.281,687.233L160.724,687.722L160.107,688.134L159.442,688.462L158.74,688.701L158.013,688.845L157.273,688.894L54.113,688.894L51.893,688.748L49.711,688.314L47.605,687.599L45.609,686.615L43.76,685.379L42.087,683.912L40.62,682.24L39.384,680.39L38.4,678.395L37.685,676.288L37.251,674.106L37.106,671.886L37.106,483.618L37.106,483.618L37.251,481.398L37.685,479.216L38.4,477.11L39.384,475.114L40.62,473.264L42.087,471.592L43.76,470.125L45.609,468.889L47.605,467.905L49.711,467.19L51.893,466.756L54.113,466.61L157.273,466.61L158.013,466.659L158.74,466.803L159.442,467.042L160.107,467.37L160.724,467.782L161.282,468.271L161.77,468.828L162.182,469.445L162.51,470.11L162.749,470.812L162.893,471.54L162.942,472.28L162.942,492.972L162.942,493.268C157.837,510.653 154.428,542 154.428,577.752C154.428,613.504 157.837,644.851 162.942,662.236ZM111.918,670.752L145.934,670.752L145.934,679.823L111.918,679.823L111.918,670.752ZM51.279,488.72L51.279,498.075L48.444,498.075L48.444,657.429L51.279,657.429L51.279,666.784L60.066,666.784L60.066,488.72L51.279,488.72ZM145.934,484.752L111.918,484.752L111.918,475.681L145.934,475.681L145.934,484.752Z" style="fill:none;stroke:black;stroke-width:1px;"/>
        </g>
        <g id="short-side-1" serif:id="short side 1" transform="matrix(1,2.02078e-32,-1.38864e-32,1,156.871,-128.769)">
            <path d="M162.942,662.236L162.942,662.532L162.942,683.225L162.893,683.965L162.749,684.692L162.51,685.394L162.182,686.059L161.77,686.676L161.281,687.233L160.724,687.722L160.107,688.134L159.442,688.462L158.74,688.701L158.013,688.845L157.273,688.894L54.113,688.894L51.893,688.748L49.711,688.314L47.605,687.599L45.609,686.615L43.76,685.379L42.087,683.912L40.62,682.24L39.384,680.39L38.4,678.395L37.685,676.288L37.251,674.106L37.106,671.886L37.106,483.618L37.106,483.618L37.251,481.398L37.685,479.216L38.4,477.11L39.384,475.114L40.62,473.264L42.087,471.592L43.76,470.125L45.609,468.889L47.605,467.905L49.711,467.19L51.893,466.756L54.113,466.61L157.273,466.61L158.013,466.659L158.74,466.803L159.442,467.042L160.107,467.37L160.724,467.782L161.282,468.271L161.77,468.828L162.182,469.445L162.51,470.11L162.749,470.812L162.893,471.54L162.942,472.28L162.942,492.972L162.942,493.268C157.837,510.653 154.428,542 154.428,577.752C154.428,613.504 157.837,644.851 162.942,662.236ZM111.918,670.752L145.934,670.752L145.934,679.823L111.918,679.823L111.918,670.752ZM51.279,488.72L51.279,498.075L48.444,498.075L48.444,657.429L51.279,657.429L51.279,666.784L60.066,666.784L60.066,488.72L51.279,488.72ZM145.934,484.752L111.918,484.752L111.918,475.681L145.934,475.681L145.934,484.752Z" style="fill:none;stroke:black;stroke-width:1px;"/>
        </g>
        <g id="bottom" transform="matrix(6.12323e-17,-1,1,6.12323e-17,-146.794,1097.22)">
            <path d="M257.031,670.78L257.031,484.749L313.536,484.749L313.536,476.245L341.882,476.245L341.882,484.749L415.395,484.749L415.395,476.245L443.741,476.245L443.741,484.749L500.244,484.749L500.244,670.78L443.741,670.78L443.741,679.283L415.395,679.283L415.395,670.78L341.882,670.78L341.882,679.283L313.536,679.283L313.536,670.78L257.031,670.78ZM484.84,650.809C487.343,650.809 489.375,652.842 489.375,655.345C489.375,657.848 487.343,659.88 484.84,659.88C482.337,659.88 480.304,657.848 480.304,655.345C480.304,652.842 482.337,650.809 484.84,650.809ZM272.44,650.809C274.943,650.809 276.975,652.842 276.975,655.345C276.975,657.848 274.943,659.88 272.44,659.88C269.937,659.88 267.904,657.848 267.904,655.345C267.904,652.842 269.937,650.809 272.44,650.809ZM484.84,496.009C487.343,496.009 489.375,498.042 489.375,500.545C489.375,503.048 487.343,505.08 484.84,505.08C482.337,505.08 480.304,503.048 480.304,500.545C480.304,498.042 482.337,496.009 484.84,496.009ZM272.44,496.009C274.943,496.009 276.975,498.042 276.975,500.545C276.975,503.048 274.943,505.08 272.44,505.08C269.937,505.08 267.904,503.048 267.904,500.545C267.904,498.042 269.937,496.009 272.44,496.009Z" style="fill:none;stroke:black;stroke-width:1px;stroke-miterlimit:1.5;"/>
        </g>
        <g id="top" transform="matrix(2.2532,-2.02078e-32,-2.77728e-32,1.63945,1579.74,-626.386)">
            <g transform="matrix(1,0,0,1,-133.581,0)">
                <path d="M-413.892,575.124L-414.056,575.139L-414.218,575.183L-414.373,575.256L-414.521,575.356L-414.658,575.482L-414.782,575.631L-414.89,575.801L-414.982,575.989L-415.054,576.192L-415.107,576.406L-415.139,576.628L-415.149,576.853L-415.149,580.311L-411.375,580.311L-411.375,585.499L-422.261,585.499L-425.591,637.369L-425.591,682.123L-422.261,733.993L-411.375,733.993L-411.375,739.18L-415.149,739.18L-415.149,742.638L-415.138,742.864L-415.106,743.086L-415.053,743.3L-414.98,743.503L-414.889,743.691L-414.78,743.861L-414.657,744.01L-414.52,744.136L-414.372,744.236L-414.216,744.308L-414.055,744.352L-413.891,744.368L-338.626,744.368L-338.462,744.352L-338.3,744.308L-338.144,744.236L-337.997,744.136L-337.86,744.01L-337.736,743.861L-337.628,743.691L-337.536,743.503L-337.464,743.3L-337.411,743.086L-337.378,742.864L-337.367,742.639L-337.367,739.181L-341.141,739.181L-341.141,733.994L-330.256,733.994L-326.925,682.123L-326.925,637.369L-330.256,585.499L-341.141,585.499L-341.141,580.311L-337.367,580.311L-337.367,576.853L-337.378,576.628L-337.411,576.406L-337.464,576.192L-337.536,575.989L-337.628,575.801L-337.736,575.631L-337.86,575.482L-337.997,575.356L-338.144,575.256L-338.3,575.183L-338.462,575.139L-338.626,575.123L-413.892,575.123L-413.892,575.124ZM-352.858,689.731C-352.858,688.299 -353.703,687.138 -354.745,687.138L-373.616,687.138C-374.658,687.138 -375.503,688.299 -375.503,689.731L-375.503,715.666C-375.503,717.099 -374.658,718.26 -373.616,718.26L-354.745,718.26C-353.703,718.26 -352.858,717.099 -352.858,715.666L-352.858,689.731ZM-338.241,684.765C-338.241,682.378 -339.649,680.442 -341.386,680.442L-341.387,680.442C-343.124,680.442 -344.532,682.378 -344.532,684.765L-344.532,710.701C-344.532,713.088 -343.124,715.023 -341.387,715.023L-341.386,715.023C-339.649,715.023 -338.241,713.088 -338.241,710.701L-338.241,684.765ZM-339.815,662.934C-339.815,662.361 -339.98,661.811 -340.275,661.406C-340.57,661.001 -340.97,660.773 -341.387,660.773C-341.387,660.773 -341.387,660.773 -341.387,660.773C-341.805,660.773 -342.204,661.001 -342.499,661.406C-342.794,661.811 -342.96,662.361 -342.96,662.934L-342.96,671.926C-342.96,672.499 -342.794,673.048 -342.499,673.454C-342.204,673.859 -341.805,674.087 -341.387,674.087C-341.387,674.087 -341.387,674.087 -341.387,674.087C-340.97,674.087 -340.57,673.859 -340.275,673.454C-339.98,673.048 -339.815,672.499 -339.815,671.926L-339.815,662.934ZM-334.977,668.491L-334.977,650.855L-330.952,650.855L-330.952,668.491L-334.977,668.491ZM-417.54,650.855L-417.54,668.491L-421.566,668.491L-421.566,650.855L-417.54,650.855ZM-339.814,643.172C-339.814,642.598 -339.98,642.049 -340.275,641.643C-340.569,641.238 -340.969,641.01 -341.386,641.01C-341.387,641.01 -341.387,641.01 -341.387,641.01C-341.804,641.01 -342.204,641.238 -342.499,641.643C-342.794,642.049 -342.959,642.598 -342.959,643.172L-342.959,652.163C-342.959,652.736 -342.794,653.286 -342.499,653.691C-342.204,654.096 -341.804,654.324 -341.387,654.324C-341.387,654.324 -341.387,654.324 -341.386,654.324C-340.969,654.324 -340.569,654.096 -340.275,653.691C-339.98,653.286 -339.814,652.736 -339.814,652.163L-339.814,643.172Z" style="fill:none;stroke:black;stroke-width:0.51px;"/>
            </g>
            <g transform="matrix(1,0,0,1,1.52003,-18.2988)">
                <g transform="matrix(0.836686,0,0,0.836686,-29.3012,89.6972)">
                    <g transform="matrix(17.112,0,0,23.518,-603.735,669.15)">
                        <path d="M0.36,-0.602L0.238,-0.778L0.113,-0.778L0.113,-0.05C0.113,-0.018 0.127,0 0.163,0C0.199,0 0.213,-0.018 0.213,-0.05L0.213,-0.64L0.215,-0.64L0.31,-0.499L0.31,-0.483C0.31,-0.452 0.324,-0.423 0.36,-0.423C0.398,-0.423 0.41,-0.452 0.41,-0.483L0.41,-0.499L0.505,-0.64L0.507,-0.64L0.507,-0.05C0.507,-0.018 0.521,0 0.557,0C0.593,0 0.607,-0.018 0.607,-0.05L0.607,-0.778L0.482,-0.778L0.36,-0.602Z" style="fill-rule:nonzero;"/>
                    </g>
                    <g transform="matrix(0.316162,0,0,0.434521,-666.06,312.787)">
                        <path d="M244.672,831.664L244.672,820.586C244.672,819.424 245.615,818.48 246.777,818.48C247.939,818.48 248.883,819.424 248.883,820.586L248.883,833.77L246.777,833.77L246.777,835.875L188.561,835.875L188.561,846.954C188.561,848.116 187.618,849.059 186.456,849.059C185.293,849.059 184.35,848.116 184.35,846.954L184.35,833.77C184.35,832.607 185.293,831.664 186.456,831.664L244.672,831.664Z"/>
                    </g>
                    <g transform="matrix(0.531047,0,0,0.72985,-689.8,47.2835)">
                        <path d="M173.668,816.037C155.179,816.037 140.168,831.049 140.168,849.538C140.168,868.027 155.179,883.039 173.668,883.039C192.158,883.039 207.169,868.027 207.169,849.538C207.169,831.049 192.158,816.037 173.668,816.037ZM173.668,818.545C190.774,818.545 204.662,832.432 204.662,849.538C204.662,866.644 190.774,880.531 173.668,880.531C156.563,880.531 142.675,866.644 142.675,849.538C142.675,832.432 156.563,818.545 173.668,818.545Z"/>
                    </g>
                </g>
                <g transform="matrix(0.443813,0,0,0.609959,-552.121,164.03)">
                    <g transform="matrix(15.1639,0,0,15.1639,91.2406,772.104)">
                        <path d="M0.113,0L0.393,0C0.52,0 0.607,-0.077 0.607,-0.208C0.607,-0.282 0.598,-0.335 0.541,-0.389C0.594,-0.436 0.607,-0.489 0.607,-0.547C0.607,-0.688 0.54,-0.778 0.393,-0.778L0.113,-0.778L0.113,0ZM0.213,-0.339L0.393,-0.339C0.484,-0.339 0.507,-0.292 0.507,-0.208C0.507,-0.132 0.465,-0.1 0.393,-0.1L0.213,-0.1L0.213,-0.339ZM0.213,-0.678L0.393,-0.678C0.484,-0.678 0.507,-0.631 0.507,-0.547C0.507,-0.471 0.465,-0.439 0.393,-0.439L0.213,-0.439L0.213,-0.678Z" style="fill-rule:nonzero;"/>
                    </g>
                    <g transform="matrix(15.1639,0,0,15.1639,102.159,772.104)">
                        <path d="M0.595,-0.311C0.595,-0.379 0.59,-0.406 0.534,-0.45L0.476,-0.495C0.45,-0.515 0.419,-0.539 0.396,-0.539L0.33,-0.539C0.303,-0.539 0.265,-0.503 0.24,-0.481L0.221,-0.464L0.221,-0.476C0.221,-0.508 0.212,-0.539 0.173,-0.539C0.129,-0.539 0.125,-0.502 0.125,-0.468L0.125,0.138C0.125,0.171 0.132,0.204 0.173,0.204C0.214,0.204 0.221,0.171 0.221,0.138L0.221,-0.055L0.24,-0.037C0.271,-0.008 0.291,0.02 0.334,0.02L0.399,0.02C0.425,0.02 0.456,-0.007 0.476,-0.023L0.534,-0.069C0.59,-0.113 0.595,-0.139 0.595,-0.208L0.595,-0.311ZM0.499,-0.195C0.499,-0.177 0.494,-0.166 0.479,-0.153L0.407,-0.093C0.398,-0.085 0.387,-0.076 0.374,-0.076L0.349,-0.076C0.337,-0.076 0.322,-0.089 0.308,-0.103L0.235,-0.172C0.225,-0.181 0.221,-0.199 0.221,-0.213L0.221,-0.307C0.221,-0.328 0.228,-0.339 0.248,-0.358L0.308,-0.415C0.318,-0.425 0.335,-0.443 0.349,-0.443L0.374,-0.443C0.387,-0.443 0.398,-0.434 0.407,-0.426L0.479,-0.366C0.494,-0.353 0.499,-0.342 0.499,-0.324L0.499,-0.195Z" style="fill-rule:nonzero;"/>
                    </g>
                    <g transform="matrix(15.1639,0,0,15.1639,113.077,772.104)">
                        <path d="M0.125,-0.179C0.125,-0.116 0.141,-0.092 0.191,-0.05C0.241,-0.008 0.261,0 0.322,0L0.398,0C0.459,0 0.479,-0.008 0.529,-0.05C0.579,-0.092 0.595,-0.116 0.595,-0.179L0.595,-0.36C0.595,-0.424 0.582,-0.446 0.534,-0.485C0.487,-0.524 0.465,-0.539 0.398,-0.539L0.322,-0.539C0.255,-0.539 0.233,-0.524 0.186,-0.485C0.138,-0.446 0.125,-0.424 0.125,-0.36L0.125,-0.179ZM0.221,-0.36C0.221,-0.38 0.228,-0.393 0.256,-0.417C0.277,-0.435 0.292,-0.443 0.322,-0.443L0.398,-0.443C0.428,-0.443 0.443,-0.435 0.464,-0.417C0.492,-0.393 0.499,-0.38 0.499,-0.36L0.499,-0.179C0.499,-0.159 0.492,-0.146 0.464,-0.122C0.443,-0.104 0.428,-0.096 0.398,-0.096L0.322,-0.096C0.292,-0.096 0.277,-0.104 0.256,-0.122C0.228,-0.146 0.221,-0.159 0.221,-0.179L0.221,-0.36Z" style="fill-rule:nonzero;"/>
                    </g>
                    <g transform="matrix(15.1639,0,0,15.1639,123.995,772.104)">
                        <path d="M0.303,-0.539C0.263,-0.539 0.241,-0.531 0.211,-0.505L0.178,-0.477C0.138,-0.443 0.125,-0.417 0.125,-0.366L0.125,-0.173C0.125,-0.122 0.138,-0.096 0.178,-0.062L0.211,-0.034C0.225,-0.022 0.261,0 0.293,0L0.386,0C0.415,0 0.448,-0.021 0.478,-0.049L0.499,-0.07L0.499,-0.064C0.499,-0.032 0.509,0 0.547,0C0.588,0 0.595,-0.034 0.595,-0.067L0.595,-0.671C0.595,-0.704 0.588,-0.737 0.547,-0.737C0.506,-0.737 0.499,-0.704 0.499,-0.671L0.499,-0.469L0.483,-0.486C0.448,-0.521 0.421,-0.539 0.388,-0.539L0.303,-0.539ZM0.221,-0.328C0.221,-0.355 0.221,-0.389 0.236,-0.401L0.265,-0.424C0.277,-0.434 0.289,-0.443 0.301,-0.443L0.369,-0.443C0.381,-0.443 0.398,-0.435 0.416,-0.419L0.471,-0.372C0.485,-0.36 0.499,-0.348 0.499,-0.33L0.499,-0.209C0.499,-0.191 0.485,-0.179 0.471,-0.167L0.416,-0.12C0.398,-0.104 0.381,-0.096 0.369,-0.096L0.301,-0.096C0.289,-0.096 0.277,-0.105 0.265,-0.115L0.236,-0.138C0.221,-0.15 0.221,-0.184 0.221,-0.211L0.221,-0.328Z" style="fill-rule:nonzero;"/>
                    </g>
                    <g transform="matrix(15.1639,0,0,15.1639,91.2406,790.301)">
                        <path d="M0.228,-0.637C0.224,-0.643 0.213,-0.655 0.213,-0.664C0.213,-0.681 0.236,-0.678 0.247,-0.678L0.459,-0.678C0.49,-0.678 0.507,-0.673 0.507,-0.639C0.507,-0.611 0.525,-0.592 0.555,-0.592C0.591,-0.592 0.607,-0.618 0.607,-0.65C0.607,-0.685 0.586,-0.722 0.56,-0.745C0.531,-0.77 0.499,-0.778 0.461,-0.778L0.249,-0.778C0.217,-0.778 0.194,-0.778 0.166,-0.76C0.132,-0.738 0.113,-0.704 0.113,-0.664C0.113,-0.629 0.125,-0.609 0.146,-0.582L0.489,-0.141C0.493,-0.135 0.507,-0.12 0.507,-0.112C0.507,-0.097 0.482,-0.1 0.474,-0.1L0.257,-0.1C0.229,-0.1 0.213,-0.104 0.213,-0.134C0.213,-0.161 0.195,-0.185 0.166,-0.185C0.131,-0.185 0.113,-0.157 0.113,-0.125C0.113,-0.09 0.133,-0.054 0.16,-0.032C0.19,-0.007 0.223,0 0.261,0L0.481,0C0.55,0 0.607,-0.038 0.607,-0.113C0.607,-0.147 0.592,-0.17 0.572,-0.196L0.228,-0.637Z" style="fill-rule:nonzero;"/>
                    </g>
                    <g transform="matrix(15.1639,0,0,15.1639,102.159,790.301)">
                        <path d="M0.318,-0.443L0.479,-0.443C0.507,-0.443 0.545,-0.449 0.545,-0.491C0.545,-0.532 0.511,-0.539 0.479,-0.539L0.318,-0.539L0.318,-0.637C0.318,-0.67 0.311,-0.703 0.27,-0.703C0.229,-0.703 0.222,-0.67 0.222,-0.637L0.222,-0.539L0.191,-0.539C0.159,-0.539 0.125,-0.532 0.125,-0.491C0.125,-0.449 0.163,-0.443 0.191,-0.443L0.222,-0.443L0.222,-0.182C0.222,-0.13 0.22,-0.089 0.257,-0.048C0.291,-0.011 0.333,0 0.381,0L0.43,0C0.481,0 0.527,-0.007 0.562,-0.049C0.578,-0.068 0.595,-0.102 0.595,-0.129C0.595,-0.156 0.573,-0.177 0.546,-0.177C0.522,-0.177 0.504,-0.161 0.498,-0.138C0.488,-0.099 0.47,-0.096 0.431,-0.096L0.382,-0.096C0.316,-0.096 0.318,-0.127 0.318,-0.181L0.318,-0.443Z" style="fill-rule:nonzero;"/>
                    </g>
                    <g transform="matrix(15.1639,0,0,15.1639,113.077,790.301)">
                        <path d="M0.529,0C0.557,0 0.595,-0.006 0.595,-0.048C0.595,-0.089 0.561,-0.096 0.529,-0.096L0.323,-0.096C0.291,-0.096 0.272,-0.1 0.259,-0.114L0.235,-0.14C0.228,-0.147 0.221,-0.159 0.221,-0.168L0.221,-0.2L0.529,-0.2C0.586,-0.2 0.595,-0.216 0.595,-0.271L0.595,-0.348C0.595,-0.401 0.589,-0.438 0.545,-0.473L0.506,-0.504C0.469,-0.534 0.447,-0.539 0.4,-0.539L0.312,-0.539C0.273,-0.539 0.251,-0.538 0.206,-0.499L0.172,-0.47C0.132,-0.436 0.125,-0.406 0.125,-0.355L0.125,-0.17C0.125,-0.118 0.136,-0.096 0.174,-0.062L0.215,-0.026C0.245,0 0.261,0 0.301,0L0.529,0ZM0.221,-0.364C0.221,-0.392 0.229,-0.399 0.241,-0.408L0.274,-0.432C0.29,-0.443 0.305,-0.443 0.323,-0.443L0.404,-0.443C0.419,-0.443 0.438,-0.442 0.45,-0.431L0.487,-0.399C0.5,-0.387 0.499,-0.372 0.499,-0.354L0.499,-0.296L0.221,-0.296L0.221,-0.364Z" style="fill-rule:nonzero;"/>
                    </g>
                    <g transform="matrix(15.1639,0,0,15.1639,123.995,790.301)">
                        <path d="M0.595,-0.311C0.595,-0.379 0.59,-0.406 0.534,-0.45L0.476,-0.495C0.45,-0.515 0.419,-0.539 0.396,-0.539L0.33,-0.539C0.303,-0.539 0.265,-0.503 0.24,-0.481L0.221,-0.464L0.221,-0.476C0.221,-0.508 0.212,-0.539 0.173,-0.539C0.129,-0.539 0.125,-0.502 0.125,-0.468L0.125,0.138C0.125,0.171 0.132,0.204 0.173,0.204C0.214,0.204 0.221,0.171 0.221,0.138L0.221,-0.055L0.24,-0.037C0.271,-0.008 0.291,0.02 0.334,0.02L0.399,0.02C0.425,0.02 0.456,-0.007 0.476,-0.023L0.534,-0.069C0.59,-0.113 0.595,-0.139 0.595,-0.208L0.595,-0.311ZM0.499,-0.195C0.499,-0.177 0.494,-0.166 0.479,-0.153L0.407,-0.093C0.398,-0.085 0.387,-0.076 0.374,-0.076L0.349,-0.076C0.337,-0.076 0.322,-0.089 0.308,-0.103L0.235,-0.172C0.225,-0.181 0.221,-0.199 0.221,-0.213L0.221,-0.307C0.221,-0.328 0.228,-0.339 0.248,-0.358L0.308,-0.415C0.318,-0.425 0.335,-0.443 0.349,-0.443L0.374,-0.443C0.387,-0.443 0.398,-0.434 0.407,-0.426L0.479,-0.366C0.494,-0.353 0.499,-0.342 0.499,-0.324L0.499,-0.195Z" style="fill-rule:nonzero;"/>
                    </g>
                    <g transform="matrix(15.1639,0,0,15.1639,134.913,790.301)">
                        <path d="M0.595,-0.311C0.595,-0.379 0.59,-0.406 0.534,-0.45L0.476,-0.495C0.45,-0.515 0.419,-0.539 0.396,-0.539L0.33,-0.539C0.303,-0.539 0.265,-0.503 0.24,-0.481L0.221,-0.464L0.221,-0.476C0.221,-0.508 0.212,-0.539 0.173,-0.539C0.129,-0.539 0.125,-0.502 0.125,-0.468L0.125,0.138C0.125,0.171 0.132,0.204 0.173,0.204C0.214,0.204 0.221,0.171 0.221,0.138L0.221,-0.055L0.24,-0.037C0.271,-0.008 0.291,0.02 0.334,0.02L0.399,0.02C0.425,0.02 0.456,-0.007 0.476,-0.023L0.534,-0.069C0.59,-0.113 0.595,-0.139 0.595,-0.208L0.595,-0.311ZM0.499,-0.195C0.499,-0.177 0.494,-0.166 0.479,-0.153L0.407,-0.093C0.398,-0.085 0.387,-0.076 0.374,-0.076L0.349,-0.076C0.337,-0.076 0.322,-0.089 0.308,-0.103L0.235,-0.172C0.225,-0.181 0.221,-0.199 0.221,-0.213L0.221,-0.307C0.221,-0.328 0.228,-0.339 0.248,-0.358L0.308,-0.415C0.318,-0.425 0.335,-0.443 0.349,-0.443L0.374,-0.443C0.387,-0.443 0.398,-0.434 0.407,-0.426L0.479,-0.366C0.494,-0.353 0.499,-0.342 0.499,-0.324L0.499,-0.195Z" style="fill-rule:nonzero;"/>
                    </g>
                    <g transform="matrix(15.1639,0,0,15.1639,145.831,790.301)">
                        <path d="M0.529,0C0.557,0 0.595,-0.006 0.595,-0.048C0.595,-0.089 0.561,-0.096 0.529,-0.096L0.323,-0.096C0.291,-0.096 0.272,-0.1 0.259,-0.114L0.235,-0.14C0.228,-0.147 0.221,-0.159 0.221,-0.168L0.221,-0.2L0.529,-0.2C0.586,-0.2 0.595,-0.216 0.595,-0.271L0.595,-0.348C0.595,-0.401 0.589,-0.438 0.545,-0.473L0.506,-0.504C0.469,-0.534 0.447,-0.539 0.4,-0.539L0.312,-0.539C0.273,-0.539 0.251,-0.538 0.206,-0.499L0.172,-0.47C0.132,-0.436 0.125,-0.406 0.125,-0.355L0.125,-0.17C0.125,-0.118 0.136,-0.096 0.174,-0.062L0.215,-0.026C0.245,0 0.261,0 0.301,0L0.529,0ZM0.221,-0.364C0.221,-0.392 0.229,-0.399 0.241,-0.408L0.274,-0.432C0.29,-0.443 0.305,-0.443 0.323,-0.443L0.404,-0.443C0.419,-0.443 0.438,-0.442 0.45,-0.431L0.487,-0.399C0.5,-0.387 0.499,-0.372 0.499,-0.354L0.499,-0.296L0.221,-0.296L0.221,-0.364Z" style="fill-rule:nonzero;"/>
                    </g>
                    <g transform="matrix(15.1639,0,0,15.1639,156.749,790.301)">
                        <path d="M0.125,-0.066C0.125,-0.033 0.132,0 0.173,0C0.214,0 0.221,-0.033 0.221,-0.066L0.221,-0.309L0.355,-0.42C0.372,-0.434 0.385,-0.443 0.403,-0.443L0.431,-0.443C0.454,-0.443 0.477,-0.443 0.489,-0.426C0.499,-0.412 0.499,-0.4 0.499,-0.384C0.499,-0.353 0.513,-0.325 0.548,-0.325C0.589,-0.325 0.595,-0.359 0.595,-0.392C0.595,-0.436 0.584,-0.469 0.552,-0.501C0.526,-0.527 0.495,-0.539 0.458,-0.539L0.381,-0.539C0.351,-0.539 0.323,-0.52 0.296,-0.498L0.221,-0.436L0.221,-0.475C0.221,-0.507 0.211,-0.539 0.173,-0.539C0.129,-0.539 0.125,-0.503 0.125,-0.468L0.125,-0.066Z" style="fill-rule:nonzero;"/>
                    </g>
                    <g transform="matrix(15.1639,0,0,15.1639,91.2406,808.498)">
                        <path d="M0.36,-0.602L0.238,-0.778L0.113,-0.778L0.113,-0.05C0.113,-0.018 0.127,0 0.163,0C0.199,0 0.213,-0.018 0.213,-0.05L0.213,-0.64L0.215,-0.64L0.31,-0.499L0.31,-0.483C0.31,-0.452 0.324,-0.423 0.36,-0.423C0.398,-0.423 0.41,-0.452 0.41,-0.483L0.41,-0.499L0.505,-0.64L0.507,-0.64L0.507,-0.05C0.507,-0.018 0.521,0 0.557,0C0.593,0 0.607,-0.018 0.607,-0.05L0.607,-0.778L0.482,-0.778L0.36,-0.602Z" style="fill-rule:nonzero;"/>
                    </g>
                    <g transform="matrix(15.1639,0,0,15.1639,102.159,808.498)">
                        <path d="M0.125,-0.179C0.125,-0.116 0.141,-0.092 0.191,-0.05C0.241,-0.008 0.261,0 0.322,0L0.398,0C0.459,0 0.479,-0.008 0.529,-0.05C0.579,-0.092 0.595,-0.116 0.595,-0.179L0.595,-0.36C0.595,-0.424 0.582,-0.446 0.534,-0.485C0.487,-0.524 0.465,-0.539 0.398,-0.539L0.322,-0.539C0.255,-0.539 0.233,-0.524 0.186,-0.485C0.138,-0.446 0.125,-0.424 0.125,-0.36L0.125,-0.179ZM0.221,-0.36C0.221,-0.38 0.228,-0.393 0.256,-0.417C0.277,-0.435 0.292,-0.443 0.322,-0.443L0.398,-0.443C0.428,-0.443 0.443,-0.435 0.464,-0.417C0.492,-0.393 0.499,-0.38 0.499,-0.36L0.499,-0.179C0.499,-0.159 0.492,-0.146 0.464,-0.122C0.443,-0.104 0.428,-0.096 0.398,-0.096L0.322,-0.096C0.292,-0.096 0.277,-0.104 0.256,-0.122C0.228,-0.146 0.221,-0.159 0.221,-0.179L0.221,-0.36Z" style="fill-rule:nonzero;"/>
                    </g>
                    <g transform="matrix(15.1639,0,0,15.1639,113.077,808.498)">
                        <path d="M0.318,-0.443L0.479,-0.443C0.507,-0.443 0.545,-0.449 0.545,-0.491C0.545,-0.532 0.511,-0.539 0.479,-0.539L0.318,-0.539L0.318,-0.637C0.318,-0.67 0.311,-0.703 0.27,-0.703C0.229,-0.703 0.222,-0.67 0.222,-0.637L0.222,-0.539L0.191,-0.539C0.159,-0.539 0.125,-0.532 0.125,-0.491C0.125,-0.449 0.163,-0.443 0.191,-0.443L0.222,-0.443L0.222,-0.182C0.222,-0.13 0.22,-0.089 0.257,-0.048C0.291,-0.011 0.333,0 0.381,0L0.43,0C0.481,0 0.527,-0.007 0.562,-0.049C0.578,-0.068 0.595,-0.102 0.595,-0.129C0.595,-0.156 0.573,-0.177 0.546,-0.177C0.522,-0.177 0.504,-0.161 0.498,-0.138C0.488,-0.099 0.47,-0.096 0.431,-0.096L0.382,-0.096C0.316,-0.096 0.318,-0.127 0.318,-0.181L0.318,-0.443Z" style="fill-rule:nonzero;"/>
                    </g>
                    <g transform="matrix(15.1639,0,0,15.1639,123.995,808.498)">
                        <path d="M0.125,-0.179C0.125,-0.116 0.141,-0.092 0.191,-0.05C0.241,-0.008 0.261,0 0.322,0L0.398,0C0.459,0 0.479,-0.008 0.529,-0.05C0.579,-0.092 0.595,-0.116 0.595,-0.179L0.595,-0.36C0.595,-0.424 0.582,-0.446 0.534,-0.485C0.487,-0.524 0.465,-0.539 0.398,-0.539L0.322,-0.539C0.255,-0.539 0.233,-0.524 0.186,-0.485C0.138,-0.446 0.125,-0.424 0.125,-0.36L0.125,-0.179ZM0.221,-0.36C0.221,-0.38 0.228,-0.393 0.256,-0.417C0.277,-0.435 0.292,-0.443 0.322,-0.443L0.398,-0.443C0.428,-0.443 0.443,-0.435 0.464,-0.417C0.492,-0.393 0.499,-0.38 0.499,-0.36L0.499,-0.179C0.499,-0.159 0.492,-0.146 0.464,-0.122C0.443,-0.104 0.428,-0.096 0.398,-0.096L0.322,-0.096C0.292,-0.096 0.277,-0.104 0.256,-0.122C0.228,-0.146 0.221,-0.159 0.221,-0.179L0.221,-0.36Z" style="fill-rule:nonzero;"/>
                    </g>
                    <g transform="matrix(15.1639,0,0,15.1639,134.913,808.498)">
                        <path d="M0.125,-0.066C0.125,-0.033 0.132,0 0.173,0C0.214,0 0.221,-0.033 0.221,-0.066L0.221,-0.309L0.355,-0.42C0.372,-0.434 0.385,-0.443 0.403,-0.443L0.431,-0.443C0.454,-0.443 0.477,-0.443 0.489,-0.426C0.499,-0.412 0.499,-0.4 0.499,-0.384C0.499,-0.353 0.513,-0.325 0.548,-0.325C0.589,-0.325 0.595,-0.359 0.595,-0.392C0.595,-0.436 0.584,-0.469 0.552,-0.501C0.526,-0.527 0.495,-0.539 0.458,-0.539L0.381,-0.539C0.351,-0.539 0.323,-0.52 0.296,-0.498L0.221,-0.436L0.221,-0.475C0.221,-0.507 0.211,-0.539 0.173,-0.539C0.129,-0.539 0.125,-0.503 0.125,-0.468L0.125,-0.066Z" style="fill-rule:nonzero;"/>
                    </g>
                    <g transform="matrix(15.1639,0,0,15.1639,91.2406,826.694)">
                        <path d="M0.36,-0.602L0.238,-0.778L0.113,-0.778L0.113,-0.05C0.113,-0.018 0.127,0 0.163,0C0.199,0 0.213,-0.018 0.213,-0.05L0.213,-0.64L0.215,-0.64L0.31,-0.499L0.31,-0.483C0.31,-0.452 0.324,-0.423 0.36,-0.423C0.398,-0.423 0.41,-0.452 0.41,-0.483L0.41,-0.499L0.505,-0.64L0.507,-0.64L0.507,-0.05C0.507,-0.018 0.521,0 0.557,0C0.593,0 0.607,-0.018 0.607,-0.05L0.607,-0.778L0.482,-0.778L0.36,-0.602Z" style="fill-rule:nonzero;"/>
                    </g>
                    <g transform="matrix(15.1639,0,0,15.1639,102.159,826.694)">
                        <path d="M0.125,-0.179C0.125,-0.116 0.141,-0.092 0.191,-0.05C0.241,-0.008 0.261,0 0.322,0L0.398,0C0.459,0 0.479,-0.008 0.529,-0.05C0.579,-0.092 0.595,-0.116 0.595,-0.179L0.595,-0.36C0.595,-0.424 0.582,-0.446 0.534,-0.485C0.487,-0.524 0.465,-0.539 0.398,-0.539L0.322,-0.539C0.255,-0.539 0.233,-0.524 0.186,-0.485C0.138,-0.446 0.125,-0.424 0.125,-0.36L0.125,-0.179ZM0.221,-0.36C0.221,-0.38 0.228,-0.393 0.256,-0.417C0.277,-0.435 0.292,-0.443 0.322,-0.443L0.398,-0.443C0.428,-0.443 0.443,-0.435 0.464,-0.417C0.492,-0.393 0.499,-0.38 0.499,-0.36L0.499,-0.179C0.499,-0.159 0.492,-0.146 0.464,-0.122C0.443,-0.104 0.428,-0.096 0.398,-0.096L0.322,-0.096C0.292,-0.096 0.277,-0.104 0.256,-0.122C0.228,-0.146 0.221,-0.159 0.221,-0.179L0.221,-0.36Z" style="fill-rule:nonzero;"/>
                    </g>
                    <g transform="matrix(15.1639,0,0,15.1639,113.077,826.694)">
                        <path d="M0.303,-0.539C0.263,-0.539 0.241,-0.531 0.211,-0.505L0.178,-0.477C0.138,-0.443 0.125,-0.417 0.125,-0.366L0.125,-0.173C0.125,-0.122 0.138,-0.096 0.178,-0.062L0.211,-0.034C0.225,-0.022 0.261,0 0.293,0L0.386,0C0.415,0 0.448,-0.021 0.478,-0.049L0.499,-0.07L0.499,-0.064C0.499,-0.032 0.509,0 0.547,0C0.588,0 0.595,-0.034 0.595,-0.067L0.595,-0.671C0.595,-0.704 0.588,-0.737 0.547,-0.737C0.506,-0.737 0.499,-0.704 0.499,-0.671L0.499,-0.469L0.483,-0.486C0.448,-0.521 0.421,-0.539 0.388,-0.539L0.303,-0.539ZM0.221,-0.328C0.221,-0.355 0.221,-0.389 0.236,-0.401L0.265,-0.424C0.277,-0.434 0.289,-0.443 0.301,-0.443L0.369,-0.443C0.381,-0.443 0.398,-0.435 0.416,-0.419L0.471,-0.372C0.485,-0.36 0.499,-0.348 0.499,-0.33L0.499,-0.209C0.499,-0.191 0.485,-0.179 0.471,-0.167L0.416,-0.12C0.398,-0.104 0.381,-0.096 0.369,-0.096L0.301,-0.096C0.289,-0.096 0.277,-0.105 0.265,-0.115L0.236,-0.138C0.221,-0.15 0.221,-0.184 0.221,-0.211L0.221,-0.328Z" style="fill-rule:nonzero;"/>
                    </g>
                    <g transform="matrix(15.1639,0,0,15.1639,123.995,826.694)">
                        <path d="M0.595,-0.473C0.595,-0.506 0.588,-0.539 0.547,-0.539C0.506,-0.539 0.499,-0.506 0.499,-0.473L0.499,-0.194L0.358,-0.105C0.349,-0.099 0.339,-0.096 0.328,-0.096L0.296,-0.096C0.273,-0.096 0.248,-0.102 0.24,-0.116C0.232,-0.13 0.231,-0.156 0.23,-0.178L0.22,-0.473C0.219,-0.504 0.214,-0.539 0.173,-0.539C0.129,-0.539 0.124,-0.502 0.125,-0.467L0.135,-0.165C0.137,-0.113 0.136,-0.072 0.179,-0.035C0.211,-0.008 0.241,0 0.268,0L0.339,0C0.365,0 0.391,-0.012 0.422,-0.032L0.5,-0.083L0.5,-0.067C0.5,-0.034 0.507,0 0.548,0C0.599,0 0.595,-0.049 0.595,-0.071L0.595,-0.473Z" style="fill-rule:nonzero;"/>
                    </g>
                    <g transform="matrix(15.1639,0,0,15.1639,134.913,826.694)">
                        <path d="M0.41,-0.67C0.41,-0.727 0.394,-0.737 0.339,-0.737L0.238,-0.737C0.206,-0.737 0.172,-0.73 0.172,-0.689C0.172,-0.647 0.21,-0.641 0.238,-0.641L0.314,-0.641L0.314,-0.096L0.238,-0.096C0.206,-0.096 0.172,-0.089 0.172,-0.048C0.172,-0.006 0.21,0 0.238,0L0.482,0C0.51,0 0.548,-0.006 0.548,-0.048C0.548,-0.089 0.514,-0.096 0.482,-0.096L0.41,-0.096L0.41,-0.67Z" style="fill-rule:nonzero;"/>
                    </g>
                    <g transform="matrix(15.1639,0,0,15.1639,145.831,826.694)">
                        <path d="M0.529,0C0.557,0 0.595,-0.006 0.595,-0.048C0.595,-0.089 0.561,-0.096 0.529,-0.096L0.323,-0.096C0.291,-0.096 0.272,-0.1 0.259,-0.114L0.235,-0.14C0.228,-0.147 0.221,-0.159 0.221,-0.168L0.221,-0.2L0.529,-0.2C0.586,-0.2 0.595,-0.216 0.595,-0.271L0.595,-0.348C0.595,-0.401 0.589,-0.438 0.545,-0.473L0.506,-0.504C0.469,-0.534 0.447,-0.539 0.4,-0.539L0.312,-0.539C0.273,-0.539 0.251,-0.538 0.206,-0.499L0.172,-0.47C0.132,-0.436 0.125,-0.406 0.125,-0.355L0.125,-0.17C0.125,-0.118 0.136,-0.096 0.174,-0.062L0.215,-0.026C0.245,0 0.261,0 0.301,0L0.529,0ZM0.221,-0.364C0.221,-0.392 0.229,-0.399 0.241,-0.408L0.274,-0.432C0.29,-0.443 0.305,-0.443 0.323,-0.443L0.404,-0.443C0.419,-0.443 0.438,-0.442 0.45,-0.431L0.487,-0.399C0.5,-0.387 0.499,-0.372 0.499,-0.354L0.499,-0.296L0.221,-0.296L0.221,-0.364Z" style="fill-rule:nonzero;"/>
                    </g>
                </g>
            </g>
        </g>
        <g id="washers" transform="matrix(1,0,0,1,0,-6.25371)">
            <path d="M655.364,594.413C648.41,594.413 642.764,588.767 642.764,581.813C642.764,574.859 648.41,569.213 655.364,569.213C662.318,569.213 667.964,574.859 667.964,581.813C667.964,588.767 662.318,594.413 655.364,594.413ZM655.364,586.349C652.861,586.349 650.829,584.316 650.829,581.813C650.829,579.31 652.861,577.278 655.364,577.278C657.867,577.278 659.899,579.31 659.899,581.813C659.899,584.316 657.867,586.349 655.364,586.349ZM655.364,622.448C648.41,622.448 642.764,616.802 642.764,609.848C642.764,602.894 648.41,597.248 655.364,597.248C662.318,597.248 667.964,602.894 667.964,609.848C667.964,616.802 662.318,622.448 655.364,622.448ZM655.364,614.383C652.861,614.383 650.829,612.351 650.829,609.848C650.829,607.345 652.861,605.312 655.364,605.312C657.867,605.312 659.899,607.345 659.899,609.848C659.899,612.351 657.867,614.383 655.364,614.383ZM655.364,650.483C648.41,650.483 642.764,644.837 642.764,637.883C642.764,630.928 648.41,625.283 655.364,625.283C662.318,625.283 667.964,630.928 667.964,637.883C667.964,644.837 662.318,650.483 655.364,650.483ZM655.364,642.418C652.861,642.418 650.829,640.386 650.829,637.883C650.829,635.379 652.861,633.347 655.364,633.347C657.867,633.347 659.899,635.379 659.899,637.883C659.899,640.386 657.867,642.418 655.364,642.418ZM655.364,678.517C648.41,678.517 642.764,672.871 642.764,665.917C642.764,658.963 648.41,653.317 655.364,653.317C662.318,653.317 667.964,658.963 667.964,665.917C667.964,672.871 662.318,678.517 655.364,678.517ZM655.364,670.453C652.861,670.453 650.829,668.42 650.829,665.917C650.829,663.414 652.861,661.382 655.364,661.382C657.867,661.382 659.899,663.414 659.899,665.917C659.899,668.42 657.867,670.453 655.364,670.453Z" style="fill:none;stroke:black;stroke-width:1px;stroke-miterlimit:1.5;"/>
        </g>
    </g>
</svg>
