<?xml version="1.0" encoding="UTF-8" standalone="no"?>
<!DOCTYPE svg PUBLIC "-//W3C//DTD SVG 1.1//EN" "http://www.w3.org/Graphics/SVG/1.1/DTD/svg11.dtd">
<svg width="698px" height="735px" version="1.1" xmlns="http://www.w3.org/2000/svg" xmlns:xlink="http://www.w3.org/1999/xlink" xml:space="preserve" xmlns:serif="http://www.serif.com/" style="fill-rule:evenodd;clip-rule:evenodd;stroke-linecap:round;stroke-linejoin:round;">
    <g id="Artboard1" transform="matrix(1.06605,0,0,1.05124,-482.694,-32.9141)">
        <rect x="452.787" y="31.31" width="654.614" height="698.249" style="fill:none;"/>
        <g id="V1.2" transform="matrix(1.25072,0,0,1.26835,246.22,-352.814)">
            <g id="long-side-2" serif:id="long side 2" transform="matrix(6.12323e-17,-1,1,6.12323e-17,-179.904,404.605)">
                <path d="M-417.819,723.248C-385.766,720.303 -349.584,718.492 -311.142,718.133L-311.142,709.629L-282.795,709.629L-282.795,718.133C-244.049,718.495 -207.601,720.331 -175.363,723.317L-175.363,786.528L-175.362,786.527L-173.142,786.672L-170.96,787.106L-168.853,787.822L-166.858,788.805L-165.008,790.041L-163.336,791.508L-161.869,793.181L-160.633,795.031L-159.649,797.026L-158.934,799.133L-158.5,801.315L-158.354,803.535L-158.354,820.543L-158.427,821.653L-158.644,822.744L-159.001,823.797L-159.493,824.795L-160.111,825.719L-160.845,826.556L-161.681,827.289L-162.606,827.907L-163.604,828.399L-164.657,828.757L-165.748,828.974L-166.858,829.046L-166.858,820.543L-166.955,819.808L-167.074,819.457L-167.238,819.124L-167.444,818.816L-167.688,818.537L-167.967,818.293L-168.275,818.087L-168.608,817.922L-168.959,817.803L-169.693,817.707L-172.402,817.707L-174.076,818.052L-174.462,818.243L-174.827,818.471L-175.166,818.736L-175.477,819.033L-175.756,819.361L-176,819.715L-176.374,820.488L-179.489,829.045L-414.448,829.043L-417.605,820.368L-417.765,819.989L-417.964,819.627L-418.197,819.288L-418.464,818.975L-418.762,818.69L-419.087,818.437L-419.436,818.218L-419.806,818.035L-420.192,817.892L-420.59,817.788L-420.998,817.725L-421.409,817.706L-424.244,817.706L-424.614,817.731L-424.977,817.803L-425.328,817.922L-425.661,818.086L-425.969,818.293L-426.248,818.537L-426.493,818.816L-426.699,819.124L-426.863,819.457L-426.982,819.808L-427.054,820.171L-427.08,820.541L-427.08,829.045L-430.654,828.997L-431.382,828.852L-432.084,828.614L-432.749,828.286L-433.366,827.874L-433.923,827.385L-434.412,826.827L-434.824,826.211L-435.152,825.546L-435.391,824.844L-435.535,824.116L-435.584,823.376L-435.584,803.534L-435.438,801.314L-435.004,799.132L-434.289,797.025L-433.305,795.03L-432.069,793.18L-430.602,791.507L-428.93,790.04L-427.08,788.804L-425.084,787.82L-422.978,787.105L-420.796,786.526L-418.576,786.526L-418.575,723.317L-417.819,723.248ZM-333.725,811.753L-333.725,820.824L-362.071,820.824L-362.071,811.753L-333.725,811.753ZM-260.213,820.824L-260.213,811.753L-231.866,811.753L-231.866,820.824L-260.213,820.824ZM-326.469,775.271C-326.469,774.488 -327.104,773.854 -327.886,773.854C-336.491,773.854 -381.644,773.854 -390.249,773.854C-391.031,773.854 -391.666,774.488 -391.666,775.271C-391.666,779.851 -391.666,794.219 -391.666,798.799C-391.666,799.581 -391.031,800.216 -390.249,800.216C-381.644,800.216 -336.491,800.216 -327.886,800.216C-327.104,800.216 -326.469,799.581 -326.469,798.799C-326.469,794.219 -326.469,779.851 -326.469,775.271Z" style="fill:none;stroke:black;stroke-width:1px;"/>
                <g>
                    <g transform="matrix(1,0,0,1,-703.256,-20.0243)">
                        <g transform="matrix(6,0,0,6,361.43,774.486)">
                            <path d="M0.18,-0.6L0.18,-0.51L0.08,-0.51L0.08,-0.6C0.08,-0.614 0.083,-0.627 0.088,-0.639C0.093,-0.651 0.1,-0.662 0.109,-0.671C0.118,-0.68 0.129,-0.687 0.141,-0.692C0.154,-0.698 0.167,-0.7 0.18,-0.7L0.497,-0.7C0.511,-0.7 0.524,-0.698 0.536,-0.692C0.548,-0.687 0.559,-0.68 0.568,-0.671C0.577,-0.662 0.584,-0.651 0.589,-0.639C0.594,-0.627 0.597,-0.614 0.597,-0.6L0.597,-0.472C0.597,-0.458 0.596,-0.446 0.593,-0.436C0.591,-0.425 0.587,-0.415 0.581,-0.406C0.575,-0.398 0.568,-0.39 0.559,-0.383C0.55,-0.376 0.54,-0.37 0.527,-0.364L0.18,-0.201L0.18,-0.1L0.51,-0.1L0.51,-0.19L0.61,-0.19L0.61,-0L0.08,-0L0.08,-0.184C0.08,-0.198 0.081,-0.21 0.084,-0.221C0.087,-0.231 0.091,-0.241 0.097,-0.25C0.102,-0.258 0.109,-0.266 0.118,-0.273C0.127,-0.28 0.138,-0.286 0.15,-0.292L0.497,-0.455L0.497,-0.6L0.18,-0.6Z" style="fill:rgb(19,19,19);fill-rule:nonzero;"/>
                        </g>
                        <g transform="matrix(6,0,0,6,365.569,774.486)">
                            <path d="M0.546,-0.365C0.561,-0.361 0.574,-0.354 0.586,-0.346C0.598,-0.337 0.608,-0.326 0.617,-0.313C0.625,-0.3 0.632,-0.285 0.636,-0.267C0.641,-0.249 0.643,-0.228 0.643,-0.205L0.643,-0.17C0.643,-0.057 0.586,-0 0.473,-0L0.09,-0L0.09,-0.7L0.453,-0.7C0.566,-0.7 0.623,-0.643 0.623,-0.53L0.623,-0.517C0.623,-0.478 0.617,-0.446 0.604,-0.421C0.592,-0.396 0.572,-0.377 0.546,-0.365ZM0.188,-0.305L0.188,-0.098L0.47,-0.098C0.497,-0.098 0.516,-0.104 0.527,-0.117C0.539,-0.129 0.545,-0.148 0.545,-0.175L0.545,-0.229C0.545,-0.256 0.539,-0.275 0.527,-0.287C0.516,-0.299 0.497,-0.305 0.47,-0.305L0.188,-0.305ZM0.188,-0.602L0.188,-0.403L0.457,-0.403C0.481,-0.404 0.498,-0.41 0.509,-0.423C0.52,-0.435 0.525,-0.454 0.525,-0.479L0.525,-0.525C0.525,-0.552 0.519,-0.571 0.507,-0.583C0.496,-0.596 0.477,-0.602 0.45,-0.602L0.188,-0.602Z" style="fill:rgb(19,19,19);fill-rule:nonzero;"/>
                        </g>
                    </g>
                    <g transform="matrix(1,0,0,1,-717.656,-20.0243)">
                        <g transform="matrix(6,0,0,6,361.439,774.486)">
                            <path d="M0.18,-0.6L0.18,-0.51L0.08,-0.51L0.08,-0.6C0.08,-0.614 0.083,-0.627 0.088,-0.639C0.093,-0.651 0.1,-0.662 0.109,-0.671C0.118,-0.68 0.129,-0.687 0.141,-0.692C0.154,-0.698 0.167,-0.7 0.18,-0.7L0.497,-0.7C0.511,-0.7 0.524,-0.698 0.536,-0.692C0.548,-0.687 0.559,-0.68 0.568,-0.671C0.577,-0.662 0.584,-0.651 0.589,-0.639C0.594,-0.627 0.597,-0.614 0.597,-0.6L0.597,-0.472C0.597,-0.458 0.596,-0.446 0.593,-0.436C0.591,-0.425 0.587,-0.415 0.581,-0.406C0.575,-0.398 0.568,-0.39 0.559,-0.383C0.55,-0.376 0.54,-0.37 0.527,-0.364L0.18,-0.201L0.18,-0.1L0.51,-0.1L0.51,-0.19L0.61,-0.19L0.61,-0L0.08,-0L0.08,-0.184C0.08,-0.198 0.081,-0.21 0.084,-0.221C0.087,-0.231 0.091,-0.241 0.097,-0.25C0.102,-0.258 0.109,-0.266 0.118,-0.273C0.127,-0.28 0.138,-0.286 0.15,-0.292L0.497,-0.455L0.497,-0.6L0.18,-0.6Z" style="fill:rgb(19,19,19);fill-rule:nonzero;"/>
                        </g>
                        <g transform="matrix(6,0,0,6,365.578,774.486)">
                            <path d="M0.4,-0.7L0.67,-0L0.57,-0L0.508,-0.161L0.192,-0.161L0.13,-0L0.03,-0L0.3,-0.7L0.4,-0.7ZM0.23,-0.261L0.469,-0.261L0.35,-0.57L0.23,-0.261Z" style="fill:rgb(19,19,19);fill-rule:nonzero;"/>
                        </g>
                    </g>
                    <g transform="matrix(1,0,0,1,-732.056,-20.0243)">
                        <g transform="matrix(6,0,0,6,362.458,774.486)">
                            <path d="M0.25,-0.7L0.25,-0L0.15,-0L0.15,-0.6L0.03,-0.6L0.03,-0.7L0.25,-0.7Z" style="fill:rgb(19,19,19);fill-rule:nonzero;"/>
                        </g>
                        <g transform="matrix(6,0,0,6,364.559,774.486)">
                            <path d="M0.4,-0.7L0.67,-0L0.57,-0L0.508,-0.161L0.192,-0.161L0.13,-0L0.03,-0L0.3,-0.7L0.4,-0.7ZM0.23,-0.261L0.469,-0.261L0.35,-0.57L0.23,-0.261Z" style="fill:rgb(19,19,19);fill-rule:nonzero;"/>
                        </g>
                    </g>
                    <g transform="matrix(1,0,0,1,-745.74,-20.0243)">
                        <g transform="matrix(5.9,0,0,5.9,362.502,774.486)">
                            <path d="M0.25,-0.7L0.25,-0L0.15,-0L0.15,-0.6L0.03,-0.6L0.03,-0.7L0.25,-0.7Z" style="fill:rgb(19,19,19);fill-rule:nonzero;"/>
                        </g>
                        <g transform="matrix(5.9,0,0,5.9,364.568,774.486)">
                            <path d="M0.546,-0.365C0.561,-0.361 0.574,-0.354 0.586,-0.346C0.598,-0.337 0.608,-0.326 0.617,-0.313C0.625,-0.3 0.632,-0.285 0.636,-0.267C0.641,-0.249 0.643,-0.228 0.643,-0.205L0.643,-0.17C0.643,-0.057 0.586,-0 0.473,-0L0.09,-0L0.09,-0.7L0.453,-0.7C0.566,-0.7 0.623,-0.643 0.623,-0.53L0.623,-0.517C0.623,-0.478 0.617,-0.446 0.604,-0.421C0.592,-0.396 0.572,-0.377 0.546,-0.365ZM0.188,-0.305L0.188,-0.098L0.47,-0.098C0.497,-0.098 0.516,-0.104 0.527,-0.117C0.539,-0.129 0.545,-0.148 0.545,-0.175L0.545,-0.229C0.545,-0.256 0.539,-0.275 0.527,-0.287C0.516,-0.299 0.497,-0.305 0.47,-0.305L0.188,-0.305ZM0.188,-0.602L0.188,-0.403L0.457,-0.403C0.481,-0.404 0.498,-0.41 0.509,-0.423C0.52,-0.435 0.525,-0.454 0.525,-0.479L0.525,-0.525C0.525,-0.552 0.519,-0.571 0.507,-0.583C0.496,-0.596 0.477,-0.602 0.45,-0.602L0.188,-0.602Z" style="fill:rgb(19,19,19);fill-rule:nonzero;"/>
                        </g>
                    </g>
                    <g transform="matrix(1,0,0,1,-675.866,34.8592)">
                        <g transform="matrix(10,0,0,10,300.943,710.162)">
                            <path d="M0.451,-0L0.19,-0.513L0.19,-0L0.09,-0L0.09,-0.7L0.199,-0.7L0.466,-0.173L0.733,-0.7L0.842,-0.7L0.842,-0L0.742,-0L0.742,-0.513L0.481,-0L0.451,-0Z" style="fill:rgb(19,19,19);fill-rule:nonzero;"/>
                        </g>
                        <g transform="matrix(10,0,0,10,310.264,710.162)">
                            <path d="M0.53,-0.096C0.53,-0.083 0.527,-0.07 0.522,-0.059C0.517,-0.047 0.51,-0.037 0.502,-0.028C0.493,-0.019 0.483,-0.013 0.471,-0.008C0.46,-0.003 0.447,-0 0.434,-0L0.176,-0C0.163,-0 0.15,-0.003 0.139,-0.008C0.127,-0.013 0.117,-0.019 0.108,-0.028C0.1,-0.037 0.093,-0.047 0.088,-0.059C0.083,-0.07 0.08,-0.083 0.08,-0.096L0.08,-0.424C0.08,-0.437 0.083,-0.45 0.088,-0.461C0.093,-0.473 0.1,-0.483 0.108,-0.492C0.117,-0.501 0.127,-0.507 0.139,-0.512C0.15,-0.517 0.163,-0.52 0.176,-0.52L0.434,-0.52C0.447,-0.52 0.46,-0.517 0.471,-0.512C0.483,-0.507 0.493,-0.501 0.502,-0.492C0.51,-0.483 0.517,-0.473 0.522,-0.461C0.527,-0.45 0.53,-0.437 0.53,-0.424L0.53,-0.096ZM0.176,-0.424L0.176,-0.096L0.434,-0.096L0.434,-0.424L0.176,-0.424Z" style="fill:rgb(19,19,19);fill-rule:nonzero;"/>
                        </g>
                        <g transform="matrix(10,0,0,10,316.363,710.162)">
                            <path d="M0.05,-0.52L0.177,-0.52L0.177,-0.68L0.273,-0.68L0.273,-0.52L0.444,-0.52L0.444,-0.424L0.273,-0.424L0.273,-0.096L0.444,-0.096L0.444,-0L0.273,-0C0.26,-0 0.248,-0.003 0.236,-0.008C0.224,-0.013 0.214,-0.019 0.205,-0.028C0.196,-0.037 0.189,-0.047 0.184,-0.059C0.179,-0.07 0.177,-0.083 0.177,-0.096L0.177,-0.424L0.05,-0.424L0.05,-0.52Z" style="fill:rgb(19,19,19);fill-rule:nonzero;"/>
                        </g>
                        <g transform="matrix(10,0,0,10,321.602,710.162)">
                            <path d="M0.53,-0.096C0.53,-0.083 0.527,-0.07 0.522,-0.059C0.517,-0.047 0.51,-0.037 0.502,-0.028C0.493,-0.019 0.483,-0.013 0.471,-0.008C0.46,-0.003 0.447,-0 0.434,-0L0.176,-0C0.163,-0 0.15,-0.003 0.139,-0.008C0.127,-0.013 0.117,-0.019 0.108,-0.028C0.1,-0.037 0.093,-0.047 0.088,-0.059C0.083,-0.07 0.08,-0.083 0.08,-0.096L0.08,-0.424C0.08,-0.437 0.083,-0.45 0.088,-0.461C0.093,-0.473 0.1,-0.483 0.108,-0.492C0.117,-0.501 0.127,-0.507 0.139,-0.512C0.15,-0.517 0.163,-0.52 0.176,-0.52L0.434,-0.52C0.447,-0.52 0.46,-0.517 0.471,-0.512C0.483,-0.507 0.493,-0.501 0.502,-0.492C0.51,-0.483 0.517,-0.473 0.522,-0.461C0.527,-0.45 0.53,-0.437 0.53,-0.424L0.53,-0.096ZM0.176,-0.424L0.176,-0.096L0.434,-0.096L0.434,-0.424L0.176,-0.424Z" style="fill:rgb(19,19,19);fill-rule:nonzero;"/>
                        </g>
                        <g transform="matrix(10,0,0,10,327.701,710.162)">
                            <path d="M0.176,-0.424L0.176,-0L0.08,-0L0.08,-0.52L0.374,-0.52C0.387,-0.52 0.4,-0.517 0.411,-0.512C0.423,-0.507 0.433,-0.501 0.442,-0.492C0.451,-0.483 0.458,-0.473 0.463,-0.461C0.468,-0.45 0.47,-0.437 0.47,-0.424L0.47,-0.336L0.374,-0.336L0.374,-0.424L0.176,-0.424Z" style="fill:rgb(19,19,19);fill-rule:nonzero;"/>
                        </g>
                    </g>
                </g>
            </g>
            <g id="long-side-1" serif:id="long side 1" transform="matrix(6.12323e-17,1,-1,6.12323e-17,1041.68,998.543)">
                <path d="M-417.811,723.144C-385.759,720.199 -349.576,718.389 -311.134,718.03L-311.134,709.526L-282.787,709.526L-282.787,718.03C-244.041,718.392 -207.594,720.228 -175.355,723.214L-175.363,786.528L-175.362,786.527L-173.142,786.672L-170.96,787.106L-168.853,787.822L-166.858,788.805L-165.008,790.041L-163.336,791.508L-161.869,793.181L-160.633,795.031L-159.649,797.026L-158.934,799.133L-158.5,801.315L-158.354,803.535L-158.354,820.543L-158.427,821.653L-158.644,822.744L-159.001,823.797L-159.493,824.795L-160.111,825.719L-160.845,826.556L-161.681,827.289L-162.606,827.907L-163.604,828.399L-164.657,828.757L-165.748,828.974L-166.858,829.046L-166.858,820.543L-166.955,819.808L-167.074,819.457L-167.238,819.124L-167.444,818.816L-167.688,818.537L-167.967,818.293L-168.275,818.087L-168.608,817.922L-168.959,817.803L-169.693,817.707L-172.402,817.707L-174.076,818.052L-174.462,818.243L-174.827,818.471L-175.166,818.736L-175.477,819.033L-175.756,819.361L-176,819.715L-176.374,820.488L-179.489,829.045L-414.448,829.043L-417.605,820.368L-417.765,819.989L-417.964,819.627L-418.197,819.288L-418.464,818.975L-418.762,818.69L-419.087,818.437L-419.436,818.218L-419.806,818.035L-420.192,817.892L-420.59,817.788L-420.998,817.725L-421.409,817.706L-424.244,817.706L-424.614,817.731L-424.977,817.803L-425.328,817.922L-425.661,818.086L-425.969,818.293L-426.248,818.537L-426.493,818.816L-426.699,819.124L-426.863,819.457L-426.982,819.808L-427.054,820.171L-427.08,820.541L-427.08,829.045L-430.654,828.997L-431.382,828.852L-432.084,828.614L-432.749,828.286L-433.366,827.874L-433.923,827.385L-434.412,826.827L-434.824,826.211L-435.152,825.546L-435.391,824.844L-435.535,824.116L-435.584,823.376L-435.584,803.534L-435.438,801.314L-435.004,799.132L-434.289,797.025L-433.305,795.03L-432.069,793.18L-430.602,791.507L-428.93,790.04L-427.08,788.804L-425.084,787.82L-422.978,787.105L-420.796,786.526L-418.576,786.526L-418.567,723.214L-417.811,723.144ZM-333.725,811.753L-333.725,820.824L-362.071,820.824L-362.071,811.753L-333.725,811.753ZM-260.213,820.824L-260.213,811.753L-231.866,811.753L-231.866,820.824L-260.213,820.824ZM-210.798,766.895C-210.798,766.308 -211.274,765.832 -211.861,765.832C-216.335,765.832 -233.608,765.832 -238.082,765.832C-238.669,765.832 -239.145,766.308 -239.145,766.895C-239.145,771.971 -239.145,793.708 -239.145,798.784C-239.145,799.371 -238.669,799.847 -238.082,799.847C-233.608,799.847 -216.335,799.847 -211.861,799.847C-211.274,799.847 -210.798,799.371 -210.798,798.784C-210.798,793.708 -210.798,771.971 -210.798,766.895ZM-257.341,762.643C-257.341,762.361 -257.453,762.09 -257.652,761.891C-257.851,761.692 -258.122,761.58 -258.404,761.58C-264.675,761.58 -296.778,761.58 -303.049,761.58C-303.331,761.58 -303.602,761.692 -303.801,761.891C-304,762.09 -304.112,762.361 -304.112,762.643C-304.112,768.139 -304.112,793.288 -304.112,798.784C-304.112,799.066 -304,799.337 -303.801,799.536C-303.602,799.735 -303.331,799.847 -303.049,799.847C-296.778,799.847 -264.675,799.847 -258.404,799.847C-258.122,799.847 -257.851,799.735 -257.652,799.536C-257.453,799.337 -257.341,799.066 -257.341,798.784C-257.341,793.288 -257.341,768.139 -257.341,762.643ZM-344.048,745.635C-344.048,745.353 -344.16,745.082 -344.359,744.883C-344.558,744.684 -344.829,744.572 -345.111,744.572C-350.469,744.572 -374.476,744.572 -379.835,744.572C-380.117,744.572 -380.387,744.684 -380.587,744.883C-380.786,745.082 -380.898,745.353 -380.898,745.635C-380.898,750.109 -380.898,767.381 -380.898,771.855C-380.898,772.137 -380.786,772.408 -380.587,772.607C-380.387,772.806 -380.117,772.918 -379.835,772.918C-374.476,772.918 -350.469,772.918 -345.111,772.918C-344.829,772.918 -344.558,772.806 -344.359,772.607C-344.16,772.408 -344.048,772.137 -344.048,771.855C-344.048,767.381 -344.048,750.109 -344.048,745.635Z" style="fill:none;stroke:rgb(19,19,19);stroke-width:1px;"/>
                <g>
                    <g transform="matrix(4.59243e-17,-0.75,0.75,4.59243e-17,-708.381,869.861)">
                        <path d="M124.289,678.651C124.611,675.496 127.279,673.03 130.519,673.03C133.974,673.03 136.78,675.836 136.78,679.292C136.78,682.748 133.974,685.554 130.519,685.554C127.279,685.554 124.611,683.088 124.289,679.933L119.136,679.933C118.839,681.377 117.56,682.465 116.028,682.465C114.277,682.465 112.855,681.043 112.855,679.292C112.855,677.541 114.277,676.119 116.028,676.119C117.56,676.119 118.839,677.207 119.136,678.651L124.289,678.651ZM107.767,679.933C107.446,683.088 104.778,685.554 101.538,685.554C98.082,685.554 95.276,682.748 95.276,679.292C95.276,675.836 98.082,673.03 101.538,673.03C104.778,673.03 107.446,675.496 107.767,678.651L109.799,678.651C110.12,675.496 112.789,673.03 116.028,673.03C117.756,673.03 119.322,673.732 120.455,674.865L119.52,675.8C118.626,674.906 117.391,674.353 116.028,674.353C113.302,674.353 111.089,676.566 111.089,679.292C111.089,682.018 113.302,684.231 116.028,684.231C117.391,684.231 118.626,683.677 119.52,682.783L120.455,683.719C119.322,684.852 117.756,685.554 116.028,685.554C112.789,685.554 110.12,683.088 109.799,679.933L107.767,679.933ZM130.519,674.353C133.244,674.353 135.457,676.566 135.457,679.292C135.457,682.018 133.244,684.231 130.519,684.231C127.793,684.231 125.58,682.018 125.58,679.292C125.58,676.566 127.793,674.353 130.519,674.353ZM101.538,674.353C104.264,674.353 106.477,676.566 106.477,679.292C106.477,682.018 104.264,684.231 101.538,684.231C98.812,684.231 96.599,682.018 96.599,679.292C96.599,676.566 98.812,674.353 101.538,674.353ZM131.157,675.649L131.157,678.651L134.158,678.651L134.158,679.933L131.157,679.933L131.157,682.934L129.881,682.934L129.881,679.933L126.879,679.933L126.879,678.651L129.881,678.651L129.881,675.649L131.157,675.649ZM100.897,682.928L100.897,675.649L102.179,675.649L102.179,682.928L100.897,682.928Z"/>
                    </g>
                    <g transform="matrix(1,0,0,1,-679.343,76.2045)">
                        <g transform="matrix(10,0,0,10,305.855,710.162)">
                            <path d="M0.09,-0.7L0.19,-0.7L0.19,-0.1L0.59,-0.1L0.59,-0.7L0.69,-0.7L0.69,-0.1C0.69,-0.086 0.687,-0.073 0.682,-0.061C0.677,-0.049 0.67,-0.038 0.661,-0.029C0.652,-0.02 0.641,-0.013 0.629,-0.008C0.616,-0.003 0.604,-0 0.59,-0L0.19,-0C0.176,-0 0.163,-0.003 0.151,-0.008C0.139,-0.013 0.128,-0.02 0.119,-0.029C0.11,-0.038 0.103,-0.049 0.098,-0.061C0.092,-0.073 0.09,-0.086 0.09,-0.1L0.09,-0.7Z" style="fill:rgb(19,19,19);fill-rule:nonzero;"/>
                        </g>
                        <g transform="matrix(10,0,0,10,313.653,710.162)">
                            <path d="M0.19,-0.3C0.176,-0.3 0.163,-0.302 0.151,-0.308C0.139,-0.313 0.128,-0.32 0.119,-0.329C0.11,-0.338 0.103,-0.349 0.098,-0.361C0.092,-0.373 0.09,-0.386 0.09,-0.4L0.09,-0.6C0.09,-0.614 0.092,-0.627 0.098,-0.639C0.103,-0.651 0.11,-0.662 0.119,-0.671C0.128,-0.68 0.139,-0.687 0.151,-0.692C0.163,-0.698 0.176,-0.7 0.19,-0.7L0.53,-0.7L0.591,-0.7C0.613,-0.7 0.624,-0.694 0.625,-0.68C0.625,-0.667 0.625,-0.64 0.625,-0.6L0.19,-0.6L0.19,-0.4L0.53,-0.4C0.543,-0.4 0.556,-0.397 0.569,-0.392C0.581,-0.387 0.591,-0.38 0.601,-0.371C0.61,-0.361 0.617,-0.351 0.622,-0.339C0.627,-0.326 0.63,-0.313 0.63,-0.3L0.63,-0.1C0.63,-0.086 0.627,-0.073 0.622,-0.061C0.617,-0.049 0.61,-0.038 0.601,-0.029C0.591,-0.02 0.581,-0.013 0.569,-0.008C0.556,-0.003 0.543,-0 0.53,-0L0.18,-0L0.101,0C0.091,-0.008 0.085,-0.017 0.083,-0.024C0.081,-0.032 0.08,-0.057 0.08,-0.101L0.18,-0.1L0.53,-0.1L0.53,-0.3L0.19,-0.3Z" style="fill:rgb(19,19,19);fill-rule:nonzero;"/>
                        </g>
                        <g transform="matrix(10,0,0,10,320.855,710.162)">
                            <path d="M0.546,-0.365C0.561,-0.361 0.574,-0.354 0.586,-0.346C0.598,-0.337 0.608,-0.326 0.617,-0.313C0.625,-0.3 0.632,-0.285 0.636,-0.267C0.641,-0.249 0.643,-0.228 0.643,-0.205L0.643,-0.17C0.643,-0.057 0.586,-0 0.473,-0L0.09,-0L0.09,-0.7L0.453,-0.7C0.566,-0.7 0.623,-0.643 0.623,-0.53L0.623,-0.517C0.623,-0.478 0.617,-0.446 0.604,-0.421C0.592,-0.396 0.572,-0.377 0.546,-0.365ZM0.188,-0.305L0.188,-0.098L0.47,-0.098C0.497,-0.098 0.516,-0.104 0.527,-0.117C0.539,-0.129 0.545,-0.148 0.545,-0.175L0.545,-0.229C0.545,-0.256 0.539,-0.275 0.527,-0.287C0.516,-0.299 0.497,-0.305 0.47,-0.305L0.188,-0.305ZM0.188,-0.602L0.188,-0.403L0.457,-0.403C0.481,-0.404 0.498,-0.41 0.509,-0.423C0.52,-0.435 0.525,-0.454 0.525,-0.479L0.525,-0.525C0.525,-0.552 0.519,-0.571 0.507,-0.583C0.496,-0.596 0.477,-0.602 0.45,-0.602L0.188,-0.602Z" style="fill:rgb(19,19,19);fill-rule:nonzero;"/>
                        </g>
                    </g>
                    <g transform="matrix(1,0,0,1,-541.842,50.0005)">
                        <g transform="matrix(10,0,0,10,301.624,710.162)">
                            <path d="M0.578,-0.17C0.577,-0.113 0.563,-0.07 0.535,-0.042C0.507,-0.014 0.465,-0 0.408,-0L0.22,-0C0.107,-0 0.05,-0.057 0.05,-0.17L0.05,-0.212L0.148,-0.212L0.148,-0.175C0.148,-0.148 0.154,-0.129 0.166,-0.117C0.177,-0.104 0.196,-0.098 0.223,-0.098L0.405,-0.098C0.431,-0.098 0.451,-0.104 0.462,-0.117C0.474,-0.129 0.48,-0.148 0.48,-0.175L0.48,-0.269C0.48,-0.295 0.474,-0.315 0.462,-0.327C0.451,-0.339 0.431,-0.345 0.405,-0.345L0.07,-0.345L0.07,-0.7L0.56,-0.7L0.56,-0.6L0.17,-0.6L0.17,-0.443L0.408,-0.443C0.465,-0.443 0.508,-0.429 0.536,-0.401C0.564,-0.373 0.578,-0.331 0.578,-0.273L0.578,-0.17Z" style="fill:rgb(19,19,19);fill-rule:nonzero;"/>
                        </g>
                        <g transform="matrix(10,0,0,10,308.006,710.162)">
                            <rect x="0.08" y="-0.33" width="0.234" height="0.096" style="fill:rgb(19,19,19);fill-rule:nonzero;"/>
                        </g>
                        <g transform="matrix(10,0,0,10,311.946,710.162)">
                            <path d="M0.02,-0.241L0.365,-0.7L0.483,-0.7L0.483,-0.241L0.577,-0.241L0.577,-0.145L0.483,-0.145L0.483,-0L0.383,-0L0.383,-0.145L0.02,-0.145L0.02,-0.241ZM0.383,-0.241L0.383,-0.579L0.129,-0.241L0.383,-0.241Z" style="fill:rgb(19,19,19);fill-rule:nonzero;"/>
                        </g>
                        <g transform="matrix(10,0,0,10,318.016,710.162)">
                            <path d="M0.09,-0.6C0.09,-0.614 0.092,-0.627 0.098,-0.639C0.103,-0.651 0.11,-0.662 0.119,-0.671C0.128,-0.68 0.139,-0.687 0.151,-0.692C0.163,-0.698 0.176,-0.7 0.19,-0.7L0.51,-0.7C0.523,-0.7 0.536,-0.698 0.549,-0.692C0.561,-0.687 0.571,-0.68 0.581,-0.671C0.59,-0.662 0.597,-0.651 0.602,-0.639C0.607,-0.627 0.61,-0.614 0.61,-0.6L0.61,-0.51L0.51,-0.51L0.51,-0.6L0.19,-0.6L0.19,-0.4L0.51,-0.4C0.523,-0.4 0.536,-0.397 0.549,-0.392C0.561,-0.387 0.571,-0.38 0.581,-0.371C0.59,-0.361 0.597,-0.351 0.602,-0.339C0.607,-0.326 0.61,-0.313 0.61,-0.3L0.61,-0.1C0.61,-0.086 0.607,-0.073 0.602,-0.061C0.597,-0.049 0.59,-0.038 0.581,-0.029C0.571,-0.02 0.561,-0.013 0.549,-0.008C0.536,-0.003 0.523,-0 0.51,-0L0.19,-0C0.176,-0 0.163,-0.003 0.151,-0.008C0.139,-0.013 0.128,-0.02 0.119,-0.029C0.11,-0.038 0.103,-0.049 0.098,-0.061C0.092,-0.073 0.09,-0.086 0.09,-0.1L0.09,-0.6ZM0.19,-0.3L0.19,-0.1L0.51,-0.1L0.51,-0.3L0.19,-0.3Z" style="fill:rgb(19,19,19);fill-rule:nonzero;"/>
                        </g>
                        <g transform="matrix(10,0,0,10,325.018,710.162)">
                            <path d="M0.3,-0L0.03,-0.7L0.137,-0.7L0.355,-0.124L0.573,-0.7L0.68,-0.7L0.41,-0L0.3,-0Z" style="fill:rgb(19,19,19);fill-rule:nonzero;"/>
                        </g>
                    </g>
                    <g transform="matrix(1,0,0,1,-597.537,33.7486)">
                        <g transform="matrix(10,0,0,10,302.029,710.162)">
                            <path d="M0.19,-0.3C0.176,-0.3 0.163,-0.302 0.151,-0.308C0.139,-0.313 0.128,-0.32 0.119,-0.329C0.11,-0.338 0.103,-0.349 0.098,-0.361C0.092,-0.373 0.09,-0.386 0.09,-0.4L0.09,-0.6C0.09,-0.614 0.092,-0.627 0.098,-0.639C0.103,-0.651 0.11,-0.662 0.119,-0.671C0.128,-0.68 0.139,-0.687 0.151,-0.692C0.163,-0.698 0.176,-0.7 0.19,-0.7L0.53,-0.7L0.591,-0.7C0.613,-0.7 0.624,-0.694 0.625,-0.68C0.625,-0.667 0.625,-0.64 0.625,-0.6L0.19,-0.6L0.19,-0.4L0.53,-0.4C0.543,-0.4 0.556,-0.397 0.569,-0.392C0.581,-0.387 0.591,-0.38 0.601,-0.371C0.61,-0.361 0.617,-0.351 0.622,-0.339C0.627,-0.326 0.63,-0.313 0.63,-0.3L0.63,-0.1C0.63,-0.086 0.627,-0.073 0.622,-0.061C0.617,-0.049 0.61,-0.038 0.601,-0.029C0.591,-0.02 0.581,-0.013 0.569,-0.008C0.556,-0.003 0.543,-0 0.53,-0L0.18,-0L0.101,0C0.091,-0.008 0.085,-0.017 0.083,-0.024C0.081,-0.032 0.08,-0.057 0.08,-0.101L0.18,-0.1L0.53,-0.1L0.53,-0.3L0.19,-0.3Z" style="fill:rgb(19,19,19);fill-rule:nonzero;"/>
                        </g>
                        <g transform="matrix(10,0,0,10,309.231,710.162)">
                            <path d="M0.05,-0.52L0.177,-0.52L0.177,-0.68L0.273,-0.68L0.273,-0.52L0.444,-0.52L0.444,-0.424L0.273,-0.424L0.273,-0.096L0.444,-0.096L0.444,-0L0.273,-0C0.26,-0 0.248,-0.003 0.236,-0.008C0.224,-0.013 0.214,-0.019 0.205,-0.028C0.196,-0.037 0.189,-0.047 0.184,-0.059C0.179,-0.07 0.177,-0.083 0.177,-0.096L0.177,-0.424L0.05,-0.424L0.05,-0.52Z" style="fill:rgb(19,19,19);fill-rule:nonzero;"/>
                        </g>
                        <g transform="matrix(10,0,0,10,314.471,710.162)">
                            <path d="M0.08,-0.227C0.08,-0.24 0.083,-0.253 0.088,-0.264C0.093,-0.276 0.1,-0.286 0.108,-0.295C0.117,-0.304 0.127,-0.311 0.139,-0.316C0.15,-0.321 0.163,-0.323 0.176,-0.323L0.424,-0.323L0.424,-0.424L0.11,-0.424L0.11,-0.52L0.424,-0.52C0.437,-0.52 0.45,-0.517 0.461,-0.512C0.473,-0.507 0.483,-0.501 0.492,-0.492C0.501,-0.483 0.507,-0.473 0.512,-0.461C0.517,-0.45 0.52,-0.437 0.52,-0.424L0.52,-0L0.176,-0C0.163,-0 0.15,-0.003 0.139,-0.008C0.127,-0.013 0.117,-0.019 0.108,-0.028C0.1,-0.037 0.093,-0.047 0.088,-0.059C0.083,-0.07 0.08,-0.083 0.08,-0.096L0.08,-0.227ZM0.176,-0.096L0.424,-0.096L0.424,-0.227L0.176,-0.227L0.176,-0.096Z" style="fill:rgb(19,19,19);fill-rule:nonzero;"/>
                        </g>
                        <g transform="matrix(10,0,0,10,320.472,710.162)">
                            <path d="M0.05,-0.52L0.177,-0.52L0.177,-0.68L0.273,-0.68L0.273,-0.52L0.444,-0.52L0.444,-0.424L0.273,-0.424L0.273,-0.096L0.444,-0.096L0.444,-0L0.273,-0C0.26,-0 0.248,-0.003 0.236,-0.008C0.224,-0.013 0.214,-0.019 0.205,-0.028C0.196,-0.037 0.189,-0.047 0.184,-0.059C0.179,-0.07 0.177,-0.083 0.177,-0.096L0.177,-0.424L0.05,-0.424L0.05,-0.52Z" style="fill:rgb(19,19,19);fill-rule:nonzero;"/>
                        </g>
                        <g transform="matrix(10,0,0,10,325.711,710.162)">
                            <path d="M0.52,-0.211L0.176,-0.211L0.176,-0.096L0.52,-0.096L0.52,-0L0.176,-0C0.163,-0 0.15,-0.003 0.139,-0.008C0.127,-0.013 0.117,-0.019 0.108,-0.028C0.1,-0.037 0.093,-0.047 0.088,-0.059C0.083,-0.07 0.08,-0.083 0.08,-0.096L0.08,-0.424C0.08,-0.437 0.083,-0.45 0.088,-0.461C0.093,-0.473 0.1,-0.483 0.108,-0.492C0.117,-0.501 0.127,-0.507 0.139,-0.512C0.15,-0.517 0.163,-0.52 0.176,-0.52L0.424,-0.52C0.437,-0.52 0.45,-0.517 0.461,-0.512C0.473,-0.507 0.483,-0.501 0.492,-0.492C0.501,-0.483 0.507,-0.473 0.512,-0.461C0.517,-0.45 0.52,-0.437 0.52,-0.424L0.52,-0.211ZM0.176,-0.424L0.176,-0.307L0.424,-0.307L0.424,-0.424L0.176,-0.424Z" style="fill:rgb(19,19,19);fill-rule:nonzero;"/>
                        </g>
                        <g transform="matrix(10,0,0,10,295.677,720.641)">
                            <path d="M0.451,-0L0.19,-0.513L0.19,-0L0.09,-0L0.09,-0.7L0.199,-0.7L0.466,-0.173L0.733,-0.7L0.842,-0.7L0.842,-0L0.742,-0L0.742,-0.513L0.481,-0L0.451,-0Z" style="fill:rgb(19,19,19);fill-rule:nonzero;"/>
                        </g>
                        <g transform="matrix(10,0,0,10,304.998,720.641)">
                            <path d="M0.08,-0.227C0.08,-0.24 0.083,-0.253 0.088,-0.264C0.093,-0.276 0.1,-0.286 0.108,-0.295C0.117,-0.304 0.127,-0.311 0.139,-0.316C0.15,-0.321 0.163,-0.323 0.176,-0.323L0.424,-0.323L0.424,-0.424L0.11,-0.424L0.11,-0.52L0.424,-0.52C0.437,-0.52 0.45,-0.517 0.461,-0.512C0.473,-0.507 0.483,-0.501 0.492,-0.492C0.501,-0.483 0.507,-0.473 0.512,-0.461C0.517,-0.45 0.52,-0.437 0.52,-0.424L0.52,-0L0.176,-0C0.163,-0 0.15,-0.003 0.139,-0.008C0.127,-0.013 0.117,-0.019 0.108,-0.028C0.1,-0.037 0.093,-0.047 0.088,-0.059C0.083,-0.07 0.08,-0.083 0.08,-0.096L0.08,-0.227ZM0.176,-0.096L0.424,-0.096L0.424,-0.227L0.176,-0.227L0.176,-0.096Z" style="fill:rgb(19,19,19);fill-rule:nonzero;"/>
                        </g>
                        <g transform="matrix(10,0,0,10,310.999,720.641)">
                            <path d="M0.176,-0.424L0.176,-0.096L0.424,-0.096L0.424,-0.184L0.52,-0.184L0.52,-0.096C0.52,-0.083 0.517,-0.07 0.512,-0.059C0.507,-0.047 0.501,-0.037 0.492,-0.028C0.483,-0.019 0.473,-0.013 0.461,-0.008C0.45,-0.003 0.437,-0 0.424,-0L0.176,-0C0.163,-0 0.15,-0.003 0.139,-0.008C0.127,-0.013 0.117,-0.019 0.108,-0.028C0.1,-0.037 0.093,-0.047 0.088,-0.059C0.083,-0.07 0.08,-0.083 0.08,-0.096L0.08,-0.424C0.08,-0.437 0.083,-0.45 0.088,-0.461C0.093,-0.473 0.1,-0.483 0.108,-0.492C0.117,-0.501 0.127,-0.507 0.139,-0.512C0.15,-0.517 0.163,-0.52 0.176,-0.52L0.424,-0.52C0.437,-0.52 0.45,-0.517 0.461,-0.512C0.473,-0.507 0.483,-0.501 0.492,-0.492C0.501,-0.483 0.507,-0.473 0.512,-0.461C0.517,-0.45 0.52,-0.437 0.52,-0.424L0.52,-0.336L0.424,-0.336L0.424,-0.424L0.176,-0.424Z" style="fill:rgb(19,19,19);fill-rule:nonzero;"/>
                        </g>
                        <g transform="matrix(10,0,0,10,317,720.641)">
                            <path d="M0.54,-0L0.444,-0L0.444,-0.424L0.176,-0.424L0.176,-0L0.08,-0L0.08,-0.72L0.176,-0.72L0.176,-0.52L0.273,-0.521L0.444,-0.52C0.457,-0.52 0.47,-0.517 0.481,-0.512C0.493,-0.507 0.503,-0.501 0.512,-0.492C0.521,-0.483 0.527,-0.473 0.532,-0.461C0.538,-0.45 0.54,-0.437 0.54,-0.424L0.54,-0Z" style="fill:rgb(19,19,19);fill-rule:nonzero;"/>
                        </g>
                        <g transform="matrix(10,0,0,10,323.201,720.641)">
                            <path d="M0.181,-0.52L0.181,-0L0.085,-0L0.085,-0.52L0.181,-0.52ZM0.08,-0.72L0.186,-0.72L0.186,-0.62L0.08,-0.62L0.08,-0.72Z" style="fill:rgb(19,19,19);fill-rule:nonzero;"/>
                        </g>
                        <g transform="matrix(10,0,0,10,325.862,720.641)">
                            <path d="M0.54,-0L0.444,-0L0.444,-0.424L0.176,-0.424L0.176,-0L0.08,-0L0.08,-0.52L0.444,-0.52C0.457,-0.52 0.47,-0.517 0.481,-0.512C0.493,-0.507 0.503,-0.501 0.512,-0.492C0.521,-0.483 0.527,-0.473 0.532,-0.461C0.538,-0.45 0.54,-0.437 0.54,-0.424L0.54,-0Z" style="fill:rgb(19,19,19);fill-rule:nonzero;"/>
                        </g>
                        <g transform="matrix(10,0,0,10,332.063,720.641)">
                            <path d="M0.52,-0.211L0.176,-0.211L0.176,-0.096L0.52,-0.096L0.52,-0L0.176,-0C0.163,-0 0.15,-0.003 0.139,-0.008C0.127,-0.013 0.117,-0.019 0.108,-0.028C0.1,-0.037 0.093,-0.047 0.088,-0.059C0.083,-0.07 0.08,-0.083 0.08,-0.096L0.08,-0.424C0.08,-0.437 0.083,-0.45 0.088,-0.461C0.093,-0.473 0.1,-0.483 0.108,-0.492C0.117,-0.501 0.127,-0.507 0.139,-0.512C0.15,-0.517 0.163,-0.52 0.176,-0.52L0.424,-0.52C0.437,-0.52 0.45,-0.517 0.461,-0.512C0.473,-0.507 0.483,-0.501 0.492,-0.492C0.501,-0.483 0.507,-0.473 0.512,-0.461C0.517,-0.45 0.52,-0.437 0.52,-0.424L0.52,-0.211ZM0.176,-0.424L0.176,-0.307L0.424,-0.307L0.424,-0.424L0.176,-0.424Z" style="fill:rgb(19,19,19);fill-rule:nonzero;"/>
                        </g>
                    </g>
                </g>
            </g>
            <g id="short-side-2" serif:id="short side 2" transform="matrix(6.12323e-17,1,-1,6.12323e-17,1136.1,17.9973)">
                <g id="short-side-21" serif:id="short side 2" transform="matrix(0.75,0,0,0.75,-153.991,293.02)">
                    <path d="M667.323,401.268L639.339,401.268L638.352,401.203L637.382,401.01L636.446,400.693L635.559,400.255L634.737,399.706L633.994,399.054L633.342,398.311L632.793,397.488L632.355,396.602L632.037,395.665L631.844,394.696L631.78,393.709L631.78,244.701L631.974,241.741L632.552,238.832L633.506,236.023L634.818,233.363L636.466,230.896L638.422,228.666L640.652,226.71L643.118,225.062L645.779,223.75L648.588,222.797L651.497,222.218L654.457,222.024L905.481,222.024L908.441,222.218L911.35,222.797L914.159,223.75L916.819,225.062L919.286,226.71L921.516,228.666L923.472,230.896L925.12,233.363L926.432,236.023L927.385,238.832L927.964,241.741L928.158,244.701L928.158,393.709L928.093,394.696L927.9,395.666L927.583,396.602L927.145,397.489L926.596,398.311L925.944,399.054L925.201,399.706L924.378,400.255L923.492,400.693L922.555,401.011L921.586,401.203L920.599,401.268L892.615,401.268C869.434,394.461 827.638,389.916 779.969,389.916C732.3,389.916 690.503,394.461 667.323,401.268ZM655.969,333.237L655.969,378.591L643.874,378.591L643.874,333.237L655.969,333.237ZM903.969,378.591L903.969,333.237L916.063,333.237L916.063,378.591L903.969,378.591ZM863.734,353.985C863.734,354.486 863.535,354.967 863.18,355.322C862.826,355.676 862.345,355.875 861.844,355.875C844.618,355.875 715.039,355.875 697.813,355.875C697.311,355.875 696.831,355.676 696.476,355.322C696.122,354.967 695.923,354.486 695.923,353.985C695.923,348.611 695.923,333.281 695.923,327.907C695.923,327.405 696.122,326.925 696.476,326.57C696.831,326.216 697.311,326.017 697.813,326.017C715.039,326.017 844.618,326.017 861.844,326.017C862.345,326.017 862.826,326.216 863.18,326.57C863.535,326.925 863.734,327.405 863.734,327.907C863.734,333.281 863.734,348.611 863.734,353.985ZM898.678,240.922L886.205,240.922L886.205,237.142L673.733,237.142L673.733,240.922L661.26,240.922L661.26,252.638L898.678,252.638L898.678,240.922Z" style="fill:none;stroke:rgb(19,19,19);stroke-width:1.33px;"/>
                </g>
                <g transform="matrix(0.75,0,0,0.75,-153.991,286.655)">
                    <g transform="matrix(8.16431e-17,-1.33333,1.33333,8.16431e-17,-176.947,799.129)">
                        <g transform="matrix(6,0,0,6,359.129,774.486)">
                            <path d="M0.578,-0.17C0.577,-0.113 0.563,-0.07 0.535,-0.042C0.507,-0.014 0.465,-0 0.408,-0L0.22,-0C0.107,-0 0.05,-0.057 0.05,-0.17L0.05,-0.212L0.148,-0.212L0.148,-0.175C0.148,-0.148 0.154,-0.129 0.166,-0.117C0.177,-0.104 0.196,-0.098 0.223,-0.098L0.405,-0.098C0.431,-0.098 0.451,-0.104 0.462,-0.117C0.474,-0.129 0.48,-0.148 0.48,-0.175L0.48,-0.269C0.48,-0.295 0.474,-0.315 0.462,-0.327C0.451,-0.339 0.431,-0.345 0.405,-0.345L0.07,-0.345L0.07,-0.7L0.56,-0.7L0.56,-0.6L0.17,-0.6L0.17,-0.443L0.408,-0.443C0.465,-0.443 0.508,-0.429 0.536,-0.401C0.564,-0.373 0.578,-0.331 0.578,-0.273L0.578,-0.17Z" style="fill:rgb(19,19,19);fill-rule:nonzero;"/>
                        </g>
                        <g transform="matrix(6,0,0,6,362.958,774.486)">
                            <path d="M0.3,-0L0.03,-0.7L0.137,-0.7L0.355,-0.124L0.573,-0.7L0.68,-0.7L0.41,-0L0.3,-0Z" style="fill:rgb(19,19,19);fill-rule:nonzero;"/>
                        </g>
                    </g>
                    <g transform="matrix(8.16431e-17,-1.33333,1.33333,8.16431e-17,-190.169,799.129)">
                        <g transform="matrix(6,0,0,6,359.129,774.486)">
                            <path d="M0.05,-0.212L0.148,-0.212L0.148,-0.175C0.148,-0.148 0.154,-0.129 0.166,-0.117C0.177,-0.104 0.196,-0.098 0.223,-0.098L0.425,-0.098C0.451,-0.098 0.471,-0.104 0.482,-0.117C0.494,-0.129 0.5,-0.148 0.5,-0.175L0.5,-0.229C0.5,-0.256 0.494,-0.275 0.482,-0.287C0.471,-0.299 0.451,-0.305 0.425,-0.305L0.218,-0.305L0.218,-0.403L0.422,-0.403C0.446,-0.404 0.464,-0.41 0.474,-0.423C0.485,-0.435 0.49,-0.454 0.49,-0.479L0.49,-0.525C0.49,-0.552 0.484,-0.571 0.472,-0.583C0.461,-0.596 0.441,-0.602 0.415,-0.602L0.233,-0.602C0.207,-0.602 0.188,-0.596 0.176,-0.583C0.164,-0.571 0.158,-0.552 0.158,-0.525L0.158,-0.488L0.06,-0.488L0.06,-0.53C0.06,-0.643 0.117,-0.7 0.23,-0.7L0.418,-0.7C0.476,-0.7 0.518,-0.686 0.546,-0.658C0.574,-0.63 0.588,-0.587 0.588,-0.53L0.588,-0.517C0.588,-0.478 0.581,-0.445 0.567,-0.42C0.553,-0.394 0.533,-0.375 0.507,-0.363C0.536,-0.354 0.559,-0.336 0.575,-0.31C0.59,-0.284 0.598,-0.249 0.598,-0.205L0.598,-0.17C0.598,-0.057 0.542,-0 0.428,-0L0.22,-0C0.107,-0 0.05,-0.057 0.05,-0.17L0.05,-0.212Z" style="fill:rgb(19,19,19);fill-rule:nonzero;"/>
                        </g>
                        <g transform="matrix(6,0,0,6,363.078,774.486)">
                            <rect x="0.08" y="-0.146" width="0.146" height="0.146" style="fill:rgb(19,19,19);fill-rule:nonzero;"/>
                        </g>
                        <g transform="matrix(6,0,0,6,364.915,774.486)">
                            <path d="M0.05,-0.212L0.148,-0.212L0.148,-0.175C0.148,-0.148 0.154,-0.129 0.166,-0.117C0.177,-0.104 0.196,-0.098 0.223,-0.098L0.425,-0.098C0.451,-0.098 0.471,-0.104 0.482,-0.117C0.494,-0.129 0.5,-0.148 0.5,-0.175L0.5,-0.229C0.5,-0.256 0.494,-0.275 0.482,-0.287C0.471,-0.299 0.451,-0.305 0.425,-0.305L0.218,-0.305L0.218,-0.403L0.422,-0.403C0.446,-0.404 0.464,-0.41 0.474,-0.423C0.485,-0.435 0.49,-0.454 0.49,-0.479L0.49,-0.525C0.49,-0.552 0.484,-0.571 0.472,-0.583C0.461,-0.596 0.441,-0.602 0.415,-0.602L0.233,-0.602C0.207,-0.602 0.188,-0.596 0.176,-0.583C0.164,-0.571 0.158,-0.552 0.158,-0.525L0.158,-0.488L0.06,-0.488L0.06,-0.53C0.06,-0.643 0.117,-0.7 0.23,-0.7L0.418,-0.7C0.476,-0.7 0.518,-0.686 0.546,-0.658C0.574,-0.63 0.588,-0.587 0.588,-0.53L0.588,-0.517C0.588,-0.478 0.581,-0.445 0.567,-0.42C0.553,-0.394 0.533,-0.375 0.507,-0.363C0.536,-0.354 0.559,-0.336 0.575,-0.31C0.59,-0.284 0.598,-0.249 0.598,-0.205L0.598,-0.17C0.598,-0.057 0.542,-0 0.428,-0L0.22,-0C0.107,-0 0.05,-0.057 0.05,-0.17L0.05,-0.212Z" style="fill:rgb(19,19,19);fill-rule:nonzero;"/>
                        </g>
                        <g transform="matrix(6,0,0,6,368.864,774.486)">
                            <path d="M0.3,-0L0.03,-0.7L0.137,-0.7L0.355,-0.124L0.573,-0.7L0.68,-0.7L0.41,-0L0.3,-0Z" style="fill:rgb(19,19,19);fill-rule:nonzero;"/>
                        </g>
                    </g>
                    <g transform="matrix(8.16431e-17,-1.33333,1.33333,8.16431e-17,-203.391,799.129)">
                        <g transform="matrix(6,0,0,6,359.129,774.486)">
                            <path d="M0.05,-0.212L0.148,-0.212L0.148,-0.175C0.148,-0.148 0.154,-0.129 0.166,-0.117C0.177,-0.104 0.196,-0.098 0.223,-0.098L0.425,-0.098C0.451,-0.098 0.471,-0.104 0.482,-0.117C0.494,-0.129 0.5,-0.148 0.5,-0.175L0.5,-0.229C0.5,-0.256 0.494,-0.275 0.482,-0.287C0.471,-0.299 0.451,-0.305 0.425,-0.305L0.218,-0.305L0.218,-0.403L0.422,-0.403C0.446,-0.404 0.464,-0.41 0.474,-0.423C0.485,-0.435 0.49,-0.454 0.49,-0.479L0.49,-0.525C0.49,-0.552 0.484,-0.571 0.472,-0.583C0.461,-0.596 0.441,-0.602 0.415,-0.602L0.233,-0.602C0.207,-0.602 0.188,-0.596 0.176,-0.583C0.164,-0.571 0.158,-0.552 0.158,-0.525L0.158,-0.488L0.06,-0.488L0.06,-0.53C0.06,-0.643 0.117,-0.7 0.23,-0.7L0.418,-0.7C0.476,-0.7 0.518,-0.686 0.546,-0.658C0.574,-0.63 0.588,-0.587 0.588,-0.53L0.588,-0.517C0.588,-0.478 0.581,-0.445 0.567,-0.42C0.553,-0.394 0.533,-0.375 0.507,-0.363C0.536,-0.354 0.559,-0.336 0.575,-0.31C0.59,-0.284 0.598,-0.249 0.598,-0.205L0.598,-0.17C0.598,-0.057 0.542,-0 0.428,-0L0.22,-0C0.107,-0 0.05,-0.057 0.05,-0.17L0.05,-0.212Z" style="fill:rgb(19,19,19);fill-rule:nonzero;"/>
                        </g>
                        <g transform="matrix(6,0,0,6,363.078,774.486)">
                            <rect x="0.08" y="-0.146" width="0.146" height="0.146" style="fill:rgb(19,19,19);fill-rule:nonzero;"/>
                        </g>
                        <g transform="matrix(6,0,0,6,364.915,774.486)">
                            <path d="M0.05,-0.212L0.148,-0.212L0.148,-0.175C0.148,-0.148 0.154,-0.129 0.166,-0.117C0.177,-0.104 0.196,-0.098 0.223,-0.098L0.425,-0.098C0.451,-0.098 0.471,-0.104 0.482,-0.117C0.494,-0.129 0.5,-0.148 0.5,-0.175L0.5,-0.229C0.5,-0.256 0.494,-0.275 0.482,-0.287C0.471,-0.299 0.451,-0.305 0.425,-0.305L0.218,-0.305L0.218,-0.403L0.422,-0.403C0.446,-0.404 0.464,-0.41 0.474,-0.423C0.485,-0.435 0.49,-0.454 0.49,-0.479L0.49,-0.525C0.49,-0.552 0.484,-0.571 0.472,-0.583C0.461,-0.596 0.441,-0.602 0.415,-0.602L0.233,-0.602C0.207,-0.602 0.188,-0.596 0.176,-0.583C0.164,-0.571 0.158,-0.552 0.158,-0.525L0.158,-0.488L0.06,-0.488L0.06,-0.53C0.06,-0.643 0.117,-0.7 0.23,-0.7L0.418,-0.7C0.476,-0.7 0.518,-0.686 0.546,-0.658C0.574,-0.63 0.588,-0.587 0.588,-0.53L0.588,-0.517C0.588,-0.478 0.581,-0.445 0.567,-0.42C0.553,-0.394 0.533,-0.375 0.507,-0.363C0.536,-0.354 0.559,-0.336 0.575,-0.31C0.59,-0.284 0.598,-0.249 0.598,-0.205L0.598,-0.17C0.598,-0.057 0.542,-0 0.428,-0L0.22,-0C0.107,-0 0.05,-0.057 0.05,-0.17L0.05,-0.212Z" style="fill:rgb(19,19,19);fill-rule:nonzero;"/>
                        </g>
                        <g transform="matrix(6,0,0,6,368.864,774.486)">
                            <path d="M0.3,-0L0.03,-0.7L0.137,-0.7L0.355,-0.124L0.573,-0.7L0.68,-0.7L0.41,-0L0.3,-0Z" style="fill:rgb(19,19,19);fill-rule:nonzero;"/>
                        </g>
                    </g>
                    <g transform="matrix(8.16431e-17,-1.33333,1.33333,8.16431e-17,-216.613,799.129)">
                        <g transform="matrix(6,0,0,6,359.129,774.486)">
                            <path d="M0.09,-0.6C0.09,-0.614 0.092,-0.627 0.098,-0.639C0.103,-0.651 0.11,-0.662 0.119,-0.671C0.128,-0.68 0.139,-0.687 0.151,-0.692C0.163,-0.698 0.176,-0.7 0.19,-0.7L0.57,-0.7C0.583,-0.7 0.596,-0.698 0.609,-0.692C0.621,-0.687 0.632,-0.68 0.641,-0.671C0.65,-0.662 0.657,-0.651 0.662,-0.639C0.667,-0.627 0.67,-0.614 0.67,-0.6L0.67,-0.51L0.57,-0.51L0.57,-0.6L0.19,-0.6L0.19,-0.1L0.57,-0.1L0.57,-0.27L0.38,-0.27L0.38,-0.37L0.67,-0.37L0.67,-0.1C0.67,-0.086 0.667,-0.073 0.662,-0.061C0.657,-0.049 0.65,-0.038 0.641,-0.029C0.632,-0.02 0.621,-0.013 0.609,-0.008C0.596,-0.003 0.583,-0 0.57,-0L0.19,-0C0.176,-0 0.163,-0.003 0.151,-0.008C0.139,-0.013 0.128,-0.02 0.119,-0.029C0.11,-0.038 0.103,-0.049 0.098,-0.061C0.092,-0.073 0.09,-0.086 0.09,-0.1L0.09,-0.6Z" style="fill:rgb(19,19,19);fill-rule:nonzero;"/>
                        </g>
                        <g transform="matrix(6,0,0,6,363.688,774.486)">
                            <path d="M0.19,-0L0.09,-0L0.09,-0.7L0.19,-0.7L0.611,-0.157L0.611,-0.7L0.711,-0.7L0.711,-0L0.611,-0L0.19,-0.543L0.19,-0Z" style="fill:rgb(19,19,19);fill-rule:nonzero;"/>
                        </g>
                        <g transform="matrix(6,0,0,6,368.492,774.486)">
                            <path d="M0.446,-0.1C0.492,-0.1 0.528,-0.113 0.553,-0.138C0.578,-0.163 0.591,-0.199 0.591,-0.245L0.591,-0.455C0.591,-0.478 0.588,-0.498 0.581,-0.516C0.575,-0.534 0.565,-0.549 0.552,-0.562C0.54,-0.574 0.525,-0.584 0.507,-0.59C0.489,-0.597 0.469,-0.6 0.446,-0.6L0.19,-0.6L0.19,-0.1L0.446,-0.1ZM0.09,-0L0.09,-0.7L0.446,-0.7C0.483,-0.7 0.517,-0.694 0.547,-0.683C0.577,-0.671 0.603,-0.655 0.624,-0.634C0.646,-0.612 0.662,-0.586 0.674,-0.556C0.685,-0.526 0.691,-0.492 0.691,-0.455L0.691,-0.245C0.691,-0.208 0.685,-0.174 0.674,-0.144C0.662,-0.114 0.646,-0.088 0.624,-0.067C0.603,-0.045 0.577,-0.029 0.547,-0.017C0.517,-0.006 0.483,-0 0.446,-0L0.09,-0Z" style="fill:rgb(19,19,19);fill-rule:nonzero;"/>
                        </g>
                    </g>
                    <g transform="matrix(8.16431e-17,-1.33333,1.33333,8.16431e-17,-229.835,799.129)">
                        <g transform="matrix(6,0,0,6,359.129,774.486)">
                            <rect x="0.09" y="-0.7" width="0.1" height="0.7" style="fill:rgb(19,19,19);fill-rule:nonzero;"/>
                        </g>
                        <g transform="matrix(6,0,0,6,360.808,774.486)">
                            <path d="M0.69,-0.1C0.69,-0.086 0.687,-0.073 0.682,-0.061C0.677,-0.049 0.67,-0.038 0.661,-0.029C0.652,-0.02 0.641,-0.013 0.629,-0.008C0.616,-0.003 0.604,-0 0.59,-0L0.19,-0C0.176,-0 0.163,-0.003 0.151,-0.008C0.139,-0.013 0.128,-0.02 0.119,-0.029C0.11,-0.038 0.103,-0.049 0.098,-0.061C0.092,-0.073 0.09,-0.086 0.09,-0.1L0.09,-0.6C0.09,-0.614 0.092,-0.627 0.098,-0.639C0.103,-0.651 0.11,-0.662 0.119,-0.671C0.128,-0.68 0.139,-0.687 0.151,-0.692C0.163,-0.698 0.176,-0.7 0.19,-0.7L0.59,-0.7C0.604,-0.7 0.616,-0.698 0.629,-0.692C0.641,-0.687 0.652,-0.68 0.661,-0.671C0.67,-0.662 0.677,-0.651 0.682,-0.639C0.687,-0.627 0.69,-0.614 0.69,-0.6L0.69,-0.1ZM0.19,-0.6L0.19,-0.1L0.59,-0.1L0.59,-0.6L0.19,-0.6Z" style="fill:rgb(19,19,19);fill-rule:nonzero;"/>
                        </g>
                        <g transform="matrix(6,0,0,6,365.486,774.486)">
                            <path d="M0.09,-0.6C0.09,-0.614 0.092,-0.627 0.098,-0.639C0.103,-0.651 0.11,-0.662 0.119,-0.671C0.128,-0.68 0.139,-0.687 0.151,-0.692C0.163,-0.698 0.176,-0.7 0.19,-0.7L0.51,-0.7C0.523,-0.7 0.536,-0.698 0.549,-0.692C0.561,-0.687 0.571,-0.68 0.581,-0.671C0.59,-0.662 0.597,-0.651 0.602,-0.639C0.607,-0.627 0.61,-0.614 0.61,-0.6L0.61,-0.51L0.51,-0.51L0.51,-0.6L0.19,-0.6L0.19,-0.4L0.51,-0.4C0.523,-0.4 0.536,-0.397 0.549,-0.392C0.561,-0.387 0.571,-0.38 0.581,-0.371C0.59,-0.361 0.597,-0.351 0.602,-0.339C0.607,-0.326 0.61,-0.313 0.61,-0.3L0.61,-0.1C0.61,-0.086 0.607,-0.073 0.602,-0.061C0.597,-0.049 0.59,-0.038 0.581,-0.029C0.571,-0.02 0.561,-0.013 0.549,-0.008C0.536,-0.003 0.523,-0 0.51,-0L0.19,-0C0.176,-0 0.163,-0.003 0.151,-0.008C0.139,-0.013 0.128,-0.02 0.119,-0.029C0.11,-0.038 0.103,-0.049 0.098,-0.061C0.092,-0.073 0.09,-0.086 0.09,-0.1L0.09,-0.6ZM0.19,-0.3L0.19,-0.1L0.51,-0.1L0.51,-0.3L0.19,-0.3Z" style="fill:rgb(19,19,19);fill-rule:nonzero;"/>
                        </g>
                    </g>
                    <g transform="matrix(8.16431e-17,-1.33333,1.33333,8.16431e-17,-243.057,799.129)">
                        <g transform="matrix(6,0,0,6,359.129,774.486)">
                            <rect x="0.09" y="-0.7" width="0.1" height="0.7" style="fill:rgb(19,19,19);fill-rule:nonzero;"/>
                        </g>
                        <g transform="matrix(6,0,0,6,360.808,774.486)">
                            <path d="M0.69,-0.1C0.69,-0.086 0.687,-0.073 0.682,-0.061C0.677,-0.049 0.67,-0.038 0.661,-0.029C0.652,-0.02 0.641,-0.013 0.629,-0.008C0.616,-0.003 0.604,-0 0.59,-0L0.19,-0C0.176,-0 0.163,-0.003 0.151,-0.008C0.139,-0.013 0.128,-0.02 0.119,-0.029C0.11,-0.038 0.103,-0.049 0.098,-0.061C0.092,-0.073 0.09,-0.086 0.09,-0.1L0.09,-0.6C0.09,-0.614 0.092,-0.627 0.098,-0.639C0.103,-0.651 0.11,-0.662 0.119,-0.671C0.128,-0.68 0.139,-0.687 0.151,-0.692C0.163,-0.698 0.176,-0.7 0.19,-0.7L0.59,-0.7C0.604,-0.7 0.616,-0.698 0.629,-0.692C0.641,-0.687 0.652,-0.68 0.661,-0.671C0.67,-0.662 0.677,-0.651 0.682,-0.639C0.687,-0.627 0.69,-0.614 0.69,-0.6L0.69,-0.1ZM0.19,-0.6L0.19,-0.1L0.59,-0.1L0.59,-0.6L0.19,-0.6Z" style="fill:rgb(19,19,19);fill-rule:nonzero;"/>
                        </g>
                        <g transform="matrix(6,0,0,6,365.486,774.486)">
                            <path d="M0.578,-0.17C0.577,-0.113 0.563,-0.07 0.535,-0.042C0.507,-0.014 0.465,-0 0.408,-0L0.22,-0C0.107,-0 0.05,-0.057 0.05,-0.17L0.05,-0.212L0.148,-0.212L0.148,-0.175C0.148,-0.148 0.154,-0.129 0.166,-0.117C0.177,-0.104 0.196,-0.098 0.223,-0.098L0.405,-0.098C0.431,-0.098 0.451,-0.104 0.462,-0.117C0.474,-0.129 0.48,-0.148 0.48,-0.175L0.48,-0.269C0.48,-0.295 0.474,-0.315 0.462,-0.327C0.451,-0.339 0.431,-0.345 0.405,-0.345L0.07,-0.345L0.07,-0.7L0.56,-0.7L0.56,-0.6L0.17,-0.6L0.17,-0.443L0.408,-0.443C0.465,-0.443 0.508,-0.429 0.536,-0.401C0.564,-0.373 0.578,-0.331 0.578,-0.273L0.578,-0.17Z" style="fill:rgb(19,19,19);fill-rule:nonzero;"/>
                        </g>
                    </g>
                    <g transform="matrix(8.16431e-17,-1.33333,1.33333,8.16431e-17,-256.278,799.129)">
                        <g transform="matrix(6,0,0,6,359.129,774.486)">
                            <path d="M0.09,-0.6C0.09,-0.614 0.092,-0.627 0.098,-0.639C0.103,-0.651 0.11,-0.662 0.119,-0.671C0.128,-0.68 0.139,-0.687 0.151,-0.692C0.163,-0.698 0.176,-0.7 0.19,-0.7L0.57,-0.7C0.583,-0.7 0.596,-0.698 0.609,-0.692C0.621,-0.687 0.632,-0.68 0.641,-0.671C0.65,-0.662 0.657,-0.651 0.662,-0.639C0.667,-0.627 0.67,-0.614 0.67,-0.6L0.67,-0.51L0.57,-0.51L0.57,-0.6L0.19,-0.6L0.19,-0.1L0.57,-0.1L0.57,-0.27L0.38,-0.27L0.38,-0.37L0.67,-0.37L0.67,-0.1C0.67,-0.086 0.667,-0.073 0.662,-0.061C0.657,-0.049 0.65,-0.038 0.641,-0.029C0.632,-0.02 0.621,-0.013 0.609,-0.008C0.596,-0.003 0.583,-0 0.57,-0L0.19,-0C0.176,-0 0.163,-0.003 0.151,-0.008C0.139,-0.013 0.128,-0.02 0.119,-0.029C0.11,-0.038 0.103,-0.049 0.098,-0.061C0.092,-0.073 0.09,-0.086 0.09,-0.1L0.09,-0.6Z" style="fill:rgb(19,19,19);fill-rule:nonzero;"/>
                        </g>
                        <g transform="matrix(6,0,0,6,363.688,774.486)">
                            <path d="M0.19,-0L0.09,-0L0.09,-0.7L0.19,-0.7L0.611,-0.157L0.611,-0.7L0.711,-0.7L0.711,-0L0.611,-0L0.19,-0.543L0.19,-0Z" style="fill:rgb(19,19,19);fill-rule:nonzero;"/>
                        </g>
                        <g transform="matrix(6,0,0,6,368.492,774.486)">
                            <path d="M0.446,-0.1C0.492,-0.1 0.528,-0.113 0.553,-0.138C0.578,-0.163 0.591,-0.199 0.591,-0.245L0.591,-0.455C0.591,-0.478 0.588,-0.498 0.581,-0.516C0.575,-0.534 0.565,-0.549 0.552,-0.562C0.54,-0.574 0.525,-0.584 0.507,-0.59C0.489,-0.597 0.469,-0.6 0.446,-0.6L0.19,-0.6L0.19,-0.1L0.446,-0.1ZM0.09,-0L0.09,-0.7L0.446,-0.7C0.483,-0.7 0.517,-0.694 0.547,-0.683C0.577,-0.671 0.603,-0.655 0.624,-0.634C0.646,-0.612 0.662,-0.586 0.674,-0.556C0.685,-0.526 0.691,-0.492 0.691,-0.455L0.691,-0.245C0.691,-0.208 0.685,-0.174 0.674,-0.144C0.662,-0.114 0.646,-0.088 0.624,-0.067C0.603,-0.045 0.577,-0.029 0.547,-0.017C0.517,-0.006 0.483,-0 0.446,-0L0.09,-0Z" style="fill:rgb(19,19,19);fill-rule:nonzero;"/>
                        </g>
                    </g>
                    <g transform="matrix(8.16431e-17,-1.33333,1.33333,8.16431e-17,-269.5,799.129)">
                        <g transform="matrix(6,0,0,6,359.129,774.486)">
                            <rect x="0.09" y="-0.7" width="0.1" height="0.7" style="fill:rgb(19,19,19);fill-rule:nonzero;"/>
                        </g>
                        <g transform="matrix(6,0,0,6,360.808,774.486)">
                            <path d="M0.69,-0.1C0.69,-0.086 0.687,-0.073 0.682,-0.061C0.677,-0.049 0.67,-0.038 0.661,-0.029C0.652,-0.02 0.641,-0.013 0.629,-0.008C0.616,-0.003 0.604,-0 0.59,-0L0.19,-0C0.176,-0 0.163,-0.003 0.151,-0.008C0.139,-0.013 0.128,-0.02 0.119,-0.029C0.11,-0.038 0.103,-0.049 0.098,-0.061C0.092,-0.073 0.09,-0.086 0.09,-0.1L0.09,-0.6C0.09,-0.614 0.092,-0.627 0.098,-0.639C0.103,-0.651 0.11,-0.662 0.119,-0.671C0.128,-0.68 0.139,-0.687 0.151,-0.692C0.163,-0.698 0.176,-0.7 0.19,-0.7L0.59,-0.7C0.604,-0.7 0.616,-0.698 0.629,-0.692C0.641,-0.687 0.652,-0.68 0.661,-0.671C0.67,-0.662 0.677,-0.651 0.682,-0.639C0.687,-0.627 0.69,-0.614 0.69,-0.6L0.69,-0.1ZM0.19,-0.6L0.19,-0.1L0.59,-0.1L0.59,-0.6L0.19,-0.6Z" style="fill:rgb(19,19,19);fill-rule:nonzero;"/>
                        </g>
                        <g transform="matrix(6,0,0,6,365.486,774.486)">
                            <path d="M0.02,-0.241L0.365,-0.7L0.483,-0.7L0.483,-0.241L0.577,-0.241L0.577,-0.145L0.483,-0.145L0.483,-0L0.383,-0L0.383,-0.145L0.02,-0.145L0.02,-0.241ZM0.383,-0.241L0.383,-0.579L0.129,-0.241L0.383,-0.241Z" style="fill:rgb(19,19,19);fill-rule:nonzero;"/>
                        </g>
                    </g>
                    <g transform="matrix(8.16431e-17,-1.33333,1.33333,8.16431e-17,-282.722,799.129)">
                        <g transform="matrix(6,0,0,6,359.129,774.486)">
                            <rect x="0.09" y="-0.7" width="0.1" height="0.7" style="fill:rgb(19,19,19);fill-rule:nonzero;"/>
                        </g>
                        <g transform="matrix(6,0,0,6,360.808,774.486)">
                            <path d="M0.69,-0.1C0.69,-0.086 0.687,-0.073 0.682,-0.061C0.677,-0.049 0.67,-0.038 0.661,-0.029C0.652,-0.02 0.641,-0.013 0.629,-0.008C0.616,-0.003 0.604,-0 0.59,-0L0.19,-0C0.176,-0 0.163,-0.003 0.151,-0.008C0.139,-0.013 0.128,-0.02 0.119,-0.029C0.11,-0.038 0.103,-0.049 0.098,-0.061C0.092,-0.073 0.09,-0.086 0.09,-0.1L0.09,-0.6C0.09,-0.614 0.092,-0.627 0.098,-0.639C0.103,-0.651 0.11,-0.662 0.119,-0.671C0.128,-0.68 0.139,-0.687 0.151,-0.692C0.163,-0.698 0.176,-0.7 0.19,-0.7L0.59,-0.7C0.604,-0.7 0.616,-0.698 0.629,-0.692C0.641,-0.687 0.652,-0.68 0.661,-0.671C0.67,-0.662 0.677,-0.651 0.682,-0.639C0.687,-0.627 0.69,-0.614 0.69,-0.6L0.69,-0.1ZM0.19,-0.6L0.19,-0.1L0.59,-0.1L0.59,-0.6L0.19,-0.6Z" style="fill:rgb(19,19,19);fill-rule:nonzero;"/>
                        </g>
                        <g transform="matrix(6,0,0,6,365.486,774.486)">
                            <path d="M0.05,-0.212L0.148,-0.212L0.148,-0.175C0.148,-0.148 0.154,-0.129 0.166,-0.117C0.177,-0.104 0.196,-0.098 0.223,-0.098L0.425,-0.098C0.451,-0.098 0.471,-0.104 0.482,-0.117C0.494,-0.129 0.5,-0.148 0.5,-0.175L0.5,-0.229C0.5,-0.256 0.494,-0.275 0.482,-0.287C0.471,-0.299 0.451,-0.305 0.425,-0.305L0.218,-0.305L0.218,-0.403L0.422,-0.403C0.446,-0.404 0.464,-0.41 0.474,-0.423C0.485,-0.435 0.49,-0.454 0.49,-0.479L0.49,-0.525C0.49,-0.552 0.484,-0.571 0.472,-0.583C0.461,-0.596 0.441,-0.602 0.415,-0.602L0.233,-0.602C0.207,-0.602 0.188,-0.596 0.176,-0.583C0.164,-0.571 0.158,-0.552 0.158,-0.525L0.158,-0.488L0.06,-0.488L0.06,-0.53C0.06,-0.643 0.117,-0.7 0.23,-0.7L0.418,-0.7C0.476,-0.7 0.518,-0.686 0.546,-0.658C0.574,-0.63 0.588,-0.587 0.588,-0.53L0.588,-0.517C0.588,-0.478 0.581,-0.445 0.567,-0.42C0.553,-0.394 0.533,-0.375 0.507,-0.363C0.536,-0.354 0.559,-0.336 0.575,-0.31C0.59,-0.284 0.598,-0.249 0.598,-0.205L0.598,-0.17C0.598,-0.057 0.542,-0 0.428,-0L0.22,-0C0.107,-0 0.05,-0.057 0.05,-0.17L0.05,-0.212Z" style="fill:rgb(19,19,19);fill-rule:nonzero;"/>
                        </g>
                    </g>
                    <g transform="matrix(8.16431e-17,-1.33333,1.33333,8.16431e-17,-295.944,799.129)">
                        <g transform="matrix(6,0,0,6,359.129,774.486)">
                            <path d="M0.09,-0.6C0.09,-0.614 0.092,-0.627 0.098,-0.639C0.103,-0.651 0.11,-0.662 0.119,-0.671C0.128,-0.68 0.139,-0.687 0.151,-0.692C0.163,-0.698 0.176,-0.7 0.19,-0.7L0.57,-0.7C0.583,-0.7 0.596,-0.698 0.609,-0.692C0.621,-0.687 0.632,-0.68 0.641,-0.671C0.65,-0.662 0.657,-0.651 0.662,-0.639C0.667,-0.627 0.67,-0.614 0.67,-0.6L0.67,-0.51L0.57,-0.51L0.57,-0.6L0.19,-0.6L0.19,-0.1L0.57,-0.1L0.57,-0.27L0.38,-0.27L0.38,-0.37L0.67,-0.37L0.67,-0.1C0.67,-0.086 0.667,-0.073 0.662,-0.061C0.657,-0.049 0.65,-0.038 0.641,-0.029C0.632,-0.02 0.621,-0.013 0.609,-0.008C0.596,-0.003 0.583,-0 0.57,-0L0.19,-0C0.176,-0 0.163,-0.003 0.151,-0.008C0.139,-0.013 0.128,-0.02 0.119,-0.029C0.11,-0.038 0.103,-0.049 0.098,-0.061C0.092,-0.073 0.09,-0.086 0.09,-0.1L0.09,-0.6Z" style="fill:rgb(19,19,19);fill-rule:nonzero;"/>
                        </g>
                        <g transform="matrix(6,0,0,6,363.688,774.486)">
                            <path d="M0.19,-0L0.09,-0L0.09,-0.7L0.19,-0.7L0.611,-0.157L0.611,-0.7L0.711,-0.7L0.711,-0L0.611,-0L0.19,-0.543L0.19,-0Z" style="fill:rgb(19,19,19);fill-rule:nonzero;"/>
                        </g>
                        <g transform="matrix(6,0,0,6,368.492,774.486)">
                            <path d="M0.446,-0.1C0.492,-0.1 0.528,-0.113 0.553,-0.138C0.578,-0.163 0.591,-0.199 0.591,-0.245L0.591,-0.455C0.591,-0.478 0.588,-0.498 0.581,-0.516C0.575,-0.534 0.565,-0.549 0.552,-0.562C0.54,-0.574 0.525,-0.584 0.507,-0.59C0.489,-0.597 0.469,-0.6 0.446,-0.6L0.19,-0.6L0.19,-0.1L0.446,-0.1ZM0.09,-0L0.09,-0.7L0.446,-0.7C0.483,-0.7 0.517,-0.694 0.547,-0.683C0.577,-0.671 0.603,-0.655 0.624,-0.634C0.646,-0.612 0.662,-0.586 0.674,-0.556C0.685,-0.526 0.691,-0.492 0.691,-0.455L0.691,-0.245C0.691,-0.208 0.685,-0.174 0.674,-0.144C0.662,-0.114 0.646,-0.088 0.624,-0.067C0.603,-0.045 0.577,-0.029 0.547,-0.017C0.517,-0.006 0.483,-0 0.446,-0L0.09,-0Z" style="fill:rgb(19,19,19);fill-rule:nonzero;"/>
                        </g>
                    </g>
                    <g transform="matrix(8.16431e-17,-1.33333,1.33333,8.16431e-17,-309.166,799.129)">
                        <g transform="matrix(6,0,0,6,359.129,774.486)">
                            <rect x="0.09" y="-0.7" width="0.1" height="0.7" style="fill:rgb(19,19,19);fill-rule:nonzero;"/>
                        </g>
                        <g transform="matrix(6,0,0,6,360.808,774.486)">
                            <path d="M0.69,-0.1C0.69,-0.086 0.687,-0.073 0.682,-0.061C0.677,-0.049 0.67,-0.038 0.661,-0.029C0.652,-0.02 0.641,-0.013 0.629,-0.008C0.616,-0.003 0.604,-0 0.59,-0L0.19,-0C0.176,-0 0.163,-0.003 0.151,-0.008C0.139,-0.013 0.128,-0.02 0.119,-0.029C0.11,-0.038 0.103,-0.049 0.098,-0.061C0.092,-0.073 0.09,-0.086 0.09,-0.1L0.09,-0.6C0.09,-0.614 0.092,-0.627 0.098,-0.639C0.103,-0.651 0.11,-0.662 0.119,-0.671C0.128,-0.68 0.139,-0.687 0.151,-0.692C0.163,-0.698 0.176,-0.7 0.19,-0.7L0.59,-0.7C0.604,-0.7 0.616,-0.698 0.629,-0.692C0.641,-0.687 0.652,-0.68 0.661,-0.671C0.67,-0.662 0.677,-0.651 0.682,-0.639C0.687,-0.627 0.69,-0.614 0.69,-0.6L0.69,-0.1ZM0.19,-0.6L0.19,-0.1L0.59,-0.1L0.59,-0.6L0.19,-0.6Z" style="fill:rgb(19,19,19);fill-rule:nonzero;"/>
                        </g>
                        <g transform="matrix(6,0,0,6,365.486,774.486)">
                            <path d="M0.18,-0.6L0.18,-0.51L0.08,-0.51L0.08,-0.6C0.08,-0.614 0.083,-0.627 0.088,-0.639C0.093,-0.651 0.1,-0.662 0.109,-0.671C0.118,-0.68 0.129,-0.687 0.141,-0.692C0.154,-0.698 0.167,-0.7 0.18,-0.7L0.497,-0.7C0.511,-0.7 0.524,-0.698 0.536,-0.692C0.548,-0.687 0.559,-0.68 0.568,-0.671C0.577,-0.662 0.584,-0.651 0.589,-0.639C0.594,-0.627 0.597,-0.614 0.597,-0.6L0.597,-0.472C0.597,-0.458 0.596,-0.446 0.593,-0.436C0.591,-0.425 0.587,-0.415 0.581,-0.406C0.575,-0.398 0.568,-0.39 0.559,-0.383C0.55,-0.376 0.54,-0.37 0.527,-0.364L0.18,-0.201L0.18,-0.1L0.51,-0.1L0.51,-0.19L0.61,-0.19L0.61,-0L0.08,-0L0.08,-0.184C0.08,-0.198 0.081,-0.21 0.084,-0.221C0.087,-0.231 0.091,-0.241 0.097,-0.25C0.102,-0.258 0.109,-0.266 0.118,-0.273C0.127,-0.28 0.138,-0.286 0.15,-0.292L0.497,-0.455L0.497,-0.6L0.18,-0.6Z" style="fill:rgb(19,19,19);fill-rule:nonzero;"/>
                        </g>
                    </g>
                    <g transform="matrix(8.16431e-17,-1.33333,1.33333,8.16431e-17,-322.387,799.129)">
                        <g transform="matrix(6,0,0,6,359.129,774.486)">
                            <rect x="0.09" y="-0.7" width="0.1" height="0.7" style="fill:rgb(19,19,19);fill-rule:nonzero;"/>
                        </g>
                        <g transform="matrix(6,0,0,6,360.808,774.486)">
                            <path d="M0.69,-0.1C0.69,-0.086 0.687,-0.073 0.682,-0.061C0.677,-0.049 0.67,-0.038 0.661,-0.029C0.652,-0.02 0.641,-0.013 0.629,-0.008C0.616,-0.003 0.604,-0 0.59,-0L0.19,-0C0.176,-0 0.163,-0.003 0.151,-0.008C0.139,-0.013 0.128,-0.02 0.119,-0.029C0.11,-0.038 0.103,-0.049 0.098,-0.061C0.092,-0.073 0.09,-0.086 0.09,-0.1L0.09,-0.6C0.09,-0.614 0.092,-0.627 0.098,-0.639C0.103,-0.651 0.11,-0.662 0.119,-0.671C0.128,-0.68 0.139,-0.687 0.151,-0.692C0.163,-0.698 0.176,-0.7 0.19,-0.7L0.59,-0.7C0.604,-0.7 0.616,-0.698 0.629,-0.692C0.641,-0.687 0.652,-0.68 0.661,-0.671C0.67,-0.662 0.677,-0.651 0.682,-0.639C0.687,-0.627 0.69,-0.614 0.69,-0.6L0.69,-0.1ZM0.19,-0.6L0.19,-0.1L0.59,-0.1L0.59,-0.6L0.19,-0.6Z" style="fill:rgb(19,19,19);fill-rule:nonzero;"/>
                        </g>
                        <g transform="matrix(6,0,0,6,365.486,774.486)">
                            <path d="M0.25,-0.7L0.25,-0L0.15,-0L0.15,-0.6L0.03,-0.6L0.03,-0.7L0.25,-0.7Z" style="fill:rgb(19,19,19);fill-rule:nonzero;"/>
                        </g>
                    </g>
                </g>
            </g>
            <g id="short-side-1" serif:id="short side 1" transform="matrix(0.75,0,0,0.75,-153.991,293.02)">
                <path d="M631.739,320.596L631.739,348.581L631.674,349.567L631.481,350.537L631.163,351.473L630.726,352.36L630.177,353.182L629.525,353.926L628.781,354.578L627.959,355.127L627.073,355.564L626.136,355.882L625.166,356.075L624.18,356.14L475.465,356.14L472.504,355.946L469.595,355.367L466.786,354.413L464.126,353.101L461.659,351.453L459.429,349.498L457.473,347.267L455.825,344.801L454.513,342.141L453.56,339.332L452.981,336.422L452.787,333.462L452.787,82.439L452.981,79.479L453.56,76.569L454.514,73.761L455.826,71.1L457.474,68.634L459.429,66.404L461.66,64.448L464.126,62.8L466.786,61.488L469.595,60.534L472.505,59.955L475.465,59.762L624.18,59.762L625.167,59.826L626.136,60.019L627.073,60.337L627.96,60.774L628.782,61.323L629.525,61.975L630.177,62.719L630.726,63.541L631.164,64.428L631.482,65.364L631.674,66.334L631.739,67.321L631.739,95.305C624.932,118.485 620.387,160.281 620.387,207.951C620.387,255.62 624.932,297.416 631.739,320.596ZM563.707,331.951L609.062,331.951L609.062,344.045L563.707,344.045L563.707,331.951ZM471.685,89.242L471.685,101.714L467.906,101.714L467.906,314.187L471.685,314.187L471.685,326.659L483.402,326.659L483.402,89.242L471.685,89.242ZM549.074,317.45C549.074,315.364 547.381,313.67 545.295,313.67L502.299,313.67C500.213,313.67 498.52,315.364 498.52,317.45C498.52,319.536 500.213,321.229 502.299,321.229L545.295,321.229C547.381,321.229 549.074,319.536 549.074,317.45ZM545,299.2C545,297.114 543.307,295.421 541.221,295.421L502.299,295.421C500.213,295.421 498.52,297.114 498.52,299.2C498.52,301.286 500.213,302.98 502.299,302.98L541.221,302.98C543.307,302.98 545,301.286 545,299.2ZM542.338,280.95C542.338,278.864 540.644,277.171 538.558,277.171L502.299,277.171C500.213,277.171 498.52,278.864 498.52,280.95C498.52,283.036 500.213,284.73 502.299,284.73L538.558,284.73C540.644,284.73 542.338,283.036 542.338,280.95ZM540.618,262.7C540.618,260.614 538.924,258.921 536.838,258.921L502.299,258.921C500.213,258.921 498.52,260.614 498.52,262.7C498.52,264.786 500.213,266.48 502.299,266.48L536.838,266.48C538.924,266.48 540.618,264.786 540.618,262.7ZM539.399,244.45C539.399,242.364 537.706,240.671 535.62,240.671L502.299,240.671C500.213,240.671 498.52,242.364 498.52,244.45C498.52,246.536 500.213,248.23 502.299,248.23L535.62,248.23C537.706,248.23 539.399,246.536 539.399,244.45ZM538.653,226.201C538.653,224.115 536.96,222.421 534.874,222.421L502.299,222.421C500.213,222.421 498.52,224.115 498.52,226.201C498.52,228.286 500.213,229.98 502.299,229.98L534.874,229.98C536.96,229.98 538.653,228.286 538.653,226.201ZM538.372,207.951C538.372,205.865 536.679,204.171 534.593,204.171L502.299,204.171C500.213,204.171 498.52,205.865 498.52,207.951C498.52,210.037 500.213,211.73 502.299,211.73L534.593,211.73C536.679,211.73 538.372,210.037 538.372,207.951ZM538.653,189.701C538.653,187.615 536.96,185.921 534.874,185.921L502.299,185.921C500.213,185.921 498.52,187.615 498.52,189.701C498.52,191.787 500.213,193.48 502.299,193.48L534.874,193.48C536.96,193.48 538.653,191.787 538.653,189.701ZM539.399,171.451C539.399,169.365 537.706,167.671 535.62,167.671L502.299,167.671C500.213,167.671 498.52,169.365 498.52,171.451C498.52,173.537 500.213,175.23 502.299,175.23L535.62,175.23C537.706,175.23 539.399,173.537 539.399,171.451ZM540.618,153.201C540.618,151.115 538.924,149.421 536.838,149.421L502.299,149.421C500.213,149.421 498.52,151.115 498.52,153.201C498.52,155.287 500.213,156.98 502.299,156.98L536.838,156.98C538.924,156.98 540.618,155.287 540.618,153.201ZM542.338,134.951C542.338,132.865 540.644,131.172 538.558,131.172L502.299,131.172C500.213,131.172 498.52,132.865 498.52,134.951C498.52,137.037 500.213,138.731 502.299,138.731L538.558,138.731C540.644,138.731 542.338,137.037 542.338,134.951ZM545,116.701C545,114.615 543.307,112.922 541.221,112.922L502.299,112.922C500.213,112.922 498.52,114.615 498.52,116.701C498.52,118.787 500.213,120.481 502.299,120.481L541.221,120.481C543.307,120.481 545,118.787 545,116.701ZM549.074,98.451C549.074,96.365 547.381,94.672 545.295,94.672L502.299,94.672C500.213,94.672 498.52,96.365 498.52,98.451C498.52,100.537 500.213,102.231 502.299,102.231L545.295,102.231C547.381,102.231 549.074,100.537 549.074,98.451ZM609.062,83.95L563.707,83.95L563.707,71.856L609.062,71.856L609.062,83.95Z" style="fill:none;stroke:rgb(19,19,19);stroke-width:1.33px;"/>
            </g>
            <g id="bottom" transform="matrix(0.75,0,0,0.75,-153.991,293.02)">
                <path d="M903.969,729.558L655.928,729.558L655.928,654.219L644.589,654.219L644.589,616.424L655.928,616.424L655.928,518.408L644.589,518.408L644.589,480.612L655.928,480.612L655.928,405.275L903.969,405.275L903.969,480.612L915.307,480.612L915.307,518.408L903.969,518.408L903.969,616.424L915.307,616.424L915.307,654.219L903.969,654.219L903.969,729.558ZM877.342,709.014C877.342,705.676 880.052,702.967 883.389,702.967C886.727,702.967 889.437,705.676 889.437,709.014C889.437,712.351 886.727,715.061 883.389,715.061C880.052,715.061 877.342,712.351 877.342,709.014ZM670.942,709.014C670.942,705.676 673.652,702.967 676.989,702.967C680.327,702.967 683.037,705.676 683.037,709.014C683.037,712.351 680.327,715.061 676.989,715.061C673.652,715.061 670.942,712.351 670.942,709.014ZM802.626,622.22C802.626,618.048 799.238,614.661 795.066,614.661C790.895,614.661 787.507,618.048 787.507,622.22L787.507,678.913C787.507,683.085 790.895,686.472 795.066,686.472C799.238,686.472 802.626,683.085 802.626,678.913L802.626,622.22ZM772.389,622.22C772.389,618.048 769.002,614.661 764.83,614.661C760.658,614.661 757.271,618.048 757.271,622.22L757.271,678.913C757.271,683.085 760.658,686.472 764.83,686.472C769.002,686.472 772.389,683.085 772.389,678.913L772.389,622.22ZM847.98,538.942C847.98,534.77 844.593,531.383 840.421,531.383C836.249,531.383 832.862,534.77 832.862,538.942L832.862,595.635C832.862,599.807 836.249,603.194 840.421,603.194C844.593,603.194 847.98,599.807 847.98,595.635L847.98,538.942ZM817.744,538.942C817.744,534.77 814.357,531.383 810.185,531.383C806.013,531.383 802.626,534.77 802.626,538.942L802.626,595.635C802.626,599.807 806.013,603.194 810.185,603.194C814.357,603.194 817.744,599.807 817.744,595.635L817.744,538.942ZM787.507,538.942C787.507,534.77 784.12,531.383 779.948,531.383C775.776,531.383 772.389,534.77 772.389,538.942L772.389,595.635C772.389,599.807 775.776,603.194 779.948,603.194C784.12,603.194 787.507,599.807 787.507,595.635L787.507,538.942ZM727.035,538.942C727.035,534.77 723.648,531.383 719.476,531.383C715.304,531.383 711.917,534.77 711.917,538.942L711.917,595.635C711.917,599.807 715.304,603.194 719.476,603.194C723.648,603.194 727.035,599.807 727.035,595.635L727.035,538.942ZM757.271,538.942C757.271,534.77 753.884,531.383 749.712,531.383C745.54,531.383 742.153,534.77 742.153,538.942L742.153,595.635C742.153,599.807 745.54,603.194 749.712,603.194C753.884,603.194 757.271,599.807 757.271,595.635L757.271,538.942ZM802.626,455.921C802.626,451.749 799.238,448.362 795.066,448.362C790.895,448.362 787.507,451.749 787.507,455.921L787.507,512.614C787.507,516.786 790.895,520.173 795.066,520.173C799.238,520.173 802.626,516.786 802.626,512.614L802.626,455.921ZM772.389,455.921C772.389,451.749 769.002,448.362 764.83,448.362C760.658,448.362 757.271,451.749 757.271,455.921L757.271,512.614C757.271,516.786 760.658,520.173 764.83,520.173C769.002,520.173 772.389,516.786 772.389,512.614L772.389,455.921ZM877.342,425.814C877.342,422.476 880.052,419.767 883.389,419.767C886.727,419.767 889.437,422.476 889.437,425.814C889.437,429.151 886.727,431.861 883.389,431.861C880.052,431.861 877.342,429.151 877.342,425.814ZM670.942,425.814C670.942,422.476 673.652,419.767 676.989,419.767C680.327,419.767 683.037,422.476 683.037,425.814C683.037,429.151 680.327,431.861 676.989,431.861C673.652,431.861 670.942,429.151 670.942,425.814Z" style="fill:none;stroke:rgb(19,19,19);stroke-width:1.33px;stroke-miterlimit:1.5;"/>
            </g>
            <g id="top" transform="matrix(2.2532,-2.02078e-32,-2.77728e-32,1.63945,1579.74,-626.386)">
                <g id="face0-cut-3" transform="matrix(0.443813,5.47382e-48,2.73691e-48,0.609959,-742.924,343.94)">
                    <path d="M440.391,379.014L440.021,379.04L439.657,379.112L439.306,379.231L438.973,379.395L438.665,379.602L438.386,379.846L438.142,380.125L437.936,380.433L437.772,380.766L437.652,381.117L437.58,381.481L437.557,381.851L437.557,387.52L446.061,387.52L446.061,396.024L421.534,396.024L414.03,481.063L414.03,554.435L421.534,639.474L446.061,639.474L446.061,647.978L437.557,647.978L437.557,653.647L437.583,654.017L437.655,654.381L437.775,654.732L437.939,655.065L438.145,655.373L438.389,655.652L438.668,655.896L438.976,656.102L439.309,656.266L439.66,656.385L440.024,656.457L440.392,656.483L609.981,656.483L610.351,656.457L610.714,656.385L611.065,656.266L611.398,656.102L611.706,655.896L611.985,655.652L612.229,655.373L612.436,655.065L612.599,654.732L612.719,654.381L612.791,654.017L612.817,653.648L612.817,647.979L604.313,647.979L604.313,639.475L628.84,639.475L636.344,554.435L636.344,481.063L628.84,396.024L604.313,396.024L604.313,387.52L612.817,387.52L612.817,381.851L612.791,381.481L612.719,381.117L612.599,380.766L612.436,380.433L612.229,380.125L611.985,379.846L611.706,379.602L611.398,379.396L611.065,379.231L610.714,379.112L610.351,379.04L609.981,379.014L440.391,379.014M618.201,532.086L618.201,503.173L627.272,503.173L627.272,532.086L618.201,532.086M432.17,503.173L432.17,532.086L423.1,532.086L423.1,503.173L432.17,503.173" style="fill:none;fill-rule:nonzero;stroke:black;stroke-width:1px;"/>
                </g>
                <g transform="matrix(1,6.84228e-48,-6.84228e-48,1,4.05264,-20.1784)">
                    <g transform="matrix(0.33286,4.10282e-33,5.63875e-33,0.45747,-626.102,585.097)">
                        <path d="M290.87,103.668C269.653,103.668 252.427,120.894 252.427,142.112C252.427,163.329 269.653,180.555 290.87,180.555C312.088,180.555 329.314,163.329 329.314,142.112C329.314,120.894 312.088,103.668 290.87,103.668ZM290.87,106.994C310.252,106.994 325.988,122.73 325.988,142.112C325.988,161.494 310.252,177.229 290.87,177.229C271.488,177.229 255.753,161.494 255.753,142.112C255.753,122.73 271.488,106.994 290.87,106.994ZM310.195,152.059L271.546,152.059C271.093,152.059 270.664,152.148 270.259,152.326C269.855,152.504 269.501,152.741 269.199,153.038C268.897,153.335 268.66,153.686 268.487,154.09C268.314,154.495 268.228,154.924 268.228,155.377L268.228,161.372L271.546,161.372L271.546,155.377L310.195,155.377C310.648,155.377 311.077,155.288 311.482,155.11C311.886,154.932 312.24,154.695 312.542,154.398C312.844,154.101 313.081,153.75 313.254,153.346C313.427,152.941 313.513,152.512 313.513,152.059L313.513,146.064L310.195,146.064L310.195,152.059ZM290.385,146.064L281.725,129.051L281.725,146.064L278.406,146.064L278.406,122.851L282.032,122.851L290.87,140.334L299.725,122.851L303.335,122.851L303.335,146.064L300.032,146.064L300.032,129.051L291.372,146.064L290.385,146.064Z" style="fill-rule:nonzero;"/>
                    </g>
                    <g transform="matrix(0.436813,1.80286e-48,-1.64307e-48,0.600338,-553.08,175.555)">
                        <g transform="matrix(15.1639,0,0,15.1639,91.2406,772.104)">
                            <path d="M0.546,-0.365C0.561,-0.361 0.574,-0.354 0.586,-0.346C0.598,-0.337 0.608,-0.326 0.617,-0.313C0.625,-0.3 0.632,-0.285 0.636,-0.267C0.641,-0.249 0.643,-0.228 0.643,-0.205L0.643,-0.17C0.643,-0.057 0.586,-0 0.473,-0L0.09,-0L0.09,-0.7L0.453,-0.7C0.566,-0.7 0.623,-0.643 0.623,-0.53L0.623,-0.517C0.623,-0.478 0.617,-0.446 0.604,-0.421C0.592,-0.396 0.572,-0.377 0.546,-0.365ZM0.188,-0.305L0.188,-0.098L0.47,-0.098C0.497,-0.098 0.516,-0.104 0.527,-0.117C0.539,-0.129 0.545,-0.148 0.545,-0.175L0.545,-0.229C0.545,-0.256 0.539,-0.275 0.527,-0.287C0.516,-0.299 0.497,-0.305 0.47,-0.305L0.188,-0.305ZM0.188,-0.602L0.188,-0.403L0.457,-0.403C0.481,-0.404 0.498,-0.41 0.509,-0.423C0.52,-0.435 0.525,-0.454 0.525,-0.479L0.525,-0.525C0.525,-0.552 0.519,-0.571 0.507,-0.583C0.496,-0.596 0.477,-0.602 0.45,-0.602L0.188,-0.602Z" style="fill:rgb(19,19,19);fill-rule:nonzero;"/>
                        </g>
                        <g transform="matrix(15.1639,0,0,15.1639,101.903,772.104)">
                            <path d="M0.54,-0.096C0.54,-0.083 0.538,-0.07 0.532,-0.059C0.527,-0.047 0.521,-0.037 0.512,-0.028C0.503,-0.019 0.493,-0.013 0.481,-0.008C0.47,-0.003 0.457,-0 0.444,-0L0.176,-0L0.176,0.21L0.08,0.21L0.08,-0.52L0.176,-0.52L0.176,-0.432C0.177,-0.444 0.18,-0.456 0.186,-0.467C0.191,-0.477 0.198,-0.486 0.207,-0.494C0.215,-0.502 0.225,-0.509 0.236,-0.513C0.247,-0.518 0.259,-0.52 0.272,-0.52L0.444,-0.52C0.457,-0.52 0.47,-0.517 0.481,-0.512C0.493,-0.507 0.503,-0.501 0.512,-0.492C0.521,-0.483 0.527,-0.473 0.532,-0.461C0.538,-0.45 0.54,-0.437 0.54,-0.424L0.54,-0.096ZM0.444,-0.096L0.444,-0.424L0.176,-0.424L0.176,-0.096L0.444,-0.096Z" style="fill:rgb(19,19,19);fill-rule:nonzero;"/>
                        </g>
                        <g transform="matrix(15.1639,0,0,15.1639,111.306,772.104)">
                            <path d="M0.53,-0.096C0.53,-0.083 0.527,-0.07 0.522,-0.059C0.517,-0.047 0.51,-0.037 0.502,-0.028C0.493,-0.019 0.483,-0.013 0.471,-0.008C0.46,-0.003 0.447,-0 0.434,-0L0.176,-0C0.163,-0 0.15,-0.003 0.139,-0.008C0.127,-0.013 0.117,-0.019 0.108,-0.028C0.1,-0.037 0.093,-0.047 0.088,-0.059C0.083,-0.07 0.08,-0.083 0.08,-0.096L0.08,-0.424C0.08,-0.437 0.083,-0.45 0.088,-0.461C0.093,-0.473 0.1,-0.483 0.108,-0.492C0.117,-0.501 0.127,-0.507 0.139,-0.512C0.15,-0.517 0.163,-0.52 0.176,-0.52L0.434,-0.52C0.447,-0.52 0.46,-0.517 0.471,-0.512C0.483,-0.507 0.493,-0.501 0.502,-0.492C0.51,-0.483 0.517,-0.473 0.522,-0.461C0.527,-0.45 0.53,-0.437 0.53,-0.424L0.53,-0.096ZM0.176,-0.424L0.176,-0.096L0.434,-0.096L0.434,-0.424L0.176,-0.424Z" style="fill:rgb(19,19,19);fill-rule:nonzero;"/>
                        </g>
                        <g transform="matrix(15.1639,0,0,15.1639,120.554,772.104)">
                            <path d="M0.08,-0.424C0.08,-0.437 0.083,-0.45 0.088,-0.461C0.093,-0.473 0.1,-0.483 0.108,-0.492C0.117,-0.501 0.127,-0.507 0.139,-0.512C0.15,-0.517 0.163,-0.52 0.176,-0.52L0.444,-0.52L0.444,-0.72L0.54,-0.72L0.54,-0L0.444,-0L0.444,-0.088C0.443,-0.076 0.44,-0.064 0.434,-0.054C0.429,-0.043 0.421,-0.034 0.413,-0.026C0.404,-0.018 0.394,-0.011 0.383,-0.007C0.372,-0.002 0.361,-0 0.348,-0L0.176,-0C0.163,-0 0.15,-0.003 0.139,-0.008C0.127,-0.013 0.117,-0.019 0.108,-0.028C0.1,-0.037 0.093,-0.047 0.088,-0.059C0.083,-0.07 0.08,-0.083 0.08,-0.096L0.08,-0.424ZM0.176,-0.096L0.444,-0.096L0.444,-0.424L0.176,-0.424L0.176,-0.096Z" style="fill:rgb(19,19,19);fill-rule:nonzero;"/>
                        </g>
                        <g transform="matrix(15.1639,0,0,15.1639,91.2406,787.994)">
                            <path d="M0.19,-0.3C0.176,-0.3 0.163,-0.302 0.151,-0.308C0.139,-0.313 0.128,-0.32 0.119,-0.329C0.11,-0.338 0.103,-0.349 0.098,-0.361C0.092,-0.373 0.09,-0.386 0.09,-0.4L0.09,-0.6C0.09,-0.614 0.092,-0.627 0.098,-0.639C0.103,-0.651 0.11,-0.662 0.119,-0.671C0.128,-0.68 0.139,-0.687 0.151,-0.692C0.163,-0.698 0.176,-0.7 0.19,-0.7L0.53,-0.7L0.591,-0.7C0.613,-0.7 0.624,-0.694 0.625,-0.68C0.625,-0.667 0.625,-0.64 0.625,-0.6L0.19,-0.6L0.19,-0.4L0.53,-0.4C0.543,-0.4 0.556,-0.397 0.569,-0.392C0.581,-0.387 0.591,-0.38 0.601,-0.371C0.61,-0.361 0.617,-0.351 0.622,-0.339C0.627,-0.326 0.63,-0.313 0.63,-0.3L0.63,-0.1C0.63,-0.086 0.627,-0.073 0.622,-0.061C0.617,-0.049 0.61,-0.038 0.601,-0.029C0.591,-0.02 0.581,-0.013 0.569,-0.008C0.556,-0.003 0.543,-0 0.53,-0L0.18,-0L0.101,0C0.091,-0.008 0.085,-0.017 0.083,-0.024C0.081,-0.032 0.08,-0.057 0.08,-0.101L0.18,-0.1L0.53,-0.1L0.53,-0.3L0.19,-0.3Z" style="fill:rgb(19,19,19);fill-rule:nonzero;"/>
                        </g>
                        <g transform="matrix(15.1639,0,0,15.1639,102.162,787.994)">
                            <path d="M0.05,-0.52L0.177,-0.52L0.177,-0.68L0.273,-0.68L0.273,-0.52L0.444,-0.52L0.444,-0.424L0.273,-0.424L0.273,-0.096L0.444,-0.096L0.444,-0L0.273,-0C0.26,-0 0.248,-0.003 0.236,-0.008C0.224,-0.013 0.214,-0.019 0.205,-0.028C0.196,-0.037 0.189,-0.047 0.184,-0.059C0.179,-0.07 0.177,-0.083 0.177,-0.096L0.177,-0.424L0.05,-0.424L0.05,-0.52Z" style="fill:rgb(19,19,19);fill-rule:nonzero;"/>
                        </g>
                        <g transform="matrix(15.1639,0,0,15.1639,110.107,787.994)">
                            <path d="M0.52,-0.211L0.176,-0.211L0.176,-0.096L0.52,-0.096L0.52,-0L0.176,-0C0.163,-0 0.15,-0.003 0.139,-0.008C0.127,-0.013 0.117,-0.019 0.108,-0.028C0.1,-0.037 0.093,-0.047 0.088,-0.059C0.083,-0.07 0.08,-0.083 0.08,-0.096L0.08,-0.424C0.08,-0.437 0.083,-0.45 0.088,-0.461C0.093,-0.473 0.1,-0.483 0.108,-0.492C0.117,-0.501 0.127,-0.507 0.139,-0.512C0.15,-0.517 0.163,-0.52 0.176,-0.52L0.424,-0.52C0.437,-0.52 0.45,-0.517 0.461,-0.512C0.473,-0.507 0.483,-0.501 0.492,-0.492C0.501,-0.483 0.507,-0.473 0.512,-0.461C0.517,-0.45 0.52,-0.437 0.52,-0.424L0.52,-0.211ZM0.176,-0.424L0.176,-0.307L0.424,-0.307L0.424,-0.424L0.176,-0.424Z" style="fill:rgb(19,19,19);fill-rule:nonzero;"/>
                        </g>
                        <g transform="matrix(15.1639,0,0,15.1639,119.206,787.994)">
                            <path d="M0.54,-0.096C0.54,-0.083 0.538,-0.07 0.532,-0.059C0.527,-0.047 0.521,-0.037 0.512,-0.028C0.503,-0.019 0.493,-0.013 0.481,-0.008C0.47,-0.003 0.457,-0 0.444,-0L0.176,-0L0.176,0.21L0.08,0.21L0.08,-0.52L0.176,-0.52L0.176,-0.432C0.177,-0.444 0.18,-0.456 0.186,-0.467C0.191,-0.477 0.198,-0.486 0.207,-0.494C0.215,-0.502 0.225,-0.509 0.236,-0.513C0.247,-0.518 0.259,-0.52 0.272,-0.52L0.444,-0.52C0.457,-0.52 0.47,-0.517 0.481,-0.512C0.493,-0.507 0.503,-0.501 0.512,-0.492C0.521,-0.483 0.527,-0.473 0.532,-0.461C0.538,-0.45 0.54,-0.437 0.54,-0.424L0.54,-0.096ZM0.444,-0.096L0.444,-0.424L0.176,-0.424L0.176,-0.096L0.444,-0.096Z" style="fill:rgb(19,19,19);fill-rule:nonzero;"/>
                        </g>
                        <g transform="matrix(15.1639,0,0,15.1639,128.61,787.994)">
                            <path d="M0.54,-0.096C0.54,-0.083 0.538,-0.07 0.532,-0.059C0.527,-0.047 0.521,-0.037 0.512,-0.028C0.503,-0.019 0.493,-0.013 0.481,-0.008C0.47,-0.003 0.457,-0 0.444,-0L0.176,-0L0.176,0.21L0.08,0.21L0.08,-0.52L0.176,-0.52L0.176,-0.432C0.177,-0.444 0.18,-0.456 0.186,-0.467C0.191,-0.477 0.198,-0.486 0.207,-0.494C0.215,-0.502 0.225,-0.509 0.236,-0.513C0.247,-0.518 0.259,-0.52 0.272,-0.52L0.444,-0.52C0.457,-0.52 0.47,-0.517 0.481,-0.512C0.493,-0.507 0.503,-0.501 0.512,-0.492C0.521,-0.483 0.527,-0.473 0.532,-0.461C0.538,-0.45 0.54,-0.437 0.54,-0.424L0.54,-0.096ZM0.444,-0.096L0.444,-0.424L0.176,-0.424L0.176,-0.096L0.444,-0.096Z" style="fill:rgb(19,19,19);fill-rule:nonzero;"/>
                        </g>
                        <g transform="matrix(15.1639,0,0,15.1639,138.013,787.994)">
                            <path d="M0.52,-0.211L0.176,-0.211L0.176,-0.096L0.52,-0.096L0.52,-0L0.176,-0C0.163,-0 0.15,-0.003 0.139,-0.008C0.127,-0.013 0.117,-0.019 0.108,-0.028C0.1,-0.037 0.093,-0.047 0.088,-0.059C0.083,-0.07 0.08,-0.083 0.08,-0.096L0.08,-0.424C0.08,-0.437 0.083,-0.45 0.088,-0.461C0.093,-0.473 0.1,-0.483 0.108,-0.492C0.117,-0.501 0.127,-0.507 0.139,-0.512C0.15,-0.517 0.163,-0.52 0.176,-0.52L0.424,-0.52C0.437,-0.52 0.45,-0.517 0.461,-0.512C0.473,-0.507 0.483,-0.501 0.492,-0.492C0.501,-0.483 0.507,-0.473 0.512,-0.461C0.517,-0.45 0.52,-0.437 0.52,-0.424L0.52,-0.211ZM0.176,-0.424L0.176,-0.307L0.424,-0.307L0.424,-0.424L0.176,-0.424Z" style="fill:rgb(19,19,19);fill-rule:nonzero;"/>
                        </g>
                        <g transform="matrix(15.1639,0,0,15.1639,147.113,787.994)">
                            <path d="M0.176,-0.424L0.176,-0L0.08,-0L0.08,-0.52L0.374,-0.52C0.387,-0.52 0.4,-0.517 0.411,-0.512C0.423,-0.507 0.433,-0.501 0.442,-0.492C0.451,-0.483 0.458,-0.473 0.463,-0.461C0.468,-0.45 0.47,-0.437 0.47,-0.424L0.47,-0.336L0.374,-0.336L0.374,-0.424L0.176,-0.424Z" style="fill:rgb(19,19,19);fill-rule:nonzero;"/>
                        </g>
                        <g transform="matrix(15.1639,0,0,15.1639,91.2406,803.883)">
                            <path d="M0.451,-0L0.19,-0.513L0.19,-0L0.09,-0L0.09,-0.7L0.199,-0.7L0.466,-0.173L0.733,-0.7L0.842,-0.7L0.842,-0L0.742,-0L0.742,-0.513L0.481,-0L0.451,-0Z" style="fill:rgb(19,19,19);fill-rule:nonzero;"/>
                        </g>
                        <g transform="matrix(15.1639,0,0,15.1639,105.375,803.883)">
                            <path d="M0.53,-0.096C0.53,-0.083 0.527,-0.07 0.522,-0.059C0.517,-0.047 0.51,-0.037 0.502,-0.028C0.493,-0.019 0.483,-0.013 0.471,-0.008C0.46,-0.003 0.447,-0 0.434,-0L0.176,-0C0.163,-0 0.15,-0.003 0.139,-0.008C0.127,-0.013 0.117,-0.019 0.108,-0.028C0.1,-0.037 0.093,-0.047 0.088,-0.059C0.083,-0.07 0.08,-0.083 0.08,-0.096L0.08,-0.424C0.08,-0.437 0.083,-0.45 0.088,-0.461C0.093,-0.473 0.1,-0.483 0.108,-0.492C0.117,-0.501 0.127,-0.507 0.139,-0.512C0.15,-0.517 0.163,-0.52 0.176,-0.52L0.434,-0.52C0.447,-0.52 0.46,-0.517 0.471,-0.512C0.483,-0.507 0.493,-0.501 0.502,-0.492C0.51,-0.483 0.517,-0.473 0.522,-0.461C0.527,-0.45 0.53,-0.437 0.53,-0.424L0.53,-0.096ZM0.176,-0.424L0.176,-0.096L0.434,-0.096L0.434,-0.424L0.176,-0.424Z" style="fill:rgb(19,19,19);fill-rule:nonzero;"/>
                        </g>
                        <g transform="matrix(15.1639,0,0,15.1639,114.623,803.883)">
                            <path d="M0.05,-0.52L0.177,-0.52L0.177,-0.68L0.273,-0.68L0.273,-0.52L0.444,-0.52L0.444,-0.424L0.273,-0.424L0.273,-0.096L0.444,-0.096L0.444,-0L0.273,-0C0.26,-0 0.248,-0.003 0.236,-0.008C0.224,-0.013 0.214,-0.019 0.205,-0.028C0.196,-0.037 0.189,-0.047 0.184,-0.059C0.179,-0.07 0.177,-0.083 0.177,-0.096L0.177,-0.424L0.05,-0.424L0.05,-0.52Z" style="fill:rgb(19,19,19);fill-rule:nonzero;"/>
                        </g>
                        <g transform="matrix(15.1639,0,0,15.1639,122.568,803.883)">
                            <path d="M0.53,-0.096C0.53,-0.083 0.527,-0.07 0.522,-0.059C0.517,-0.047 0.51,-0.037 0.502,-0.028C0.493,-0.019 0.483,-0.013 0.471,-0.008C0.46,-0.003 0.447,-0 0.434,-0L0.176,-0C0.163,-0 0.15,-0.003 0.139,-0.008C0.127,-0.013 0.117,-0.019 0.108,-0.028C0.1,-0.037 0.093,-0.047 0.088,-0.059C0.083,-0.07 0.08,-0.083 0.08,-0.096L0.08,-0.424C0.08,-0.437 0.083,-0.45 0.088,-0.461C0.093,-0.473 0.1,-0.483 0.108,-0.492C0.117,-0.501 0.127,-0.507 0.139,-0.512C0.15,-0.517 0.163,-0.52 0.176,-0.52L0.434,-0.52C0.447,-0.52 0.46,-0.517 0.471,-0.512C0.483,-0.507 0.493,-0.501 0.502,-0.492C0.51,-0.483 0.517,-0.473 0.522,-0.461C0.527,-0.45 0.53,-0.437 0.53,-0.424L0.53,-0.096ZM0.176,-0.424L0.176,-0.096L0.434,-0.096L0.434,-0.424L0.176,-0.424Z" style="fill:rgb(19,19,19);fill-rule:nonzero;"/>
                        </g>
                        <g transform="matrix(15.1639,0,0,15.1639,131.816,803.883)">
                            <path d="M0.176,-0.424L0.176,-0L0.08,-0L0.08,-0.52L0.374,-0.52C0.387,-0.52 0.4,-0.517 0.411,-0.512C0.423,-0.507 0.433,-0.501 0.442,-0.492C0.451,-0.483 0.458,-0.473 0.463,-0.461C0.468,-0.45 0.47,-0.437 0.47,-0.424L0.47,-0.336L0.374,-0.336L0.374,-0.424L0.176,-0.424Z" style="fill:rgb(19,19,19);fill-rule:nonzero;"/>
                        </g>
                        <g transform="matrix(15.1639,0,0,15.1639,91.2406,819.773)">
                            <path d="M0.451,-0L0.19,-0.513L0.19,-0L0.09,-0L0.09,-0.7L0.199,-0.7L0.466,-0.173L0.733,-0.7L0.842,-0.7L0.842,-0L0.742,-0L0.742,-0.513L0.481,-0L0.451,-0Z" style="fill:rgb(19,19,19);fill-rule:nonzero;"/>
                        </g>
                        <g transform="matrix(15.1639,0,0,15.1639,105.375,819.773)">
                            <path d="M0.53,-0.096C0.53,-0.083 0.527,-0.07 0.522,-0.059C0.517,-0.047 0.51,-0.037 0.502,-0.028C0.493,-0.019 0.483,-0.013 0.471,-0.008C0.46,-0.003 0.447,-0 0.434,-0L0.176,-0C0.163,-0 0.15,-0.003 0.139,-0.008C0.127,-0.013 0.117,-0.019 0.108,-0.028C0.1,-0.037 0.093,-0.047 0.088,-0.059C0.083,-0.07 0.08,-0.083 0.08,-0.096L0.08,-0.424C0.08,-0.437 0.083,-0.45 0.088,-0.461C0.093,-0.473 0.1,-0.483 0.108,-0.492C0.117,-0.501 0.127,-0.507 0.139,-0.512C0.15,-0.517 0.163,-0.52 0.176,-0.52L0.434,-0.52C0.447,-0.52 0.46,-0.517 0.471,-0.512C0.483,-0.507 0.493,-0.501 0.502,-0.492C0.51,-0.483 0.517,-0.473 0.522,-0.461C0.527,-0.45 0.53,-0.437 0.53,-0.424L0.53,-0.096ZM0.176,-0.424L0.176,-0.096L0.434,-0.096L0.434,-0.424L0.176,-0.424Z" style="fill:rgb(19,19,19);fill-rule:nonzero;"/>
                        </g>
                        <g transform="matrix(15.1639,0,0,15.1639,114.623,819.773)">
                            <path d="M0.08,-0.424C0.08,-0.437 0.083,-0.45 0.088,-0.461C0.093,-0.473 0.1,-0.483 0.108,-0.492C0.117,-0.501 0.127,-0.507 0.139,-0.512C0.15,-0.517 0.163,-0.52 0.176,-0.52L0.444,-0.52L0.444,-0.72L0.54,-0.72L0.54,-0L0.444,-0L0.444,-0.088C0.443,-0.076 0.44,-0.064 0.434,-0.054C0.429,-0.043 0.421,-0.034 0.413,-0.026C0.404,-0.018 0.394,-0.011 0.383,-0.007C0.372,-0.002 0.361,-0 0.348,-0L0.176,-0C0.163,-0 0.15,-0.003 0.139,-0.008C0.127,-0.013 0.117,-0.019 0.108,-0.028C0.1,-0.037 0.093,-0.047 0.088,-0.059C0.083,-0.07 0.08,-0.083 0.08,-0.096L0.08,-0.424ZM0.176,-0.096L0.444,-0.096L0.444,-0.424L0.176,-0.424L0.176,-0.096Z" style="fill:rgb(19,19,19);fill-rule:nonzero;"/>
                        </g>
                        <g transform="matrix(15.1639,0,0,15.1639,124.027,819.773)">
                            <path d="M0.08,-0.52L0.176,-0.52L0.176,-0.096L0.444,-0.096L0.444,-0.52L0.54,-0.52L0.54,-0L0.444,-0L0.444,-0.088C0.443,-0.076 0.44,-0.064 0.434,-0.054C0.429,-0.043 0.421,-0.034 0.413,-0.026C0.404,-0.018 0.394,-0.011 0.383,-0.007C0.372,-0.002 0.361,-0 0.348,-0L0.176,-0C0.163,-0 0.15,-0.003 0.139,-0.008C0.127,-0.013 0.117,-0.019 0.108,-0.028C0.1,-0.037 0.093,-0.047 0.088,-0.059C0.083,-0.07 0.08,-0.083 0.08,-0.096L0.08,-0.52Z" style="fill:rgb(19,19,19);fill-rule:nonzero;"/>
                        </g>
                        <g transform="matrix(15.1639,0,0,15.1639,133.43,819.773)">
                            <rect x="0.08" y="-0.72" width="0.096" height="0.72" style="fill:rgb(19,19,19);fill-rule:nonzero;"/>
                        </g>
                        <g transform="matrix(15.1639,0,0,15.1639,137.31,819.773)">
                            <path d="M0.52,-0.211L0.176,-0.211L0.176,-0.096L0.52,-0.096L0.52,-0L0.176,-0C0.163,-0 0.15,-0.003 0.139,-0.008C0.127,-0.013 0.117,-0.019 0.108,-0.028C0.1,-0.037 0.093,-0.047 0.088,-0.059C0.083,-0.07 0.08,-0.083 0.08,-0.096L0.08,-0.424C0.08,-0.437 0.083,-0.45 0.088,-0.461C0.093,-0.473 0.1,-0.483 0.108,-0.492C0.117,-0.501 0.127,-0.507 0.139,-0.512C0.15,-0.517 0.163,-0.52 0.176,-0.52L0.424,-0.52C0.437,-0.52 0.45,-0.517 0.461,-0.512C0.473,-0.507 0.483,-0.501 0.492,-0.492C0.501,-0.483 0.507,-0.473 0.512,-0.461C0.517,-0.45 0.52,-0.437 0.52,-0.424L0.52,-0.211ZM0.176,-0.424L0.176,-0.307L0.424,-0.307L0.424,-0.424L0.176,-0.424Z" style="fill:rgb(19,19,19);fill-rule:nonzero;"/>
                        </g>
                    </g>
                </g>
            </g>
            <g id="washers" transform="matrix(1,0,0,1,8.56806,-6.25371)">
                <path d="M655.364,594.413C648.41,594.413 642.764,588.767 642.764,581.813C642.764,574.859 648.41,569.213 655.364,569.213C662.318,569.213 667.964,574.859 667.964,581.813C667.964,588.767 662.318,594.413 655.364,594.413ZM655.364,586.349C652.861,586.349 650.829,584.316 650.829,581.813C650.829,579.31 652.861,577.278 655.364,577.278C657.867,577.278 659.899,579.31 659.899,581.813C659.899,584.316 657.867,586.349 655.364,586.349ZM655.364,622.448C648.41,622.448 642.764,616.802 642.764,609.848C642.764,602.894 648.41,597.248 655.364,597.248C662.318,597.248 667.964,602.894 667.964,609.848C667.964,616.802 662.318,622.448 655.364,622.448ZM655.364,614.383C652.861,614.383 650.829,612.351 650.829,609.848C650.829,607.345 652.861,605.312 655.364,605.312C657.867,605.312 659.899,607.345 659.899,609.848C659.899,612.351 657.867,614.383 655.364,614.383ZM655.364,650.483C648.41,650.483 642.764,644.837 642.764,637.883C642.764,630.928 648.41,625.283 655.364,625.283C662.318,625.283 667.964,630.928 667.964,637.883C667.964,644.837 662.318,650.483 655.364,650.483ZM655.364,642.418C652.861,642.418 650.829,640.386 650.829,637.883C650.829,635.379 652.861,633.347 655.364,633.347C657.867,633.347 659.899,635.379 659.899,637.883C659.899,640.386 657.867,642.418 655.364,642.418ZM655.364,678.517C648.41,678.517 642.764,672.871 642.764,665.917C642.764,658.963 648.41,653.317 655.364,653.317C662.318,653.317 667.964,658.963 667.964,665.917C667.964,672.871 662.318,678.517 655.364,678.517ZM655.364,670.453C652.861,670.453 650.829,668.42 650.829,665.917C650.829,663.414 652.861,661.382 655.364,661.382C657.867,661.382 659.899,663.414 659.899,665.917C659.899,668.42 657.867,670.453 655.364,670.453Z" style="fill:none;stroke:black;stroke-width:1px;stroke-miterlimit:1.5;"/>
            </g>
        </g>
    </g>
</svg>
