<?xml version="1.0" encoding="UTF-8" standalone="no"?>
<!DOCTYPE svg PUBLIC "-//W3C//DTD SVG 1.1//EN" "http://www.w3.org/Graphics/SVG/1.1/DTD/svg11.dtd">
<svg width="698px" height="735px" version="1.1" xmlns="http://www.w3.org/2000/svg" xmlns:xlink="http://www.w3.org/1999/xlink" xml:space="preserve" xmlns:serif="http://www.serif.com/" style="fill-rule:evenodd;clip-rule:evenodd;stroke-linecap:round;stroke-linejoin:round;">
    <g id="Artboard1" transform="matrix(1.06605,0,0,1.05124,-482.694,-32.9141)">
        <rect x="452.787" y="31.31" width="654.614" height="698.249" style="fill:none;"/>
        <g id="V1.1" transform="matrix(1.25072,0,0,1.26835,246.22,-352.814)">
            <g id="long-side-2" serif:id="long side 2" transform="matrix(6.12323e-17,-1,1,6.12323e-17,-191.242,404.605)">
                <path d="M-417.819,731.703C-385.766,728.758 -349.584,726.948 -311.142,726.589L-311.142,718.085L-282.795,718.085L-282.795,726.589C-244.049,726.95 -207.601,728.787 -175.363,731.773L-175.363,786.528L-175.362,786.527L-173.142,786.672L-170.96,787.106L-168.853,787.822L-166.858,788.805L-165.008,790.041L-163.336,791.508L-161.869,793.181L-160.633,795.031L-159.649,797.026L-158.934,799.133L-158.5,801.315L-158.354,803.535L-158.354,820.543L-158.427,821.653L-158.644,822.744L-159.001,823.797L-159.493,824.795L-160.111,825.719L-160.845,826.556L-161.681,827.289L-162.606,827.907L-163.604,828.399L-164.657,828.757L-165.748,828.974L-166.858,829.046L-166.858,820.543L-166.955,819.808L-167.074,819.457L-167.238,819.124L-167.444,818.816L-167.688,818.537L-167.967,818.293L-168.275,818.087L-168.608,817.922L-168.959,817.803L-169.693,817.707L-172.402,817.707L-174.076,818.052L-174.462,818.243L-174.827,818.471L-175.166,818.736L-175.477,819.033L-175.756,819.361L-176,819.715L-176.374,820.488L-179.489,829.045L-414.448,829.043L-417.605,820.368L-417.765,819.989L-417.964,819.627L-418.197,819.288L-418.464,818.975L-418.762,818.69L-419.087,818.437L-419.436,818.218L-419.806,818.035L-420.192,817.892L-420.59,817.788L-420.998,817.725L-421.409,817.706L-424.244,817.706L-424.614,817.731L-424.977,817.803L-425.328,817.922L-425.661,818.086L-425.969,818.293L-426.248,818.537L-426.493,818.816L-426.699,819.124L-426.863,819.457L-426.982,819.808L-427.054,820.171L-427.08,820.541L-427.08,829.045L-430.654,828.997L-431.382,828.852L-432.084,828.614L-432.749,828.286L-433.366,827.874L-433.923,827.385L-434.412,826.827L-434.824,826.211L-435.152,825.546L-435.391,824.844L-435.535,824.116L-435.584,823.376L-435.584,803.534L-435.438,801.314L-435.004,799.132L-434.289,797.025L-433.305,795.03L-432.069,793.18L-430.602,791.507L-428.93,790.04L-427.08,788.804L-425.084,787.82L-422.978,787.105L-420.796,786.526L-418.576,786.526L-418.575,731.773L-417.819,731.703ZM-333.725,811.753L-333.725,820.824L-362.071,820.824L-362.071,811.753L-333.725,811.753ZM-260.213,820.824L-260.213,811.753L-231.866,811.753L-231.866,820.824L-260.213,820.824ZM-265.359,782.485C-265.359,781.898 -265.835,781.422 -266.422,781.422C-270.346,781.422 -283.989,781.422 -287.912,781.422C-288.5,781.422 -288.975,781.898 -288.975,782.485C-288.975,785.115 -288.975,791.903 -288.975,794.532C-288.975,795.119 -288.5,795.595 -287.912,795.595C-283.989,795.595 -270.346,795.595 -266.422,795.595C-265.835,795.595 -265.359,795.119 -265.359,794.532C-265.359,791.903 -265.359,785.115 -265.359,782.485ZM-297.759,782.485C-297.759,781.898 -298.235,781.422 -298.822,781.422C-302.746,781.422 -316.389,781.422 -320.312,781.422C-320.9,781.422 -321.375,781.898 -321.375,782.485C-321.375,785.115 -321.375,791.903 -321.375,794.532C-321.375,795.119 -320.9,795.595 -320.312,795.595C-316.389,795.595 -302.746,795.595 -298.822,795.595C-298.235,795.595 -297.759,795.119 -297.759,794.532C-297.759,791.903 -297.759,785.115 -297.759,782.485ZM-330.721,775.965C-330.721,775.378 -331.197,774.902 -331.784,774.902C-338.875,774.902 -379.26,774.902 -386.351,774.902C-386.938,774.902 -387.414,775.378 -387.414,775.965C-387.414,779.019 -387.414,787.794 -387.414,790.847C-387.414,791.434 -386.938,791.91 -386.351,791.91C-379.26,791.91 -338.875,791.91 -331.784,791.91C-331.197,791.91 -330.721,791.434 -330.721,790.847C-330.721,787.794 -330.721,779.019 -330.721,775.965Z" style="fill:none;stroke:black;stroke-width:1px;"/>
                <g>
                    <g transform="matrix(6.12323e-17,-1,1,6.12323e-17,-1088.92,1138.45)">
                        <g transform="matrix(6,0,0,6,359.129,774.486)">
                            <path d="M0.05,-0.212L0.148,-0.212L0.148,-0.175C0.148,-0.148 0.154,-0.129 0.166,-0.117C0.177,-0.104 0.196,-0.098 0.223,-0.098L0.425,-0.098C0.451,-0.098 0.471,-0.104 0.482,-0.117C0.494,-0.129 0.5,-0.148 0.5,-0.175L0.5,-0.229C0.5,-0.256 0.494,-0.275 0.482,-0.287C0.471,-0.299 0.451,-0.305 0.425,-0.305L0.218,-0.305L0.218,-0.403L0.422,-0.403C0.446,-0.404 0.464,-0.41 0.474,-0.423C0.485,-0.435 0.49,-0.454 0.49,-0.479L0.49,-0.525C0.49,-0.552 0.484,-0.571 0.472,-0.583C0.461,-0.596 0.441,-0.602 0.415,-0.602L0.233,-0.602C0.207,-0.602 0.188,-0.596 0.176,-0.583C0.164,-0.571 0.158,-0.552 0.158,-0.525L0.158,-0.488L0.06,-0.488L0.06,-0.53C0.06,-0.643 0.117,-0.7 0.23,-0.7L0.418,-0.7C0.476,-0.7 0.518,-0.686 0.546,-0.658C0.574,-0.63 0.588,-0.587 0.588,-0.53L0.588,-0.517C0.588,-0.478 0.581,-0.445 0.567,-0.42C0.553,-0.394 0.533,-0.375 0.507,-0.363C0.536,-0.354 0.559,-0.336 0.575,-0.31C0.59,-0.284 0.598,-0.249 0.598,-0.205L0.598,-0.17C0.598,-0.057 0.542,-0 0.428,-0L0.22,-0C0.107,-0 0.05,-0.057 0.05,-0.17L0.05,-0.212Z" style="fill:rgb(19,19,19);fill-rule:nonzero;"/>
                        </g>
                        <g transform="matrix(6,0,0,6,363.078,774.486)">
                            <rect x="0.08" y="-0.146" width="0.146" height="0.146" style="fill:rgb(19,19,19);fill-rule:nonzero;"/>
                        </g>
                        <g transform="matrix(6,0,0,6,364.915,774.486)">
                            <path d="M0.05,-0.212L0.148,-0.212L0.148,-0.175C0.148,-0.148 0.154,-0.129 0.166,-0.117C0.177,-0.104 0.196,-0.098 0.223,-0.098L0.425,-0.098C0.451,-0.098 0.471,-0.104 0.482,-0.117C0.494,-0.129 0.5,-0.148 0.5,-0.175L0.5,-0.229C0.5,-0.256 0.494,-0.275 0.482,-0.287C0.471,-0.299 0.451,-0.305 0.425,-0.305L0.218,-0.305L0.218,-0.403L0.422,-0.403C0.446,-0.404 0.464,-0.41 0.474,-0.423C0.485,-0.435 0.49,-0.454 0.49,-0.479L0.49,-0.525C0.49,-0.552 0.484,-0.571 0.472,-0.583C0.461,-0.596 0.441,-0.602 0.415,-0.602L0.233,-0.602C0.207,-0.602 0.188,-0.596 0.176,-0.583C0.164,-0.571 0.158,-0.552 0.158,-0.525L0.158,-0.488L0.06,-0.488L0.06,-0.53C0.06,-0.643 0.117,-0.7 0.23,-0.7L0.418,-0.7C0.476,-0.7 0.518,-0.686 0.546,-0.658C0.574,-0.63 0.588,-0.587 0.588,-0.53L0.588,-0.517C0.588,-0.478 0.581,-0.445 0.567,-0.42C0.553,-0.394 0.533,-0.375 0.507,-0.363C0.536,-0.354 0.559,-0.336 0.575,-0.31C0.59,-0.284 0.598,-0.249 0.598,-0.205L0.598,-0.17C0.598,-0.057 0.542,-0 0.428,-0L0.22,-0C0.107,-0 0.05,-0.057 0.05,-0.17L0.05,-0.212Z" style="fill:rgb(19,19,19);fill-rule:nonzero;"/>
                        </g>
                        <g transform="matrix(6,0,0,6,368.864,774.486)">
                            <path d="M0.3,-0L0.03,-0.7L0.137,-0.7L0.355,-0.124L0.573,-0.7L0.68,-0.7L0.41,-0L0.3,-0Z" style="fill:rgb(19,19,19);fill-rule:nonzero;"/>
                        </g>
                    </g>
                    <g transform="matrix(6.12323e-17,-1,1,6.12323e-17,-1081.72,1138.45)">
                        <g transform="matrix(6,0,0,6,359.129,774.486)">
                            <path d="M0.19,-0.7L0.19,-0.1L0.55,-0.1L0.55,-0L0.09,-0L0.09,-0.7L0.19,-0.7Z" style="fill:rgb(19,19,19);fill-rule:nonzero;"/>
                        </g>
                        <g transform="matrix(6,0,0,6,362.61,774.486)">
                            <path d="M0.19,-0.3C0.176,-0.3 0.163,-0.302 0.151,-0.308C0.139,-0.313 0.128,-0.32 0.119,-0.329C0.11,-0.338 0.103,-0.349 0.098,-0.361C0.092,-0.373 0.09,-0.386 0.09,-0.4L0.09,-0.6C0.09,-0.614 0.092,-0.627 0.098,-0.639C0.103,-0.651 0.11,-0.662 0.119,-0.671C0.128,-0.68 0.139,-0.687 0.151,-0.692C0.163,-0.698 0.176,-0.7 0.19,-0.7L0.53,-0.7L0.591,-0.7C0.613,-0.7 0.624,-0.694 0.625,-0.68C0.625,-0.667 0.625,-0.64 0.625,-0.6L0.19,-0.6L0.19,-0.4L0.53,-0.4C0.543,-0.4 0.556,-0.397 0.569,-0.392C0.581,-0.387 0.591,-0.38 0.601,-0.371C0.61,-0.361 0.617,-0.351 0.622,-0.339C0.627,-0.326 0.63,-0.313 0.63,-0.3L0.63,-0.1C0.63,-0.086 0.627,-0.073 0.622,-0.061C0.617,-0.049 0.61,-0.038 0.601,-0.029C0.591,-0.02 0.581,-0.013 0.569,-0.008C0.556,-0.003 0.543,-0 0.53,-0L0.18,-0L0.101,0C0.091,-0.008 0.085,-0.017 0.083,-0.024C0.081,-0.032 0.08,-0.057 0.08,-0.101L0.18,-0.1L0.53,-0.1L0.53,-0.3L0.19,-0.3Z" style="fill:rgb(19,19,19);fill-rule:nonzero;"/>
                        </g>
                        <g transform="matrix(6,0,0,6,366.931,774.486)">
                            <path d="M0.25,-0.7L0.25,-0L0.15,-0L0.15,-0.6L0.03,-0.6L0.03,-0.7L0.25,-0.7Z" style="fill:rgb(19,19,19);fill-rule:nonzero;"/>
                        </g>
                    </g>
                    <g transform="matrix(6.12323e-17,-1,1,6.12323e-17,-1074.52,1138.45)">
                        <g transform="matrix(6,0,0,6,359.129,774.486)">
                            <path d="M0.09,-0.6C0.09,-0.614 0.092,-0.627 0.098,-0.639C0.103,-0.651 0.11,-0.662 0.119,-0.671C0.128,-0.68 0.139,-0.687 0.151,-0.692C0.163,-0.698 0.176,-0.7 0.19,-0.7L0.57,-0.7C0.583,-0.7 0.596,-0.698 0.609,-0.692C0.621,-0.687 0.632,-0.68 0.641,-0.671C0.65,-0.662 0.657,-0.651 0.662,-0.639C0.667,-0.627 0.67,-0.614 0.67,-0.6L0.67,-0.51L0.57,-0.51L0.57,-0.6L0.19,-0.6L0.19,-0.1L0.57,-0.1L0.57,-0.27L0.38,-0.27L0.38,-0.37L0.67,-0.37L0.67,-0.1C0.67,-0.086 0.667,-0.073 0.662,-0.061C0.657,-0.049 0.65,-0.038 0.641,-0.029C0.632,-0.02 0.621,-0.013 0.609,-0.008C0.596,-0.003 0.583,-0 0.57,-0L0.19,-0C0.176,-0 0.163,-0.003 0.151,-0.008C0.139,-0.013 0.128,-0.02 0.119,-0.029C0.11,-0.038 0.103,-0.049 0.098,-0.061C0.092,-0.073 0.09,-0.086 0.09,-0.1L0.09,-0.6Z" style="fill:rgb(19,19,19);fill-rule:nonzero;"/>
                        </g>
                        <g transform="matrix(6,0,0,6,363.688,774.486)">
                            <path d="M0.19,-0L0.09,-0L0.09,-0.7L0.19,-0.7L0.611,-0.157L0.611,-0.7L0.711,-0.7L0.711,-0L0.611,-0L0.19,-0.543L0.19,-0Z" style="fill:rgb(19,19,19);fill-rule:nonzero;"/>
                        </g>
                        <g transform="matrix(6,0,0,6,368.492,774.486)">
                            <path d="M0.446,-0.1C0.492,-0.1 0.528,-0.113 0.553,-0.138C0.578,-0.163 0.591,-0.199 0.591,-0.245L0.591,-0.455C0.591,-0.478 0.588,-0.498 0.581,-0.516C0.575,-0.534 0.565,-0.549 0.552,-0.562C0.54,-0.574 0.525,-0.584 0.507,-0.59C0.489,-0.597 0.469,-0.6 0.446,-0.6L0.19,-0.6L0.19,-0.1L0.446,-0.1ZM0.09,-0L0.09,-0.7L0.446,-0.7C0.483,-0.7 0.517,-0.694 0.547,-0.683C0.577,-0.671 0.603,-0.655 0.624,-0.634C0.646,-0.612 0.662,-0.586 0.674,-0.556C0.685,-0.526 0.691,-0.492 0.691,-0.455L0.691,-0.245C0.691,-0.208 0.685,-0.174 0.674,-0.144C0.662,-0.114 0.646,-0.088 0.624,-0.067C0.603,-0.045 0.577,-0.029 0.547,-0.017C0.517,-0.006 0.483,-0 0.446,-0L0.09,-0Z" style="fill:rgb(19,19,19);fill-rule:nonzero;"/>
                        </g>
                    </g>
                    <g transform="matrix(6.12323e-17,-1,1,6.12323e-17,-1056.52,1138.45)">
                        <g transform="matrix(6,0,0,6,359.129,774.486)">
                            <path d="M0.05,-0.212L0.148,-0.212L0.148,-0.175C0.148,-0.148 0.154,-0.129 0.166,-0.117C0.177,-0.104 0.196,-0.098 0.223,-0.098L0.425,-0.098C0.451,-0.098 0.471,-0.104 0.482,-0.117C0.494,-0.129 0.5,-0.148 0.5,-0.175L0.5,-0.229C0.5,-0.256 0.494,-0.275 0.482,-0.287C0.471,-0.299 0.451,-0.305 0.425,-0.305L0.218,-0.305L0.218,-0.403L0.422,-0.403C0.446,-0.404 0.464,-0.41 0.474,-0.423C0.485,-0.435 0.49,-0.454 0.49,-0.479L0.49,-0.525C0.49,-0.552 0.484,-0.571 0.472,-0.583C0.461,-0.596 0.441,-0.602 0.415,-0.602L0.233,-0.602C0.207,-0.602 0.188,-0.596 0.176,-0.583C0.164,-0.571 0.158,-0.552 0.158,-0.525L0.158,-0.488L0.06,-0.488L0.06,-0.53C0.06,-0.643 0.117,-0.7 0.23,-0.7L0.418,-0.7C0.476,-0.7 0.518,-0.686 0.546,-0.658C0.574,-0.63 0.588,-0.587 0.588,-0.53L0.588,-0.517C0.588,-0.478 0.581,-0.445 0.567,-0.42C0.553,-0.394 0.533,-0.375 0.507,-0.363C0.536,-0.354 0.559,-0.336 0.575,-0.31C0.59,-0.284 0.598,-0.249 0.598,-0.205L0.598,-0.17C0.598,-0.057 0.542,-0 0.428,-0L0.22,-0C0.107,-0 0.05,-0.057 0.05,-0.17L0.05,-0.212Z" style="fill:rgb(19,19,19);fill-rule:nonzero;"/>
                        </g>
                        <g transform="matrix(6,0,0,6,363.078,774.486)">
                            <rect x="0.08" y="-0.146" width="0.146" height="0.146" style="fill:rgb(19,19,19);fill-rule:nonzero;"/>
                        </g>
                        <g transform="matrix(6,0,0,6,364.915,774.486)">
                            <path d="M0.05,-0.212L0.148,-0.212L0.148,-0.175C0.148,-0.148 0.154,-0.129 0.166,-0.117C0.177,-0.104 0.196,-0.098 0.223,-0.098L0.425,-0.098C0.451,-0.098 0.471,-0.104 0.482,-0.117C0.494,-0.129 0.5,-0.148 0.5,-0.175L0.5,-0.229C0.5,-0.256 0.494,-0.275 0.482,-0.287C0.471,-0.299 0.451,-0.305 0.425,-0.305L0.218,-0.305L0.218,-0.403L0.422,-0.403C0.446,-0.404 0.464,-0.41 0.474,-0.423C0.485,-0.435 0.49,-0.454 0.49,-0.479L0.49,-0.525C0.49,-0.552 0.484,-0.571 0.472,-0.583C0.461,-0.596 0.441,-0.602 0.415,-0.602L0.233,-0.602C0.207,-0.602 0.188,-0.596 0.176,-0.583C0.164,-0.571 0.158,-0.552 0.158,-0.525L0.158,-0.488L0.06,-0.488L0.06,-0.53C0.06,-0.643 0.117,-0.7 0.23,-0.7L0.418,-0.7C0.476,-0.7 0.518,-0.686 0.546,-0.658C0.574,-0.63 0.588,-0.587 0.588,-0.53L0.588,-0.517C0.588,-0.478 0.581,-0.445 0.567,-0.42C0.553,-0.394 0.533,-0.375 0.507,-0.363C0.536,-0.354 0.559,-0.336 0.575,-0.31C0.59,-0.284 0.598,-0.249 0.598,-0.205L0.598,-0.17C0.598,-0.057 0.542,-0 0.428,-0L0.22,-0C0.107,-0 0.05,-0.057 0.05,-0.17L0.05,-0.212Z" style="fill:rgb(19,19,19);fill-rule:nonzero;"/>
                        </g>
                        <g transform="matrix(6,0,0,6,368.864,774.486)">
                            <path d="M0.3,-0L0.03,-0.7L0.137,-0.7L0.355,-0.124L0.573,-0.7L0.68,-0.7L0.41,-0L0.3,-0Z" style="fill:rgb(19,19,19);fill-rule:nonzero;"/>
                        </g>
                    </g>
                    <g transform="matrix(6.12323e-17,-1,1,6.12323e-17,-1049.32,1138.45)">
                        <g transform="matrix(6,0,0,6,359.129,774.486)">
                            <path d="M0.19,-0.7L0.19,-0.1L0.55,-0.1L0.55,-0L0.09,-0L0.09,-0.7L0.19,-0.7Z" style="fill:rgb(19,19,19);fill-rule:nonzero;"/>
                        </g>
                        <g transform="matrix(6,0,0,6,362.61,774.486)">
                            <path d="M0.19,-0.3C0.176,-0.3 0.163,-0.302 0.151,-0.308C0.139,-0.313 0.128,-0.32 0.119,-0.329C0.11,-0.338 0.103,-0.349 0.098,-0.361C0.092,-0.373 0.09,-0.386 0.09,-0.4L0.09,-0.6C0.09,-0.614 0.092,-0.627 0.098,-0.639C0.103,-0.651 0.11,-0.662 0.119,-0.671C0.128,-0.68 0.139,-0.687 0.151,-0.692C0.163,-0.698 0.176,-0.7 0.19,-0.7L0.53,-0.7L0.591,-0.7C0.613,-0.7 0.624,-0.694 0.625,-0.68C0.625,-0.667 0.625,-0.64 0.625,-0.6L0.19,-0.6L0.19,-0.4L0.53,-0.4C0.543,-0.4 0.556,-0.397 0.569,-0.392C0.581,-0.387 0.591,-0.38 0.601,-0.371C0.61,-0.361 0.617,-0.351 0.622,-0.339C0.627,-0.326 0.63,-0.313 0.63,-0.3L0.63,-0.1C0.63,-0.086 0.627,-0.073 0.622,-0.061C0.617,-0.049 0.61,-0.038 0.601,-0.029C0.591,-0.02 0.581,-0.013 0.569,-0.008C0.556,-0.003 0.543,-0 0.53,-0L0.18,-0L0.101,0C0.091,-0.008 0.085,-0.017 0.083,-0.024C0.081,-0.032 0.08,-0.057 0.08,-0.101L0.18,-0.1L0.53,-0.1L0.53,-0.3L0.19,-0.3Z" style="fill:rgb(19,19,19);fill-rule:nonzero;"/>
                        </g>
                        <g transform="matrix(6,0,0,6,366.931,774.486)">
                            <path d="M0.18,-0.6L0.18,-0.51L0.08,-0.51L0.08,-0.6C0.08,-0.614 0.083,-0.627 0.088,-0.639C0.093,-0.651 0.1,-0.662 0.109,-0.671C0.118,-0.68 0.129,-0.687 0.141,-0.692C0.154,-0.698 0.167,-0.7 0.18,-0.7L0.497,-0.7C0.511,-0.7 0.524,-0.698 0.536,-0.692C0.548,-0.687 0.559,-0.68 0.568,-0.671C0.577,-0.662 0.584,-0.651 0.589,-0.639C0.594,-0.627 0.597,-0.614 0.597,-0.6L0.597,-0.472C0.597,-0.458 0.596,-0.446 0.593,-0.436C0.591,-0.425 0.587,-0.415 0.581,-0.406C0.575,-0.398 0.568,-0.39 0.559,-0.383C0.55,-0.376 0.54,-0.37 0.527,-0.364L0.18,-0.201L0.18,-0.1L0.51,-0.1L0.51,-0.19L0.61,-0.19L0.61,-0L0.08,-0L0.08,-0.184C0.08,-0.198 0.081,-0.21 0.084,-0.221C0.087,-0.231 0.091,-0.241 0.097,-0.25C0.102,-0.258 0.109,-0.266 0.118,-0.273C0.127,-0.28 0.138,-0.286 0.15,-0.292L0.497,-0.455L0.497,-0.6L0.18,-0.6Z" style="fill:rgb(19,19,19);fill-rule:nonzero;"/>
                        </g>
                    </g>
                    <g transform="matrix(6.12323e-17,-1,1,6.12323e-17,-1042.12,1138.45)">
                        <g transform="matrix(6,0,0,6,359.129,774.486)">
                            <path d="M0.09,-0.6C0.09,-0.614 0.092,-0.627 0.098,-0.639C0.103,-0.651 0.11,-0.662 0.119,-0.671C0.128,-0.68 0.139,-0.687 0.151,-0.692C0.163,-0.698 0.176,-0.7 0.19,-0.7L0.57,-0.7C0.583,-0.7 0.596,-0.698 0.609,-0.692C0.621,-0.687 0.632,-0.68 0.641,-0.671C0.65,-0.662 0.657,-0.651 0.662,-0.639C0.667,-0.627 0.67,-0.614 0.67,-0.6L0.67,-0.51L0.57,-0.51L0.57,-0.6L0.19,-0.6L0.19,-0.1L0.57,-0.1L0.57,-0.27L0.38,-0.27L0.38,-0.37L0.67,-0.37L0.67,-0.1C0.67,-0.086 0.667,-0.073 0.662,-0.061C0.657,-0.049 0.65,-0.038 0.641,-0.029C0.632,-0.02 0.621,-0.013 0.609,-0.008C0.596,-0.003 0.583,-0 0.57,-0L0.19,-0C0.176,-0 0.163,-0.003 0.151,-0.008C0.139,-0.013 0.128,-0.02 0.119,-0.029C0.11,-0.038 0.103,-0.049 0.098,-0.061C0.092,-0.073 0.09,-0.086 0.09,-0.1L0.09,-0.6Z" style="fill:rgb(19,19,19);fill-rule:nonzero;"/>
                        </g>
                        <g transform="matrix(6,0,0,6,363.688,774.486)">
                            <path d="M0.19,-0L0.09,-0L0.09,-0.7L0.19,-0.7L0.611,-0.157L0.611,-0.7L0.711,-0.7L0.711,-0L0.611,-0L0.19,-0.543L0.19,-0Z" style="fill:rgb(19,19,19);fill-rule:nonzero;"/>
                        </g>
                        <g transform="matrix(6,0,0,6,368.492,774.486)">
                            <path d="M0.446,-0.1C0.492,-0.1 0.528,-0.113 0.553,-0.138C0.578,-0.163 0.591,-0.199 0.591,-0.245L0.591,-0.455C0.591,-0.478 0.588,-0.498 0.581,-0.516C0.575,-0.534 0.565,-0.549 0.552,-0.562C0.54,-0.574 0.525,-0.584 0.507,-0.59C0.489,-0.597 0.469,-0.6 0.446,-0.6L0.19,-0.6L0.19,-0.1L0.446,-0.1ZM0.09,-0L0.09,-0.7L0.446,-0.7C0.483,-0.7 0.517,-0.694 0.547,-0.683C0.577,-0.671 0.603,-0.655 0.624,-0.634C0.646,-0.612 0.662,-0.586 0.674,-0.556C0.685,-0.526 0.691,-0.492 0.691,-0.455L0.691,-0.245C0.691,-0.208 0.685,-0.174 0.674,-0.144C0.662,-0.114 0.646,-0.088 0.624,-0.067C0.603,-0.045 0.577,-0.029 0.547,-0.017C0.517,-0.006 0.483,-0 0.446,-0L0.09,-0Z" style="fill:rgb(19,19,19);fill-rule:nonzero;"/>
                        </g>
                    </g>
                    <g transform="matrix(1,0,0,1,-703.256,-2.77431)">
                        <g transform="matrix(6,0,0,6,361.43,774.486)">
                            <path d="M0.18,-0.6L0.18,-0.51L0.08,-0.51L0.08,-0.6C0.08,-0.614 0.083,-0.627 0.088,-0.639C0.093,-0.651 0.1,-0.662 0.109,-0.671C0.118,-0.68 0.129,-0.687 0.141,-0.692C0.154,-0.698 0.167,-0.7 0.18,-0.7L0.497,-0.7C0.511,-0.7 0.524,-0.698 0.536,-0.692C0.548,-0.687 0.559,-0.68 0.568,-0.671C0.577,-0.662 0.584,-0.651 0.589,-0.639C0.594,-0.627 0.597,-0.614 0.597,-0.6L0.597,-0.472C0.597,-0.458 0.596,-0.446 0.593,-0.436C0.591,-0.425 0.587,-0.415 0.581,-0.406C0.575,-0.398 0.568,-0.39 0.559,-0.383C0.55,-0.376 0.54,-0.37 0.527,-0.364L0.18,-0.201L0.18,-0.1L0.51,-0.1L0.51,-0.19L0.61,-0.19L0.61,-0L0.08,-0L0.08,-0.184C0.08,-0.198 0.081,-0.21 0.084,-0.221C0.087,-0.231 0.091,-0.241 0.097,-0.25C0.102,-0.258 0.109,-0.266 0.118,-0.273C0.127,-0.28 0.138,-0.286 0.15,-0.292L0.497,-0.455L0.497,-0.6L0.18,-0.6Z" style="fill:rgb(19,19,19);fill-rule:nonzero;"/>
                        </g>
                        <g transform="matrix(6,0,0,6,365.569,774.486)">
                            <path d="M0.546,-0.365C0.561,-0.361 0.574,-0.354 0.586,-0.346C0.598,-0.337 0.608,-0.326 0.617,-0.313C0.625,-0.3 0.632,-0.285 0.636,-0.267C0.641,-0.249 0.643,-0.228 0.643,-0.205L0.643,-0.17C0.643,-0.057 0.586,-0 0.473,-0L0.09,-0L0.09,-0.7L0.453,-0.7C0.566,-0.7 0.623,-0.643 0.623,-0.53L0.623,-0.517C0.623,-0.478 0.617,-0.446 0.604,-0.421C0.592,-0.396 0.572,-0.377 0.546,-0.365ZM0.188,-0.305L0.188,-0.098L0.47,-0.098C0.497,-0.098 0.516,-0.104 0.527,-0.117C0.539,-0.129 0.545,-0.148 0.545,-0.175L0.545,-0.229C0.545,-0.256 0.539,-0.275 0.527,-0.287C0.516,-0.299 0.497,-0.305 0.47,-0.305L0.188,-0.305ZM0.188,-0.602L0.188,-0.403L0.457,-0.403C0.481,-0.404 0.498,-0.41 0.509,-0.423C0.52,-0.435 0.525,-0.454 0.525,-0.479L0.525,-0.525C0.525,-0.552 0.519,-0.571 0.507,-0.583C0.496,-0.596 0.477,-0.602 0.45,-0.602L0.188,-0.602Z" style="fill:rgb(19,19,19);fill-rule:nonzero;"/>
                        </g>
                    </g>
                    <g transform="matrix(1,0,0,1,-717.656,-2.77431)">
                        <g transform="matrix(6,0,0,6,361.439,774.486)">
                            <path d="M0.18,-0.6L0.18,-0.51L0.08,-0.51L0.08,-0.6C0.08,-0.614 0.083,-0.627 0.088,-0.639C0.093,-0.651 0.1,-0.662 0.109,-0.671C0.118,-0.68 0.129,-0.687 0.141,-0.692C0.154,-0.698 0.167,-0.7 0.18,-0.7L0.497,-0.7C0.511,-0.7 0.524,-0.698 0.536,-0.692C0.548,-0.687 0.559,-0.68 0.568,-0.671C0.577,-0.662 0.584,-0.651 0.589,-0.639C0.594,-0.627 0.597,-0.614 0.597,-0.6L0.597,-0.472C0.597,-0.458 0.596,-0.446 0.593,-0.436C0.591,-0.425 0.587,-0.415 0.581,-0.406C0.575,-0.398 0.568,-0.39 0.559,-0.383C0.55,-0.376 0.54,-0.37 0.527,-0.364L0.18,-0.201L0.18,-0.1L0.51,-0.1L0.51,-0.19L0.61,-0.19L0.61,-0L0.08,-0L0.08,-0.184C0.08,-0.198 0.081,-0.21 0.084,-0.221C0.087,-0.231 0.091,-0.241 0.097,-0.25C0.102,-0.258 0.109,-0.266 0.118,-0.273C0.127,-0.28 0.138,-0.286 0.15,-0.292L0.497,-0.455L0.497,-0.6L0.18,-0.6Z" style="fill:rgb(19,19,19);fill-rule:nonzero;"/>
                        </g>
                        <g transform="matrix(6,0,0,6,365.578,774.486)">
                            <path d="M0.4,-0.7L0.67,-0L0.57,-0L0.508,-0.161L0.192,-0.161L0.13,-0L0.03,-0L0.3,-0.7L0.4,-0.7ZM0.23,-0.261L0.469,-0.261L0.35,-0.57L0.23,-0.261Z" style="fill:rgb(19,19,19);fill-rule:nonzero;"/>
                        </g>
                    </g>
                    <g transform="matrix(1,0,0,1,-732.056,-2.77431)">
                        <g transform="matrix(6,0,0,6,362.458,774.486)">
                            <path d="M0.25,-0.7L0.25,-0L0.15,-0L0.15,-0.6L0.03,-0.6L0.03,-0.7L0.25,-0.7Z" style="fill:rgb(19,19,19);fill-rule:nonzero;"/>
                        </g>
                        <g transform="matrix(6,0,0,6,364.559,774.486)">
                            <path d="M0.4,-0.7L0.67,-0L0.57,-0L0.508,-0.161L0.192,-0.161L0.13,-0L0.03,-0L0.3,-0.7L0.4,-0.7ZM0.23,-0.261L0.469,-0.261L0.35,-0.57L0.23,-0.261Z" style="fill:rgb(19,19,19);fill-rule:nonzero;"/>
                        </g>
                    </g>
                    <g transform="matrix(1,0,0,1,-745.74,-2.77431)">
                        <g transform="matrix(5.9,0,0,5.9,362.502,774.486)">
                            <path d="M0.25,-0.7L0.25,-0L0.15,-0L0.15,-0.6L0.03,-0.6L0.03,-0.7L0.25,-0.7Z" style="fill:rgb(19,19,19);fill-rule:nonzero;"/>
                        </g>
                        <g transform="matrix(5.9,0,0,5.9,364.568,774.486)">
                            <path d="M0.546,-0.365C0.561,-0.361 0.574,-0.354 0.586,-0.346C0.598,-0.337 0.608,-0.326 0.617,-0.313C0.625,-0.3 0.632,-0.285 0.636,-0.267C0.641,-0.249 0.643,-0.228 0.643,-0.205L0.643,-0.17C0.643,-0.057 0.586,-0 0.473,-0L0.09,-0L0.09,-0.7L0.453,-0.7C0.566,-0.7 0.623,-0.643 0.623,-0.53L0.623,-0.517C0.623,-0.478 0.617,-0.446 0.604,-0.421C0.592,-0.396 0.572,-0.377 0.546,-0.365ZM0.188,-0.305L0.188,-0.098L0.47,-0.098C0.497,-0.098 0.516,-0.104 0.527,-0.117C0.539,-0.129 0.545,-0.148 0.545,-0.175L0.545,-0.229C0.545,-0.256 0.539,-0.275 0.527,-0.287C0.516,-0.299 0.497,-0.305 0.47,-0.305L0.188,-0.305ZM0.188,-0.602L0.188,-0.403L0.457,-0.403C0.481,-0.404 0.498,-0.41 0.509,-0.423C0.52,-0.435 0.525,-0.454 0.525,-0.479L0.525,-0.525C0.525,-0.552 0.519,-0.571 0.507,-0.583C0.496,-0.596 0.477,-0.602 0.45,-0.602L0.188,-0.602Z" style="fill:rgb(19,19,19);fill-rule:nonzero;"/>
                        </g>
                    </g>
                    <g transform="matrix(1,0,0,1,-675.866,34.8592)">
                        <g transform="matrix(10,0,0,10,300.943,710.162)">
                            <path d="M0.451,-0L0.19,-0.513L0.19,-0L0.09,-0L0.09,-0.7L0.199,-0.7L0.466,-0.173L0.733,-0.7L0.842,-0.7L0.842,-0L0.742,-0L0.742,-0.513L0.481,-0L0.451,-0Z" style="fill:rgb(19,19,19);fill-rule:nonzero;"/>
                        </g>
                        <g transform="matrix(10,0,0,10,310.264,710.162)">
                            <path d="M0.53,-0.096C0.53,-0.083 0.527,-0.07 0.522,-0.059C0.517,-0.047 0.51,-0.037 0.502,-0.028C0.493,-0.019 0.483,-0.013 0.471,-0.008C0.46,-0.003 0.447,-0 0.434,-0L0.176,-0C0.163,-0 0.15,-0.003 0.139,-0.008C0.127,-0.013 0.117,-0.019 0.108,-0.028C0.1,-0.037 0.093,-0.047 0.088,-0.059C0.083,-0.07 0.08,-0.083 0.08,-0.096L0.08,-0.424C0.08,-0.437 0.083,-0.45 0.088,-0.461C0.093,-0.473 0.1,-0.483 0.108,-0.492C0.117,-0.501 0.127,-0.507 0.139,-0.512C0.15,-0.517 0.163,-0.52 0.176,-0.52L0.434,-0.52C0.447,-0.52 0.46,-0.517 0.471,-0.512C0.483,-0.507 0.493,-0.501 0.502,-0.492C0.51,-0.483 0.517,-0.473 0.522,-0.461C0.527,-0.45 0.53,-0.437 0.53,-0.424L0.53,-0.096ZM0.176,-0.424L0.176,-0.096L0.434,-0.096L0.434,-0.424L0.176,-0.424Z" style="fill:rgb(19,19,19);fill-rule:nonzero;"/>
                        </g>
                        <g transform="matrix(10,0,0,10,316.363,710.162)">
                            <path d="M0.05,-0.52L0.177,-0.52L0.177,-0.68L0.273,-0.68L0.273,-0.52L0.444,-0.52L0.444,-0.424L0.273,-0.424L0.273,-0.096L0.444,-0.096L0.444,-0L0.273,-0C0.26,-0 0.248,-0.003 0.236,-0.008C0.224,-0.013 0.214,-0.019 0.205,-0.028C0.196,-0.037 0.189,-0.047 0.184,-0.059C0.179,-0.07 0.177,-0.083 0.177,-0.096L0.177,-0.424L0.05,-0.424L0.05,-0.52Z" style="fill:rgb(19,19,19);fill-rule:nonzero;"/>
                        </g>
                        <g transform="matrix(10,0,0,10,321.602,710.162)">
                            <path d="M0.53,-0.096C0.53,-0.083 0.527,-0.07 0.522,-0.059C0.517,-0.047 0.51,-0.037 0.502,-0.028C0.493,-0.019 0.483,-0.013 0.471,-0.008C0.46,-0.003 0.447,-0 0.434,-0L0.176,-0C0.163,-0 0.15,-0.003 0.139,-0.008C0.127,-0.013 0.117,-0.019 0.108,-0.028C0.1,-0.037 0.093,-0.047 0.088,-0.059C0.083,-0.07 0.08,-0.083 0.08,-0.096L0.08,-0.424C0.08,-0.437 0.083,-0.45 0.088,-0.461C0.093,-0.473 0.1,-0.483 0.108,-0.492C0.117,-0.501 0.127,-0.507 0.139,-0.512C0.15,-0.517 0.163,-0.52 0.176,-0.52L0.434,-0.52C0.447,-0.52 0.46,-0.517 0.471,-0.512C0.483,-0.507 0.493,-0.501 0.502,-0.492C0.51,-0.483 0.517,-0.473 0.522,-0.461C0.527,-0.45 0.53,-0.437 0.53,-0.424L0.53,-0.096ZM0.176,-0.424L0.176,-0.096L0.434,-0.096L0.434,-0.424L0.176,-0.424Z" style="fill:rgb(19,19,19);fill-rule:nonzero;"/>
                        </g>
                        <g transform="matrix(10,0,0,10,327.701,710.162)">
                            <path d="M0.176,-0.424L0.176,-0L0.08,-0L0.08,-0.52L0.374,-0.52C0.387,-0.52 0.4,-0.517 0.411,-0.512C0.423,-0.507 0.433,-0.501 0.442,-0.492C0.451,-0.483 0.458,-0.473 0.463,-0.461C0.468,-0.45 0.47,-0.437 0.47,-0.424L0.47,-0.336L0.374,-0.336L0.374,-0.424L0.176,-0.424Z" style="fill:rgb(19,19,19);fill-rule:nonzero;"/>
                        </g>
                        <g transform="matrix(10,0,0,10,295.63,720.641)">
                            <path d="M0.69,-0.1C0.69,-0.086 0.687,-0.073 0.682,-0.061C0.677,-0.049 0.67,-0.038 0.661,-0.029C0.652,-0.02 0.641,-0.013 0.629,-0.008C0.616,-0.003 0.604,-0 0.59,-0L0.19,-0C0.176,-0 0.163,-0.003 0.151,-0.008C0.139,-0.013 0.128,-0.02 0.119,-0.029C0.11,-0.038 0.103,-0.049 0.098,-0.061C0.092,-0.073 0.09,-0.086 0.09,-0.1L0.09,-0.6C0.09,-0.614 0.092,-0.627 0.098,-0.639C0.103,-0.651 0.11,-0.662 0.119,-0.671C0.128,-0.68 0.139,-0.687 0.151,-0.692C0.163,-0.698 0.176,-0.7 0.19,-0.7L0.59,-0.7C0.604,-0.7 0.616,-0.698 0.629,-0.692C0.641,-0.687 0.652,-0.68 0.661,-0.671C0.67,-0.662 0.677,-0.651 0.682,-0.639C0.687,-0.627 0.69,-0.614 0.69,-0.6L0.69,-0.1ZM0.19,-0.6L0.19,-0.1L0.59,-0.1L0.59,-0.6L0.19,-0.6Z" style="fill:rgb(19,19,19);fill-rule:nonzero;"/>
                        </g>
                        <g transform="matrix(10,0,0,10,303.428,720.641)">
                            <path d="M0.08,-0.52L0.176,-0.52L0.176,-0.096L0.444,-0.096L0.444,-0.52L0.54,-0.52L0.54,-0L0.444,-0L0.444,-0.088C0.443,-0.076 0.44,-0.064 0.434,-0.054C0.429,-0.043 0.421,-0.034 0.413,-0.026C0.404,-0.018 0.394,-0.011 0.383,-0.007C0.372,-0.002 0.361,-0 0.348,-0L0.176,-0C0.163,-0 0.15,-0.003 0.139,-0.008C0.127,-0.013 0.117,-0.019 0.108,-0.028C0.1,-0.037 0.093,-0.047 0.088,-0.059C0.083,-0.07 0.08,-0.083 0.08,-0.096L0.08,-0.52Z" style="fill:rgb(19,19,19);fill-rule:nonzero;"/>
                        </g>
                        <g transform="matrix(10,0,0,10,309.629,720.641)">
                            <path d="M0.05,-0.52L0.177,-0.52L0.177,-0.68L0.273,-0.68L0.273,-0.52L0.444,-0.52L0.444,-0.424L0.273,-0.424L0.273,-0.096L0.444,-0.096L0.444,-0L0.273,-0C0.26,-0 0.248,-0.003 0.236,-0.008C0.224,-0.013 0.214,-0.019 0.205,-0.028C0.196,-0.037 0.189,-0.047 0.184,-0.059C0.179,-0.07 0.177,-0.083 0.177,-0.096L0.177,-0.424L0.05,-0.424L0.05,-0.52Z" style="fill:rgb(19,19,19);fill-rule:nonzero;"/>
                        </g>
                        <g transform="matrix(10,0,0,10,314.869,720.641)">
                            <path d="M0.54,-0.096C0.54,-0.083 0.538,-0.07 0.532,-0.059C0.527,-0.047 0.521,-0.037 0.512,-0.028C0.503,-0.019 0.493,-0.013 0.481,-0.008C0.47,-0.003 0.457,-0 0.444,-0L0.176,-0L0.176,0.21L0.08,0.21L0.08,-0.52L0.176,-0.52L0.176,-0.432C0.177,-0.444 0.18,-0.456 0.186,-0.467C0.191,-0.477 0.198,-0.486 0.207,-0.494C0.215,-0.502 0.225,-0.509 0.236,-0.513C0.247,-0.518 0.259,-0.52 0.272,-0.52L0.444,-0.52C0.457,-0.52 0.47,-0.517 0.481,-0.512C0.493,-0.507 0.503,-0.501 0.512,-0.492C0.521,-0.483 0.527,-0.473 0.532,-0.461C0.538,-0.45 0.54,-0.437 0.54,-0.424L0.54,-0.096ZM0.444,-0.096L0.444,-0.424L0.176,-0.424L0.176,-0.096L0.444,-0.096Z" style="fill:rgb(19,19,19);fill-rule:nonzero;"/>
                        </g>
                        <g transform="matrix(10,0,0,10,321.07,720.641)">
                            <path d="M0.08,-0.52L0.176,-0.52L0.176,-0.096L0.444,-0.096L0.444,-0.52L0.54,-0.52L0.54,-0L0.444,-0L0.444,-0.088C0.443,-0.076 0.44,-0.064 0.434,-0.054C0.429,-0.043 0.421,-0.034 0.413,-0.026C0.404,-0.018 0.394,-0.011 0.383,-0.007C0.372,-0.002 0.361,-0 0.348,-0L0.176,-0C0.163,-0 0.15,-0.003 0.139,-0.008C0.127,-0.013 0.117,-0.019 0.108,-0.028C0.1,-0.037 0.093,-0.047 0.088,-0.059C0.083,-0.07 0.08,-0.083 0.08,-0.096L0.08,-0.52Z" style="fill:rgb(19,19,19);fill-rule:nonzero;"/>
                        </g>
                        <g transform="matrix(10,0,0,10,327.271,720.641)">
                            <path d="M0.05,-0.52L0.177,-0.52L0.177,-0.68L0.273,-0.68L0.273,-0.52L0.444,-0.52L0.444,-0.424L0.273,-0.424L0.273,-0.096L0.444,-0.096L0.444,-0L0.273,-0C0.26,-0 0.248,-0.003 0.236,-0.008C0.224,-0.013 0.214,-0.019 0.205,-0.028C0.196,-0.037 0.189,-0.047 0.184,-0.059C0.179,-0.07 0.177,-0.083 0.177,-0.096L0.177,-0.424L0.05,-0.424L0.05,-0.52Z" style="fill:rgb(19,19,19);fill-rule:nonzero;"/>
                        </g>
                        <g transform="matrix(10,0,0,10,332.51,720.641)">
                            <path d="M0.394,-0.096L0.394,-0.217L0.166,-0.217C0.153,-0.217 0.14,-0.219 0.128,-0.224C0.117,-0.229 0.107,-0.236 0.098,-0.245C0.089,-0.253 0.082,-0.264 0.077,-0.275C0.072,-0.287 0.07,-0.3 0.07,-0.313L0.07,-0.424C0.07,-0.437 0.072,-0.45 0.077,-0.461C0.082,-0.473 0.089,-0.483 0.098,-0.492C0.107,-0.501 0.117,-0.507 0.128,-0.512C0.14,-0.517 0.153,-0.52 0.166,-0.52L0.47,-0.52L0.47,-0.424L0.166,-0.424L0.166,-0.313L0.394,-0.313C0.407,-0.313 0.42,-0.31 0.431,-0.305C0.443,-0.3 0.453,-0.294 0.462,-0.285C0.471,-0.276 0.478,-0.266 0.483,-0.254C0.488,-0.243 0.49,-0.23 0.49,-0.217L0.49,-0.096C0.49,-0.083 0.488,-0.07 0.483,-0.059C0.478,-0.047 0.471,-0.037 0.462,-0.028C0.453,-0.019 0.443,-0.013 0.431,-0.008C0.42,-0.003 0.407,-0 0.394,-0L0.07,-0L0.07,-0.096L0.394,-0.096Z" style="fill:rgb(19,19,19);fill-rule:nonzero;"/>
                        </g>
                    </g>
                    <g transform="matrix(1,0,0,1,-610.166,34.8592)">
                        <g transform="matrix(10,0,0,10,304.249,710.162)">
                            <path d="M0.19,-0.7L0.19,-0.1L0.55,-0.1L0.55,-0L0.09,-0L0.09,-0.7L0.19,-0.7Z" style="fill:rgb(19,19,19);fill-rule:nonzero;"/>
                        </g>
                        <g transform="matrix(10,0,0,10,310.049,710.162)">
                            <path d="M0.181,-0.52L0.181,-0L0.085,-0L0.085,-0.52L0.181,-0.52ZM0.08,-0.72L0.186,-0.72L0.186,-0.62L0.08,-0.62L0.08,-0.72Z" style="fill:rgb(19,19,19);fill-rule:nonzero;"/>
                        </g>
                        <g transform="matrix(10,0,0,10,312.71,710.162)">
                            <path d="M0.492,-0.424L0.492,-0L0.396,-0L0.396,-0.424L0.176,-0.424L0.176,-0L0.08,-0L0.08,-0.52L0.176,-0.52L0.176,-0.428C0.176,-0.441 0.179,-0.453 0.185,-0.464C0.19,-0.475 0.197,-0.485 0.205,-0.493C0.214,-0.502 0.224,-0.508 0.235,-0.513C0.247,-0.518 0.259,-0.52 0.272,-0.52L0.396,-0.52C0.409,-0.52 0.421,-0.518 0.432,-0.513C0.444,-0.508 0.454,-0.502 0.462,-0.493C0.471,-0.485 0.478,-0.475 0.484,-0.464C0.489,-0.453 0.492,-0.441 0.492,-0.428C0.493,-0.441 0.496,-0.453 0.501,-0.464C0.506,-0.475 0.513,-0.485 0.521,-0.493C0.53,-0.502 0.54,-0.508 0.551,-0.513C0.563,-0.518 0.575,-0.52 0.588,-0.52L0.712,-0.52C0.725,-0.52 0.738,-0.517 0.75,-0.512C0.761,-0.507 0.771,-0.501 0.78,-0.492C0.789,-0.483 0.795,-0.473 0.801,-0.461C0.806,-0.45 0.808,-0.437 0.808,-0.424L0.808,-0L0.712,-0L0.712,-0.424L0.492,-0.424Z" style="fill:rgb(19,19,19);fill-rule:nonzero;"/>
                        </g>
                        <g transform="matrix(10,0,0,10,321.592,710.162)">
                            <path d="M0.181,-0.52L0.181,-0L0.085,-0L0.085,-0.52L0.181,-0.52ZM0.08,-0.72L0.186,-0.72L0.186,-0.62L0.08,-0.62L0.08,-0.72Z" style="fill:rgb(19,19,19);fill-rule:nonzero;"/>
                        </g>
                        <g transform="matrix(10,0,0,10,324.253,710.162)">
                            <path d="M0.05,-0.52L0.177,-0.52L0.177,-0.68L0.273,-0.68L0.273,-0.52L0.444,-0.52L0.444,-0.424L0.273,-0.424L0.273,-0.096L0.444,-0.096L0.444,-0L0.273,-0C0.26,-0 0.248,-0.003 0.236,-0.008C0.224,-0.013 0.214,-0.019 0.205,-0.028C0.196,-0.037 0.189,-0.047 0.184,-0.059C0.179,-0.07 0.177,-0.083 0.177,-0.096L0.177,-0.424L0.05,-0.424L0.05,-0.52Z" style="fill:rgb(19,19,19);fill-rule:nonzero;"/>
                        </g>
                        <g transform="matrix(10,0,0,10,293.377,720.641)">
                            <path d="M0.19,-0.3C0.176,-0.3 0.163,-0.302 0.151,-0.308C0.139,-0.313 0.128,-0.32 0.119,-0.329C0.11,-0.338 0.103,-0.349 0.098,-0.361C0.092,-0.373 0.09,-0.386 0.09,-0.4L0.09,-0.6C0.09,-0.614 0.092,-0.627 0.098,-0.639C0.103,-0.651 0.11,-0.662 0.119,-0.671C0.128,-0.68 0.139,-0.687 0.151,-0.692C0.163,-0.698 0.176,-0.7 0.19,-0.7L0.53,-0.7L0.591,-0.7C0.613,-0.7 0.624,-0.694 0.625,-0.68C0.625,-0.667 0.625,-0.64 0.625,-0.6L0.19,-0.6L0.19,-0.4L0.53,-0.4C0.543,-0.4 0.556,-0.397 0.569,-0.392C0.581,-0.387 0.591,-0.38 0.601,-0.371C0.61,-0.361 0.617,-0.351 0.622,-0.339C0.627,-0.326 0.63,-0.313 0.63,-0.3L0.63,-0.1C0.63,-0.086 0.627,-0.073 0.622,-0.061C0.617,-0.049 0.61,-0.038 0.601,-0.029C0.591,-0.02 0.581,-0.013 0.569,-0.008C0.556,-0.003 0.543,-0 0.53,-0L0.18,-0L0.101,0C0.091,-0.008 0.085,-0.017 0.083,-0.024C0.081,-0.032 0.08,-0.057 0.08,-0.101L0.18,-0.1L0.53,-0.1L0.53,-0.3L0.19,-0.3Z" style="fill:rgb(19,19,19);fill-rule:nonzero;"/>
                        </g>
                        <g transform="matrix(10,0,0,10,300.579,720.641)">
                            <path d="M0.188,-0L0.02,-0.52L0.117,-0.52L0.24,-0.128L0.355,-0.52L0.453,-0.52L0.568,-0.128L0.691,-0.52L0.788,-0.52L0.62,-0L0.52,-0L0.404,-0.382L0.288,-0L0.188,-0Z" style="fill:rgb(19,19,19);fill-rule:nonzero;"/>
                        </g>
                        <g transform="matrix(10,0,0,10,308.66,720.641)">
                            <path d="M0.181,-0.52L0.181,-0L0.085,-0L0.085,-0.52L0.181,-0.52ZM0.08,-0.72L0.186,-0.72L0.186,-0.62L0.08,-0.62L0.08,-0.72Z" style="fill:rgb(19,19,19);fill-rule:nonzero;"/>
                        </g>
                        <g transform="matrix(10,0,0,10,311.321,720.641)">
                            <path d="M0.05,-0.52L0.177,-0.52L0.177,-0.68L0.273,-0.68L0.273,-0.52L0.444,-0.52L0.444,-0.424L0.273,-0.424L0.273,-0.096L0.444,-0.096L0.444,-0L0.273,-0C0.26,-0 0.248,-0.003 0.236,-0.008C0.224,-0.013 0.214,-0.019 0.205,-0.028C0.196,-0.037 0.189,-0.047 0.184,-0.059C0.179,-0.07 0.177,-0.083 0.177,-0.096L0.177,-0.424L0.05,-0.424L0.05,-0.52Z" style="fill:rgb(19,19,19);fill-rule:nonzero;"/>
                        </g>
                        <g transform="matrix(10,0,0,10,316.561,720.641)">
                            <path d="M0.176,-0.424L0.176,-0.096L0.424,-0.096L0.424,-0.184L0.52,-0.184L0.52,-0.096C0.52,-0.083 0.517,-0.07 0.512,-0.059C0.507,-0.047 0.501,-0.037 0.492,-0.028C0.483,-0.019 0.473,-0.013 0.461,-0.008C0.45,-0.003 0.437,-0 0.424,-0L0.176,-0C0.163,-0 0.15,-0.003 0.139,-0.008C0.127,-0.013 0.117,-0.019 0.108,-0.028C0.1,-0.037 0.093,-0.047 0.088,-0.059C0.083,-0.07 0.08,-0.083 0.08,-0.096L0.08,-0.424C0.08,-0.437 0.083,-0.45 0.088,-0.461C0.093,-0.473 0.1,-0.483 0.108,-0.492C0.117,-0.501 0.127,-0.507 0.139,-0.512C0.15,-0.517 0.163,-0.52 0.176,-0.52L0.424,-0.52C0.437,-0.52 0.45,-0.517 0.461,-0.512C0.473,-0.507 0.483,-0.501 0.492,-0.492C0.501,-0.483 0.507,-0.473 0.512,-0.461C0.517,-0.45 0.52,-0.437 0.52,-0.424L0.52,-0.336L0.424,-0.336L0.424,-0.424L0.176,-0.424Z" style="fill:rgb(19,19,19);fill-rule:nonzero;"/>
                        </g>
                        <g transform="matrix(10,0,0,10,322.562,720.641)">
                            <path d="M0.54,-0L0.444,-0L0.444,-0.424L0.176,-0.424L0.176,-0L0.08,-0L0.08,-0.72L0.176,-0.72L0.176,-0.52L0.273,-0.521L0.444,-0.52C0.457,-0.52 0.47,-0.517 0.481,-0.512C0.493,-0.507 0.503,-0.501 0.512,-0.492C0.521,-0.483 0.527,-0.473 0.532,-0.461C0.538,-0.45 0.54,-0.437 0.54,-0.424L0.54,-0Z" style="fill:rgb(19,19,19);fill-rule:nonzero;"/>
                        </g>
                        <g transform="matrix(10,0,0,10,328.763,720.641)">
                            <path d="M0.52,-0.211L0.176,-0.211L0.176,-0.096L0.52,-0.096L0.52,-0L0.176,-0C0.163,-0 0.15,-0.003 0.139,-0.008C0.127,-0.013 0.117,-0.019 0.108,-0.028C0.1,-0.037 0.093,-0.047 0.088,-0.059C0.083,-0.07 0.08,-0.083 0.08,-0.096L0.08,-0.424C0.08,-0.437 0.083,-0.45 0.088,-0.461C0.093,-0.473 0.1,-0.483 0.108,-0.492C0.117,-0.501 0.127,-0.507 0.139,-0.512C0.15,-0.517 0.163,-0.52 0.176,-0.52L0.424,-0.52C0.437,-0.52 0.45,-0.517 0.461,-0.512C0.473,-0.507 0.483,-0.501 0.492,-0.492C0.501,-0.483 0.507,-0.473 0.512,-0.461C0.517,-0.45 0.52,-0.437 0.52,-0.424L0.52,-0.211ZM0.176,-0.424L0.176,-0.307L0.424,-0.307L0.424,-0.424L0.176,-0.424Z" style="fill:rgb(19,19,19);fill-rule:nonzero;"/>
                        </g>
                        <g transform="matrix(10,0,0,10,334.764,720.641)">
                            <path d="M0.394,-0.096L0.394,-0.217L0.166,-0.217C0.153,-0.217 0.14,-0.219 0.128,-0.224C0.117,-0.229 0.107,-0.236 0.098,-0.245C0.089,-0.253 0.082,-0.264 0.077,-0.275C0.072,-0.287 0.07,-0.3 0.07,-0.313L0.07,-0.424C0.07,-0.437 0.072,-0.45 0.077,-0.461C0.082,-0.473 0.089,-0.483 0.098,-0.492C0.107,-0.501 0.117,-0.507 0.128,-0.512C0.14,-0.517 0.153,-0.52 0.166,-0.52L0.47,-0.52L0.47,-0.424L0.166,-0.424L0.166,-0.313L0.394,-0.313C0.407,-0.313 0.42,-0.31 0.431,-0.305C0.443,-0.3 0.453,-0.294 0.462,-0.285C0.471,-0.276 0.478,-0.266 0.483,-0.254C0.488,-0.243 0.49,-0.23 0.49,-0.217L0.49,-0.096C0.49,-0.083 0.488,-0.07 0.483,-0.059C0.478,-0.047 0.471,-0.037 0.462,-0.028C0.453,-0.019 0.443,-0.013 0.431,-0.008C0.42,-0.003 0.407,-0 0.394,-0L0.07,-0L0.07,-0.096L0.394,-0.096Z" style="fill:rgb(19,19,19);fill-rule:nonzero;"/>
                        </g>
                    </g>
                </g>
            </g>
            <g id="long-side-1" serif:id="long side 1" transform="matrix(6.12323e-17,1,-1,6.12323e-17,1053.15,998.543)">
                <path d="M-417.811,731.703C-385.759,728.758 -349.576,726.948 -311.134,726.589L-311.134,718.085L-282.787,718.085L-282.787,726.589C-244.041,726.95 -207.594,728.787 -175.355,731.773L-175.363,786.528L-175.362,786.527L-173.142,786.672L-170.96,787.106L-168.853,787.822L-166.858,788.805L-165.008,790.041L-163.336,791.508L-161.869,793.181L-160.633,795.031L-159.649,797.026L-158.934,799.133L-158.5,801.315L-158.354,803.535L-158.354,820.543L-158.427,821.653L-158.644,822.744L-159.001,823.797L-159.493,824.795L-160.111,825.719L-160.845,826.556L-161.681,827.289L-162.606,827.907L-163.604,828.399L-164.657,828.757L-165.748,828.974L-166.858,829.046L-166.858,820.543L-166.955,819.808L-167.074,819.457L-167.238,819.124L-167.444,818.816L-167.688,818.537L-167.967,818.293L-168.275,818.087L-168.608,817.922L-168.959,817.803L-169.693,817.707L-172.402,817.707L-174.076,818.052L-174.462,818.243L-174.827,818.471L-175.166,818.736L-175.477,819.033L-175.756,819.361L-176,819.715L-176.374,820.488L-179.489,829.045L-414.448,829.043L-417.605,820.368L-417.765,819.989L-417.964,819.627L-418.197,819.288L-418.464,818.975L-418.762,818.69L-419.087,818.437L-419.436,818.218L-419.806,818.035L-420.192,817.892L-420.59,817.788L-420.998,817.725L-421.409,817.706L-424.244,817.706L-424.614,817.731L-424.977,817.803L-425.328,817.922L-425.661,818.086L-425.969,818.293L-426.248,818.537L-426.493,818.816L-426.699,819.124L-426.863,819.457L-426.982,819.808L-427.054,820.171L-427.08,820.541L-427.08,829.045L-430.654,828.997L-431.382,828.852L-432.084,828.614L-432.749,828.286L-433.366,827.874L-433.923,827.385L-434.412,826.827L-434.824,826.211L-435.152,825.546L-435.391,824.844L-435.535,824.116L-435.584,823.376L-435.584,803.534L-435.438,801.314L-435.004,799.132L-434.289,797.025L-433.305,795.03L-432.069,793.18L-430.602,791.507L-428.93,790.04L-427.08,788.804L-425.084,787.82L-422.978,787.105L-420.796,786.526L-418.576,786.526L-418.567,731.773L-417.811,731.703ZM-333.725,811.753L-333.725,820.824L-362.071,820.824L-362.071,811.753L-333.725,811.753ZM-260.213,820.824L-260.213,811.753L-231.866,811.753L-231.866,820.824L-260.213,820.824ZM-210.798,766.895C-210.798,766.308 -211.274,765.832 -211.861,765.832C-216.335,765.832 -233.608,765.832 -238.082,765.832C-238.669,765.832 -239.145,766.308 -239.145,766.895C-239.145,771.971 -239.145,793.708 -239.145,798.784C-239.145,799.371 -238.669,799.847 -238.082,799.847C-233.608,799.847 -216.335,799.847 -211.861,799.847C-211.274,799.847 -210.798,799.371 -210.798,798.784C-210.798,793.708 -210.798,771.971 -210.798,766.895ZM-259.186,762.643C-259.186,762.361 -259.298,762.09 -259.497,761.891C-259.697,761.692 -259.967,761.58 -260.249,761.58C-266.52,761.58 -298.623,761.58 -304.895,761.58C-305.176,761.58 -305.447,761.692 -305.646,761.891C-305.846,762.09 -305.958,762.361 -305.958,762.643C-305.958,768.139 -305.958,793.288 -305.958,798.784C-305.958,799.066 -305.846,799.337 -305.646,799.536C-305.447,799.735 -305.176,799.847 -304.895,799.847C-298.623,799.847 -266.52,799.847 -260.249,799.847C-259.967,799.847 -259.697,799.735 -259.497,799.536C-259.298,799.337 -259.186,799.066 -259.186,798.784C-259.186,793.288 -259.186,768.139 -259.186,762.643ZM-344.048,745.635C-344.048,745.353 -344.16,745.082 -344.359,744.883C-344.558,744.684 -344.829,744.572 -345.111,744.572C-350.469,744.572 -374.476,744.572 -379.835,744.572C-380.117,744.572 -380.387,744.684 -380.587,744.883C-380.786,745.082 -380.898,745.353 -380.898,745.635C-380.898,750.109 -380.898,767.381 -380.898,771.855C-380.898,772.137 -380.786,772.408 -380.587,772.607C-380.387,772.806 -380.117,772.918 -379.835,772.918C-374.476,772.918 -350.469,772.918 -345.111,772.918C-344.829,772.918 -344.558,772.806 -344.359,772.607C-344.16,772.408 -344.048,772.137 -344.048,771.855C-344.048,767.381 -344.048,750.109 -344.048,745.635Z" style="fill:none;stroke:rgb(19,19,19);stroke-width:1px;"/>
                <g>
                    <g transform="matrix(4.59243e-17,-0.75,0.75,4.59243e-17,-708.381,869.861)">
                        <path d="M124.289,678.651C124.611,675.496 127.279,673.03 130.519,673.03C133.974,673.03 136.78,675.836 136.78,679.292C136.78,682.748 133.974,685.554 130.519,685.554C127.279,685.554 124.611,683.088 124.289,679.933L119.136,679.933C118.839,681.377 117.56,682.465 116.028,682.465C114.277,682.465 112.855,681.043 112.855,679.292C112.855,677.541 114.277,676.119 116.028,676.119C117.56,676.119 118.839,677.207 119.136,678.651L124.289,678.651ZM107.767,679.933C107.446,683.088 104.778,685.554 101.538,685.554C98.082,685.554 95.276,682.748 95.276,679.292C95.276,675.836 98.082,673.03 101.538,673.03C104.778,673.03 107.446,675.496 107.767,678.651L109.799,678.651C110.12,675.496 112.789,673.03 116.028,673.03C117.756,673.03 119.322,673.732 120.455,674.865L119.52,675.8C118.626,674.906 117.391,674.353 116.028,674.353C113.302,674.353 111.089,676.566 111.089,679.292C111.089,682.018 113.302,684.231 116.028,684.231C117.391,684.231 118.626,683.677 119.52,682.783L120.455,683.719C119.322,684.852 117.756,685.554 116.028,685.554C112.789,685.554 110.12,683.088 109.799,679.933L107.767,679.933ZM130.519,674.353C133.244,674.353 135.457,676.566 135.457,679.292C135.457,682.018 133.244,684.231 130.519,684.231C127.793,684.231 125.58,682.018 125.58,679.292C125.58,676.566 127.793,674.353 130.519,674.353ZM101.538,674.353C104.264,674.353 106.477,676.566 106.477,679.292C106.477,682.018 104.264,684.231 101.538,684.231C98.812,684.231 96.599,682.018 96.599,679.292C96.599,676.566 98.812,674.353 101.538,674.353ZM131.157,675.649L131.157,678.651L134.158,678.651L134.158,679.933L131.157,679.933L131.157,682.934L129.881,682.934L129.881,679.933L126.879,679.933L126.879,678.651L129.881,678.651L129.881,675.649L131.157,675.649ZM100.897,682.928L100.897,675.649L102.179,675.649L102.179,682.928L100.897,682.928Z"/>
                    </g>
                    <g transform="matrix(1,0,0,1,-679.343,76.2045)">
                        <g transform="matrix(10,0,0,10,305.855,710.162)">
                            <path d="M0.09,-0.7L0.19,-0.7L0.19,-0.1L0.59,-0.1L0.59,-0.7L0.69,-0.7L0.69,-0.1C0.69,-0.086 0.687,-0.073 0.682,-0.061C0.677,-0.049 0.67,-0.038 0.661,-0.029C0.652,-0.02 0.641,-0.013 0.629,-0.008C0.616,-0.003 0.604,-0 0.59,-0L0.19,-0C0.176,-0 0.163,-0.003 0.151,-0.008C0.139,-0.013 0.128,-0.02 0.119,-0.029C0.11,-0.038 0.103,-0.049 0.098,-0.061C0.092,-0.073 0.09,-0.086 0.09,-0.1L0.09,-0.7Z" style="fill:rgb(19,19,19);fill-rule:nonzero;"/>
                        </g>
                        <g transform="matrix(10,0,0,10,313.653,710.162)">
                            <path d="M0.19,-0.3C0.176,-0.3 0.163,-0.302 0.151,-0.308C0.139,-0.313 0.128,-0.32 0.119,-0.329C0.11,-0.338 0.103,-0.349 0.098,-0.361C0.092,-0.373 0.09,-0.386 0.09,-0.4L0.09,-0.6C0.09,-0.614 0.092,-0.627 0.098,-0.639C0.103,-0.651 0.11,-0.662 0.119,-0.671C0.128,-0.68 0.139,-0.687 0.151,-0.692C0.163,-0.698 0.176,-0.7 0.19,-0.7L0.53,-0.7L0.591,-0.7C0.613,-0.7 0.624,-0.694 0.625,-0.68C0.625,-0.667 0.625,-0.64 0.625,-0.6L0.19,-0.6L0.19,-0.4L0.53,-0.4C0.543,-0.4 0.556,-0.397 0.569,-0.392C0.581,-0.387 0.591,-0.38 0.601,-0.371C0.61,-0.361 0.617,-0.351 0.622,-0.339C0.627,-0.326 0.63,-0.313 0.63,-0.3L0.63,-0.1C0.63,-0.086 0.627,-0.073 0.622,-0.061C0.617,-0.049 0.61,-0.038 0.601,-0.029C0.591,-0.02 0.581,-0.013 0.569,-0.008C0.556,-0.003 0.543,-0 0.53,-0L0.18,-0L0.101,0C0.091,-0.008 0.085,-0.017 0.083,-0.024C0.081,-0.032 0.08,-0.057 0.08,-0.101L0.18,-0.1L0.53,-0.1L0.53,-0.3L0.19,-0.3Z" style="fill:rgb(19,19,19);fill-rule:nonzero;"/>
                        </g>
                        <g transform="matrix(10,0,0,10,320.855,710.162)">
                            <path d="M0.546,-0.365C0.561,-0.361 0.574,-0.354 0.586,-0.346C0.598,-0.337 0.608,-0.326 0.617,-0.313C0.625,-0.3 0.632,-0.285 0.636,-0.267C0.641,-0.249 0.643,-0.228 0.643,-0.205L0.643,-0.17C0.643,-0.057 0.586,-0 0.473,-0L0.09,-0L0.09,-0.7L0.453,-0.7C0.566,-0.7 0.623,-0.643 0.623,-0.53L0.623,-0.517C0.623,-0.478 0.617,-0.446 0.604,-0.421C0.592,-0.396 0.572,-0.377 0.546,-0.365ZM0.188,-0.305L0.188,-0.098L0.47,-0.098C0.497,-0.098 0.516,-0.104 0.527,-0.117C0.539,-0.129 0.545,-0.148 0.545,-0.175L0.545,-0.229C0.545,-0.256 0.539,-0.275 0.527,-0.287C0.516,-0.299 0.497,-0.305 0.47,-0.305L0.188,-0.305ZM0.188,-0.602L0.188,-0.403L0.457,-0.403C0.481,-0.404 0.498,-0.41 0.509,-0.423C0.52,-0.435 0.525,-0.454 0.525,-0.479L0.525,-0.525C0.525,-0.552 0.519,-0.571 0.507,-0.583C0.496,-0.596 0.477,-0.602 0.45,-0.602L0.188,-0.602Z" style="fill:rgb(19,19,19);fill-rule:nonzero;"/>
                        </g>
                    </g>
                    <g transform="matrix(1,0,0,1,-541.842,50.0005)">
                        <g transform="matrix(10,0,0,10,301.624,710.162)">
                            <path d="M0.578,-0.17C0.577,-0.113 0.563,-0.07 0.535,-0.042C0.507,-0.014 0.465,-0 0.408,-0L0.22,-0C0.107,-0 0.05,-0.057 0.05,-0.17L0.05,-0.212L0.148,-0.212L0.148,-0.175C0.148,-0.148 0.154,-0.129 0.166,-0.117C0.177,-0.104 0.196,-0.098 0.223,-0.098L0.405,-0.098C0.431,-0.098 0.451,-0.104 0.462,-0.117C0.474,-0.129 0.48,-0.148 0.48,-0.175L0.48,-0.269C0.48,-0.295 0.474,-0.315 0.462,-0.327C0.451,-0.339 0.431,-0.345 0.405,-0.345L0.07,-0.345L0.07,-0.7L0.56,-0.7L0.56,-0.6L0.17,-0.6L0.17,-0.443L0.408,-0.443C0.465,-0.443 0.508,-0.429 0.536,-0.401C0.564,-0.373 0.578,-0.331 0.578,-0.273L0.578,-0.17Z" style="fill:rgb(19,19,19);fill-rule:nonzero;"/>
                        </g>
                        <g transform="matrix(10,0,0,10,308.006,710.162)">
                            <rect x="0.08" y="-0.33" width="0.234" height="0.096" style="fill:rgb(19,19,19);fill-rule:nonzero;"/>
                        </g>
                        <g transform="matrix(10,0,0,10,311.946,710.162)">
                            <path d="M0.02,-0.241L0.365,-0.7L0.483,-0.7L0.483,-0.241L0.577,-0.241L0.577,-0.145L0.483,-0.145L0.483,-0L0.383,-0L0.383,-0.145L0.02,-0.145L0.02,-0.241ZM0.383,-0.241L0.383,-0.579L0.129,-0.241L0.383,-0.241Z" style="fill:rgb(19,19,19);fill-rule:nonzero;"/>
                        </g>
                        <g transform="matrix(10,0,0,10,318.016,710.162)">
                            <path d="M0.09,-0.6C0.09,-0.614 0.092,-0.627 0.098,-0.639C0.103,-0.651 0.11,-0.662 0.119,-0.671C0.128,-0.68 0.139,-0.687 0.151,-0.692C0.163,-0.698 0.176,-0.7 0.19,-0.7L0.51,-0.7C0.523,-0.7 0.536,-0.698 0.549,-0.692C0.561,-0.687 0.571,-0.68 0.581,-0.671C0.59,-0.662 0.597,-0.651 0.602,-0.639C0.607,-0.627 0.61,-0.614 0.61,-0.6L0.61,-0.51L0.51,-0.51L0.51,-0.6L0.19,-0.6L0.19,-0.4L0.51,-0.4C0.523,-0.4 0.536,-0.397 0.549,-0.392C0.561,-0.387 0.571,-0.38 0.581,-0.371C0.59,-0.361 0.597,-0.351 0.602,-0.339C0.607,-0.326 0.61,-0.313 0.61,-0.3L0.61,-0.1C0.61,-0.086 0.607,-0.073 0.602,-0.061C0.597,-0.049 0.59,-0.038 0.581,-0.029C0.571,-0.02 0.561,-0.013 0.549,-0.008C0.536,-0.003 0.523,-0 0.51,-0L0.19,-0C0.176,-0 0.163,-0.003 0.151,-0.008C0.139,-0.013 0.128,-0.02 0.119,-0.029C0.11,-0.038 0.103,-0.049 0.098,-0.061C0.092,-0.073 0.09,-0.086 0.09,-0.1L0.09,-0.6ZM0.19,-0.3L0.19,-0.1L0.51,-0.1L0.51,-0.3L0.19,-0.3Z" style="fill:rgb(19,19,19);fill-rule:nonzero;"/>
                        </g>
                        <g transform="matrix(10,0,0,10,325.018,710.162)">
                            <path d="M0.3,-0L0.03,-0.7L0.137,-0.7L0.355,-0.124L0.573,-0.7L0.68,-0.7L0.41,-0L0.3,-0Z" style="fill:rgb(19,19,19);fill-rule:nonzero;"/>
                        </g>
                    </g>
                    <g transform="matrix(1,0,0,1,-599.442,33.7486)">
                        <g transform="matrix(10,0,0,10,302.029,710.162)">
                            <path d="M0.19,-0.3C0.176,-0.3 0.163,-0.302 0.151,-0.308C0.139,-0.313 0.128,-0.32 0.119,-0.329C0.11,-0.338 0.103,-0.349 0.098,-0.361C0.092,-0.373 0.09,-0.386 0.09,-0.4L0.09,-0.6C0.09,-0.614 0.092,-0.627 0.098,-0.639C0.103,-0.651 0.11,-0.662 0.119,-0.671C0.128,-0.68 0.139,-0.687 0.151,-0.692C0.163,-0.698 0.176,-0.7 0.19,-0.7L0.53,-0.7L0.591,-0.7C0.613,-0.7 0.624,-0.694 0.625,-0.68C0.625,-0.667 0.625,-0.64 0.625,-0.6L0.19,-0.6L0.19,-0.4L0.53,-0.4C0.543,-0.4 0.556,-0.397 0.569,-0.392C0.581,-0.387 0.591,-0.38 0.601,-0.371C0.61,-0.361 0.617,-0.351 0.622,-0.339C0.627,-0.326 0.63,-0.313 0.63,-0.3L0.63,-0.1C0.63,-0.086 0.627,-0.073 0.622,-0.061C0.617,-0.049 0.61,-0.038 0.601,-0.029C0.591,-0.02 0.581,-0.013 0.569,-0.008C0.556,-0.003 0.543,-0 0.53,-0L0.18,-0L0.101,0C0.091,-0.008 0.085,-0.017 0.083,-0.024C0.081,-0.032 0.08,-0.057 0.08,-0.101L0.18,-0.1L0.53,-0.1L0.53,-0.3L0.19,-0.3Z" style="fill:rgb(19,19,19);fill-rule:nonzero;"/>
                        </g>
                        <g transform="matrix(10,0,0,10,309.231,710.162)">
                            <path d="M0.05,-0.52L0.177,-0.52L0.177,-0.68L0.273,-0.68L0.273,-0.52L0.444,-0.52L0.444,-0.424L0.273,-0.424L0.273,-0.096L0.444,-0.096L0.444,-0L0.273,-0C0.26,-0 0.248,-0.003 0.236,-0.008C0.224,-0.013 0.214,-0.019 0.205,-0.028C0.196,-0.037 0.189,-0.047 0.184,-0.059C0.179,-0.07 0.177,-0.083 0.177,-0.096L0.177,-0.424L0.05,-0.424L0.05,-0.52Z" style="fill:rgb(19,19,19);fill-rule:nonzero;"/>
                        </g>
                        <g transform="matrix(10,0,0,10,314.471,710.162)">
                            <path d="M0.08,-0.227C0.08,-0.24 0.083,-0.253 0.088,-0.264C0.093,-0.276 0.1,-0.286 0.108,-0.295C0.117,-0.304 0.127,-0.311 0.139,-0.316C0.15,-0.321 0.163,-0.323 0.176,-0.323L0.424,-0.323L0.424,-0.424L0.11,-0.424L0.11,-0.52L0.424,-0.52C0.437,-0.52 0.45,-0.517 0.461,-0.512C0.473,-0.507 0.483,-0.501 0.492,-0.492C0.501,-0.483 0.507,-0.473 0.512,-0.461C0.517,-0.45 0.52,-0.437 0.52,-0.424L0.52,-0L0.176,-0C0.163,-0 0.15,-0.003 0.139,-0.008C0.127,-0.013 0.117,-0.019 0.108,-0.028C0.1,-0.037 0.093,-0.047 0.088,-0.059C0.083,-0.07 0.08,-0.083 0.08,-0.096L0.08,-0.227ZM0.176,-0.096L0.424,-0.096L0.424,-0.227L0.176,-0.227L0.176,-0.096Z" style="fill:rgb(19,19,19);fill-rule:nonzero;"/>
                        </g>
                        <g transform="matrix(10,0,0,10,320.472,710.162)">
                            <path d="M0.05,-0.52L0.177,-0.52L0.177,-0.68L0.273,-0.68L0.273,-0.52L0.444,-0.52L0.444,-0.424L0.273,-0.424L0.273,-0.096L0.444,-0.096L0.444,-0L0.273,-0C0.26,-0 0.248,-0.003 0.236,-0.008C0.224,-0.013 0.214,-0.019 0.205,-0.028C0.196,-0.037 0.189,-0.047 0.184,-0.059C0.179,-0.07 0.177,-0.083 0.177,-0.096L0.177,-0.424L0.05,-0.424L0.05,-0.52Z" style="fill:rgb(19,19,19);fill-rule:nonzero;"/>
                        </g>
                        <g transform="matrix(10,0,0,10,325.711,710.162)">
                            <path d="M0.52,-0.211L0.176,-0.211L0.176,-0.096L0.52,-0.096L0.52,-0L0.176,-0C0.163,-0 0.15,-0.003 0.139,-0.008C0.127,-0.013 0.117,-0.019 0.108,-0.028C0.1,-0.037 0.093,-0.047 0.088,-0.059C0.083,-0.07 0.08,-0.083 0.08,-0.096L0.08,-0.424C0.08,-0.437 0.083,-0.45 0.088,-0.461C0.093,-0.473 0.1,-0.483 0.108,-0.492C0.117,-0.501 0.127,-0.507 0.139,-0.512C0.15,-0.517 0.163,-0.52 0.176,-0.52L0.424,-0.52C0.437,-0.52 0.45,-0.517 0.461,-0.512C0.473,-0.507 0.483,-0.501 0.492,-0.492C0.501,-0.483 0.507,-0.473 0.512,-0.461C0.517,-0.45 0.52,-0.437 0.52,-0.424L0.52,-0.211ZM0.176,-0.424L0.176,-0.307L0.424,-0.307L0.424,-0.424L0.176,-0.424Z" style="fill:rgb(19,19,19);fill-rule:nonzero;"/>
                        </g>
                        <g transform="matrix(10,0,0,10,295.677,720.641)">
                            <path d="M0.451,-0L0.19,-0.513L0.19,-0L0.09,-0L0.09,-0.7L0.199,-0.7L0.466,-0.173L0.733,-0.7L0.842,-0.7L0.842,-0L0.742,-0L0.742,-0.513L0.481,-0L0.451,-0Z" style="fill:rgb(19,19,19);fill-rule:nonzero;"/>
                        </g>
                        <g transform="matrix(10,0,0,10,304.998,720.641)">
                            <path d="M0.08,-0.227C0.08,-0.24 0.083,-0.253 0.088,-0.264C0.093,-0.276 0.1,-0.286 0.108,-0.295C0.117,-0.304 0.127,-0.311 0.139,-0.316C0.15,-0.321 0.163,-0.323 0.176,-0.323L0.424,-0.323L0.424,-0.424L0.11,-0.424L0.11,-0.52L0.424,-0.52C0.437,-0.52 0.45,-0.517 0.461,-0.512C0.473,-0.507 0.483,-0.501 0.492,-0.492C0.501,-0.483 0.507,-0.473 0.512,-0.461C0.517,-0.45 0.52,-0.437 0.52,-0.424L0.52,-0L0.176,-0C0.163,-0 0.15,-0.003 0.139,-0.008C0.127,-0.013 0.117,-0.019 0.108,-0.028C0.1,-0.037 0.093,-0.047 0.088,-0.059C0.083,-0.07 0.08,-0.083 0.08,-0.096L0.08,-0.227ZM0.176,-0.096L0.424,-0.096L0.424,-0.227L0.176,-0.227L0.176,-0.096Z" style="fill:rgb(19,19,19);fill-rule:nonzero;"/>
                        </g>
                        <g transform="matrix(10,0,0,10,310.999,720.641)">
                            <path d="M0.176,-0.424L0.176,-0.096L0.424,-0.096L0.424,-0.184L0.52,-0.184L0.52,-0.096C0.52,-0.083 0.517,-0.07 0.512,-0.059C0.507,-0.047 0.501,-0.037 0.492,-0.028C0.483,-0.019 0.473,-0.013 0.461,-0.008C0.45,-0.003 0.437,-0 0.424,-0L0.176,-0C0.163,-0 0.15,-0.003 0.139,-0.008C0.127,-0.013 0.117,-0.019 0.108,-0.028C0.1,-0.037 0.093,-0.047 0.088,-0.059C0.083,-0.07 0.08,-0.083 0.08,-0.096L0.08,-0.424C0.08,-0.437 0.083,-0.45 0.088,-0.461C0.093,-0.473 0.1,-0.483 0.108,-0.492C0.117,-0.501 0.127,-0.507 0.139,-0.512C0.15,-0.517 0.163,-0.52 0.176,-0.52L0.424,-0.52C0.437,-0.52 0.45,-0.517 0.461,-0.512C0.473,-0.507 0.483,-0.501 0.492,-0.492C0.501,-0.483 0.507,-0.473 0.512,-0.461C0.517,-0.45 0.52,-0.437 0.52,-0.424L0.52,-0.336L0.424,-0.336L0.424,-0.424L0.176,-0.424Z" style="fill:rgb(19,19,19);fill-rule:nonzero;"/>
                        </g>
                        <g transform="matrix(10,0,0,10,317,720.641)">
                            <path d="M0.54,-0L0.444,-0L0.444,-0.424L0.176,-0.424L0.176,-0L0.08,-0L0.08,-0.72L0.176,-0.72L0.176,-0.52L0.273,-0.521L0.444,-0.52C0.457,-0.52 0.47,-0.517 0.481,-0.512C0.493,-0.507 0.503,-0.501 0.512,-0.492C0.521,-0.483 0.527,-0.473 0.532,-0.461C0.538,-0.45 0.54,-0.437 0.54,-0.424L0.54,-0Z" style="fill:rgb(19,19,19);fill-rule:nonzero;"/>
                        </g>
                        <g transform="matrix(10,0,0,10,323.201,720.641)">
                            <path d="M0.181,-0.52L0.181,-0L0.085,-0L0.085,-0.52L0.181,-0.52ZM0.08,-0.72L0.186,-0.72L0.186,-0.62L0.08,-0.62L0.08,-0.72Z" style="fill:rgb(19,19,19);fill-rule:nonzero;"/>
                        </g>
                        <g transform="matrix(10,0,0,10,325.862,720.641)">
                            <path d="M0.54,-0L0.444,-0L0.444,-0.424L0.176,-0.424L0.176,-0L0.08,-0L0.08,-0.52L0.444,-0.52C0.457,-0.52 0.47,-0.517 0.481,-0.512C0.493,-0.507 0.503,-0.501 0.512,-0.492C0.521,-0.483 0.527,-0.473 0.532,-0.461C0.538,-0.45 0.54,-0.437 0.54,-0.424L0.54,-0Z" style="fill:rgb(19,19,19);fill-rule:nonzero;"/>
                        </g>
                        <g transform="matrix(10,0,0,10,332.063,720.641)">
                            <path d="M0.52,-0.211L0.176,-0.211L0.176,-0.096L0.52,-0.096L0.52,-0L0.176,-0C0.163,-0 0.15,-0.003 0.139,-0.008C0.127,-0.013 0.117,-0.019 0.108,-0.028C0.1,-0.037 0.093,-0.047 0.088,-0.059C0.083,-0.07 0.08,-0.083 0.08,-0.096L0.08,-0.424C0.08,-0.437 0.083,-0.45 0.088,-0.461C0.093,-0.473 0.1,-0.483 0.108,-0.492C0.117,-0.501 0.127,-0.507 0.139,-0.512C0.15,-0.517 0.163,-0.52 0.176,-0.52L0.424,-0.52C0.437,-0.52 0.45,-0.517 0.461,-0.512C0.473,-0.507 0.483,-0.501 0.492,-0.492C0.501,-0.483 0.507,-0.473 0.512,-0.461C0.517,-0.45 0.52,-0.437 0.52,-0.424L0.52,-0.211ZM0.176,-0.424L0.176,-0.307L0.424,-0.307L0.424,-0.424L0.176,-0.424Z" style="fill:rgb(19,19,19);fill-rule:nonzero;"/>
                        </g>
                    </g>
                </g>
            </g>
            <g id="short-side-2" serif:id="short side 2" transform="matrix(-1,-1.22465e-16,1.22465e-16,-1,705.069,1026.74)">
                <path d="M162.942,662.236L162.942,662.532L162.942,683.225L162.893,683.965L162.749,684.692L162.51,685.394L162.182,686.059L161.77,686.676L161.281,687.233L160.724,687.722L160.107,688.134L159.442,688.462L158.74,688.701L158.013,688.845L157.273,688.894L54.113,688.894L51.893,688.748L49.711,688.314L47.605,687.599L45.609,686.615L43.76,685.379L42.087,683.912L40.62,682.24L39.384,680.39L38.4,678.395L37.685,676.288L37.251,674.106L37.106,671.886L37.106,483.618L37.106,483.618L37.251,481.398L37.685,479.216L38.4,477.11L39.384,475.114L40.62,473.264L42.087,471.592L43.76,470.125L45.609,468.889L47.605,467.905L49.711,467.19L51.893,466.756L54.113,466.61L157.273,466.61L158.013,466.659L158.74,466.803L159.442,467.042L160.107,467.37L160.724,467.782L161.282,468.271L161.77,468.828L162.182,469.445L162.51,470.11L162.749,470.812L162.893,471.54L162.942,472.28L162.942,492.972L162.942,493.268C157.837,510.653 154.428,542 154.428,577.752C154.428,613.504 157.837,644.851 162.942,662.236ZM111.918,670.752L145.934,670.752L145.934,679.823L111.918,679.823L111.918,670.752ZM51.279,488.72L51.279,498.075L48.444,498.075L48.444,657.429L51.279,657.429L51.279,666.784L60.066,666.784L60.066,488.72L51.279,488.72ZM145.934,484.752L111.918,484.752L111.918,475.681L145.934,475.681L145.934,484.752Z" style="fill:none;stroke:rgb(19,19,19);stroke-width:1px;"/>
            </g>
            <g id="short-side-1" serif:id="short side 1" transform="matrix(1,2.02078e-32,-1.38864e-32,1,156.871,-128.769)">
                <path d="M162.942,662.236L162.942,662.532L162.942,683.225L162.893,683.965L162.749,684.692L162.51,685.394L162.182,686.059L161.77,686.676L161.281,687.233L160.724,687.722L160.107,688.134L159.442,688.462L158.74,688.701L158.013,688.845L157.273,688.894L54.113,688.894L51.893,688.748L49.711,688.314L47.605,687.599L45.609,686.615L43.76,685.379L42.087,683.912L40.62,682.24L39.384,680.39L38.4,678.395L37.685,676.288L37.251,674.106L37.106,671.886L37.106,483.618L37.106,483.618L37.251,481.398L37.685,479.216L38.4,477.11L39.384,475.114L40.62,473.264L42.087,471.592L43.76,470.125L45.609,468.889L47.605,467.905L49.711,467.19L51.893,466.756L54.113,466.61L157.273,466.61L158.013,466.659L158.74,466.803L159.442,467.042L160.107,467.37L160.724,467.782L161.282,468.271L161.77,468.828L162.182,469.445L162.51,470.11L162.749,470.812L162.893,471.54L162.942,472.28L162.942,492.972L162.942,493.268C157.837,510.653 154.428,542 154.428,577.752C154.428,613.504 157.837,644.851 162.942,662.236ZM111.918,670.752L145.934,670.752L145.934,679.823L111.918,679.823L111.918,670.752ZM51.279,488.72L51.279,498.075L48.444,498.075L48.444,657.429L51.279,657.429L51.279,666.784L60.066,666.784L60.066,488.72L51.279,488.72ZM145.934,484.752L111.918,484.752L111.918,475.681L145.934,475.681L145.934,484.752Z" style="fill:none;stroke:rgb(19,19,19);stroke-width:1px;"/>
            </g>
            <g id="bottom" transform="matrix(6.12323e-17,-1,1,6.12323e-17,-146.794,1097.22)">
                <path d="M257.031,670.78L257.031,484.749L313.536,484.749L313.536,476.245L341.882,476.245L341.882,484.749L415.395,484.749L415.395,476.245L443.741,476.245L443.741,484.749L500.244,484.749L500.244,670.78L443.741,670.78L443.741,679.283L415.395,679.283L415.395,670.78L341.882,670.78L341.882,679.283L313.536,679.283L313.536,670.78L257.031,670.78ZM484.84,650.809C487.343,650.809 489.375,652.842 489.375,655.345C489.375,657.848 487.343,659.88 484.84,659.88C482.337,659.88 480.304,657.848 480.304,655.345C480.304,652.842 482.337,650.809 484.84,650.809ZM272.44,650.809C274.943,650.809 276.975,652.842 276.975,655.345C276.975,657.848 274.943,659.88 272.44,659.88C269.937,659.88 267.904,657.848 267.904,655.345C267.904,652.842 269.937,650.809 272.44,650.809ZM484.84,496.009C487.343,496.009 489.375,498.042 489.375,500.545C489.375,503.048 487.343,505.08 484.84,505.08C482.337,505.08 480.304,503.048 480.304,500.545C480.304,498.042 482.337,496.009 484.84,496.009ZM272.44,496.009C274.943,496.009 276.975,498.042 276.975,500.545C276.975,503.048 274.943,505.08 272.44,505.08C269.937,505.08 267.904,503.048 267.904,500.545C267.904,498.042 269.937,496.009 272.44,496.009Z" style="fill:none;stroke:rgb(19,19,19);stroke-width:1px;stroke-miterlimit:1.5;"/>
            </g>
            <g id="top" transform="matrix(2.2532,-2.02078e-32,-2.77728e-32,1.63945,1579.74,-626.386)">
                <g transform="matrix(1,6.84228e-48,1.36846e-48,1,-133.581,0)">
                    <path d="M-413.892,575.124L-414.056,575.139L-414.218,575.183L-414.373,575.256L-414.521,575.356L-414.658,575.482L-414.782,575.631L-414.89,575.801L-414.982,575.989L-415.054,576.192L-415.107,576.406L-415.139,576.628L-415.149,576.853L-415.149,580.311L-411.375,580.311L-411.375,585.499L-422.261,585.499L-425.591,637.369L-425.591,682.123L-422.261,733.993L-411.375,733.993L-411.375,739.18L-415.149,739.18L-415.149,742.638L-415.138,742.864L-415.106,743.086L-415.053,743.3L-414.98,743.503L-414.889,743.691L-414.78,743.861L-414.657,744.01L-414.52,744.136L-414.372,744.236L-414.216,744.308L-414.055,744.352L-413.891,744.368L-338.626,744.368L-338.462,744.352L-338.3,744.308L-338.144,744.236L-337.997,744.136L-337.86,744.01L-337.736,743.861L-337.628,743.691L-337.536,743.503L-337.464,743.3L-337.411,743.086L-337.378,742.864L-337.367,742.639L-337.367,739.181L-341.141,739.181L-341.141,733.994L-330.256,733.994L-326.925,682.123L-326.925,637.369L-330.256,585.499L-341.141,585.499L-341.141,580.311L-337.367,580.311L-337.367,576.853L-337.378,576.628L-337.411,576.406L-337.464,576.192L-337.536,575.989L-337.628,575.801L-337.736,575.631L-337.86,575.482L-337.997,575.356L-338.144,575.256L-338.3,575.183L-338.462,575.139L-338.626,575.123L-413.892,575.123L-413.892,575.124ZM-355.27,689.731C-355.27,688.299 -356.115,687.138 -357.157,687.138L-376.028,687.138C-377.07,687.138 -377.915,688.299 -377.915,689.731L-377.915,715.666C-377.915,717.099 -377.07,718.26 -376.028,718.26L-357.157,718.26C-356.115,718.26 -355.27,717.099 -355.27,715.666L-355.27,689.731ZM-338.241,684.765C-338.241,682.378 -339.649,680.442 -341.386,680.442L-341.387,680.442C-343.124,680.442 -344.532,682.378 -344.532,684.765L-344.532,710.701C-344.532,713.088 -343.124,715.023 -341.387,715.023L-341.386,715.023C-339.649,715.023 -338.241,713.088 -338.241,710.701L-338.241,684.765ZM-338.242,663.107C-338.242,661.675 -339.087,660.514 -340.129,660.514C-340.129,660.514 -340.129,660.514 -340.13,660.514C-341.172,660.514 -342.016,661.675 -342.016,663.107C-342.016,665.579 -342.016,669.281 -342.016,671.753C-342.016,673.185 -341.172,674.346 -340.13,674.346C-340.129,674.346 -340.129,674.346 -340.129,674.346C-339.087,674.346 -338.242,673.185 -338.242,671.753C-338.242,669.281 -338.242,665.579 -338.242,663.107ZM-334.977,668.491L-334.977,650.855L-330.952,650.855L-330.952,668.491L-334.977,668.491ZM-417.54,650.855L-417.54,668.491L-421.566,668.491L-421.566,650.855L-417.54,650.855ZM-338.241,643.344C-338.241,641.912 -339.086,640.751 -340.128,640.751C-340.128,640.751 -340.129,640.751 -340.129,640.751C-341.171,640.751 -342.016,641.912 -342.016,643.344C-342.016,645.816 -342.016,649.518 -342.016,651.99C-342.016,653.422 -341.171,654.583 -340.129,654.583C-340.129,654.583 -340.128,654.583 -340.128,654.583C-339.086,654.583 -338.241,653.422 -338.241,651.99C-338.241,649.518 -338.241,645.816 -338.241,643.344Z" style="fill:none;stroke:rgb(19,19,19);stroke-width:0.51px;"/>
                </g>
                <g transform="matrix(1,6.84228e-48,-6.84228e-48,1,4.05264,-20.1784)">
                    <g transform="matrix(0.33286,4.10282e-33,5.63875e-33,0.45747,-626.102,585.097)">
                        <path d="M290.87,103.668C269.653,103.668 252.427,120.894 252.427,142.112C252.427,163.329 269.653,180.555 290.87,180.555C312.088,180.555 329.314,163.329 329.314,142.112C329.314,120.894 312.088,103.668 290.87,103.668ZM290.87,106.994C310.252,106.994 325.988,122.73 325.988,142.112C325.988,161.494 310.252,177.229 290.87,177.229C271.488,177.229 255.753,161.494 255.753,142.112C255.753,122.73 271.488,106.994 290.87,106.994ZM310.195,152.059L271.546,152.059C271.093,152.059 270.664,152.148 270.259,152.326C269.855,152.504 269.501,152.741 269.199,153.038C268.897,153.335 268.66,153.686 268.487,154.09C268.314,154.495 268.228,154.924 268.228,155.377L268.228,161.372L271.546,161.372L271.546,155.377L310.195,155.377C310.648,155.377 311.077,155.288 311.482,155.11C311.886,154.932 312.24,154.695 312.542,154.398C312.844,154.101 313.081,153.75 313.254,153.346C313.427,152.941 313.513,152.512 313.513,152.059L313.513,146.064L310.195,146.064L310.195,152.059ZM290.385,146.064L281.725,129.051L281.725,146.064L278.406,146.064L278.406,122.851L282.032,122.851L290.87,140.334L299.725,122.851L303.335,122.851L303.335,146.064L300.032,146.064L300.032,129.051L291.372,146.064L290.385,146.064Z" style="fill-rule:nonzero;"/>
                    </g>
                    <g transform="matrix(0.436813,1.80286e-48,-1.64307e-48,0.600338,-553.08,175.555)">
                        <g transform="matrix(15.1639,0,0,15.1639,91.2406,772.104)">
                            <path d="M0.546,-0.365C0.561,-0.361 0.574,-0.354 0.586,-0.346C0.598,-0.337 0.608,-0.326 0.617,-0.313C0.625,-0.3 0.632,-0.285 0.636,-0.267C0.641,-0.249 0.643,-0.228 0.643,-0.205L0.643,-0.17C0.643,-0.057 0.586,-0 0.473,-0L0.09,-0L0.09,-0.7L0.453,-0.7C0.566,-0.7 0.623,-0.643 0.623,-0.53L0.623,-0.517C0.623,-0.478 0.617,-0.446 0.604,-0.421C0.592,-0.396 0.572,-0.377 0.546,-0.365ZM0.188,-0.305L0.188,-0.098L0.47,-0.098C0.497,-0.098 0.516,-0.104 0.527,-0.117C0.539,-0.129 0.545,-0.148 0.545,-0.175L0.545,-0.229C0.545,-0.256 0.539,-0.275 0.527,-0.287C0.516,-0.299 0.497,-0.305 0.47,-0.305L0.188,-0.305ZM0.188,-0.602L0.188,-0.403L0.457,-0.403C0.481,-0.404 0.498,-0.41 0.509,-0.423C0.52,-0.435 0.525,-0.454 0.525,-0.479L0.525,-0.525C0.525,-0.552 0.519,-0.571 0.507,-0.583C0.496,-0.596 0.477,-0.602 0.45,-0.602L0.188,-0.602Z" style="fill:rgb(19,19,19);fill-rule:nonzero;"/>
                        </g>
                        <g transform="matrix(15.1639,0,0,15.1639,101.903,772.104)">
                            <path d="M0.54,-0.096C0.54,-0.083 0.538,-0.07 0.532,-0.059C0.527,-0.047 0.521,-0.037 0.512,-0.028C0.503,-0.019 0.493,-0.013 0.481,-0.008C0.47,-0.003 0.457,-0 0.444,-0L0.176,-0L0.176,0.21L0.08,0.21L0.08,-0.52L0.176,-0.52L0.176,-0.432C0.177,-0.444 0.18,-0.456 0.186,-0.467C0.191,-0.477 0.198,-0.486 0.207,-0.494C0.215,-0.502 0.225,-0.509 0.236,-0.513C0.247,-0.518 0.259,-0.52 0.272,-0.52L0.444,-0.52C0.457,-0.52 0.47,-0.517 0.481,-0.512C0.493,-0.507 0.503,-0.501 0.512,-0.492C0.521,-0.483 0.527,-0.473 0.532,-0.461C0.538,-0.45 0.54,-0.437 0.54,-0.424L0.54,-0.096ZM0.444,-0.096L0.444,-0.424L0.176,-0.424L0.176,-0.096L0.444,-0.096Z" style="fill:rgb(19,19,19);fill-rule:nonzero;"/>
                        </g>
                        <g transform="matrix(15.1639,0,0,15.1639,111.306,772.104)">
                            <path d="M0.53,-0.096C0.53,-0.083 0.527,-0.07 0.522,-0.059C0.517,-0.047 0.51,-0.037 0.502,-0.028C0.493,-0.019 0.483,-0.013 0.471,-0.008C0.46,-0.003 0.447,-0 0.434,-0L0.176,-0C0.163,-0 0.15,-0.003 0.139,-0.008C0.127,-0.013 0.117,-0.019 0.108,-0.028C0.1,-0.037 0.093,-0.047 0.088,-0.059C0.083,-0.07 0.08,-0.083 0.08,-0.096L0.08,-0.424C0.08,-0.437 0.083,-0.45 0.088,-0.461C0.093,-0.473 0.1,-0.483 0.108,-0.492C0.117,-0.501 0.127,-0.507 0.139,-0.512C0.15,-0.517 0.163,-0.52 0.176,-0.52L0.434,-0.52C0.447,-0.52 0.46,-0.517 0.471,-0.512C0.483,-0.507 0.493,-0.501 0.502,-0.492C0.51,-0.483 0.517,-0.473 0.522,-0.461C0.527,-0.45 0.53,-0.437 0.53,-0.424L0.53,-0.096ZM0.176,-0.424L0.176,-0.096L0.434,-0.096L0.434,-0.424L0.176,-0.424Z" style="fill:rgb(19,19,19);fill-rule:nonzero;"/>
                        </g>
                        <g transform="matrix(15.1639,0,0,15.1639,120.554,772.104)">
                            <path d="M0.08,-0.424C0.08,-0.437 0.083,-0.45 0.088,-0.461C0.093,-0.473 0.1,-0.483 0.108,-0.492C0.117,-0.501 0.127,-0.507 0.139,-0.512C0.15,-0.517 0.163,-0.52 0.176,-0.52L0.444,-0.52L0.444,-0.72L0.54,-0.72L0.54,-0L0.444,-0L0.444,-0.088C0.443,-0.076 0.44,-0.064 0.434,-0.054C0.429,-0.043 0.421,-0.034 0.413,-0.026C0.404,-0.018 0.394,-0.011 0.383,-0.007C0.372,-0.002 0.361,-0 0.348,-0L0.176,-0C0.163,-0 0.15,-0.003 0.139,-0.008C0.127,-0.013 0.117,-0.019 0.108,-0.028C0.1,-0.037 0.093,-0.047 0.088,-0.059C0.083,-0.07 0.08,-0.083 0.08,-0.096L0.08,-0.424ZM0.176,-0.096L0.444,-0.096L0.444,-0.424L0.176,-0.424L0.176,-0.096Z" style="fill:rgb(19,19,19);fill-rule:nonzero;"/>
                        </g>
                        <g transform="matrix(15.1639,0,0,15.1639,91.2406,787.994)">
                            <path d="M0.19,-0.3C0.176,-0.3 0.163,-0.302 0.151,-0.308C0.139,-0.313 0.128,-0.32 0.119,-0.329C0.11,-0.338 0.103,-0.349 0.098,-0.361C0.092,-0.373 0.09,-0.386 0.09,-0.4L0.09,-0.6C0.09,-0.614 0.092,-0.627 0.098,-0.639C0.103,-0.651 0.11,-0.662 0.119,-0.671C0.128,-0.68 0.139,-0.687 0.151,-0.692C0.163,-0.698 0.176,-0.7 0.19,-0.7L0.53,-0.7L0.591,-0.7C0.613,-0.7 0.624,-0.694 0.625,-0.68C0.625,-0.667 0.625,-0.64 0.625,-0.6L0.19,-0.6L0.19,-0.4L0.53,-0.4C0.543,-0.4 0.556,-0.397 0.569,-0.392C0.581,-0.387 0.591,-0.38 0.601,-0.371C0.61,-0.361 0.617,-0.351 0.622,-0.339C0.627,-0.326 0.63,-0.313 0.63,-0.3L0.63,-0.1C0.63,-0.086 0.627,-0.073 0.622,-0.061C0.617,-0.049 0.61,-0.038 0.601,-0.029C0.591,-0.02 0.581,-0.013 0.569,-0.008C0.556,-0.003 0.543,-0 0.53,-0L0.18,-0L0.101,0C0.091,-0.008 0.085,-0.017 0.083,-0.024C0.081,-0.032 0.08,-0.057 0.08,-0.101L0.18,-0.1L0.53,-0.1L0.53,-0.3L0.19,-0.3Z" style="fill:rgb(19,19,19);fill-rule:nonzero;"/>
                        </g>
                        <g transform="matrix(15.1639,0,0,15.1639,102.162,787.994)">
                            <path d="M0.05,-0.52L0.177,-0.52L0.177,-0.68L0.273,-0.68L0.273,-0.52L0.444,-0.52L0.444,-0.424L0.273,-0.424L0.273,-0.096L0.444,-0.096L0.444,-0L0.273,-0C0.26,-0 0.248,-0.003 0.236,-0.008C0.224,-0.013 0.214,-0.019 0.205,-0.028C0.196,-0.037 0.189,-0.047 0.184,-0.059C0.179,-0.07 0.177,-0.083 0.177,-0.096L0.177,-0.424L0.05,-0.424L0.05,-0.52Z" style="fill:rgb(19,19,19);fill-rule:nonzero;"/>
                        </g>
                        <g transform="matrix(15.1639,0,0,15.1639,110.107,787.994)">
                            <path d="M0.52,-0.211L0.176,-0.211L0.176,-0.096L0.52,-0.096L0.52,-0L0.176,-0C0.163,-0 0.15,-0.003 0.139,-0.008C0.127,-0.013 0.117,-0.019 0.108,-0.028C0.1,-0.037 0.093,-0.047 0.088,-0.059C0.083,-0.07 0.08,-0.083 0.08,-0.096L0.08,-0.424C0.08,-0.437 0.083,-0.45 0.088,-0.461C0.093,-0.473 0.1,-0.483 0.108,-0.492C0.117,-0.501 0.127,-0.507 0.139,-0.512C0.15,-0.517 0.163,-0.52 0.176,-0.52L0.424,-0.52C0.437,-0.52 0.45,-0.517 0.461,-0.512C0.473,-0.507 0.483,-0.501 0.492,-0.492C0.501,-0.483 0.507,-0.473 0.512,-0.461C0.517,-0.45 0.52,-0.437 0.52,-0.424L0.52,-0.211ZM0.176,-0.424L0.176,-0.307L0.424,-0.307L0.424,-0.424L0.176,-0.424Z" style="fill:rgb(19,19,19);fill-rule:nonzero;"/>
                        </g>
                        <g transform="matrix(15.1639,0,0,15.1639,119.206,787.994)">
                            <path d="M0.54,-0.096C0.54,-0.083 0.538,-0.07 0.532,-0.059C0.527,-0.047 0.521,-0.037 0.512,-0.028C0.503,-0.019 0.493,-0.013 0.481,-0.008C0.47,-0.003 0.457,-0 0.444,-0L0.176,-0L0.176,0.21L0.08,0.21L0.08,-0.52L0.176,-0.52L0.176,-0.432C0.177,-0.444 0.18,-0.456 0.186,-0.467C0.191,-0.477 0.198,-0.486 0.207,-0.494C0.215,-0.502 0.225,-0.509 0.236,-0.513C0.247,-0.518 0.259,-0.52 0.272,-0.52L0.444,-0.52C0.457,-0.52 0.47,-0.517 0.481,-0.512C0.493,-0.507 0.503,-0.501 0.512,-0.492C0.521,-0.483 0.527,-0.473 0.532,-0.461C0.538,-0.45 0.54,-0.437 0.54,-0.424L0.54,-0.096ZM0.444,-0.096L0.444,-0.424L0.176,-0.424L0.176,-0.096L0.444,-0.096Z" style="fill:rgb(19,19,19);fill-rule:nonzero;"/>
                        </g>
                        <g transform="matrix(15.1639,0,0,15.1639,128.61,787.994)">
                            <path d="M0.54,-0.096C0.54,-0.083 0.538,-0.07 0.532,-0.059C0.527,-0.047 0.521,-0.037 0.512,-0.028C0.503,-0.019 0.493,-0.013 0.481,-0.008C0.47,-0.003 0.457,-0 0.444,-0L0.176,-0L0.176,0.21L0.08,0.21L0.08,-0.52L0.176,-0.52L0.176,-0.432C0.177,-0.444 0.18,-0.456 0.186,-0.467C0.191,-0.477 0.198,-0.486 0.207,-0.494C0.215,-0.502 0.225,-0.509 0.236,-0.513C0.247,-0.518 0.259,-0.52 0.272,-0.52L0.444,-0.52C0.457,-0.52 0.47,-0.517 0.481,-0.512C0.493,-0.507 0.503,-0.501 0.512,-0.492C0.521,-0.483 0.527,-0.473 0.532,-0.461C0.538,-0.45 0.54,-0.437 0.54,-0.424L0.54,-0.096ZM0.444,-0.096L0.444,-0.424L0.176,-0.424L0.176,-0.096L0.444,-0.096Z" style="fill:rgb(19,19,19);fill-rule:nonzero;"/>
                        </g>
                        <g transform="matrix(15.1639,0,0,15.1639,138.013,787.994)">
                            <path d="M0.52,-0.211L0.176,-0.211L0.176,-0.096L0.52,-0.096L0.52,-0L0.176,-0C0.163,-0 0.15,-0.003 0.139,-0.008C0.127,-0.013 0.117,-0.019 0.108,-0.028C0.1,-0.037 0.093,-0.047 0.088,-0.059C0.083,-0.07 0.08,-0.083 0.08,-0.096L0.08,-0.424C0.08,-0.437 0.083,-0.45 0.088,-0.461C0.093,-0.473 0.1,-0.483 0.108,-0.492C0.117,-0.501 0.127,-0.507 0.139,-0.512C0.15,-0.517 0.163,-0.52 0.176,-0.52L0.424,-0.52C0.437,-0.52 0.45,-0.517 0.461,-0.512C0.473,-0.507 0.483,-0.501 0.492,-0.492C0.501,-0.483 0.507,-0.473 0.512,-0.461C0.517,-0.45 0.52,-0.437 0.52,-0.424L0.52,-0.211ZM0.176,-0.424L0.176,-0.307L0.424,-0.307L0.424,-0.424L0.176,-0.424Z" style="fill:rgb(19,19,19);fill-rule:nonzero;"/>
                        </g>
                        <g transform="matrix(15.1639,0,0,15.1639,147.113,787.994)">
                            <path d="M0.176,-0.424L0.176,-0L0.08,-0L0.08,-0.52L0.374,-0.52C0.387,-0.52 0.4,-0.517 0.411,-0.512C0.423,-0.507 0.433,-0.501 0.442,-0.492C0.451,-0.483 0.458,-0.473 0.463,-0.461C0.468,-0.45 0.47,-0.437 0.47,-0.424L0.47,-0.336L0.374,-0.336L0.374,-0.424L0.176,-0.424Z" style="fill:rgb(19,19,19);fill-rule:nonzero;"/>
                        </g>
                        <g transform="matrix(15.1639,0,0,15.1639,91.2406,803.883)">
                            <path d="M0.451,-0L0.19,-0.513L0.19,-0L0.09,-0L0.09,-0.7L0.199,-0.7L0.466,-0.173L0.733,-0.7L0.842,-0.7L0.842,-0L0.742,-0L0.742,-0.513L0.481,-0L0.451,-0Z" style="fill:rgb(19,19,19);fill-rule:nonzero;"/>
                        </g>
                        <g transform="matrix(15.1639,0,0,15.1639,105.375,803.883)">
                            <path d="M0.53,-0.096C0.53,-0.083 0.527,-0.07 0.522,-0.059C0.517,-0.047 0.51,-0.037 0.502,-0.028C0.493,-0.019 0.483,-0.013 0.471,-0.008C0.46,-0.003 0.447,-0 0.434,-0L0.176,-0C0.163,-0 0.15,-0.003 0.139,-0.008C0.127,-0.013 0.117,-0.019 0.108,-0.028C0.1,-0.037 0.093,-0.047 0.088,-0.059C0.083,-0.07 0.08,-0.083 0.08,-0.096L0.08,-0.424C0.08,-0.437 0.083,-0.45 0.088,-0.461C0.093,-0.473 0.1,-0.483 0.108,-0.492C0.117,-0.501 0.127,-0.507 0.139,-0.512C0.15,-0.517 0.163,-0.52 0.176,-0.52L0.434,-0.52C0.447,-0.52 0.46,-0.517 0.471,-0.512C0.483,-0.507 0.493,-0.501 0.502,-0.492C0.51,-0.483 0.517,-0.473 0.522,-0.461C0.527,-0.45 0.53,-0.437 0.53,-0.424L0.53,-0.096ZM0.176,-0.424L0.176,-0.096L0.434,-0.096L0.434,-0.424L0.176,-0.424Z" style="fill:rgb(19,19,19);fill-rule:nonzero;"/>
                        </g>
                        <g transform="matrix(15.1639,0,0,15.1639,114.623,803.883)">
                            <path d="M0.05,-0.52L0.177,-0.52L0.177,-0.68L0.273,-0.68L0.273,-0.52L0.444,-0.52L0.444,-0.424L0.273,-0.424L0.273,-0.096L0.444,-0.096L0.444,-0L0.273,-0C0.26,-0 0.248,-0.003 0.236,-0.008C0.224,-0.013 0.214,-0.019 0.205,-0.028C0.196,-0.037 0.189,-0.047 0.184,-0.059C0.179,-0.07 0.177,-0.083 0.177,-0.096L0.177,-0.424L0.05,-0.424L0.05,-0.52Z" style="fill:rgb(19,19,19);fill-rule:nonzero;"/>
                        </g>
                        <g transform="matrix(15.1639,0,0,15.1639,122.568,803.883)">
                            <path d="M0.53,-0.096C0.53,-0.083 0.527,-0.07 0.522,-0.059C0.517,-0.047 0.51,-0.037 0.502,-0.028C0.493,-0.019 0.483,-0.013 0.471,-0.008C0.46,-0.003 0.447,-0 0.434,-0L0.176,-0C0.163,-0 0.15,-0.003 0.139,-0.008C0.127,-0.013 0.117,-0.019 0.108,-0.028C0.1,-0.037 0.093,-0.047 0.088,-0.059C0.083,-0.07 0.08,-0.083 0.08,-0.096L0.08,-0.424C0.08,-0.437 0.083,-0.45 0.088,-0.461C0.093,-0.473 0.1,-0.483 0.108,-0.492C0.117,-0.501 0.127,-0.507 0.139,-0.512C0.15,-0.517 0.163,-0.52 0.176,-0.52L0.434,-0.52C0.447,-0.52 0.46,-0.517 0.471,-0.512C0.483,-0.507 0.493,-0.501 0.502,-0.492C0.51,-0.483 0.517,-0.473 0.522,-0.461C0.527,-0.45 0.53,-0.437 0.53,-0.424L0.53,-0.096ZM0.176,-0.424L0.176,-0.096L0.434,-0.096L0.434,-0.424L0.176,-0.424Z" style="fill:rgb(19,19,19);fill-rule:nonzero;"/>
                        </g>
                        <g transform="matrix(15.1639,0,0,15.1639,131.816,803.883)">
                            <path d="M0.176,-0.424L0.176,-0L0.08,-0L0.08,-0.52L0.374,-0.52C0.387,-0.52 0.4,-0.517 0.411,-0.512C0.423,-0.507 0.433,-0.501 0.442,-0.492C0.451,-0.483 0.458,-0.473 0.463,-0.461C0.468,-0.45 0.47,-0.437 0.47,-0.424L0.47,-0.336L0.374,-0.336L0.374,-0.424L0.176,-0.424Z" style="fill:rgb(19,19,19);fill-rule:nonzero;"/>
                        </g>
                        <g transform="matrix(15.1639,0,0,15.1639,91.2406,819.773)">
                            <path d="M0.451,-0L0.19,-0.513L0.19,-0L0.09,-0L0.09,-0.7L0.199,-0.7L0.466,-0.173L0.733,-0.7L0.842,-0.7L0.842,-0L0.742,-0L0.742,-0.513L0.481,-0L0.451,-0Z" style="fill:rgb(19,19,19);fill-rule:nonzero;"/>
                        </g>
                        <g transform="matrix(15.1639,0,0,15.1639,105.375,819.773)">
                            <path d="M0.53,-0.096C0.53,-0.083 0.527,-0.07 0.522,-0.059C0.517,-0.047 0.51,-0.037 0.502,-0.028C0.493,-0.019 0.483,-0.013 0.471,-0.008C0.46,-0.003 0.447,-0 0.434,-0L0.176,-0C0.163,-0 0.15,-0.003 0.139,-0.008C0.127,-0.013 0.117,-0.019 0.108,-0.028C0.1,-0.037 0.093,-0.047 0.088,-0.059C0.083,-0.07 0.08,-0.083 0.08,-0.096L0.08,-0.424C0.08,-0.437 0.083,-0.45 0.088,-0.461C0.093,-0.473 0.1,-0.483 0.108,-0.492C0.117,-0.501 0.127,-0.507 0.139,-0.512C0.15,-0.517 0.163,-0.52 0.176,-0.52L0.434,-0.52C0.447,-0.52 0.46,-0.517 0.471,-0.512C0.483,-0.507 0.493,-0.501 0.502,-0.492C0.51,-0.483 0.517,-0.473 0.522,-0.461C0.527,-0.45 0.53,-0.437 0.53,-0.424L0.53,-0.096ZM0.176,-0.424L0.176,-0.096L0.434,-0.096L0.434,-0.424L0.176,-0.424Z" style="fill:rgb(19,19,19);fill-rule:nonzero;"/>
                        </g>
                        <g transform="matrix(15.1639,0,0,15.1639,114.623,819.773)">
                            <path d="M0.08,-0.424C0.08,-0.437 0.083,-0.45 0.088,-0.461C0.093,-0.473 0.1,-0.483 0.108,-0.492C0.117,-0.501 0.127,-0.507 0.139,-0.512C0.15,-0.517 0.163,-0.52 0.176,-0.52L0.444,-0.52L0.444,-0.72L0.54,-0.72L0.54,-0L0.444,-0L0.444,-0.088C0.443,-0.076 0.44,-0.064 0.434,-0.054C0.429,-0.043 0.421,-0.034 0.413,-0.026C0.404,-0.018 0.394,-0.011 0.383,-0.007C0.372,-0.002 0.361,-0 0.348,-0L0.176,-0C0.163,-0 0.15,-0.003 0.139,-0.008C0.127,-0.013 0.117,-0.019 0.108,-0.028C0.1,-0.037 0.093,-0.047 0.088,-0.059C0.083,-0.07 0.08,-0.083 0.08,-0.096L0.08,-0.424ZM0.176,-0.096L0.444,-0.096L0.444,-0.424L0.176,-0.424L0.176,-0.096Z" style="fill:rgb(19,19,19);fill-rule:nonzero;"/>
                        </g>
                        <g transform="matrix(15.1639,0,0,15.1639,124.027,819.773)">
                            <path d="M0.08,-0.52L0.176,-0.52L0.176,-0.096L0.444,-0.096L0.444,-0.52L0.54,-0.52L0.54,-0L0.444,-0L0.444,-0.088C0.443,-0.076 0.44,-0.064 0.434,-0.054C0.429,-0.043 0.421,-0.034 0.413,-0.026C0.404,-0.018 0.394,-0.011 0.383,-0.007C0.372,-0.002 0.361,-0 0.348,-0L0.176,-0C0.163,-0 0.15,-0.003 0.139,-0.008C0.127,-0.013 0.117,-0.019 0.108,-0.028C0.1,-0.037 0.093,-0.047 0.088,-0.059C0.083,-0.07 0.08,-0.083 0.08,-0.096L0.08,-0.52Z" style="fill:rgb(19,19,19);fill-rule:nonzero;"/>
                        </g>
                        <g transform="matrix(15.1639,0,0,15.1639,133.43,819.773)">
                            <rect x="0.08" y="-0.72" width="0.096" height="0.72" style="fill:rgb(19,19,19);fill-rule:nonzero;"/>
                        </g>
                        <g transform="matrix(15.1639,0,0,15.1639,137.31,819.773)">
                            <path d="M0.52,-0.211L0.176,-0.211L0.176,-0.096L0.52,-0.096L0.52,-0L0.176,-0C0.163,-0 0.15,-0.003 0.139,-0.008C0.127,-0.013 0.117,-0.019 0.108,-0.028C0.1,-0.037 0.093,-0.047 0.088,-0.059C0.083,-0.07 0.08,-0.083 0.08,-0.096L0.08,-0.424C0.08,-0.437 0.083,-0.45 0.088,-0.461C0.093,-0.473 0.1,-0.483 0.108,-0.492C0.117,-0.501 0.127,-0.507 0.139,-0.512C0.15,-0.517 0.163,-0.52 0.176,-0.52L0.424,-0.52C0.437,-0.52 0.45,-0.517 0.461,-0.512C0.473,-0.507 0.483,-0.501 0.492,-0.492C0.501,-0.483 0.507,-0.473 0.512,-0.461C0.517,-0.45 0.52,-0.437 0.52,-0.424L0.52,-0.211ZM0.176,-0.424L0.176,-0.307L0.424,-0.307L0.424,-0.424L0.176,-0.424Z" style="fill:rgb(19,19,19);fill-rule:nonzero;"/>
                        </g>
                    </g>
                </g>
            </g>
            <g id="washers" transform="matrix(1,0,0,1,0,-6.25371)">
                <path d="M655.364,594.413C648.41,594.413 642.764,588.767 642.764,581.813C642.764,574.859 648.41,569.213 655.364,569.213C662.318,569.213 667.964,574.859 667.964,581.813C667.964,588.767 662.318,594.413 655.364,594.413ZM655.364,586.349C652.861,586.349 650.829,584.316 650.829,581.813C650.829,579.31 652.861,577.278 655.364,577.278C657.867,577.278 659.899,579.31 659.899,581.813C659.899,584.316 657.867,586.349 655.364,586.349ZM655.364,622.448C648.41,622.448 642.764,616.802 642.764,609.848C642.764,602.894 648.41,597.248 655.364,597.248C662.318,597.248 667.964,602.894 667.964,609.848C667.964,616.802 662.318,622.448 655.364,622.448ZM655.364,614.383C652.861,614.383 650.829,612.351 650.829,609.848C650.829,607.345 652.861,605.312 655.364,605.312C657.867,605.312 659.899,607.345 659.899,609.848C659.899,612.351 657.867,614.383 655.364,614.383ZM655.364,650.483C648.41,650.483 642.764,644.837 642.764,637.883C642.764,630.928 648.41,625.283 655.364,625.283C662.318,625.283 667.964,630.928 667.964,637.883C667.964,644.837 662.318,650.483 655.364,650.483ZM655.364,642.418C652.861,642.418 650.829,640.386 650.829,637.883C650.829,635.379 652.861,633.347 655.364,633.347C657.867,633.347 659.899,635.379 659.899,637.883C659.899,640.386 657.867,642.418 655.364,642.418ZM655.364,678.517C648.41,678.517 642.764,672.871 642.764,665.917C642.764,658.963 648.41,653.317 655.364,653.317C662.318,653.317 667.964,658.963 667.964,665.917C667.964,672.871 662.318,678.517 655.364,678.517ZM655.364,670.453C652.861,670.453 650.829,668.42 650.829,665.917C650.829,663.414 652.861,661.382 655.364,661.382C657.867,661.382 659.899,663.414 659.899,665.917C659.899,668.42 657.867,670.453 655.364,670.453Z" style="fill:none;stroke:black;stroke-width:1px;stroke-miterlimit:1.5;"/>
            </g>
        </g>
    </g>
</svg>
