<?xml version="1.0" encoding="UTF-8" standalone="no"?>
<!DOCTYPE svg PUBLIC "-//W3C//DTD SVG 1.1//EN" "http://www.w3.org/Graphics/SVG/1.1/DTD/svg11.dtd">
<svg width="100%" height="100%" viewBox="0 0 656 700" version="1.1" xmlns="http://www.w3.org/2000/svg" xmlns:xlink="http://www.w3.org/1999/xlink" xml:space="preserve" xmlns:serif="http://www.serif.com/" style="fill-rule:evenodd;clip-rule:evenodd;stroke-linecap:round;stroke-linejoin:round;">
    <g id="V1.2">
        <g id="long-side-2" serif:id="long side 2">
            <path d="M477.659,675.229C473.733,632.492 471.318,584.249 470.84,532.992L459.501,532.992L459.501,495.197L470.84,495.197C471.322,443.536 473.771,394.939 477.752,351.954L562.033,351.955L562.032,351.953L562.225,348.993L562.804,346.084L563.758,343.275L565.07,340.614L566.718,338.148L568.673,335.918L570.904,333.962L573.37,332.314L576.03,331.002L578.839,330.049L581.749,329.47L584.709,329.276L607.386,329.276L608.866,329.373L610.32,329.662L611.725,330.139L613.055,330.795L614.288,331.619L615.403,332.597L616.381,333.712L617.205,334.945L617.861,336.275L618.338,337.68L618.627,339.135L618.724,340.615L607.386,340.615L606.406,340.743L605.938,340.902L605.495,341.121L605.084,341.396L604.712,341.722L604.386,342.093L604.111,342.504L603.892,342.948L603.733,343.416L603.605,344.394L603.605,348.007L604.065,350.239L604.319,350.753L604.624,351.239L604.976,351.692L605.373,352.106L605.81,352.478L606.282,352.803L607.313,353.303L618.723,357.455L618.72,670.734L607.153,674.944L606.647,675.158L606.165,675.422L605.713,675.734L605.295,676.09L604.915,676.487L604.578,676.92L604.286,677.385L604.043,677.878L603.851,678.393L603.713,678.924L603.629,679.467L603.603,680.016L603.603,683.795L603.637,684.289L603.733,684.773L603.892,685.242L604.111,685.685L604.386,686.096L604.711,686.468L605.083,686.794L605.494,687.069L605.938,687.288L606.406,687.446L606.891,687.543L607.384,687.577L618.723,687.577L618.658,692.343L618.465,693.313L618.148,694.249L617.71,695.136L617.161,695.958L616.509,696.701L615.766,697.353L614.943,697.903L614.057,698.34L613.12,698.658L612.151,698.851L611.164,698.915L584.707,698.915L581.747,698.721L578.838,698.143L576.029,697.189L573.369,695.877L570.902,694.229L568.672,692.273L566.716,690.043L565.068,687.577L563.756,684.916L562.803,682.107L562.03,679.198L562.03,676.238L477.752,676.237L477.659,675.229ZM595.666,563.104L607.761,563.104L607.761,600.899L595.666,600.899L595.666,563.104ZM607.761,465.088L595.666,465.088L595.666,427.292L607.761,427.292L607.761,465.088ZM547.024,553.429C545.98,553.429 545.134,554.275 545.134,555.319C545.134,566.792 545.134,626.995 545.134,638.468C545.134,639.512 545.98,640.358 547.024,640.358C553.13,640.358 572.287,640.358 578.394,640.358C579.437,640.358 580.283,639.512 580.283,638.468C580.283,626.995 580.283,566.792 580.283,555.319C580.283,554.275 579.437,553.429 578.394,553.429C572.287,553.429 553.13,553.429 547.024,553.429Z" style="fill:none;stroke:black;stroke-width:1.33px;"/>
            <g>
                <path d="M516.565,572.39L516.565,570.133C516.565,569.869 516.525,569.686 516.341,569.486C516.134,569.262 515.918,569.238 515.63,569.238L513.989,569.238C513.701,569.238 513.486,569.262 513.278,569.486C513.094,569.686 513.054,569.869 513.054,570.133L513.054,572.79C513.054,572.997 513.166,573.189 513.454,573.189C513.741,573.189 513.853,572.997 513.853,572.79L513.853,570.037L515.766,570.037L515.766,572.286C515.766,572.886 516.07,573.189 516.669,573.189L519.277,573.189L519.277,569.638C519.277,569.43 519.165,569.238 518.878,569.238C518.59,569.238 518.478,569.43 518.478,569.638L518.478,572.39L516.565,572.39Z" style="fill-rule:nonzero;"/>
                <path d="M519.277,567.429L519.277,565.19C519.277,564.173 518.662,563.478 517.614,563.478C517.021,563.478 516.597,563.55 516.166,564.006C515.79,563.582 515.366,563.478 514.902,563.478C513.773,563.478 513.054,564.013 513.054,565.19L513.054,567.429L519.277,567.429ZM516.565,566.63L516.565,565.19C516.565,564.461 516.941,564.277 517.614,564.277C518.222,564.277 518.478,564.613 518.478,565.19L518.478,566.63L516.565,566.63ZM513.853,566.63L513.853,565.19C513.853,564.461 514.229,564.277 514.902,564.277C515.51,564.277 515.766,564.613 515.766,565.19L515.766,566.63L513.853,566.63Z" style="fill-rule:nonzero;"/>
                <path d="M516.565,591.59L516.565,589.333C516.565,589.069 516.525,588.886 516.341,588.686C516.134,588.462 515.918,588.438 515.63,588.438L513.989,588.438C513.701,588.438 513.486,588.462 513.278,588.686C513.094,588.886 513.054,589.069 513.054,589.333L513.054,591.99C513.054,592.197 513.166,592.389 513.454,592.389C513.741,592.389 513.853,592.197 513.853,591.99L513.853,589.237L515.766,589.237L515.766,591.486C515.766,592.086 516.07,592.389 516.669,592.389L519.277,592.389L519.277,588.838C519.277,588.63 519.165,588.438 518.878,588.438C518.59,588.438 518.478,588.63 518.478,588.838L518.478,591.59L516.565,591.59Z" style="fill-rule:nonzero;"/>
                <path d="M518.877,586.629C519.069,586.685 519.277,586.469 519.277,586.245C519.277,585.997 519.069,585.869 518.877,585.813L517.917,585.509L517.917,583.806L518.877,583.51C519.069,583.454 519.277,583.326 519.277,583.078C519.277,582.854 519.069,582.638 518.877,582.694L513.462,584.238C513.254,584.294 513.054,584.39 513.054,584.654C513.054,584.91 513.246,584.998 513.462,585.062L518.877,586.629ZM517.118,584.03L517.118,585.286L514.95,584.662L514.95,584.646L517.118,584.03Z" style="fill-rule:nonzero;"/>
                <path d="M518.478,609.214L513.054,609.214L513.054,611.189C513.054,611.397 513.166,611.589 513.454,611.589C513.741,611.589 513.853,611.397 513.853,611.189L513.853,610.013L518.478,610.013L518.478,611.189C518.478,611.397 518.59,611.589 518.878,611.589C519.165,611.589 519.277,611.397 519.277,611.189L519.277,608.038C519.277,607.83 519.165,607.638 518.878,607.638L516.862,607.638C516.63,607.638 516.462,607.742 516.462,608.038C516.462,608.333 516.63,608.437 516.862,608.437L518.478,608.437L518.478,609.214Z" style="fill-rule:nonzero;"/>
                <path d="M518.877,605.829C519.069,605.885 519.277,605.669 519.277,605.445C519.277,605.197 519.069,605.069 518.877,605.013L517.917,604.709L517.917,603.006L518.877,602.71C519.069,602.654 519.277,602.526 519.277,602.278C519.277,602.054 519.069,601.838 518.877,601.894L513.462,603.438C513.254,603.494 513.054,603.59 513.054,603.854C513.054,604.11 513.246,604.198 513.462,604.262L518.877,605.829ZM517.118,603.23L517.118,604.486L514.95,603.862L514.95,603.846L517.118,603.23Z" style="fill-rule:nonzero;"/>
                <path d="M518.491,627.417L513.158,627.417L513.158,629.359C513.158,629.564 513.268,629.753 513.551,629.753C513.834,629.753 513.944,629.564 513.944,629.359L513.944,628.203L518.491,628.203L518.491,629.359C518.491,629.564 518.601,629.753 518.884,629.753C519.167,629.753 519.277,629.564 519.277,629.359L519.277,626.26C519.277,626.056 519.167,625.867 518.884,625.867L516.902,625.867C516.674,625.867 516.509,625.97 516.509,626.26C516.509,626.551 516.674,626.653 516.902,626.653L518.491,626.653L518.491,627.417Z" style="fill-rule:nonzero;"/>
                <path d="M519.277,624.089L519.277,621.886C519.277,620.887 518.672,620.203 517.641,620.203C517.059,620.203 516.642,620.274 516.218,620.722C515.848,620.306 515.431,620.203 514.975,620.203C513.865,620.203 513.158,620.73 513.158,621.886L513.158,624.089L519.277,624.089ZM516.61,623.303L516.61,621.886C516.61,621.17 516.98,620.989 517.641,620.989C518.24,620.989 518.491,621.32 518.491,621.886L518.491,623.303L516.61,623.303ZM513.944,623.303L513.944,621.886C513.944,621.17 514.314,620.989 514.975,620.989C515.573,620.989 515.825,621.32 515.825,621.886L515.825,623.303L513.944,623.303Z" style="fill-rule:nonzero;"/>
                <path d="M498.665,615.998L496.319,617.625L496.319,619.29L506.024,619.29C506.45,619.29 506.69,619.104 506.69,618.624C506.69,618.145 506.45,617.959 506.024,617.959L498.157,617.959L498.157,617.932L500.037,616.664L500.25,616.664C500.664,616.664 501.05,616.477 501.05,615.998C501.05,615.492 500.664,615.332 500.25,615.332L500.037,615.332L498.157,614.064L498.157,614.037L506.024,614.037C506.45,614.037 506.69,613.85 506.69,613.371C506.69,612.892 506.45,612.705 506.024,612.705L496.319,612.705L496.319,614.371L498.665,615.998Z" style="fill-rule:nonzero;"/>
                <path d="M504.305,609.53C505.145,609.53 505.465,609.317 506.024,608.651C506.584,607.985 506.69,607.718 506.69,606.905L506.69,605.891C506.69,605.077 506.584,604.81 506.024,604.144C505.465,603.478 505.145,603.265 504.305,603.265L501.891,603.265C501.037,603.265 500.744,603.438 500.224,604.077C499.705,604.704 499.505,604.997 499.505,605.891L499.505,606.905C499.505,607.798 499.705,608.092 500.224,608.718C500.744,609.357 501.037,609.53 501.891,609.53L504.305,609.53ZM501.891,608.252C501.624,608.252 501.45,608.158 501.13,607.785C500.89,607.505 500.784,607.305 500.784,606.905L500.784,605.891C500.784,605.491 500.89,605.291 501.13,605.01C501.45,604.637 501.624,604.544 501.891,604.544L504.305,604.544C504.572,604.544 504.745,604.637 505.065,605.01C505.305,605.291 505.412,605.491 505.412,605.891L505.412,606.905C505.412,607.305 505.305,607.505 505.065,607.785C504.745,608.158 504.572,608.252 504.305,608.252L501.891,608.252Z" style="fill-rule:nonzero;"/>
                <path d="M500.784,597.359L500.784,595.212C500.784,594.839 500.704,594.332 500.144,594.332C499.598,594.332 499.505,594.785 499.505,595.212L499.505,597.359L498.199,597.359C497.759,597.359 497.319,597.452 497.319,597.998C497.319,598.544 497.759,598.637 498.199,598.637L499.505,598.637L499.505,599.05C499.505,599.477 499.598,599.93 500.144,599.93C500.704,599.93 500.784,599.424 500.784,599.05L500.784,598.637L504.265,598.637C504.958,598.637 505.505,598.664 506.051,598.171C506.544,597.718 506.69,597.159 506.69,596.519L506.69,595.865C506.69,595.185 506.597,594.572 506.038,594.105C505.785,593.892 505.332,593.665 504.972,593.665C504.612,593.665 504.332,593.959 504.332,594.319C504.332,594.639 504.545,594.879 504.852,594.959C505.372,595.092 505.412,595.332 505.412,595.852L505.412,596.505C505.412,597.385 504.998,597.359 504.278,597.359L500.784,597.359Z" style="fill-rule:nonzero;"/>
                <path d="M504.305,590.33C505.145,590.33 505.465,590.117 506.024,589.451C506.584,588.785 506.69,588.518 506.69,587.705L506.69,586.691C506.69,585.877 506.584,585.61 506.024,584.944C505.465,584.278 505.145,584.065 504.305,584.065L501.891,584.065C501.037,584.065 500.744,584.238 500.224,584.877C499.705,585.504 499.505,585.797 499.505,586.691L499.505,587.705C499.505,588.598 499.705,588.892 500.224,589.518C500.744,590.157 501.037,590.33 501.891,590.33L504.305,590.33ZM501.891,589.052C501.624,589.052 501.45,588.958 501.13,588.585C500.89,588.305 500.784,588.105 500.784,587.705L500.784,586.691C500.784,586.291 500.89,586.091 501.13,585.81C501.45,585.437 501.624,585.344 501.891,585.344L504.305,585.344C504.572,585.344 504.745,585.437 505.065,585.81C505.305,586.091 505.412,586.291 505.412,586.691L505.412,587.705C505.412,588.105 505.305,588.305 505.065,588.585C504.745,588.958 504.572,589.052 504.305,589.052L501.891,589.052Z" style="fill-rule:nonzero;"/>
                <path d="M505.81,580.73C506.25,580.73 506.69,580.637 506.69,580.091C506.69,579.545 506.25,579.452 505.81,579.452L502.57,579.452L501.09,577.664C500.904,577.438 500.784,577.264 500.784,577.024L500.784,576.651C500.784,576.344 500.784,576.037 501.01,575.877C501.197,575.744 501.357,575.744 501.57,575.744C501.984,575.744 502.357,575.557 502.357,575.091C502.357,574.545 501.904,574.465 501.464,574.465C500.877,574.465 500.437,574.612 500.011,575.038C499.665,575.384 499.505,575.797 499.505,576.29L499.505,577.318C499.505,577.718 499.758,578.091 500.051,578.451L500.877,579.452L500.357,579.452C499.931,579.452 499.505,579.585 499.505,580.091C499.505,580.677 499.985,580.73 500.451,580.73L505.81,580.73Z" style="fill-rule:nonzero;"/>
            </g>
        </g>
        <g id="long-side-1" serif:id="long side 1">
            <path d="M177.91,352.973C181.837,395.709 184.251,443.953 184.73,495.209L196.068,495.209L196.068,533.005L184.73,533.005C184.247,584.666 181.799,633.263 177.817,676.248L93.398,676.237L93.4,676.238L93.206,679.198L92.627,682.107L91.674,684.916L90.362,687.577L88.714,690.043L86.758,692.273L84.528,694.229L82.062,695.877L79.401,697.189L76.592,698.143L73.683,698.721L70.723,698.915L48.046,698.915L46.566,698.818L45.111,698.529L43.707,698.052L42.377,697.396L41.143,696.572L40.028,695.594L39.05,694.479L38.226,693.246L37.57,691.916L37.094,690.511L36.804,689.057L36.707,687.577L48.046,687.577L49.025,687.448L49.494,687.289L49.937,687.07L50.348,686.796L50.72,686.47L51.046,686.098L51.321,685.687L51.539,685.244L51.698,684.776L51.827,683.797L51.827,680.185L51.366,677.952L51.112,677.438L50.808,676.952L50.455,676.499L50.059,676.085L49.622,675.713L49.15,675.388L48.119,674.889L36.709,670.736L36.712,357.457L48.279,353.248L48.784,353.034L49.266,352.769L49.718,352.458L50.137,352.102L50.516,351.705L50.854,351.271L51.146,350.806L51.389,350.313L51.58,349.799L51.719,349.267L51.802,348.724L51.829,348.175L51.829,344.396L51.795,343.903L51.698,343.418L51.54,342.95L51.321,342.506L51.046,342.095L50.72,341.723L50.348,341.397L49.937,341.122L49.494,340.904L49.026,340.745L48.541,340.648L48.047,340.614L36.709,340.614L36.773,335.848L36.966,334.878L37.284,333.942L37.721,333.055L38.271,332.233L38.923,331.49L39.666,330.838L40.488,330.289L41.375,329.851L42.311,329.533L43.281,329.341L44.268,329.276L70.724,329.276L73.684,329.47L76.594,330.049L79.403,331.002L82.063,332.314L84.529,333.962L86.76,335.918L88.715,338.148L90.363,340.614L91.675,343.275L92.629,346.084L93.402,348.993L93.402,351.953L177.817,351.964L177.91,352.973ZM59.765,465.088L47.671,465.088L47.671,427.292L59.765,427.292L59.765,465.088ZM47.671,563.104L59.765,563.104L59.765,600.899L47.671,600.899L47.671,563.104ZM119.577,628.99C120.359,628.99 120.994,628.355 120.994,627.572C120.994,621.607 120.994,598.577 120.994,592.612C120.994,591.829 120.359,591.194 119.577,591.194C112.808,591.194 83.825,591.194 77.057,591.194C76.274,591.194 75.639,591.829 75.639,592.612C75.639,598.577 75.639,621.607 75.639,627.572C75.639,628.355 76.274,628.99 77.057,628.99C83.825,628.99 112.808,628.99 119.577,628.99ZM125.246,566.933C125.622,566.933 125.982,566.784 126.248,566.518C126.514,566.252 126.663,565.892 126.663,565.516C126.663,557.155 126.663,514.35 126.663,505.988C126.663,505.612 126.514,505.252 126.248,504.986C125.982,504.72 125.622,504.571 125.246,504.571C117.918,504.571 84.385,504.571 77.057,504.571C76.681,504.571 76.32,504.72 76.055,504.986C75.789,505.252 75.639,505.612 75.639,505.988C75.639,514.35 75.639,557.155 75.639,565.516C75.639,565.892 75.789,566.252 76.055,566.518C76.32,566.784 76.681,566.933 77.057,566.933C84.385,566.933 117.918,566.933 125.246,566.933ZM147.923,451.324C148.299,451.324 148.659,451.175 148.925,450.909C149.191,450.643 149.34,450.283 149.34,449.907C149.34,442.762 149.34,410.753 149.34,403.608C149.34,403.232 149.191,402.871 148.925,402.605C148.659,402.34 148.299,402.19 147.923,402.19C141.958,402.19 118.927,402.19 112.962,402.19C112.586,402.19 112.226,402.34 111.96,402.605C111.694,402.871 111.545,403.232 111.545,403.608C111.545,410.753 111.545,442.762 111.545,449.907C111.545,450.283 111.694,450.643 111.96,450.909C112.226,451.175 112.586,451.324 112.962,451.324C118.927,451.324 141.958,451.324 147.923,451.324Z" style="fill:none;stroke:black;stroke-width:1.33px;"/>
            <g>
                <path id="path6005" d="M93.688,643.333C93.735,642.569 93.888,641.857 94.148,641.198C94.465,640.39 94.901,639.695 95.456,639.114C96.018,638.532 96.68,638.08 97.443,637.756C98.211,637.427 99.045,637.262 99.942,637.262C100.246,637.262 100.553,637.281 100.863,637.32C101.173,637.353 101.477,637.401 101.774,637.466C102.071,637.524 102.352,637.595 102.617,637.679C102.888,637.756 103.133,637.844 103.353,637.941L103.353,639.647C103.127,639.55 102.875,639.453 102.597,639.356C102.32,639.259 102.032,639.175 101.735,639.104C101.438,639.026 101.134,638.965 100.824,638.92C100.514,638.875 100.214,638.852 99.923,638.852C99.316,638.852 98.751,638.971 98.227,639.211C97.711,639.443 97.262,639.776 96.881,640.209C96.499,640.642 96.199,641.166 95.979,641.78C95.76,642.394 95.65,643.079 95.65,643.835L95.65,643.835C95.65,644.54 95.75,645.183 95.95,645.764C96.157,646.34 96.445,646.834 96.813,647.248C97.187,647.662 97.633,647.981 98.15,648.208C98.673,648.434 99.251,648.547 99.884,648.547C100.472,648.547 101.053,648.47 101.628,648.315C102.21,648.159 102.765,647.937 103.295,647.646L103.295,649.362C102.811,649.62 102.268,649.817 101.667,649.953C101.066,650.082 100.411,650.147 99.7,650.147C98.815,650.147 98.001,649.992 97.258,649.682C96.522,649.371 95.886,648.938 95.35,648.382C94.82,647.827 94.407,647.164 94.109,646.395C93.902,645.841 93.768,645.247 93.709,644.614L90.361,644.666C90.301,645.958 90.003,647.077 89.468,648.023C88.865,649.088 88.012,649.914 86.91,650.501C85.813,651.093 84.51,651.389 83.002,651.389C80.778,651.389 78.993,650.749 77.649,649.468C76.309,648.187 75.639,646.419 75.639,644.164C75.639,642.678 75.936,641.405 76.529,640.345C77.122,639.29 77.97,638.461 79.073,637.858C80.175,637.256 81.485,636.954 83.002,636.954C85.222,636.954 87.004,637.597 88.348,638.884C89.537,640.017 90.202,641.517 90.344,643.385L93.688,643.333ZM83.002,649.855C84.871,649.855 86.381,649.349 87.533,648.337C88.685,647.326 89.26,645.934 89.26,644.164C89.26,642.382 88.682,640.991 87.525,639.99C86.369,638.989 84.861,638.488 83.002,638.488C81.159,638.488 79.656,638.997 78.494,640.014C77.333,641.031 76.752,642.414 76.752,644.164C76.752,645.321 77.004,646.314 77.508,647.143C78.017,647.971 78.744,648.631 79.688,649.121C80.637,649.61 81.742,649.855 83.002,649.855ZM83.763,639.513L83.763,648.79L82.002,648.79L82.002,639.513L83.763,639.513ZM106.28,642.923C106.356,641.713 106.646,640.657 107.15,639.755C107.744,638.7 108.591,637.871 109.694,637.268C110.796,636.665 112.106,636.364 113.624,636.364C115.843,636.364 117.625,637.007 118.97,638.294C120.319,639.58 120.994,641.34 120.994,643.573C120.994,645.08 120.692,646.367 120.089,647.432C119.486,648.498 118.633,649.324 117.531,649.911C116.434,650.503 115.131,650.799 113.624,650.799C111.399,650.799 109.615,650.158 108.27,648.878C107.058,647.718 106.394,646.16 106.279,644.204L102.787,644.258C102.542,645.567 101.384,646.488 100.065,646.488C98.579,646.488 97.297,645.318 97.297,643.741C97.297,642.164 98.579,640.994 100.065,640.994C101.3,640.994 102.394,641.801 102.729,642.978L106.28,642.923ZM113.624,649.265C115.492,649.265 117.002,648.759 118.154,647.747C119.306,646.735 119.882,645.344 119.882,643.573C119.882,641.792 119.303,640.401 118.147,639.4C116.99,638.398 115.482,637.898 113.624,637.898C111.78,637.898 110.277,638.407 109.115,639.424C107.954,640.441 107.373,641.824 107.373,643.573C107.373,644.731 107.625,645.724 108.129,646.552C108.638,647.381 109.365,648.041 110.309,648.53C111.258,649.02 112.363,649.265 113.624,649.265ZM118.506,644.411L114.385,644.411L114.385,648.533L112.623,648.533L112.623,644.411L108.501,644.411L108.501,642.659L112.623,642.659L112.623,638.537L114.385,638.537L114.385,642.659L118.506,642.659L118.506,644.411Z" style="fill-rule:nonzero;"/>
                <path d="M93.614,418.291C93.614,418.958 93.774,419.478 94.293,419.944C94.786,420.383 95.266,420.45 95.879,420.45L103.319,420.45C103.746,420.45 103.986,420.263 103.986,419.784C103.986,419.305 103.746,419.118 103.319,419.118L95.879,419.118C95.133,419.118 94.946,418.891 94.946,418.291L94.946,416.023C94.946,415.423 95.133,415.196 95.879,415.196L103.319,415.196C103.746,415.196 103.986,415.01 103.986,414.531C103.986,414.051 103.746,413.865 103.319,413.865L95.879,413.865C95.266,413.865 94.786,413.931 94.293,414.371C93.774,414.837 93.614,415.356 93.614,416.023L93.614,418.291Z" style="fill-rule:nonzero;"/>
                <path d="M102.107,424.996C102.188,424.943 102.348,424.796 102.468,424.796C102.694,424.796 102.654,425.103 102.654,425.25L102.654,428.078C102.654,428.491 102.588,428.718 102.134,428.718C101.761,428.718 101.507,428.958 101.507,429.357C101.507,429.837 101.854,430.05 102.281,430.05C102.748,430.05 103.24,429.77 103.547,429.424C103.879,429.038 103.986,428.611 103.986,428.104L103.986,425.277C103.986,424.85 103.986,424.543 103.746,424.171C103.453,423.718 103.001,423.465 102.468,423.465C102.001,423.465 101.734,423.625 101.374,423.904L95.493,428.478C95.413,428.531 95.213,428.718 95.106,428.718C94.906,428.718 94.946,428.385 94.946,428.278L94.946,425.383C94.946,425.01 94.999,424.796 95.399,424.796C95.759,424.796 96.08,424.557 96.08,424.171C96.08,423.704 95.706,423.465 95.279,423.465C94.813,423.465 94.333,423.731 94.04,424.091C93.708,424.49 93.614,424.93 93.614,425.437L93.614,428.371C93.614,429.291 94.12,430.05 95.119,430.05C95.573,430.05 95.88,429.85 96.226,429.584L102.107,424.996Z" style="fill-rule:nonzero;"/>
                <path d="M93.614,433.065L93.614,436.797C93.614,438.491 94.64,439.65 96.387,439.65C97.374,439.65 98.081,439.53 98.8,438.771C99.426,439.477 100.133,439.65 100.907,439.65C102.787,439.65 103.986,438.758 103.986,436.797L103.986,433.065L93.614,433.065ZM98.134,434.396L98.134,436.797C98.134,438.011 97.507,438.318 96.387,438.318C95.373,438.318 94.946,437.758 94.946,436.797L94.946,434.396L98.134,434.396ZM102.654,434.396L102.654,436.797C102.654,438.011 102.027,438.318 100.907,438.318C99.893,438.318 99.466,437.758 99.466,436.797L99.466,434.396L102.654,434.396Z" style="fill-rule:nonzero;"/>
                <path d="M137.593,590.251L137.593,593.519C137.593,593.865 137.779,594.184 138.259,594.184C138.738,594.184 138.925,593.865 138.925,593.519L138.925,588.919L133.073,588.919L133.073,592.853L129.885,592.853L129.885,589.772C129.885,589.559 130.071,589.252 130.151,589.066L130.325,588.666C130.391,588.519 130.431,588.399 130.431,588.239C130.431,587.893 130.111,587.599 129.765,587.599C129.299,587.599 129.179,587.999 129.019,588.359L128.793,588.866C128.646,589.199 128.553,589.399 128.553,589.745L128.553,592.706C128.553,593.186 128.606,593.532 129.006,593.865C129.339,594.145 129.632,594.184 130.045,594.184L132.899,594.184C133.366,594.184 133.685,594.145 134.032,593.772C134.338,593.452 134.405,593.132 134.405,592.706L134.405,590.251L137.593,590.251Z" style="fill-rule:nonzero;"/>
                <path d="M134.538,598.933C134.538,598.386 134.325,598.133 133.725,598.133C133.126,598.133 132.913,598.386 132.913,598.933L132.913,602.051C132.913,602.598 133.126,602.851 133.725,602.851C134.325,602.851 134.538,602.598 134.538,602.051L134.538,598.933Z" style="fill-rule:nonzero;"/>
                <path d="M133.271,608.798L138.258,608.798C138.591,608.798 138.925,608.638 138.925,608.132C138.925,607.626 138.591,607.466 138.258,607.466L131.94,607.466L131.94,611.386L129.22,611.386C128.793,611.386 128.553,611.573 128.553,612.052C128.553,612.531 128.793,612.718 129.22,612.718L131.94,612.718C131.94,613.064 132.126,613.384 132.605,613.384C133.085,613.384 133.271,613.064 133.271,612.718L137.125,612.718C137.458,612.718 137.791,612.558 137.791,612.052C137.791,611.546 137.458,611.386 137.125,611.386L133.271,611.386L133.271,608.798Z" style="fill-rule:nonzero;"/>
                <path d="M137.593,617.731C137.593,618.118 137.859,618.398 138.259,618.398C138.605,618.398 138.925,618.118 138.925,617.771L138.925,616.972C138.925,616.506 138.565,616.399 138.259,616.399L129.392,616.399C128.779,616.399 128.553,616.639 128.553,617.265L128.553,622.119C128.553,622.718 128.766,622.984 129.392,622.984L132.379,622.984C132.992,622.984 133.271,622.851 133.271,622.185L133.271,617.731L137.593,617.731ZM131.94,621.653L129.885,621.653L129.885,617.731L131.94,617.731L131.94,621.653Z" style="fill-rule:nonzero;"/>
                <path d="M131.032,629.292L136.125,627.331L138.258,627.331C138.685,627.331 138.925,627.145 138.925,626.665C138.925,626.186 138.685,625.999 138.258,625.999L136.152,625.999C135.978,625.999 135.792,626.013 135.632,626.079L129.139,628.625C128.806,628.758 128.553,628.878 128.553,629.292C128.553,629.705 128.806,629.826 129.139,629.959L135.632,632.505C135.792,632.571 135.978,632.584 136.152,632.584L138.258,632.584C138.685,632.584 138.925,632.398 138.925,631.919C138.925,631.439 138.685,631.253 138.258,631.253L136.125,631.253L131.032,629.292Z" style="fill-rule:nonzero;"/>
                <g transform="matrix(8.16431e-17,1.33333,-1.33333,8.16431e-17,1097.1,113.338)">
                    <g transform="matrix(10,0,0,10,298.871,710.162)">
                        <path d="M0.228,-0.637C0.224,-0.643 0.213,-0.655 0.213,-0.664C0.213,-0.681 0.236,-0.678 0.247,-0.678L0.459,-0.678C0.49,-0.678 0.507,-0.673 0.507,-0.639C0.507,-0.611 0.525,-0.592 0.555,-0.592C0.591,-0.592 0.607,-0.618 0.607,-0.65C0.607,-0.685 0.586,-0.722 0.56,-0.745C0.531,-0.77 0.499,-0.778 0.461,-0.778L0.249,-0.778C0.217,-0.778 0.194,-0.778 0.166,-0.76C0.132,-0.738 0.113,-0.704 0.113,-0.664C0.113,-0.629 0.125,-0.609 0.146,-0.582L0.489,-0.141C0.493,-0.135 0.507,-0.12 0.507,-0.112C0.507,-0.097 0.482,-0.1 0.474,-0.1L0.257,-0.1C0.229,-0.1 0.213,-0.104 0.213,-0.134C0.213,-0.161 0.195,-0.185 0.166,-0.185C0.131,-0.185 0.113,-0.157 0.113,-0.125C0.113,-0.09 0.133,-0.054 0.16,-0.032C0.19,-0.007 0.223,-0 0.261,-0L0.481,-0C0.55,-0 0.607,-0.038 0.607,-0.113C0.607,-0.147 0.592,-0.17 0.572,-0.196L0.228,-0.637Z" style="fill-rule:nonzero;"/>
                    </g>
                    <g transform="matrix(10,0,0,10,306.071,710.162)">
                        <path d="M0.318,-0.443L0.479,-0.443C0.507,-0.443 0.545,-0.449 0.545,-0.491C0.545,-0.532 0.511,-0.539 0.479,-0.539L0.318,-0.539L0.318,-0.637C0.318,-0.67 0.311,-0.703 0.27,-0.703C0.229,-0.703 0.222,-0.67 0.222,-0.637L0.222,-0.539L0.191,-0.539C0.159,-0.539 0.125,-0.532 0.125,-0.491C0.125,-0.449 0.163,-0.443 0.191,-0.443L0.222,-0.443L0.222,-0.182C0.222,-0.13 0.22,-0.089 0.257,-0.048C0.291,-0.011 0.333,-0 0.381,-0L0.43,-0C0.481,-0 0.527,-0.007 0.562,-0.049C0.578,-0.068 0.595,-0.102 0.595,-0.129C0.595,-0.156 0.573,-0.177 0.546,-0.177C0.522,-0.177 0.504,-0.161 0.498,-0.138C0.488,-0.099 0.47,-0.096 0.431,-0.096L0.382,-0.096C0.316,-0.096 0.318,-0.127 0.318,-0.181L0.318,-0.443Z" style="fill-rule:nonzero;"/>
                    </g>
                    <g transform="matrix(10,0,0,10,313.271,710.162)">
                        <path d="M0.405,-0.443C0.474,-0.443 0.49,-0.431 0.49,-0.359L0.49,-0.337L0.284,-0.337C0.242,-0.337 0.205,-0.33 0.172,-0.301C0.136,-0.269 0.125,-0.24 0.125,-0.194L0.125,-0.152C0.125,-0.102 0.135,-0.067 0.175,-0.034C0.21,-0.005 0.241,-0 0.284,-0L0.376,-0C0.407,-0 0.408,-0 0.435,-0.014L0.501,-0.048C0.5,-0.021 0.525,-0 0.55,-0C0.582,-0 0.596,-0.028 0.595,-0.056L0.585,-0.382C0.584,-0.43 0.579,-0.459 0.542,-0.496C0.504,-0.534 0.468,-0.539 0.418,-0.539L0.286,-0.539C0.254,-0.539 0.22,-0.532 0.22,-0.491C0.22,-0.449 0.258,-0.443 0.286,-0.443L0.405,-0.443ZM0.427,-0.241C0.48,-0.241 0.495,-0.225 0.495,-0.172L0.495,-0.151L0.389,-0.096L0.283,-0.096C0.26,-0.096 0.221,-0.103 0.221,-0.135L0.221,-0.199C0.221,-0.234 0.259,-0.241 0.285,-0.241L0.427,-0.241Z" style="fill-rule:nonzero;"/>
                    </g>
                    <g transform="matrix(10,0,0,10,320.471,710.162)">
                        <path d="M0.318,-0.443L0.479,-0.443C0.507,-0.443 0.545,-0.449 0.545,-0.491C0.545,-0.532 0.511,-0.539 0.479,-0.539L0.318,-0.539L0.318,-0.637C0.318,-0.67 0.311,-0.703 0.27,-0.703C0.229,-0.703 0.222,-0.67 0.222,-0.637L0.222,-0.539L0.191,-0.539C0.159,-0.539 0.125,-0.532 0.125,-0.491C0.125,-0.449 0.163,-0.443 0.191,-0.443L0.222,-0.443L0.222,-0.182C0.222,-0.13 0.22,-0.089 0.257,-0.048C0.291,-0.011 0.333,-0 0.381,-0L0.43,-0C0.481,-0 0.527,-0.007 0.562,-0.049C0.578,-0.068 0.595,-0.102 0.595,-0.129C0.595,-0.156 0.573,-0.177 0.546,-0.177C0.522,-0.177 0.504,-0.161 0.498,-0.138C0.488,-0.099 0.47,-0.096 0.431,-0.096L0.382,-0.096C0.316,-0.096 0.318,-0.127 0.318,-0.181L0.318,-0.443Z" style="fill-rule:nonzero;"/>
                    </g>
                    <g transform="matrix(10,0,0,10,327.671,710.162)">
                        <path d="M0.529,-0C0.557,-0 0.595,-0.006 0.595,-0.048C0.595,-0.089 0.561,-0.096 0.529,-0.096L0.323,-0.096C0.291,-0.096 0.272,-0.1 0.259,-0.114L0.235,-0.14C0.228,-0.147 0.221,-0.159 0.221,-0.168L0.221,-0.2L0.529,-0.2C0.586,-0.2 0.595,-0.216 0.595,-0.271L0.595,-0.348C0.595,-0.401 0.589,-0.438 0.545,-0.473L0.506,-0.504C0.469,-0.534 0.447,-0.539 0.4,-0.539L0.312,-0.539C0.273,-0.539 0.251,-0.538 0.206,-0.499L0.172,-0.47C0.132,-0.436 0.125,-0.406 0.125,-0.355L0.125,-0.17C0.125,-0.118 0.136,-0.096 0.174,-0.062L0.215,-0.026C0.245,-0 0.261,-0 0.301,-0L0.529,-0ZM0.221,-0.364C0.221,-0.392 0.229,-0.399 0.241,-0.408L0.274,-0.432C0.29,-0.443 0.305,-0.443 0.323,-0.443L0.404,-0.443C0.419,-0.443 0.438,-0.442 0.45,-0.431L0.487,-0.399C0.5,-0.387 0.499,-0.372 0.499,-0.354L0.499,-0.296L0.221,-0.296L0.221,-0.364Z" style="fill-rule:nonzero;"/>
                    </g>
                    <g transform="matrix(10,0,0,10,291.671,722.162)">
                        <path d="M0.36,-0.602L0.238,-0.778L0.113,-0.778L0.113,-0.05C0.113,-0.018 0.127,-0 0.163,-0C0.199,-0 0.213,-0.018 0.213,-0.05L0.213,-0.64L0.215,-0.64L0.31,-0.499L0.31,-0.483C0.31,-0.452 0.324,-0.423 0.36,-0.423C0.398,-0.423 0.41,-0.452 0.41,-0.483L0.41,-0.499L0.505,-0.64L0.507,-0.64L0.507,-0.05C0.507,-0.018 0.521,-0 0.557,-0C0.593,-0 0.607,-0.018 0.607,-0.05L0.607,-0.778L0.482,-0.778L0.36,-0.602Z" style="fill-rule:nonzero;"/>
                    </g>
                    <g transform="matrix(10,0,0,10,298.871,722.162)">
                        <path d="M0.405,-0.443C0.474,-0.443 0.49,-0.431 0.49,-0.359L0.49,-0.337L0.284,-0.337C0.242,-0.337 0.205,-0.33 0.172,-0.301C0.136,-0.269 0.125,-0.24 0.125,-0.194L0.125,-0.152C0.125,-0.102 0.135,-0.067 0.175,-0.034C0.21,-0.005 0.241,-0 0.284,-0L0.376,-0C0.407,-0 0.408,-0 0.435,-0.014L0.501,-0.048C0.5,-0.021 0.525,-0 0.55,-0C0.582,-0 0.596,-0.028 0.595,-0.056L0.585,-0.382C0.584,-0.43 0.579,-0.459 0.542,-0.496C0.504,-0.534 0.468,-0.539 0.418,-0.539L0.286,-0.539C0.254,-0.539 0.22,-0.532 0.22,-0.491C0.22,-0.449 0.258,-0.443 0.286,-0.443L0.405,-0.443ZM0.427,-0.241C0.48,-0.241 0.495,-0.225 0.495,-0.172L0.495,-0.151L0.389,-0.096L0.283,-0.096C0.26,-0.096 0.221,-0.103 0.221,-0.135L0.221,-0.199C0.221,-0.234 0.259,-0.241 0.285,-0.241L0.427,-0.241Z" style="fill-rule:nonzero;"/>
                    </g>
                    <g transform="matrix(10,0,0,10,306.071,722.162)">
                        <path d="M0.125,-0.223C0.125,-0.164 0.136,-0.135 0.182,-0.097L0.253,-0.038C0.298,-0.001 0.321,-0 0.377,-0L0.529,-0C0.561,-0 0.595,-0.007 0.595,-0.048C0.595,-0.09 0.557,-0.096 0.529,-0.096L0.36,-0.096C0.341,-0.096 0.322,-0.106 0.305,-0.12L0.247,-0.169C0.232,-0.181 0.221,-0.191 0.221,-0.21L0.221,-0.329C0.221,-0.348 0.232,-0.358 0.247,-0.37L0.305,-0.419C0.322,-0.433 0.341,-0.443 0.36,-0.443L0.529,-0.443C0.557,-0.443 0.595,-0.449 0.595,-0.491C0.595,-0.532 0.561,-0.539 0.529,-0.539L0.377,-0.539C0.321,-0.539 0.298,-0.538 0.253,-0.501L0.182,-0.442C0.136,-0.404 0.125,-0.375 0.125,-0.316L0.125,-0.223Z" style="fill-rule:nonzero;"/>
                    </g>
                    <g transform="matrix(10,0,0,10,313.271,722.162)">
                        <path d="M0.437,-0.443C0.491,-0.443 0.488,-0.407 0.49,-0.361L0.5,-0.065C0.501,-0.033 0.509,-0 0.548,-0C0.591,-0 0.596,-0.038 0.595,-0.072L0.585,-0.374C0.583,-0.426 0.585,-0.467 0.542,-0.504C0.502,-0.539 0.468,-0.539 0.449,-0.539L0.385,-0.539C0.353,-0.539 0.324,-0.523 0.299,-0.507L0.221,-0.456L0.221,-0.671C0.221,-0.704 0.214,-0.737 0.173,-0.737C0.132,-0.737 0.125,-0.704 0.125,-0.671L0.125,-0.066C0.125,-0.033 0.132,-0 0.173,-0C0.214,-0 0.221,-0.033 0.221,-0.066L0.221,-0.345L0.363,-0.434C0.373,-0.44 0.383,-0.443 0.393,-0.443L0.437,-0.443Z" style="fill-rule:nonzero;"/>
                    </g>
                    <g transform="matrix(10,0,0,10,320.471,722.162)">
                        <path d="M0.41,-0.472C0.41,-0.529 0.394,-0.539 0.339,-0.539L0.238,-0.539C0.206,-0.539 0.172,-0.532 0.172,-0.491C0.172,-0.449 0.21,-0.443 0.238,-0.443L0.314,-0.443L0.314,-0.096L0.238,-0.096C0.206,-0.096 0.172,-0.089 0.172,-0.048C0.172,-0.006 0.21,-0 0.238,-0L0.482,-0C0.51,-0 0.548,-0.006 0.548,-0.048C0.548,-0.089 0.514,-0.096 0.482,-0.096L0.41,-0.096L0.41,-0.472ZM0.265,-0.687C0.265,-0.653 0.284,-0.642 0.31,-0.642L0.365,-0.642C0.391,-0.642 0.41,-0.653 0.41,-0.687L0.41,-0.733C0.41,-0.767 0.391,-0.778 0.365,-0.778L0.31,-0.778C0.284,-0.778 0.265,-0.767 0.265,-0.733L0.265,-0.687Z" style="fill-rule:nonzero;"/>
                    </g>
                    <g transform="matrix(10,0,0,10,327.671,722.162)">
                        <path d="M0.363,-0.434C0.373,-0.44 0.383,-0.443 0.393,-0.443L0.425,-0.443C0.483,-0.443 0.488,-0.42 0.49,-0.361L0.5,-0.065C0.501,-0.033 0.509,-0 0.548,-0C0.591,-0 0.596,-0.038 0.595,-0.072L0.585,-0.374C0.583,-0.426 0.585,-0.467 0.542,-0.504C0.513,-0.529 0.49,-0.539 0.453,-0.539L0.382,-0.539C0.351,-0.539 0.324,-0.523 0.299,-0.507L0.221,-0.456L0.221,-0.469C0.221,-0.503 0.216,-0.539 0.173,-0.539C0.129,-0.539 0.125,-0.503 0.125,-0.468L0.125,-0.066C0.125,-0.033 0.132,-0 0.173,-0C0.214,-0 0.221,-0.033 0.221,-0.066L0.221,-0.345L0.363,-0.434Z" style="fill-rule:nonzero;"/>
                    </g>
                    <g transform="matrix(10,0,0,10,334.871,722.162)">
                        <path d="M0.529,-0C0.557,-0 0.595,-0.006 0.595,-0.048C0.595,-0.089 0.561,-0.096 0.529,-0.096L0.323,-0.096C0.291,-0.096 0.272,-0.1 0.259,-0.114L0.235,-0.14C0.228,-0.147 0.221,-0.159 0.221,-0.168L0.221,-0.2L0.529,-0.2C0.586,-0.2 0.595,-0.216 0.595,-0.271L0.595,-0.348C0.595,-0.401 0.589,-0.438 0.545,-0.473L0.506,-0.504C0.469,-0.534 0.447,-0.539 0.4,-0.539L0.312,-0.539C0.273,-0.539 0.251,-0.538 0.206,-0.499L0.172,-0.47C0.132,-0.436 0.125,-0.406 0.125,-0.355L0.125,-0.17C0.125,-0.118 0.136,-0.096 0.174,-0.062L0.215,-0.026C0.245,-0 0.261,-0 0.301,-0L0.529,-0ZM0.221,-0.364C0.221,-0.392 0.229,-0.399 0.241,-0.408L0.274,-0.432C0.29,-0.443 0.305,-0.443 0.323,-0.443L0.404,-0.443C0.419,-0.443 0.438,-0.442 0.45,-0.431L0.487,-0.399C0.5,-0.387 0.499,-0.372 0.499,-0.354L0.499,-0.296L0.221,-0.296L0.221,-0.364Z" style="fill-rule:nonzero;"/>
                    </g>
                </g>
            </g>
        </g>
        <g id="short-side-2" serif:id="short side 2">
            <path id="short-side-21" serif:id="short side 2" d="M476.037,64.662L476.037,36.678L476.102,35.691L476.295,34.721L476.612,33.785L477.05,32.898L477.599,32.076L478.251,31.332L478.995,30.68L479.817,30.131L480.703,29.694L481.64,29.376L482.61,29.183L483.596,29.118L632.604,29.118L635.564,29.312L638.473,29.891L641.282,30.845L643.942,32.157L646.409,33.805L648.639,35.76L650.595,37.991L652.243,40.457L653.555,43.117L654.508,45.926L655.087,48.836L655.281,51.796L655.281,302.819L655.087,305.779L654.508,308.689L653.555,311.498L652.243,314.158L650.595,316.624L648.639,318.855L646.409,320.81L643.942,322.458L641.282,323.77L638.473,324.724L635.564,325.303L632.604,325.496L483.596,325.496L482.609,325.432L481.64,325.239L480.703,324.921L479.816,324.484L478.994,323.935L478.251,323.283L477.599,322.539L477.05,321.717L476.612,320.83L476.294,319.894L476.102,318.924L476.037,317.938L476.037,289.954C482.844,266.773 487.389,224.977 487.389,177.308C487.389,129.638 482.844,87.842 476.037,64.662ZM544.069,53.307L498.714,53.307L498.714,41.213L544.069,41.213L544.069,53.307ZM498.714,301.308L544.069,301.308L544.069,313.402L498.714,313.402L498.714,301.308ZM523.32,261.073C522.819,261.073 522.338,260.873 521.984,260.519C521.629,260.165 521.43,259.684 521.43,259.183C521.43,241.957 521.43,112.377 521.43,95.151C521.43,94.65 521.629,94.169 521.984,93.815C522.338,93.461 522.819,93.262 523.32,93.262C528.694,93.262 544.024,93.262 549.398,93.262C549.9,93.262 550.38,93.461 550.735,93.815C551.089,94.169 551.288,94.65 551.288,95.151C551.288,112.377 551.288,241.957 551.288,259.183C551.288,259.684 551.089,260.165 550.735,260.519C550.38,260.873 549.9,261.073 549.398,261.073C544.024,261.073 528.694,261.073 523.32,261.073ZM636.383,296.016L636.383,283.544L640.163,283.544L640.163,71.071L636.383,71.071L636.383,58.599L624.667,58.599L624.667,296.016L636.383,296.016Z" style="fill:none;stroke:black;stroke-width:1.33px;"/>
            <g>
                <path d="M567.997,247.615L569.958,247.615C570.166,247.615 570.357,247.503 570.357,247.215C570.357,246.927 570.166,246.816 569.958,246.816L567.198,246.816L567.198,250.327L569.558,250.327L569.558,252.24L567.71,252.24C567.582,252.24 567.398,252.127 567.286,252.079L567.046,251.975C566.958,251.935 566.886,251.911 566.79,251.911C566.582,251.911 566.406,252.103 566.406,252.311C566.406,252.591 566.646,252.663 566.862,252.759L567.166,252.895C567.366,252.983 567.486,253.039 567.694,253.039L569.47,253.039C569.758,253.039 569.966,253.007 570.166,252.767C570.333,252.567 570.357,252.391 570.357,252.143L570.357,250.431C570.357,250.151 570.333,249.959 570.11,249.751C569.918,249.567 569.726,249.528 569.47,249.528L567.997,249.528L567.997,247.615Z" style="fill-rule:nonzero;"/>
                <path d="M574.142,251.551L572.965,248.495L572.965,247.215C572.965,246.96 572.854,246.816 572.566,246.816C572.278,246.816 572.166,246.96 572.166,247.215L572.166,248.479C572.166,248.583 572.174,248.695 572.214,248.791L573.742,252.687C573.822,252.887 573.894,253.039 574.142,253.039C574.39,253.039 574.462,252.887 574.542,252.687L576.069,248.791C576.109,248.695 576.117,248.583 576.117,248.479L576.117,247.215C576.117,246.96 576.006,246.816 575.718,246.816C575.43,246.816 575.318,246.96 575.318,247.215L575.318,248.495L574.142,251.551Z" style="fill-rule:nonzero;"/>
                <path d="M569.558,234.393L569.558,235.721C569.558,236.17 569.382,236.306 569.158,236.306L567.59,236.306C567.382,236.306 567.19,236.418 567.19,236.705C567.19,236.993 567.382,237.105 567.59,237.105L569.158,237.105C569.382,237.105 569.558,237.241 569.558,237.689L569.558,239.018L566.806,239.018C566.598,239.018 566.406,239.13 566.406,239.417C566.406,239.705 566.598,239.817 566.806,239.817L569.558,239.817C570.014,239.817 570.357,239.473 570.357,239.018L570.357,237.481C570.357,237.161 570.293,236.929 570.046,236.705C570.293,236.481 570.357,236.25 570.357,235.93L570.357,234.393C570.357,233.937 570.014,233.594 569.558,233.594L566.806,233.594C566.598,233.594 566.406,233.706 566.406,233.993C566.406,234.281 566.598,234.393 566.806,234.393L569.558,234.393Z" style="fill-rule:nonzero;"/>
                <path d="M574.43,238.793C574.606,238.793 574.734,238.793 574.845,238.641C574.933,238.521 574.933,238.433 574.933,238.281L574.933,237.833C574.933,237.681 574.933,237.594 574.845,237.474C574.734,237.322 574.606,237.322 574.43,237.322L573.854,237.322C573.678,237.322 573.55,237.322 573.438,237.474C573.35,237.594 573.35,237.681 573.35,237.833L573.35,238.281C573.35,238.433 573.35,238.521 573.438,238.641C573.55,238.793 573.678,238.793 573.854,238.793L574.43,238.793Z" style="fill-rule:nonzero;"/>
                <path d="M581.078,234.393L581.078,235.721C581.078,236.17 580.902,236.306 580.678,236.306L579.11,236.306C578.902,236.306 578.71,236.418 578.71,236.705C578.71,236.993 578.902,237.105 579.11,237.105L580.678,237.105C580.902,237.105 581.078,237.241 581.078,237.689L581.078,239.018L578.326,239.018C578.118,239.018 577.926,239.13 577.926,239.417C577.926,239.705 578.118,239.817 578.326,239.817L581.078,239.817C581.534,239.817 581.877,239.473 581.877,239.018L581.877,237.481C581.877,237.161 581.813,236.929 581.566,236.705C581.813,236.481 581.877,236.25 581.877,235.93L581.877,234.393C581.877,233.937 581.534,233.594 581.078,233.594L578.326,233.594C578.118,233.594 577.926,233.706 577.926,233.993C577.926,234.281 578.118,234.393 578.326,234.393L581.078,234.393Z" style="fill-rule:nonzero;"/>
                <path d="M585.662,238.329L584.485,235.273L584.485,233.994C584.485,233.738 584.374,233.594 584.086,233.594C583.798,233.594 583.686,233.738 583.686,233.994L583.686,235.257C583.686,235.361 583.694,235.473 583.734,235.569L585.262,239.465C585.342,239.665 585.414,239.817 585.662,239.817C585.91,239.817 585.982,239.665 586.062,239.465L587.589,235.569C587.629,235.473 587.637,235.361 587.637,235.257L587.637,233.994C587.637,233.738 587.526,233.594 587.238,233.594C586.95,233.594 586.838,233.738 586.838,233.994L586.838,235.273L585.662,238.329Z" style="fill-rule:nonzero;"/>
                <path d="M569.558,221.171L569.558,222.5C569.558,222.948 569.382,223.084 569.158,223.084L567.59,223.084C567.382,223.084 567.19,223.196 567.19,223.483C567.19,223.771 567.382,223.883 567.59,223.883L569.158,223.883C569.382,223.883 569.558,224.019 569.558,224.467L569.558,225.796L566.806,225.796C566.598,225.796 566.406,225.908 566.406,226.195C566.406,226.483 566.598,226.595 566.806,226.595L569.558,226.595C570.014,226.595 570.357,226.251 570.357,225.796L570.357,224.259C570.357,223.939 570.293,223.707 570.046,223.483C570.293,223.26 570.357,223.028 570.357,222.708L570.357,221.171C570.357,220.715 570.014,220.372 569.558,220.372L566.806,220.372C566.598,220.372 566.406,220.484 566.406,220.771C566.406,221.059 566.598,221.171 566.806,221.171L569.558,221.171Z" style="fill-rule:nonzero;"/>
                <path d="M574.43,225.571C574.606,225.571 574.734,225.571 574.845,225.419C574.933,225.299 574.933,225.211 574.933,225.059L574.933,224.612C574.933,224.46 574.933,224.372 574.845,224.252C574.734,224.1 574.606,224.1 574.43,224.1L573.854,224.1C573.678,224.1 573.55,224.1 573.438,224.252C573.35,224.372 573.35,224.46 573.35,224.612L573.35,225.059C573.35,225.211 573.35,225.299 573.438,225.419C573.55,225.571 573.678,225.571 573.854,225.571L574.43,225.571Z" style="fill-rule:nonzero;"/>
                <path d="M581.078,221.171L581.078,222.5C581.078,222.948 580.902,223.084 580.678,223.084L579.11,223.084C578.902,223.084 578.71,223.196 578.71,223.483C578.71,223.771 578.902,223.883 579.11,223.883L580.678,223.883C580.902,223.883 581.078,224.019 581.078,224.467L581.078,225.796L578.326,225.796C578.118,225.796 577.926,225.908 577.926,226.195C577.926,226.483 578.118,226.595 578.326,226.595L581.078,226.595C581.534,226.595 581.877,226.251 581.877,225.796L581.877,224.259C581.877,223.939 581.813,223.707 581.566,223.483C581.813,223.26 581.877,223.028 581.877,222.708L581.877,221.171C581.877,220.715 581.534,220.372 581.078,220.372L578.326,220.372C578.118,220.372 577.926,220.484 577.926,220.771C577.926,221.059 578.118,221.171 578.326,221.171L581.078,221.171Z" style="fill-rule:nonzero;"/>
                <path d="M585.662,225.107L584.485,222.052L584.485,220.772C584.485,220.516 584.374,220.372 584.086,220.372C583.798,220.372 583.686,220.516 583.686,220.772L583.686,222.036C583.686,222.14 583.694,222.252 583.734,222.348L585.262,226.243C585.342,226.443 585.414,226.595 585.662,226.595C585.91,226.595 585.982,226.443 586.062,226.243L587.589,222.348C587.629,222.252 587.637,222.14 587.637,222.036L587.637,220.772C587.637,220.516 587.526,220.372 587.238,220.372C586.95,220.372 586.838,220.516 586.838,220.772L586.838,222.052L585.662,225.107Z" style="fill-rule:nonzero;"/>
                <path d="M569.558,211.341L569.558,212.158C569.558,212.51 569.318,212.574 569.03,212.574L567.758,212.574C567.301,212.574 567.205,212.438 567.205,211.998L567.205,210.43C567.205,210.038 567.205,209.702 567.453,209.39L568.326,208.277C568.59,207.941 568.558,207.949 568.998,207.949L569.958,207.949C570.166,207.949 570.357,207.837 570.357,207.55C570.357,207.262 570.166,207.15 569.958,207.15L568.886,207.15C568.366,207.15 568.086,207.286 567.766,207.693L566.822,208.901C566.518,209.294 566.406,209.558 566.406,210.07L566.406,212.07C566.406,212.47 566.462,212.766 566.782,213.053C567.062,213.309 567.333,213.373 567.702,213.373L569.078,213.373C569.838,213.373 570.357,212.894 570.357,212.118L570.357,210.542L568.782,210.542C568.574,210.542 568.382,210.654 568.382,210.942C568.382,211.229 568.574,211.341 568.782,211.341L569.558,211.341Z" style="fill-rule:nonzero;"/>
                <path d="M575.318,212.005L575.302,212.005L575.31,212.005L573.222,207.15L572.166,207.15L572.166,212.973C572.166,213.229 572.278,213.373 572.566,213.373C572.854,213.373 572.965,213.229 572.965,212.973L572.965,208.574L572.981,208.574L572.981,208.582L575.07,213.381L576.125,213.381L576.125,207.558C576.125,207.302 576.014,207.158 575.726,207.158C575.438,207.158 575.326,207.302 575.326,207.558L575.318,212.005Z" style="fill-rule:nonzero;"/>
                <path d="M578.71,212.574L578.326,212.574C578.118,212.574 577.926,212.686 577.926,212.974C577.926,213.261 578.118,213.373 578.326,213.373L579.653,213.373C580.278,213.373 580.638,213.189 580.918,212.622L581.646,211.166C581.79,210.878 581.877,210.606 581.877,210.286C581.877,209.917 581.797,209.685 581.638,209.357L580.934,207.949C580.662,207.406 580.35,207.15 579.726,207.15L578.39,207.15C578.142,207.15 577.926,207.262 577.926,207.55C577.926,207.853 578.15,207.949 578.414,207.949L578.71,207.949L578.71,212.574ZM579.509,207.949L579.605,207.949C579.974,207.949 580.046,207.941 580.214,208.285L580.878,209.637C580.99,209.869 581.078,210.022 581.078,210.294C581.078,210.494 581.014,210.63 580.926,210.814L580.222,212.238C580.078,212.534 579.998,212.574 579.661,212.574L579.509,212.574L579.509,207.949Z" style="fill-rule:nonzero;"/>
                <path d="M568.781,194.727L569.957,194.727C570.165,194.727 570.357,194.615 570.357,194.328C570.357,194.04 570.165,193.928 569.957,193.928L566.806,193.928C566.598,193.928 566.406,194.04 566.406,194.328C566.406,194.615 566.598,194.727 566.806,194.727L567.982,194.727L567.982,199.352L566.806,199.352C566.598,199.352 566.406,199.464 566.406,199.752C566.406,200.039 566.598,200.151 566.806,200.151L569.957,200.151C570.165,200.151 570.357,200.039 570.357,199.752C570.357,199.464 570.165,199.352 569.957,199.352L568.781,199.352L568.781,194.727Z" style="fill-rule:nonzero;"/>
                <path d="M575.11,194.583C574.918,194.208 574.59,193.928 574.142,193.928C573.694,193.928 573.366,194.208 573.173,194.583L572.374,196.176C572.222,196.488 572.166,196.72 572.166,197.064C572.166,197.448 572.27,197.688 572.43,198.016L573.165,199.488C573.358,199.872 573.678,200.151 574.142,200.151C574.606,200.151 574.926,199.872 575.118,199.488L575.854,198.016C576.014,197.688 576.117,197.448 576.117,197.064C576.117,196.72 576.061,196.488 575.91,196.176L575.11,194.583ZM575.134,196.416C575.254,196.648 575.318,196.8 575.318,197.064C575.318,197.272 575.27,197.416 575.182,197.592L574.414,199.112C574.358,199.224 574.302,199.352 574.142,199.352C573.982,199.352 573.926,199.224 573.87,199.112L573.101,197.592C573.013,197.416 572.965,197.272 572.965,197.064C572.965,196.8 573.029,196.648 573.149,196.416L573.87,194.967C573.934,194.839 573.974,194.727 574.142,194.727C574.31,194.727 574.35,194.839 574.414,194.967L575.134,196.416Z" style="fill-rule:nonzero;"/>
                <path d="M578.725,194.727C578.957,194.727 579.126,194.567 579.126,194.328C579.126,194.12 578.957,193.928 578.749,193.928L578.27,193.928C577.99,193.928 577.926,194.144 577.926,194.328L577.926,199.648C577.926,200.015 578.07,200.151 578.446,200.151L581.358,200.151C581.718,200.151 581.877,200.023 581.877,199.648L581.877,197.856C581.877,197.488 581.797,197.32 581.398,197.32L578.725,197.32L578.725,194.727ZM581.078,198.119L581.078,199.352L578.725,199.352L578.725,198.119L581.078,198.119Z" style="fill-rule:nonzero;"/>
                <path d="M568.781,181.505L569.957,181.505C570.165,181.505 570.357,181.394 570.357,181.106C570.357,180.818 570.165,180.706 569.957,180.706L566.806,180.706C566.598,180.706 566.406,180.818 566.406,181.106C566.406,181.394 566.598,181.505 566.806,181.505L567.982,181.505L567.982,186.13L566.806,186.13C566.598,186.13 566.406,186.242 566.406,186.53C566.406,186.818 566.598,186.929 566.806,186.929L569.957,186.929C570.165,186.929 570.357,186.818 570.357,186.53C570.357,186.242 570.165,186.13 569.957,186.13L568.781,186.13L568.781,181.505Z" style="fill-rule:nonzero;"/>
                <path d="M575.11,181.362C574.918,180.986 574.59,180.706 574.142,180.706C573.694,180.706 573.366,180.986 573.173,181.362L572.374,182.954C572.222,183.266 572.166,183.498 572.166,183.842C572.166,184.226 572.27,184.466 572.43,184.794L573.165,186.266C573.358,186.65 573.678,186.929 574.142,186.929C574.606,186.929 574.926,186.65 575.118,186.266L575.854,184.794C576.014,184.466 576.117,184.226 576.117,183.842C576.117,183.498 576.061,183.266 575.91,182.954L575.11,181.362ZM575.134,183.194C575.254,183.426 575.318,183.578 575.318,183.842C575.318,184.05 575.27,184.194 575.182,184.37L574.414,185.89C574.358,186.002 574.302,186.13 574.142,186.13C573.982,186.13 573.926,186.002 573.87,185.89L573.101,184.37C573.013,184.194 572.965,184.05 572.965,183.842C572.965,183.578 573.029,183.426 573.149,183.194L573.87,181.745C573.934,181.617 573.974,181.505 574.142,181.505C574.31,181.505 574.35,181.617 574.414,181.745L575.134,183.194Z" style="fill-rule:nonzero;"/>
                <path d="M579.517,181.505L581.478,181.505C581.686,181.505 581.877,181.394 581.877,181.106C581.877,180.818 581.686,180.706 581.478,180.706L578.718,180.706L578.718,184.217L581.078,184.217L581.078,186.13L579.23,186.13C579.102,186.13 578.918,186.018 578.806,185.97L578.566,185.866C578.478,185.826 578.406,185.802 578.31,185.802C578.102,185.802 577.926,185.994 577.926,186.202C577.926,186.482 578.166,186.554 578.382,186.65L578.686,186.786C578.886,186.873 579.006,186.929 579.214,186.929L580.99,186.929C581.278,186.929 581.486,186.897 581.686,186.658C581.853,186.458 581.877,186.282 581.877,186.034L581.877,184.321C581.877,184.042 581.853,183.85 581.63,183.642C581.438,183.458 581.246,183.418 580.99,183.418L579.517,183.418L579.517,181.505Z" style="fill-rule:nonzero;"/>
                <path d="M569.558,171.676L569.558,172.492C569.558,172.845 569.318,172.909 569.03,172.909L567.758,172.909C567.301,172.909 567.205,172.773 567.205,172.332L567.205,170.765C567.205,170.372 567.205,170.036 567.453,169.724L568.326,168.612C568.59,168.276 568.558,168.284 568.998,168.284L569.958,168.284C570.166,168.284 570.357,168.172 570.357,167.884C570.357,167.596 570.166,167.485 569.958,167.485L568.886,167.485C568.366,167.485 568.086,167.62 567.766,168.028L566.822,169.236C566.518,169.628 566.406,169.892 566.406,170.404L566.406,172.404C566.406,172.805 566.462,173.1 566.782,173.388C567.062,173.644 567.333,173.708 567.702,173.708L569.078,173.708C569.838,173.708 570.357,173.228 570.357,172.452L570.357,170.877L568.782,170.877C568.574,170.877 568.382,170.988 568.382,171.276C568.382,171.564 568.574,171.676 568.782,171.676L569.558,171.676Z" style="fill-rule:nonzero;"/>
                <path d="M575.318,172.34L575.302,172.34L575.31,172.34L573.222,167.485L572.166,167.485L572.166,173.308C572.166,173.564 572.278,173.708 572.566,173.708C572.854,173.708 572.965,173.564 572.965,173.308L572.965,168.908L572.981,168.908L572.981,168.916L575.07,173.716L576.125,173.716L576.125,167.893C576.125,167.637 576.014,167.493 575.726,167.493C575.438,167.493 575.326,167.637 575.326,167.893L575.318,172.34Z" style="fill-rule:nonzero;"/>
                <path d="M578.71,172.909L578.326,172.909C578.118,172.909 577.926,173.02 577.926,173.308C577.926,173.596 578.118,173.708 578.326,173.708L579.653,173.708C580.278,173.708 580.638,173.524 580.918,172.957L581.646,171.5C581.79,171.212 581.877,170.94 581.877,170.62C581.877,170.252 581.797,170.02 581.638,169.692L580.934,168.284C580.662,167.74 580.35,167.485 579.726,167.485L578.39,167.485C578.142,167.485 577.926,167.596 577.926,167.884C577.926,168.188 578.15,168.284 578.414,168.284L578.71,168.284L578.71,172.909ZM579.509,168.284L579.605,168.284C579.974,168.284 580.046,168.276 580.214,168.62L580.878,169.972C580.99,170.204 581.078,170.356 581.078,170.628C581.078,170.828 581.014,170.964 580.926,171.148L580.222,172.573C580.078,172.869 579.998,172.909 579.661,172.909L579.509,172.909L579.509,168.284Z" style="fill-rule:nonzero;"/>
                <path d="M568.781,155.062L569.957,155.062C570.165,155.062 570.357,154.95 570.357,154.662C570.357,154.375 570.165,154.263 569.957,154.263L566.806,154.263C566.598,154.263 566.406,154.375 566.406,154.662C566.406,154.95 566.598,155.062 566.806,155.062L567.982,155.062L567.982,159.687L566.806,159.687C566.598,159.687 566.406,159.799 566.406,160.086C566.406,160.374 566.598,160.486 566.806,160.486L569.957,160.486C570.165,160.486 570.357,160.374 570.357,160.086C570.357,159.799 570.165,159.687 569.957,159.687L568.781,159.687L568.781,155.062Z" style="fill-rule:nonzero;"/>
                <path d="M575.11,154.918C574.918,154.542 574.59,154.263 574.142,154.263C573.694,154.263 573.366,154.542 573.173,154.918L572.374,156.51C572.222,156.822 572.166,157.054 572.166,157.398C572.166,157.782 572.27,158.022 572.43,158.351L573.165,159.823C573.358,160.206 573.678,160.486 574.142,160.486C574.606,160.486 574.926,160.206 575.118,159.823L575.854,158.351C576.014,158.022 576.117,157.782 576.117,157.398C576.117,157.054 576.061,156.822 575.91,156.51L575.11,154.918ZM575.134,156.75C575.254,156.982 575.318,157.134 575.318,157.398C575.318,157.606 575.27,157.75 575.182,157.926L574.414,159.447C574.358,159.559 574.302,159.687 574.142,159.687C573.982,159.687 573.926,159.559 573.87,159.447L573.101,157.926C573.013,157.75 572.965,157.606 572.965,157.398C572.965,157.134 573.029,156.982 573.149,156.75L573.87,155.302C573.934,155.174 573.974,155.062 574.142,155.062C574.31,155.062 574.35,155.174 574.414,155.302L575.134,156.75Z" style="fill-rule:nonzero;"/>
                <path d="M579.125,157.655L579.125,154.663C579.125,154.463 579.03,154.263 578.726,154.263C578.422,154.263 578.326,154.463 578.326,154.663L578.326,158.454L580.678,158.454L580.678,160.086C580.678,160.342 580.79,160.486 581.078,160.486C581.366,160.486 581.477,160.342 581.477,160.086L581.477,158.454C581.685,158.454 581.877,158.342 581.877,158.054C581.877,157.767 581.685,157.655 581.477,157.655L581.477,155.343C581.477,155.143 581.382,154.943 581.078,154.943C580.774,154.943 580.678,155.143 580.678,155.343L580.678,157.655L579.125,157.655Z" style="fill-rule:nonzero;"/>
                <path d="M568.781,141.84L569.957,141.84C570.165,141.84 570.357,141.728 570.357,141.44C570.357,141.153 570.165,141.041 569.957,141.041L566.806,141.041C566.598,141.041 566.406,141.153 566.406,141.44C566.406,141.728 566.598,141.84 566.806,141.84L567.982,141.84L567.982,146.465L566.806,146.465C566.598,146.465 566.406,146.577 566.406,146.864C566.406,147.152 566.598,147.264 566.806,147.264L569.957,147.264C570.165,147.264 570.357,147.152 570.357,146.864C570.357,146.577 570.165,146.465 569.957,146.465L568.781,146.465L568.781,141.84Z" style="fill-rule:nonzero;"/>
                <path d="M575.11,141.696C574.918,141.321 574.59,141.041 574.142,141.041C573.694,141.041 573.366,141.321 573.173,141.696L572.374,143.288C572.222,143.6 572.166,143.832 572.166,144.176C572.166,144.561 572.27,144.801 572.43,145.129L573.165,146.601C573.358,146.984 573.678,147.264 574.142,147.264C574.606,147.264 574.926,146.984 575.118,146.601L575.854,145.129C576.014,144.801 576.117,144.561 576.117,144.176C576.117,143.832 576.061,143.6 575.91,143.288L575.11,141.696ZM575.134,143.528C575.254,143.76 575.318,143.912 575.318,144.176C575.318,144.385 575.27,144.529 575.182,144.705L574.414,146.225C574.358,146.337 574.302,146.465 574.142,146.465C573.982,146.465 573.926,146.337 573.87,146.225L573.101,144.705C573.013,144.529 572.965,144.385 572.965,144.176C572.965,143.912 573.029,143.76 573.149,143.528L573.87,142.08C573.934,141.952 573.974,141.84 574.142,141.84C574.31,141.84 574.35,141.952 574.414,142.08L575.134,143.528Z" style="fill-rule:nonzero;"/>
                <path d="M581.078,141.84L581.078,143.169C581.078,143.617 580.902,143.753 580.678,143.753L579.11,143.753C578.902,143.753 578.71,143.865 578.71,144.152C578.71,144.44 578.902,144.552 579.11,144.552L580.678,144.552C580.902,144.552 581.078,144.688 581.078,145.136L581.078,146.465L578.326,146.465C578.118,146.465 577.926,146.577 577.926,146.864C577.926,147.152 578.118,147.264 578.326,147.264L581.078,147.264C581.534,147.264 581.877,146.92 581.877,146.465L581.877,144.928C581.877,144.608 581.813,144.376 581.566,144.152C581.813,143.929 581.877,143.697 581.877,143.377L581.877,141.84C581.877,141.385 581.534,141.041 581.078,141.041L578.326,141.041C578.118,141.041 577.926,141.153 577.926,141.44C577.926,141.728 578.118,141.84 578.326,141.84L581.078,141.84Z" style="fill-rule:nonzero;"/>
                <path d="M569.558,132.01L569.558,132.827C569.558,133.179 569.318,133.243 569.03,133.243L567.758,133.243C567.301,133.243 567.205,133.107 567.205,132.667L567.205,131.099C567.205,130.707 567.205,130.371 567.453,130.059L568.326,128.946C568.59,128.61 568.558,128.618 568.998,128.618L569.958,128.618C570.166,128.618 570.357,128.506 570.357,128.219C570.357,127.931 570.166,127.819 569.958,127.819L568.886,127.819C568.366,127.819 568.086,127.955 567.766,128.362L566.822,129.571C566.518,129.963 566.406,130.227 566.406,130.739L566.406,132.739C566.406,133.139 566.462,133.435 566.782,133.723C567.062,133.978 567.333,134.042 567.702,134.042L569.078,134.042C569.838,134.042 570.357,133.563 570.357,132.787L570.357,131.211L568.782,131.211C568.574,131.211 568.382,131.323 568.382,131.611C568.382,131.898 568.574,132.01 568.782,132.01L569.558,132.01Z" style="fill-rule:nonzero;"/>
                <path d="M575.318,132.674L575.302,132.674L575.31,132.674L573.222,127.819L572.166,127.819L572.166,133.642C572.166,133.898 572.278,134.042 572.566,134.042C572.854,134.042 572.965,133.898 572.965,133.642L572.965,129.243L572.981,129.243L572.981,129.251L575.07,134.05L576.125,134.05L576.125,128.227C576.125,127.971 576.014,127.827 575.726,127.827C575.438,127.827 575.326,127.971 575.326,128.227L575.318,132.674Z" style="fill-rule:nonzero;"/>
                <path d="M578.71,133.243L578.326,133.243C578.118,133.243 577.926,133.355 577.926,133.643C577.926,133.93 578.118,134.042 578.326,134.042L579.653,134.042C580.278,134.042 580.638,133.858 580.918,133.291L581.646,131.835C581.79,131.547 581.877,131.275 581.877,130.955C581.877,130.587 581.797,130.355 581.638,130.026L580.934,128.618C580.662,128.075 580.35,127.819 579.726,127.819L578.39,127.819C578.142,127.819 577.926,127.931 577.926,128.219C577.926,128.522 578.15,128.618 578.414,128.618L578.71,128.618L578.71,133.243ZM579.509,128.618L579.605,128.618C579.974,128.618 580.046,128.61 580.214,128.954L580.878,130.307C580.99,130.539 581.078,130.691 581.078,130.963C581.078,131.163 581.014,131.299 580.926,131.483L580.222,132.907C580.078,133.203 579.998,133.243 579.661,133.243L579.509,133.243L579.509,128.618Z" style="fill-rule:nonzero;"/>
                <path d="M568.781,115.396L569.957,115.396C570.165,115.396 570.357,115.284 570.357,114.997C570.357,114.709 570.165,114.597 569.957,114.597L566.806,114.597C566.598,114.597 566.406,114.709 566.406,114.997C566.406,115.284 566.598,115.396 566.806,115.396L567.982,115.396L567.982,120.021L566.806,120.021C566.598,120.021 566.406,120.133 566.406,120.421C566.406,120.708 566.598,120.82 566.806,120.82L569.957,120.82C570.165,120.82 570.357,120.708 570.357,120.421C570.357,120.133 570.165,120.021 569.957,120.021L568.781,120.021L568.781,115.396Z" style="fill-rule:nonzero;"/>
                <path d="M575.11,115.253C574.918,114.877 574.59,114.597 574.142,114.597C573.694,114.597 573.366,114.877 573.173,115.253L572.374,116.845C572.222,117.157 572.166,117.389 572.166,117.733C572.166,118.117 572.27,118.357 572.43,118.685L573.165,120.157C573.358,120.541 573.678,120.82 574.142,120.82C574.606,120.82 574.926,120.541 575.118,120.157L575.854,118.685C576.014,118.357 576.117,118.117 576.117,117.733C576.117,117.389 576.061,117.157 575.91,116.845L575.11,115.253ZM575.134,117.085C575.254,117.317 575.318,117.469 575.318,117.733C575.318,117.941 575.27,118.085 575.182,118.261L574.414,119.781C574.358,119.893 574.302,120.021 574.142,120.021C573.982,120.021 573.926,119.893 573.87,119.781L573.101,118.261C573.013,118.085 572.965,117.941 572.965,117.733C572.965,117.469 573.029,117.317 573.149,117.085L573.87,115.636C573.934,115.508 573.974,115.396 574.142,115.396C574.31,115.396 574.35,115.508 574.414,115.636L575.134,117.085Z" style="fill-rule:nonzero;"/>
                <path d="M578.725,118.108L580.982,118.108C581.246,118.108 581.43,118.068 581.63,117.885C581.853,117.677 581.877,117.461 581.877,117.173L581.877,115.532C581.877,115.245 581.853,115.029 581.63,114.821C581.43,114.637 581.246,114.597 580.982,114.597L578.326,114.597C578.118,114.597 577.926,114.709 577.926,114.997C577.926,115.284 578.118,115.396 578.326,115.396L581.078,115.396L581.078,117.309L578.829,117.309C578.23,117.309 577.926,117.613 577.926,118.212L577.926,120.82L581.478,120.82C581.686,120.82 581.877,120.708 581.877,120.421C581.877,120.133 581.686,120.021 581.478,120.021L578.725,120.021L578.725,118.108Z" style="fill-rule:nonzero;"/>
                <path d="M568.781,102.175L569.957,102.175C570.165,102.175 570.357,102.063 570.357,101.775C570.357,101.487 570.165,101.376 569.957,101.376L566.806,101.376C566.598,101.376 566.406,101.487 566.406,101.775C566.406,102.063 566.598,102.175 566.806,102.175L567.982,102.175L567.982,106.8L566.806,106.8C566.598,106.8 566.406,106.911 566.406,107.199C566.406,107.487 566.598,107.599 566.806,107.599L569.957,107.599C570.165,107.599 570.357,107.487 570.357,107.199C570.357,106.911 570.165,106.8 569.957,106.8L568.781,106.8L568.781,102.175Z" style="fill-rule:nonzero;"/>
                <path d="M575.11,102.031C574.918,101.655 574.59,101.376 574.142,101.376C573.694,101.376 573.366,101.655 573.173,102.031L572.374,103.623C572.222,103.935 572.166,104.167 572.166,104.511C572.166,104.895 572.27,105.135 572.43,105.463L573.165,106.935C573.358,107.319 573.678,107.599 574.142,107.599C574.606,107.599 574.926,107.319 575.118,106.935L575.854,105.463C576.014,105.135 576.117,104.895 576.117,104.511C576.117,104.167 576.061,103.935 575.91,103.623L575.11,102.031ZM575.134,103.863C575.254,104.095 575.318,104.247 575.318,104.511C575.318,104.719 575.27,104.863 575.182,105.039L574.414,106.559C574.358,106.671 574.302,106.8 574.142,106.8C573.982,106.8 573.926,106.671 573.87,106.559L573.101,105.039C573.013,104.863 572.965,104.719 572.965,104.511C572.965,104.247 573.029,104.095 573.149,103.863L573.87,102.415C573.934,102.287 573.974,102.175 574.142,102.175C574.31,102.175 574.35,102.287 574.414,102.415L575.134,103.863Z" style="fill-rule:nonzero;"/>
                <path d="M580.301,106.8L580.301,101.376L578.326,101.376C578.118,101.376 577.926,101.487 577.926,101.775C577.926,102.063 578.118,102.175 578.326,102.175L579.502,102.175L579.502,106.8L578.326,106.8C578.118,106.8 577.926,106.911 577.926,107.199C577.926,107.487 578.118,107.599 578.326,107.599L581.478,107.599C581.686,107.599 581.877,107.487 581.877,107.199L581.877,105.183C581.877,104.951 581.774,104.783 581.478,104.783C581.182,104.783 581.078,104.951 581.078,105.183L581.078,106.8L580.301,106.8Z" style="fill-rule:nonzero;"/>
            </g>
        </g>
        <path id="short-side-1" serif:id="short side 1" d="M179.618,289.953L179.618,317.937L179.553,318.924L179.361,319.894L179.043,320.83L178.605,321.717L178.056,322.539L177.404,323.282L176.661,323.934L175.839,324.484L174.952,324.921L174.016,325.239L173.046,325.432L172.059,325.496L23.344,325.496L20.384,325.302L17.474,324.724L14.666,323.77L12.005,322.458L9.539,320.81L7.309,318.855L5.353,316.624L3.705,314.158L2.393,311.498L1.439,308.689L0.861,305.779L0.667,302.819L0.667,51.795L0.861,48.836L1.439,45.926L2.393,43.117L3.705,40.457L5.353,37.991L7.309,35.76L9.539,33.805L12.005,32.157L14.666,30.845L17.475,29.891L20.384,29.312L23.344,29.118L172.059,29.118L173.046,29.183L174.016,29.376L174.952,29.694L175.839,30.131L176.661,30.68L177.404,31.332L178.056,32.076L178.606,32.898L179.043,33.785L179.361,34.721L179.554,35.691L179.618,36.677L179.618,64.661C172.812,87.842 168.266,129.638 168.266,177.307C168.266,224.976 172.812,266.773 179.618,289.953ZM111.587,301.308L156.941,301.308L156.941,313.402L111.587,313.402L111.587,301.308ZM19.564,58.599L19.564,71.071L15.785,71.071L15.785,283.544L19.564,283.544L19.564,296.016L31.281,296.016L31.281,58.599L19.564,58.599ZM96.953,286.807C96.953,284.721 95.26,283.027 93.174,283.027L50.178,283.027C48.093,283.027 46.399,284.721 46.399,286.807C46.399,288.893 48.093,290.586 50.178,290.586L93.174,290.586C95.26,290.586 96.953,288.893 96.953,286.807ZM92.88,268.557C92.88,266.471 91.186,264.777 89.1,264.777L50.178,264.777C48.093,264.777 46.399,266.471 46.399,268.557C46.399,270.643 48.093,272.336 50.178,272.336L89.1,272.336C91.186,272.336 92.88,270.643 92.88,268.557ZM90.217,250.307C90.217,248.221 88.523,246.528 86.437,246.528L50.178,246.528C48.093,246.528 46.399,248.221 46.399,250.307C46.399,252.393 48.093,254.087 50.178,254.087L86.437,254.087C88.523,254.087 90.217,252.393 90.217,250.307ZM88.497,232.057C88.497,229.971 86.803,228.278 84.717,228.278L50.178,228.278C48.093,228.278 46.399,229.971 46.399,232.057C46.399,234.143 48.093,235.837 50.178,235.837L84.717,235.837C86.803,235.837 88.497,234.143 88.497,232.057ZM87.279,213.807C87.279,211.721 85.585,210.028 83.499,210.028L50.178,210.028C48.093,210.028 46.399,211.721 46.399,213.807C46.399,215.893 48.093,217.587 50.178,217.587L83.499,217.587C85.585,217.587 87.279,215.893 87.279,213.807ZM86.533,195.557C86.533,193.471 84.839,191.778 82.753,191.778L50.178,191.778C48.093,191.778 46.399,193.471 46.399,195.557C46.399,197.643 48.093,199.337 50.178,199.337L82.753,199.337C84.839,199.337 86.533,197.643 86.533,195.557ZM86.252,177.307C86.252,175.221 84.558,173.528 82.472,173.528L50.178,173.528C48.093,173.528 46.399,175.221 46.399,177.307C46.399,179.393 48.093,181.087 50.178,181.087L82.472,181.087C84.558,181.087 86.252,179.393 86.252,177.307ZM86.533,159.058C86.533,156.972 84.839,155.278 82.753,155.278L50.178,155.278C48.093,155.278 46.399,156.972 46.399,159.058C46.399,161.144 48.093,162.837 50.178,162.837L82.753,162.837C84.839,162.837 86.533,161.144 86.533,159.058ZM87.279,140.808C87.279,138.722 85.585,137.028 83.499,137.028L50.178,137.028C48.093,137.028 46.399,138.722 46.399,140.808C46.399,142.894 48.093,144.587 50.178,144.587L83.499,144.587C85.585,144.587 87.279,142.894 87.279,140.808ZM88.497,122.558C88.497,120.472 86.803,118.778 84.717,118.778L50.178,118.778C48.093,118.778 46.399,120.472 46.399,122.558C46.399,124.644 48.093,126.337 50.178,126.337L84.717,126.337C86.803,126.337 88.497,124.644 88.497,122.558ZM90.217,104.308C90.217,102.222 88.523,100.528 86.437,100.528L50.178,100.528C48.093,100.528 46.399,102.222 46.399,104.308C46.399,106.394 48.093,108.087 50.178,108.087L86.437,108.087C88.523,108.087 90.217,106.394 90.217,104.308ZM92.88,86.058C92.88,83.972 91.186,82.278 89.1,82.278L50.178,82.278C48.093,82.278 46.399,83.972 46.399,86.058C46.399,88.144 48.093,89.838 50.178,89.838L89.1,89.838C91.186,89.838 92.88,88.144 92.88,86.058ZM96.953,67.808C96.953,65.722 95.26,64.029 93.174,64.029L50.178,64.029C48.093,64.029 46.399,65.722 46.399,67.808C46.399,69.894 48.093,71.588 50.178,71.588L93.174,71.588C95.26,71.588 96.953,69.894 96.953,67.808ZM156.941,53.307L111.587,53.307L111.587,41.213L156.941,41.213L156.941,53.307Z" style="fill:none;stroke:black;stroke-width:1.33px;"/>
        <path id="bottom" d="M451.848,698.915L203.807,698.915L203.807,623.576L192.469,623.576L192.469,585.781L203.807,585.781L203.807,487.765L192.469,487.765L192.469,449.969L203.807,449.969L203.807,374.632L451.848,374.632L451.848,449.969L463.187,449.969L463.187,487.765L451.848,487.765L451.848,585.781L463.187,585.781L463.187,623.576L451.848,623.576L451.848,698.915ZM425.221,678.371C425.221,675.033 427.931,672.323 431.269,672.323C434.606,672.323 437.316,675.033 437.316,678.371C437.316,681.708 434.606,684.418 431.269,684.418C427.931,684.418 425.221,681.708 425.221,678.371ZM218.821,678.371C218.821,675.033 221.531,672.323 224.869,672.323C228.206,672.323 230.916,675.033 230.916,678.371C230.916,681.708 228.206,684.418 224.869,684.418C221.531,684.418 218.821,681.708 218.821,678.371ZM350.505,591.577C350.505,587.405 347.118,584.018 342.946,584.018C338.774,584.018 335.387,587.405 335.387,591.577L335.387,648.27C335.387,652.442 338.774,655.829 342.946,655.829C347.118,655.829 350.505,652.442 350.505,648.27L350.505,591.577ZM320.269,591.577C320.269,587.405 316.881,584.018 312.71,584.018C308.538,584.018 305.15,587.405 305.15,591.577L305.15,648.27C305.15,652.442 308.538,655.829 312.71,655.829C316.881,655.829 320.269,652.442 320.269,648.27L320.269,591.577ZM395.859,508.299C395.859,504.127 392.472,500.74 388.3,500.74C384.128,500.74 380.741,504.127 380.741,508.299L380.741,564.992C380.741,569.164 384.128,572.551 388.3,572.551C392.472,572.551 395.859,569.164 395.859,564.992L395.859,508.299ZM365.623,508.299C365.623,504.127 362.236,500.74 358.064,500.74C353.892,500.74 350.505,504.127 350.505,508.299L350.505,564.992C350.505,569.164 353.892,572.551 358.064,572.551C362.236,572.551 365.623,569.164 365.623,564.992L365.623,508.299ZM335.387,508.299C335.387,504.127 332,500.74 327.828,500.74C323.656,500.74 320.269,504.127 320.269,508.299L320.269,564.992C320.269,569.164 323.656,572.551 327.828,572.551C332,572.551 335.387,569.164 335.387,564.992L335.387,508.299ZM274.914,508.299C274.914,504.127 271.527,500.74 267.355,500.74C263.183,500.74 259.796,504.127 259.796,508.299L259.796,564.992C259.796,569.164 263.183,572.551 267.355,572.551C271.527,572.551 274.914,569.164 274.914,564.992L274.914,508.299ZM305.15,508.299C305.15,504.127 301.763,500.74 297.591,500.74C293.419,500.74 290.032,504.127 290.032,508.299L290.032,564.992C290.032,569.164 293.419,572.551 297.591,572.551C301.763,572.551 305.15,569.164 305.15,564.992L305.15,508.299ZM350.505,425.277C350.505,421.106 347.118,417.718 342.946,417.718C338.774,417.718 335.387,421.106 335.387,425.277L335.387,481.97C335.387,486.142 338.774,489.529 342.946,489.529C347.118,489.529 350.505,486.142 350.505,481.97L350.505,425.277ZM320.269,425.277C320.269,421.106 316.881,417.718 312.71,417.718C308.538,417.718 305.15,421.106 305.15,425.277L305.15,481.97C305.15,486.142 308.538,489.529 312.71,489.529C316.881,489.529 320.269,486.142 320.269,481.97L320.269,425.277ZM425.221,395.171C425.221,391.833 427.931,389.123 431.269,389.123C434.606,389.123 437.316,391.833 437.316,395.171C437.316,398.508 434.606,401.218 431.269,401.218C427.931,401.218 425.221,398.508 425.221,395.171ZM218.821,395.171C218.821,391.833 221.531,389.123 224.869,389.123C228.206,389.123 230.916,391.833 230.916,395.171C230.916,398.508 228.206,401.218 224.869,401.218C221.531,401.218 218.821,398.508 218.821,395.171Z" style="fill:none;stroke:black;stroke-width:1.33px;stroke-miterlimit:1.5;"/>
        <g id="top">
            <path id="face0-cut-3" d="M214.766,0.667L214.273,0.701L213.788,0.797L213.32,0.956L212.876,1.175L212.465,1.45L212.093,1.776L211.768,2.148L211.493,2.559L211.274,3.002L211.115,3.47L211.018,3.955L210.988,4.448L210.988,12.007L222.327,12.007L222.327,23.346L189.624,23.346L179.618,136.732L179.618,234.56L189.624,347.946L222.327,347.946L222.327,359.285L210.988,359.285L210.988,366.844L211.022,367.337L211.119,367.822L211.278,368.29L211.497,368.734L211.771,369.145L212.097,369.516L212.469,369.842L212.88,370.117L213.323,370.336L213.792,370.494L214.277,370.591L214.768,370.625L440.886,370.625L441.379,370.591L441.864,370.494L442.332,370.336L442.776,370.117L443.187,369.842L443.558,369.516L443.884,369.145L444.159,368.734L444.378,368.29L444.537,367.822L444.633,367.337L444.667,366.845L444.667,359.286L433.328,359.286L433.328,347.948L466.031,347.948L476.037,234.56L476.037,136.732L466.031,23.346L433.328,23.346L433.328,12.007L444.667,12.007L444.667,4.448L444.633,3.955L444.537,3.47L444.378,3.002L444.159,2.559L443.884,2.147L443.558,1.776L443.187,1.45L442.776,1.175L442.332,0.956L441.864,0.797L441.379,0.701L440.886,0.667L214.766,0.667M451.847,204.762L451.847,166.211L463.941,166.211L463.941,204.762L451.847,204.762M203.806,166.211L203.806,204.762L191.711,204.762L191.711,166.211L203.806,166.211" style="fill:none;fill-rule:nonzero;stroke:black;stroke-width:1.33px;"/>
            <g>
                <g>
                    <path d="M273.979,97.501L268.73,89.932L263.358,89.932L263.358,121.24C263.358,122.616 263.959,123.391 265.506,123.391C267.052,123.391 267.654,122.616 267.654,121.24L267.654,95.862L267.74,95.862L271.831,101.927L271.831,102.615C271.831,103.949 272.433,105.196 273.979,105.196C275.612,105.196 276.127,103.949 276.127,102.615L276.127,101.927L280.219,95.862L280.305,95.862L280.305,121.24C280.305,122.616 280.906,123.391 282.453,123.391C283.999,123.391 284.601,122.616 284.601,121.24L284.601,89.932L279.228,89.932L273.979,97.501Z" style="fill-rule:nonzero;"/>
                    <path d="M297.948,122.083L297.992,122.083L298.034,122.085L298.077,122.088L298.119,122.092L298.161,122.096L298.203,122.102L298.244,122.109L298.285,122.117L298.326,122.126L298.366,122.136L298.406,122.146L298.446,122.158L298.485,122.171L298.523,122.185C299.164,122.419 299.622,123.035 299.622,123.756L299.622,134.234C299.622,135.158 298.873,135.907 297.948,135.907L251.683,135.907L251.683,144.711L251.683,144.755L251.681,144.797L251.678,144.84L251.675,144.882L251.67,144.924L251.664,144.966L251.657,145.007L251.649,145.048L251.64,145.089L251.631,145.129L251.62,145.169L251.608,145.209L251.595,145.248L251.582,145.287L251.567,145.325L251.552,145.363L251.535,145.4L251.518,145.437L251.5,145.473L251.481,145.509L251.461,145.544L251.441,145.579L251.42,145.613L251.397,145.647L251.374,145.68L251.351,145.712L251.326,145.744L251.301,145.776L251.275,145.806L251.248,145.836L251.221,145.866L251.193,145.894L251.164,145.922L251.135,145.95L251.105,145.977L251.074,146.002L251.043,146.028L251.011,146.052L250.978,146.076L250.945,146.099L250.912,146.121L250.877,146.142L250.843,146.163L250.807,146.183L250.771,146.202L250.735,146.22L250.698,146.237L250.661,146.253L250.623,146.269L250.585,146.283L250.546,146.297L250.507,146.309L250.468,146.321L250.428,146.332L250.388,146.342L250.347,146.351L250.306,146.359L250.265,146.365L250.223,146.371L250.181,146.376L250.139,146.38L250.096,146.383L250.053,146.384L250.01,146.385L249.967,146.384L249.924,146.383L249.881,146.38L249.839,146.376L249.797,146.371L249.755,146.365L249.714,146.359L249.673,146.351L249.632,146.342L249.592,146.332L249.552,146.321L249.513,146.309L249.473,146.297L249.435,146.283C248.794,146.049 248.337,145.433 248.337,144.711L248.337,134.234C248.337,133.31 249.086,132.56 250.01,132.56L296.275,132.56L296.275,123.756L296.276,123.713L296.277,123.67L296.28,123.628L296.284,123.585L296.288,123.543L296.294,123.502L296.301,123.46L296.309,123.419L296.318,123.379L296.328,123.338L296.339,123.298L296.35,123.259L296.363,123.22L296.377,123.181L296.391,123.143L296.407,123.105L296.423,123.068L296.44,123.031L296.458,122.995L296.477,122.959L296.497,122.924L296.517,122.889L296.539,122.855L296.561,122.821L296.584,122.788L296.608,122.755L296.632,122.723L296.657,122.692L296.683,122.661L296.71,122.631L296.737,122.602L296.765,122.573L296.794,122.545L296.823,122.518L296.854,122.491L296.884,122.465L296.916,122.44L296.947,122.416L296.98,122.392L297.013,122.369L297.047,122.347L297.081,122.325L297.116,122.305L297.151,122.285L297.187,122.266L297.223,122.248L297.26,122.231L297.297,122.215L297.335,122.199L297.373,122.185L297.412,122.171L297.451,122.158L297.49,122.146L297.53,122.136L297.571,122.126L297.611,122.117L297.652,122.109L297.694,122.102L297.735,122.096L297.777,122.092L297.82,122.088L297.862,122.085L297.905,122.083L297.948,122.083Z"/>
                    <path d="M273.979,75.325C249.298,75.325 229.261,95.363 229.261,120.044C229.261,144.725 249.298,164.762 273.979,164.762C298.66,164.762 318.698,144.725 318.698,120.044C318.698,95.363 298.66,75.325 273.979,75.325ZM273.979,78.672C296.813,78.672 315.351,97.21 315.351,120.044C315.351,142.877 296.813,161.415 273.979,161.415C251.146,161.415 232.607,142.877 232.607,120.044C232.607,97.21 251.146,78.672 273.979,78.672Z"/>
                </g>
                <g transform="matrix(1.33333,-1.1958e-32,-2.25871e-32,1.33333,205.368,-937.957)">
                    <g transform="matrix(15.1639,0,0,15.1639,91.2406,772.104)">
                        <path d="M0.113,-0L0.393,-0C0.52,-0 0.607,-0.077 0.607,-0.208C0.607,-0.282 0.598,-0.335 0.541,-0.389C0.594,-0.436 0.607,-0.489 0.607,-0.547C0.607,-0.688 0.54,-0.778 0.393,-0.778L0.113,-0.778L0.113,-0ZM0.213,-0.339L0.393,-0.339C0.484,-0.339 0.507,-0.292 0.507,-0.208C0.507,-0.132 0.465,-0.1 0.393,-0.1L0.213,-0.1L0.213,-0.339ZM0.213,-0.678L0.393,-0.678C0.484,-0.678 0.507,-0.631 0.507,-0.547C0.507,-0.471 0.465,-0.439 0.393,-0.439L0.213,-0.439L0.213,-0.678Z" style="fill-rule:nonzero;"/>
                    </g>
                    <g transform="matrix(15.1639,0,0,15.1639,102.159,772.104)">
                        <path d="M0.595,-0.311C0.595,-0.379 0.59,-0.406 0.534,-0.45L0.476,-0.495C0.45,-0.515 0.419,-0.539 0.396,-0.539L0.33,-0.539C0.303,-0.539 0.265,-0.503 0.24,-0.481L0.221,-0.464L0.221,-0.476C0.221,-0.508 0.212,-0.539 0.173,-0.539C0.129,-0.539 0.125,-0.502 0.125,-0.468L0.125,0.138C0.125,0.171 0.132,0.204 0.173,0.204C0.214,0.204 0.221,0.171 0.221,0.138L0.221,-0.055L0.24,-0.037C0.271,-0.008 0.291,0.02 0.334,0.02L0.399,0.02C0.425,0.02 0.456,-0.007 0.476,-0.023L0.534,-0.069C0.59,-0.113 0.595,-0.139 0.595,-0.208L0.595,-0.311ZM0.499,-0.195C0.499,-0.177 0.494,-0.166 0.479,-0.153L0.407,-0.093C0.398,-0.085 0.387,-0.076 0.374,-0.076L0.349,-0.076C0.337,-0.076 0.322,-0.089 0.308,-0.103L0.235,-0.172C0.225,-0.181 0.221,-0.199 0.221,-0.213L0.221,-0.307C0.221,-0.328 0.228,-0.339 0.248,-0.358L0.308,-0.415C0.318,-0.425 0.335,-0.443 0.349,-0.443L0.374,-0.443C0.387,-0.443 0.398,-0.434 0.407,-0.426L0.479,-0.366C0.494,-0.353 0.499,-0.342 0.499,-0.324L0.499,-0.195Z" style="fill-rule:nonzero;"/>
                    </g>
                    <g transform="matrix(15.1639,0,0,15.1639,113.077,772.104)">
                        <path d="M0.125,-0.179C0.125,-0.116 0.141,-0.092 0.191,-0.05C0.241,-0.008 0.261,-0 0.322,-0L0.398,-0C0.459,-0 0.479,-0.008 0.529,-0.05C0.579,-0.092 0.595,-0.116 0.595,-0.179L0.595,-0.36C0.595,-0.424 0.582,-0.446 0.534,-0.485C0.487,-0.524 0.465,-0.539 0.398,-0.539L0.322,-0.539C0.255,-0.539 0.233,-0.524 0.186,-0.485C0.138,-0.446 0.125,-0.424 0.125,-0.36L0.125,-0.179ZM0.221,-0.36C0.221,-0.38 0.228,-0.393 0.256,-0.417C0.277,-0.435 0.292,-0.443 0.322,-0.443L0.398,-0.443C0.428,-0.443 0.443,-0.435 0.464,-0.417C0.492,-0.393 0.499,-0.38 0.499,-0.36L0.499,-0.179C0.499,-0.159 0.492,-0.146 0.464,-0.122C0.443,-0.104 0.428,-0.096 0.398,-0.096L0.322,-0.096C0.292,-0.096 0.277,-0.104 0.256,-0.122C0.228,-0.146 0.221,-0.159 0.221,-0.179L0.221,-0.36Z" style="fill-rule:nonzero;"/>
                    </g>
                    <g transform="matrix(15.1639,0,0,15.1639,123.995,772.104)">
                        <path d="M0.303,-0.539C0.263,-0.539 0.241,-0.531 0.211,-0.505L0.178,-0.477C0.138,-0.443 0.125,-0.417 0.125,-0.366L0.125,-0.173C0.125,-0.122 0.138,-0.096 0.178,-0.062L0.211,-0.034C0.225,-0.022 0.261,-0 0.293,-0L0.386,-0C0.415,-0 0.448,-0.021 0.478,-0.049L0.499,-0.07L0.499,-0.064C0.499,-0.032 0.509,-0 0.547,-0C0.588,-0 0.595,-0.034 0.595,-0.067L0.595,-0.671C0.595,-0.704 0.588,-0.737 0.547,-0.737C0.506,-0.737 0.499,-0.704 0.499,-0.671L0.499,-0.469L0.483,-0.486C0.448,-0.521 0.421,-0.539 0.388,-0.539L0.303,-0.539ZM0.221,-0.328C0.221,-0.355 0.221,-0.389 0.236,-0.401L0.265,-0.424C0.277,-0.434 0.289,-0.443 0.301,-0.443L0.369,-0.443C0.381,-0.443 0.398,-0.435 0.416,-0.419L0.471,-0.372C0.485,-0.36 0.499,-0.348 0.499,-0.33L0.499,-0.209C0.499,-0.191 0.485,-0.179 0.471,-0.167L0.416,-0.12C0.398,-0.104 0.381,-0.096 0.369,-0.096L0.301,-0.096C0.289,-0.096 0.277,-0.105 0.265,-0.115L0.236,-0.138C0.221,-0.15 0.221,-0.184 0.221,-0.211L0.221,-0.328Z" style="fill-rule:nonzero;"/>
                    </g>
                    <g transform="matrix(15.1639,0,0,15.1639,91.2406,790.301)">
                        <path d="M0.228,-0.637C0.224,-0.643 0.213,-0.655 0.213,-0.664C0.213,-0.681 0.236,-0.678 0.247,-0.678L0.459,-0.678C0.49,-0.678 0.507,-0.673 0.507,-0.639C0.507,-0.611 0.525,-0.592 0.555,-0.592C0.591,-0.592 0.607,-0.618 0.607,-0.65C0.607,-0.685 0.586,-0.722 0.56,-0.745C0.531,-0.77 0.499,-0.778 0.461,-0.778L0.249,-0.778C0.217,-0.778 0.194,-0.778 0.166,-0.76C0.132,-0.738 0.113,-0.704 0.113,-0.664C0.113,-0.629 0.125,-0.609 0.146,-0.582L0.489,-0.141C0.493,-0.135 0.507,-0.12 0.507,-0.112C0.507,-0.097 0.482,-0.1 0.474,-0.1L0.257,-0.1C0.229,-0.1 0.213,-0.104 0.213,-0.134C0.213,-0.161 0.195,-0.185 0.166,-0.185C0.131,-0.185 0.113,-0.157 0.113,-0.125C0.113,-0.09 0.133,-0.054 0.16,-0.032C0.19,-0.007 0.223,-0 0.261,-0L0.481,-0C0.55,-0 0.607,-0.038 0.607,-0.113C0.607,-0.147 0.592,-0.17 0.572,-0.196L0.228,-0.637Z" style="fill-rule:nonzero;"/>
                    </g>
                    <g transform="matrix(15.1639,0,0,15.1639,102.159,790.301)">
                        <path d="M0.318,-0.443L0.479,-0.443C0.507,-0.443 0.545,-0.449 0.545,-0.491C0.545,-0.532 0.511,-0.539 0.479,-0.539L0.318,-0.539L0.318,-0.637C0.318,-0.67 0.311,-0.703 0.27,-0.703C0.229,-0.703 0.222,-0.67 0.222,-0.637L0.222,-0.539L0.191,-0.539C0.159,-0.539 0.125,-0.532 0.125,-0.491C0.125,-0.449 0.163,-0.443 0.191,-0.443L0.222,-0.443L0.222,-0.182C0.222,-0.13 0.22,-0.089 0.257,-0.048C0.291,-0.011 0.333,-0 0.381,-0L0.43,-0C0.481,-0 0.527,-0.007 0.562,-0.049C0.578,-0.068 0.595,-0.102 0.595,-0.129C0.595,-0.156 0.573,-0.177 0.546,-0.177C0.522,-0.177 0.504,-0.161 0.498,-0.138C0.488,-0.099 0.47,-0.096 0.431,-0.096L0.382,-0.096C0.316,-0.096 0.318,-0.127 0.318,-0.181L0.318,-0.443Z" style="fill-rule:nonzero;"/>
                    </g>
                    <g transform="matrix(15.1639,0,0,15.1639,113.077,790.301)">
                        <path d="M0.529,-0C0.557,-0 0.595,-0.006 0.595,-0.048C0.595,-0.089 0.561,-0.096 0.529,-0.096L0.323,-0.096C0.291,-0.096 0.272,-0.1 0.259,-0.114L0.235,-0.14C0.228,-0.147 0.221,-0.159 0.221,-0.168L0.221,-0.2L0.529,-0.2C0.586,-0.2 0.595,-0.216 0.595,-0.271L0.595,-0.348C0.595,-0.401 0.589,-0.438 0.545,-0.473L0.506,-0.504C0.469,-0.534 0.447,-0.539 0.4,-0.539L0.312,-0.539C0.273,-0.539 0.251,-0.538 0.206,-0.499L0.172,-0.47C0.132,-0.436 0.125,-0.406 0.125,-0.355L0.125,-0.17C0.125,-0.118 0.136,-0.096 0.174,-0.062L0.215,-0.026C0.245,-0 0.261,-0 0.301,-0L0.529,-0ZM0.221,-0.364C0.221,-0.392 0.229,-0.399 0.241,-0.408L0.274,-0.432C0.29,-0.443 0.305,-0.443 0.323,-0.443L0.404,-0.443C0.419,-0.443 0.438,-0.442 0.45,-0.431L0.487,-0.399C0.5,-0.387 0.499,-0.372 0.499,-0.354L0.499,-0.296L0.221,-0.296L0.221,-0.364Z" style="fill-rule:nonzero;"/>
                    </g>
                    <g transform="matrix(15.1639,0,0,15.1639,123.995,790.301)">
                        <path d="M0.595,-0.311C0.595,-0.379 0.59,-0.406 0.534,-0.45L0.476,-0.495C0.45,-0.515 0.419,-0.539 0.396,-0.539L0.33,-0.539C0.303,-0.539 0.265,-0.503 0.24,-0.481L0.221,-0.464L0.221,-0.476C0.221,-0.508 0.212,-0.539 0.173,-0.539C0.129,-0.539 0.125,-0.502 0.125,-0.468L0.125,0.138C0.125,0.171 0.132,0.204 0.173,0.204C0.214,0.204 0.221,0.171 0.221,0.138L0.221,-0.055L0.24,-0.037C0.271,-0.008 0.291,0.02 0.334,0.02L0.399,0.02C0.425,0.02 0.456,-0.007 0.476,-0.023L0.534,-0.069C0.59,-0.113 0.595,-0.139 0.595,-0.208L0.595,-0.311ZM0.499,-0.195C0.499,-0.177 0.494,-0.166 0.479,-0.153L0.407,-0.093C0.398,-0.085 0.387,-0.076 0.374,-0.076L0.349,-0.076C0.337,-0.076 0.322,-0.089 0.308,-0.103L0.235,-0.172C0.225,-0.181 0.221,-0.199 0.221,-0.213L0.221,-0.307C0.221,-0.328 0.228,-0.339 0.248,-0.358L0.308,-0.415C0.318,-0.425 0.335,-0.443 0.349,-0.443L0.374,-0.443C0.387,-0.443 0.398,-0.434 0.407,-0.426L0.479,-0.366C0.494,-0.353 0.499,-0.342 0.499,-0.324L0.499,-0.195Z" style="fill-rule:nonzero;"/>
                    </g>
                    <g transform="matrix(15.1639,0,0,15.1639,134.913,790.301)">
                        <path d="M0.595,-0.311C0.595,-0.379 0.59,-0.406 0.534,-0.45L0.476,-0.495C0.45,-0.515 0.419,-0.539 0.396,-0.539L0.33,-0.539C0.303,-0.539 0.265,-0.503 0.24,-0.481L0.221,-0.464L0.221,-0.476C0.221,-0.508 0.212,-0.539 0.173,-0.539C0.129,-0.539 0.125,-0.502 0.125,-0.468L0.125,0.138C0.125,0.171 0.132,0.204 0.173,0.204C0.214,0.204 0.221,0.171 0.221,0.138L0.221,-0.055L0.24,-0.037C0.271,-0.008 0.291,0.02 0.334,0.02L0.399,0.02C0.425,0.02 0.456,-0.007 0.476,-0.023L0.534,-0.069C0.59,-0.113 0.595,-0.139 0.595,-0.208L0.595,-0.311ZM0.499,-0.195C0.499,-0.177 0.494,-0.166 0.479,-0.153L0.407,-0.093C0.398,-0.085 0.387,-0.076 0.374,-0.076L0.349,-0.076C0.337,-0.076 0.322,-0.089 0.308,-0.103L0.235,-0.172C0.225,-0.181 0.221,-0.199 0.221,-0.213L0.221,-0.307C0.221,-0.328 0.228,-0.339 0.248,-0.358L0.308,-0.415C0.318,-0.425 0.335,-0.443 0.349,-0.443L0.374,-0.443C0.387,-0.443 0.398,-0.434 0.407,-0.426L0.479,-0.366C0.494,-0.353 0.499,-0.342 0.499,-0.324L0.499,-0.195Z" style="fill-rule:nonzero;"/>
                    </g>
                    <g transform="matrix(15.1639,0,0,15.1639,145.831,790.301)">
                        <path d="M0.529,-0C0.557,-0 0.595,-0.006 0.595,-0.048C0.595,-0.089 0.561,-0.096 0.529,-0.096L0.323,-0.096C0.291,-0.096 0.272,-0.1 0.259,-0.114L0.235,-0.14C0.228,-0.147 0.221,-0.159 0.221,-0.168L0.221,-0.2L0.529,-0.2C0.586,-0.2 0.595,-0.216 0.595,-0.271L0.595,-0.348C0.595,-0.401 0.589,-0.438 0.545,-0.473L0.506,-0.504C0.469,-0.534 0.447,-0.539 0.4,-0.539L0.312,-0.539C0.273,-0.539 0.251,-0.538 0.206,-0.499L0.172,-0.47C0.132,-0.436 0.125,-0.406 0.125,-0.355L0.125,-0.17C0.125,-0.118 0.136,-0.096 0.174,-0.062L0.215,-0.026C0.245,-0 0.261,-0 0.301,-0L0.529,-0ZM0.221,-0.364C0.221,-0.392 0.229,-0.399 0.241,-0.408L0.274,-0.432C0.29,-0.443 0.305,-0.443 0.323,-0.443L0.404,-0.443C0.419,-0.443 0.438,-0.442 0.45,-0.431L0.487,-0.399C0.5,-0.387 0.499,-0.372 0.499,-0.354L0.499,-0.296L0.221,-0.296L0.221,-0.364Z" style="fill-rule:nonzero;"/>
                    </g>
                    <g transform="matrix(15.1639,0,0,15.1639,156.749,790.301)">
                        <path d="M0.125,-0.066C0.125,-0.033 0.132,-0 0.173,-0C0.214,-0 0.221,-0.033 0.221,-0.066L0.221,-0.309L0.355,-0.42C0.372,-0.434 0.385,-0.443 0.403,-0.443L0.431,-0.443C0.454,-0.443 0.477,-0.443 0.489,-0.426C0.499,-0.412 0.499,-0.4 0.499,-0.384C0.499,-0.353 0.513,-0.325 0.548,-0.325C0.589,-0.325 0.595,-0.359 0.595,-0.392C0.595,-0.436 0.584,-0.469 0.552,-0.501C0.526,-0.527 0.495,-0.539 0.458,-0.539L0.381,-0.539C0.351,-0.539 0.323,-0.52 0.296,-0.498L0.221,-0.436L0.221,-0.475C0.221,-0.507 0.211,-0.539 0.173,-0.539C0.129,-0.539 0.125,-0.503 0.125,-0.468L0.125,-0.066Z" style="fill-rule:nonzero;"/>
                    </g>
                    <g transform="matrix(15.1639,0,0,15.1639,91.2406,808.498)">
                        <path d="M0.36,-0.602L0.238,-0.778L0.113,-0.778L0.113,-0.05C0.113,-0.018 0.127,-0 0.163,-0C0.199,-0 0.213,-0.018 0.213,-0.05L0.213,-0.64L0.215,-0.64L0.31,-0.499L0.31,-0.483C0.31,-0.452 0.324,-0.423 0.36,-0.423C0.398,-0.423 0.41,-0.452 0.41,-0.483L0.41,-0.499L0.505,-0.64L0.507,-0.64L0.507,-0.05C0.507,-0.018 0.521,-0 0.557,-0C0.593,-0 0.607,-0.018 0.607,-0.05L0.607,-0.778L0.482,-0.778L0.36,-0.602Z" style="fill-rule:nonzero;"/>
                    </g>
                    <g transform="matrix(15.1639,0,0,15.1639,102.159,808.498)">
                        <path d="M0.125,-0.179C0.125,-0.116 0.141,-0.092 0.191,-0.05C0.241,-0.008 0.261,-0 0.322,-0L0.398,-0C0.459,-0 0.479,-0.008 0.529,-0.05C0.579,-0.092 0.595,-0.116 0.595,-0.179L0.595,-0.36C0.595,-0.424 0.582,-0.446 0.534,-0.485C0.487,-0.524 0.465,-0.539 0.398,-0.539L0.322,-0.539C0.255,-0.539 0.233,-0.524 0.186,-0.485C0.138,-0.446 0.125,-0.424 0.125,-0.36L0.125,-0.179ZM0.221,-0.36C0.221,-0.38 0.228,-0.393 0.256,-0.417C0.277,-0.435 0.292,-0.443 0.322,-0.443L0.398,-0.443C0.428,-0.443 0.443,-0.435 0.464,-0.417C0.492,-0.393 0.499,-0.38 0.499,-0.36L0.499,-0.179C0.499,-0.159 0.492,-0.146 0.464,-0.122C0.443,-0.104 0.428,-0.096 0.398,-0.096L0.322,-0.096C0.292,-0.096 0.277,-0.104 0.256,-0.122C0.228,-0.146 0.221,-0.159 0.221,-0.179L0.221,-0.36Z" style="fill-rule:nonzero;"/>
                    </g>
                    <g transform="matrix(15.1639,0,0,15.1639,113.077,808.498)">
                        <path d="M0.318,-0.443L0.479,-0.443C0.507,-0.443 0.545,-0.449 0.545,-0.491C0.545,-0.532 0.511,-0.539 0.479,-0.539L0.318,-0.539L0.318,-0.637C0.318,-0.67 0.311,-0.703 0.27,-0.703C0.229,-0.703 0.222,-0.67 0.222,-0.637L0.222,-0.539L0.191,-0.539C0.159,-0.539 0.125,-0.532 0.125,-0.491C0.125,-0.449 0.163,-0.443 0.191,-0.443L0.222,-0.443L0.222,-0.182C0.222,-0.13 0.22,-0.089 0.257,-0.048C0.291,-0.011 0.333,-0 0.381,-0L0.43,-0C0.481,-0 0.527,-0.007 0.562,-0.049C0.578,-0.068 0.595,-0.102 0.595,-0.129C0.595,-0.156 0.573,-0.177 0.546,-0.177C0.522,-0.177 0.504,-0.161 0.498,-0.138C0.488,-0.099 0.47,-0.096 0.431,-0.096L0.382,-0.096C0.316,-0.096 0.318,-0.127 0.318,-0.181L0.318,-0.443Z" style="fill-rule:nonzero;"/>
                    </g>
                    <g transform="matrix(15.1639,0,0,15.1639,123.995,808.498)">
                        <path d="M0.125,-0.179C0.125,-0.116 0.141,-0.092 0.191,-0.05C0.241,-0.008 0.261,-0 0.322,-0L0.398,-0C0.459,-0 0.479,-0.008 0.529,-0.05C0.579,-0.092 0.595,-0.116 0.595,-0.179L0.595,-0.36C0.595,-0.424 0.582,-0.446 0.534,-0.485C0.487,-0.524 0.465,-0.539 0.398,-0.539L0.322,-0.539C0.255,-0.539 0.233,-0.524 0.186,-0.485C0.138,-0.446 0.125,-0.424 0.125,-0.36L0.125,-0.179ZM0.221,-0.36C0.221,-0.38 0.228,-0.393 0.256,-0.417C0.277,-0.435 0.292,-0.443 0.322,-0.443L0.398,-0.443C0.428,-0.443 0.443,-0.435 0.464,-0.417C0.492,-0.393 0.499,-0.38 0.499,-0.36L0.499,-0.179C0.499,-0.159 0.492,-0.146 0.464,-0.122C0.443,-0.104 0.428,-0.096 0.398,-0.096L0.322,-0.096C0.292,-0.096 0.277,-0.104 0.256,-0.122C0.228,-0.146 0.221,-0.159 0.221,-0.179L0.221,-0.36Z" style="fill-rule:nonzero;"/>
                    </g>
                    <g transform="matrix(15.1639,0,0,15.1639,134.913,808.498)">
                        <path d="M0.125,-0.066C0.125,-0.033 0.132,-0 0.173,-0C0.214,-0 0.221,-0.033 0.221,-0.066L0.221,-0.309L0.355,-0.42C0.372,-0.434 0.385,-0.443 0.403,-0.443L0.431,-0.443C0.454,-0.443 0.477,-0.443 0.489,-0.426C0.499,-0.412 0.499,-0.4 0.499,-0.384C0.499,-0.353 0.513,-0.325 0.548,-0.325C0.589,-0.325 0.595,-0.359 0.595,-0.392C0.595,-0.436 0.584,-0.469 0.552,-0.501C0.526,-0.527 0.495,-0.539 0.458,-0.539L0.381,-0.539C0.351,-0.539 0.323,-0.52 0.296,-0.498L0.221,-0.436L0.221,-0.475C0.221,-0.507 0.211,-0.539 0.173,-0.539C0.129,-0.539 0.125,-0.503 0.125,-0.468L0.125,-0.066Z" style="fill-rule:nonzero;"/>
                    </g>
                    <g transform="matrix(15.1639,0,0,15.1639,91.2406,826.694)">
                        <path d="M0.36,-0.602L0.238,-0.778L0.113,-0.778L0.113,-0.05C0.113,-0.018 0.127,-0 0.163,-0C0.199,-0 0.213,-0.018 0.213,-0.05L0.213,-0.64L0.215,-0.64L0.31,-0.499L0.31,-0.483C0.31,-0.452 0.324,-0.423 0.36,-0.423C0.398,-0.423 0.41,-0.452 0.41,-0.483L0.41,-0.499L0.505,-0.64L0.507,-0.64L0.507,-0.05C0.507,-0.018 0.521,-0 0.557,-0C0.593,-0 0.607,-0.018 0.607,-0.05L0.607,-0.778L0.482,-0.778L0.36,-0.602Z" style="fill-rule:nonzero;"/>
                    </g>
                    <g transform="matrix(15.1639,0,0,15.1639,102.159,826.694)">
                        <path d="M0.125,-0.179C0.125,-0.116 0.141,-0.092 0.191,-0.05C0.241,-0.008 0.261,-0 0.322,-0L0.398,-0C0.459,-0 0.479,-0.008 0.529,-0.05C0.579,-0.092 0.595,-0.116 0.595,-0.179L0.595,-0.36C0.595,-0.424 0.582,-0.446 0.534,-0.485C0.487,-0.524 0.465,-0.539 0.398,-0.539L0.322,-0.539C0.255,-0.539 0.233,-0.524 0.186,-0.485C0.138,-0.446 0.125,-0.424 0.125,-0.36L0.125,-0.179ZM0.221,-0.36C0.221,-0.38 0.228,-0.393 0.256,-0.417C0.277,-0.435 0.292,-0.443 0.322,-0.443L0.398,-0.443C0.428,-0.443 0.443,-0.435 0.464,-0.417C0.492,-0.393 0.499,-0.38 0.499,-0.36L0.499,-0.179C0.499,-0.159 0.492,-0.146 0.464,-0.122C0.443,-0.104 0.428,-0.096 0.398,-0.096L0.322,-0.096C0.292,-0.096 0.277,-0.104 0.256,-0.122C0.228,-0.146 0.221,-0.159 0.221,-0.179L0.221,-0.36Z" style="fill-rule:nonzero;"/>
                    </g>
                    <g transform="matrix(15.1639,0,0,15.1639,113.077,826.694)">
                        <path d="M0.303,-0.539C0.263,-0.539 0.241,-0.531 0.211,-0.505L0.178,-0.477C0.138,-0.443 0.125,-0.417 0.125,-0.366L0.125,-0.173C0.125,-0.122 0.138,-0.096 0.178,-0.062L0.211,-0.034C0.225,-0.022 0.261,-0 0.293,-0L0.386,-0C0.415,-0 0.448,-0.021 0.478,-0.049L0.499,-0.07L0.499,-0.064C0.499,-0.032 0.509,-0 0.547,-0C0.588,-0 0.595,-0.034 0.595,-0.067L0.595,-0.671C0.595,-0.704 0.588,-0.737 0.547,-0.737C0.506,-0.737 0.499,-0.704 0.499,-0.671L0.499,-0.469L0.483,-0.486C0.448,-0.521 0.421,-0.539 0.388,-0.539L0.303,-0.539ZM0.221,-0.328C0.221,-0.355 0.221,-0.389 0.236,-0.401L0.265,-0.424C0.277,-0.434 0.289,-0.443 0.301,-0.443L0.369,-0.443C0.381,-0.443 0.398,-0.435 0.416,-0.419L0.471,-0.372C0.485,-0.36 0.499,-0.348 0.499,-0.33L0.499,-0.209C0.499,-0.191 0.485,-0.179 0.471,-0.167L0.416,-0.12C0.398,-0.104 0.381,-0.096 0.369,-0.096L0.301,-0.096C0.289,-0.096 0.277,-0.105 0.265,-0.115L0.236,-0.138C0.221,-0.15 0.221,-0.184 0.221,-0.211L0.221,-0.328Z" style="fill-rule:nonzero;"/>
                    </g>
                    <g transform="matrix(15.1639,0,0,15.1639,123.995,826.694)">
                        <path d="M0.595,-0.473C0.595,-0.506 0.588,-0.539 0.547,-0.539C0.506,-0.539 0.499,-0.506 0.499,-0.473L0.499,-0.194L0.358,-0.105C0.349,-0.099 0.339,-0.096 0.328,-0.096L0.296,-0.096C0.273,-0.096 0.248,-0.102 0.24,-0.116C0.232,-0.13 0.231,-0.156 0.23,-0.178L0.22,-0.473C0.219,-0.504 0.214,-0.539 0.173,-0.539C0.129,-0.539 0.124,-0.502 0.125,-0.467L0.135,-0.165C0.137,-0.113 0.136,-0.072 0.179,-0.035C0.211,-0.008 0.241,-0 0.268,-0L0.339,-0C0.365,-0 0.391,-0.012 0.422,-0.032L0.5,-0.083L0.5,-0.067C0.5,-0.034 0.507,-0 0.548,-0C0.599,-0 0.595,-0.049 0.595,-0.071L0.595,-0.473Z" style="fill-rule:nonzero;"/>
                    </g>
                    <g transform="matrix(15.1639,0,0,15.1639,134.913,826.694)">
                        <path d="M0.41,-0.67C0.41,-0.727 0.394,-0.737 0.339,-0.737L0.238,-0.737C0.206,-0.737 0.172,-0.73 0.172,-0.689C0.172,-0.647 0.21,-0.641 0.238,-0.641L0.314,-0.641L0.314,-0.096L0.238,-0.096C0.206,-0.096 0.172,-0.089 0.172,-0.048C0.172,-0.006 0.21,-0 0.238,-0L0.482,-0C0.51,-0 0.548,-0.006 0.548,-0.048C0.548,-0.089 0.514,-0.096 0.482,-0.096L0.41,-0.096L0.41,-0.67Z" style="fill-rule:nonzero;"/>
                    </g>
                    <g transform="matrix(15.1639,0,0,15.1639,145.831,826.694)">
                        <path d="M0.529,-0C0.557,-0 0.595,-0.006 0.595,-0.048C0.595,-0.089 0.561,-0.096 0.529,-0.096L0.323,-0.096C0.291,-0.096 0.272,-0.1 0.259,-0.114L0.235,-0.14C0.228,-0.147 0.221,-0.159 0.221,-0.168L0.221,-0.2L0.529,-0.2C0.586,-0.2 0.595,-0.216 0.595,-0.271L0.595,-0.348C0.595,-0.401 0.589,-0.438 0.545,-0.473L0.506,-0.504C0.469,-0.534 0.447,-0.539 0.4,-0.539L0.312,-0.539C0.273,-0.539 0.251,-0.538 0.206,-0.499L0.172,-0.47C0.132,-0.436 0.125,-0.406 0.125,-0.355L0.125,-0.17C0.125,-0.118 0.136,-0.096 0.174,-0.062L0.215,-0.026C0.245,-0 0.261,-0 0.301,-0L0.529,-0ZM0.221,-0.364C0.221,-0.392 0.229,-0.399 0.241,-0.408L0.274,-0.432C0.29,-0.443 0.305,-0.443 0.323,-0.443L0.404,-0.443C0.419,-0.443 0.438,-0.442 0.45,-0.431L0.487,-0.399C0.5,-0.387 0.499,-0.372 0.499,-0.354L0.499,-0.296L0.221,-0.296L0.221,-0.364Z" style="fill-rule:nonzero;"/>
                    </g>
                </g>
            </g>
        </g>
        <path id="washers" d="M638.443,362.876C629.171,362.876 621.643,355.348 621.643,346.076C621.643,336.804 629.171,329.276 638.443,329.276C647.715,329.276 655.243,336.804 655.243,346.076C655.243,355.348 647.715,362.876 638.443,362.876ZM638.443,352.123C635.105,352.123 632.396,349.414 632.396,346.076C632.396,342.738 635.105,340.029 638.443,340.029C641.781,340.029 644.49,342.738 644.49,346.076C644.49,349.414 641.781,352.123 638.443,352.123ZM638.443,400.256C629.171,400.256 621.643,392.728 621.643,383.456C621.643,374.183 629.171,366.656 638.443,366.656C647.715,366.656 655.243,374.183 655.243,383.456C655.243,392.728 647.715,400.256 638.443,400.256ZM638.443,389.503C635.105,389.503 632.396,386.793 632.396,383.456C632.396,380.118 635.105,377.408 638.443,377.408C641.781,377.408 644.49,380.118 644.49,383.456C644.49,386.793 641.781,389.503 638.443,389.503ZM638.443,437.635C629.171,437.635 621.643,430.107 621.643,420.835C621.643,411.563 629.171,404.035 638.443,404.035C647.715,404.035 655.243,411.563 655.243,420.835C655.243,430.107 647.715,437.635 638.443,437.635ZM638.443,426.882C635.105,426.882 632.396,424.173 632.396,420.835C632.396,417.498 635.105,414.788 638.443,414.788C641.781,414.788 644.49,417.498 644.49,420.835C644.49,424.173 641.781,426.882 638.443,426.882ZM638.443,475.015C629.171,475.015 621.643,467.487 621.643,458.215C621.643,448.942 629.171,441.415 638.443,441.415C647.715,441.415 655.243,448.942 655.243,458.215C655.243,467.487 647.715,475.015 638.443,475.015ZM638.443,464.262C635.105,464.262 632.396,461.552 632.396,458.215C632.396,454.877 635.105,452.167 638.443,452.167C641.781,452.167 644.49,454.877 644.49,458.215C644.49,461.552 641.781,464.262 638.443,464.262Z" style="fill:none;stroke:black;stroke-width:1.33px;stroke-miterlimit:1.5;"/>
    </g>
</svg>
