<?xml version="1.0" encoding="UTF-8" standalone="no"?>
<!DOCTYPE svg PUBLIC "-//W3C//DTD SVG 1.1//EN" "http://www.w3.org/Graphics/SVG/1.1/DTD/svg11.dtd">
<svg width="689px" height="735px" version="1.1" xmlns="http://www.w3.org/2000/svg" xmlns:xlink="http://www.w3.org/1999/xlink" xml:space="preserve" xmlns:serif="http://www.serif.com/" style="fill-rule:evenodd;clip-rule:evenodd;stroke-linecap:round;stroke-linejoin:round;">
    <rect id="Artboard1" x="0" y="0" width="688.155" height="734.025" style="fill:none;"/>
    <g id="V1.2">
        <g id="long-side-2" serif:id="long side 2">
            <path d="M494.55,692.76C490.624,650.024 488.21,601.78 487.731,550.524L476.393,550.524L476.393,512.729L487.731,512.729C488.214,461.068 490.662,412.471 494.643,369.486L578.925,369.486L578.923,369.485L579.117,366.525L579.695,363.615L580.649,360.806L581.961,358.146L583.609,355.68L585.565,353.449L587.795,351.494L590.261,349.846L592.922,348.534L595.731,347.58L598.64,347.002L601.6,346.808L624.277,346.808L625.757,346.905L627.212,347.194L628.616,347.671L629.946,348.327L631.18,349.151L632.295,350.129L633.273,351.244L634.097,352.477L634.753,353.807L635.229,355.211L635.518,356.666L635.616,358.146L624.277,358.146L623.297,358.275L622.829,358.434L622.386,358.653L621.975,358.927L621.603,359.253L621.277,359.625L621.002,360.036L620.784,360.479L620.625,360.947L620.496,361.925L620.496,365.538L620.957,367.771L621.21,368.285L621.515,368.771L621.868,369.223L622.264,369.638L622.701,370.01L623.173,370.335L624.204,370.834L635.614,374.987L635.611,688.265L624.044,692.475L623.538,692.689L623.057,692.953L622.605,693.265L622.186,693.621L621.806,694.018L621.469,694.451L621.177,694.917L620.934,695.41L620.743,695.924L620.604,696.456L620.521,696.999L620.494,697.547L620.494,701.327L620.528,701.82L620.625,702.305L620.783,702.773L621.002,703.217L621.277,703.628L621.603,704L621.975,704.326L622.386,704.6L622.829,704.819L623.297,704.978L623.782,705.074L624.275,705.108L635.614,705.108L635.549,709.875L635.357,710.844L635.039,711.781L634.601,712.668L634.052,713.49L633.4,714.233L632.657,714.885L631.835,715.434L630.948,715.872L630.012,716.189L629.042,716.382L628.055,716.447L601.598,716.447L598.638,716.253L595.729,715.674L592.92,714.721L590.26,713.409L587.793,711.761L585.563,709.805L583.607,707.575L581.959,705.108L580.647,702.448L579.694,699.639L578.921,696.73L578.921,693.77L494.643,693.769L494.55,692.76ZM612.557,580.635L624.652,580.635L624.652,618.431L612.557,618.431L612.557,580.635ZM624.652,482.619L612.557,482.619L612.557,444.824L624.652,444.824L624.652,482.619ZM563.915,570.961C562.871,570.961 562.025,571.807 562.025,572.85C562.025,584.323 562.025,644.527 562.025,656C562.025,657.044 562.871,657.89 563.915,657.89C570.021,657.89 589.179,657.89 595.285,657.89C596.329,657.89 597.175,657.044 597.175,656C597.175,644.527 597.175,584.323 597.175,572.85C597.175,571.807 596.329,570.961 595.285,570.961C589.179,570.961 570.021,570.961 563.915,570.961Z" style="fill:none;stroke:black;stroke-width:1.33px;"/>
            <g>
                <path d="M531.368,589.996L532.091,589.996L532.091,590.797L531.368,590.797C531.259,590.797 531.155,590.776 531.058,590.734C530.96,590.693 530.875,590.635 530.804,590.563C530.732,590.49 530.675,590.404 530.632,590.307C530.589,590.209 530.567,590.105 530.567,589.996L530.567,587.461C530.567,587.352 530.589,587.248 530.632,587.15C530.675,587.053 530.732,586.968 530.804,586.897C530.875,586.825 530.96,586.768 531.058,586.725C531.155,586.682 531.259,586.66 531.368,586.66L532.392,586.66C532.501,586.66 532.599,586.671 532.685,586.691C532.771,586.712 532.848,586.745 532.917,586.791C532.986,586.837 533.048,586.895 533.103,586.965C533.157,587.035 533.209,587.121 533.259,587.223L534.56,589.996L535.368,589.996L535.368,587.359L534.649,587.359L534.649,586.559L536.169,586.559L536.169,590.797L534.696,590.797C534.587,590.797 534.489,590.786 534.403,590.764C534.317,590.742 534.241,590.708 534.173,590.664C534.105,590.62 534.043,590.562 533.987,590.49C533.931,590.419 533.88,590.335 533.833,590.238L532.528,587.461L531.368,587.461L531.368,589.996Z" style="fill-rule:nonzero;"/>
                <path d="M533.247,581.551C533.284,581.434 533.336,581.327 533.403,581.23C533.471,581.134 533.558,581.052 533.663,580.984C533.769,580.917 533.893,580.865 534.036,580.828C534.179,580.792 534.343,580.773 534.528,580.773L534.81,580.773C535.716,580.773 536.169,581.227 536.169,582.133L536.169,585.199L530.567,585.199L530.567,582.293C530.567,581.387 531.022,580.934 531.931,580.934L532.032,580.934C532.347,580.934 532.605,580.984 532.804,581.084C533.003,581.184 533.151,581.34 533.247,581.551ZM533.728,584.414L535.384,584.414L535.384,582.156C535.384,581.945 535.334,581.793 535.235,581.699C535.136,581.605 534.981,581.559 534.771,581.559L534.337,581.559C534.123,581.559 533.968,581.605 533.872,581.699C533.776,581.793 533.728,581.945 533.728,582.156L533.728,584.414ZM531.353,584.414L532.946,584.414L532.946,582.262C532.939,582.069 532.886,581.93 532.788,581.846C532.69,581.761 532.54,581.719 532.337,581.719L531.97,581.719C531.756,581.719 531.6,581.766 531.501,581.859C531.402,581.953 531.353,582.105 531.353,582.316L531.353,584.414Z" style="fill-rule:nonzero;"/>
                <path d="M531.368,609.184L532.091,609.184L532.091,609.985L531.368,609.985C531.259,609.985 531.155,609.964 531.058,609.923C530.96,609.881 530.875,609.824 530.804,609.751C530.732,609.678 530.675,609.593 530.632,609.495C530.589,609.397 530.567,609.294 530.567,609.184L530.567,606.649C530.567,606.54 530.589,606.436 530.632,606.339C530.675,606.241 530.732,606.156 530.804,606.085C530.875,606.013 530.96,605.956 531.058,605.913C531.155,605.87 531.259,605.848 531.368,605.848L532.392,605.848C532.501,605.848 532.599,605.859 532.685,605.88C532.771,605.901 532.848,605.934 532.917,605.979C532.986,606.025 533.048,606.083 533.103,606.153C533.157,606.223 533.209,606.309 533.259,606.411L534.56,609.184L535.368,609.184L535.368,606.548L534.649,606.548L534.649,605.747L536.169,605.747L536.169,609.985L534.696,609.985C534.587,609.985 534.489,609.974 534.403,609.952C534.317,609.93 534.241,609.897 534.173,609.852C534.105,609.808 534.043,609.75 533.987,609.679C533.931,609.607 533.88,609.523 533.833,609.427L532.528,606.649L531.368,606.649L531.368,609.184Z" style="fill-rule:nonzero;"/>
                <path d="M530.567,601.907L536.169,599.747L536.169,600.548L534.88,601.044L534.88,603.571L536.169,604.067L536.169,604.868L530.567,602.708L530.567,601.907ZM534.079,603.266L534.079,601.352L531.61,602.305L534.079,603.266Z" style="fill-rule:nonzero;"/>
                <path d="M530.567,626.466L536.169,626.466L536.169,627.267L531.368,627.267L531.368,628.228L530.567,628.228L530.567,626.466Z" style="fill-rule:nonzero;"/>
                <path d="M530.567,622.466L536.169,620.306L536.169,621.107L534.88,621.603L534.88,624.13L536.169,624.627L536.169,625.427L530.567,623.267L530.567,622.466ZM534.079,623.826L534.079,621.912L531.61,622.865L534.079,623.826Z" style="fill-rule:nonzero;"/>
                <path d="M530.661,644.686L536.169,644.686L536.169,645.473L531.448,645.473L531.448,646.418L530.661,646.418L530.661,644.686Z" style="fill-rule:nonzero;"/>
                <path d="M533.296,639.604C533.332,639.488 533.383,639.383 533.449,639.289C533.516,639.194 533.601,639.113 533.705,639.047C533.809,638.98 533.931,638.929 534.072,638.893C534.213,638.857 534.374,638.839 534.556,638.839L534.832,638.839C535.723,638.839 536.169,639.285 536.169,640.176L536.169,643.191L530.661,643.191L530.661,640.334C530.661,639.442 531.108,638.997 532.001,638.997L532.101,638.997C532.411,638.997 532.664,639.046 532.86,639.145C533.056,639.243 533.201,639.396 533.296,639.604ZM533.768,642.419L535.397,642.419L535.397,640.199C535.397,639.992 535.348,639.842 535.251,639.75C535.154,639.657 535.001,639.611 534.794,639.611L534.367,639.611C534.157,639.611 534.005,639.657 533.91,639.75C533.816,639.842 533.768,639.992 533.768,640.199L533.768,642.419ZM531.433,642.419L533,642.419L533,640.303C532.992,640.113 532.94,639.977 532.844,639.894C532.748,639.81 532.601,639.769 532.401,639.769L532.04,639.769C531.83,639.769 531.676,639.815 531.579,639.907C531.481,639.999 531.433,640.149 531.433,640.357L531.433,642.419Z" style="fill-rule:nonzero;"/>
                <path d="M523.582,629.551L516.74,633.034L523.582,633.034L523.582,634.368L514.246,634.368L514.246,632.91L521.278,629.355L514.246,625.794L514.246,624.342L523.582,624.342L523.582,625.67L516.74,625.67L523.582,629.153L523.582,629.551Z" style="fill-rule:nonzero;"/>
                <path d="M522.3,616.074C522.478,616.074 522.645,616.108 522.801,616.175C522.957,616.242 523.093,616.333 523.208,616.448C523.323,616.563 523.414,616.698 523.481,616.852C523.549,617.006 523.582,617.172 523.582,617.35L523.582,620.794C523.582,620.968 523.549,621.133 523.481,621.289C523.414,621.445 523.323,621.581 523.208,621.696C523.093,621.811 522.957,621.902 522.801,621.969C522.645,622.037 522.478,622.07 522.3,622.07L517.931,622.07C517.753,622.07 517.586,622.037 517.43,621.969C517.274,621.902 517.138,621.811 517.023,621.696C516.908,621.581 516.817,621.445 516.75,621.289C516.682,621.133 516.649,620.968 516.649,620.794L516.649,617.35C516.649,617.172 516.682,617.006 516.75,616.852C516.817,616.698 516.908,616.563 517.023,616.448C517.138,616.333 517.274,616.242 517.43,616.175C517.586,616.108 517.753,616.074 517.931,616.074L522.3,616.074ZM517.931,620.794L522.3,620.794L522.3,617.35L517.931,617.35L517.931,620.794Z" style="fill-rule:nonzero;"/>
                <path d="M516.649,614.342L516.649,612.65L514.513,612.65L514.513,611.367L516.649,611.367L516.649,609.088L517.931,609.088L517.931,611.367L522.3,611.367L522.3,609.088L523.582,609.088L523.582,611.367C523.582,611.541 523.549,611.706 523.481,611.862C523.414,612.018 523.323,612.155 523.208,612.272C523.093,612.389 522.957,612.481 522.801,612.549C522.645,612.616 522.478,612.65 522.3,612.65L517.931,612.65L517.931,614.342L516.649,614.342Z" style="fill-rule:nonzero;"/>
                <path d="M522.3,600.957C522.478,600.957 522.645,600.991 522.801,601.058C522.957,601.125 523.093,601.216 523.208,601.331C523.323,601.446 523.414,601.581 523.481,601.735C523.549,601.889 523.582,602.055 523.582,602.233L523.582,605.677C523.582,605.851 523.549,606.015 523.481,606.172C523.414,606.328 523.323,606.464 523.208,606.579C523.093,606.694 522.957,606.785 522.801,606.852C522.645,606.919 522.478,606.953 522.3,606.953L517.931,606.953C517.753,606.953 517.586,606.919 517.43,606.852C517.274,606.785 517.138,606.694 517.023,606.579C516.908,606.464 516.817,606.328 516.75,606.172C516.682,606.015 516.649,605.851 516.649,605.677L516.649,602.233C516.649,602.055 516.682,601.889 516.75,601.735C516.817,601.581 516.908,601.446 517.023,601.331C517.138,601.216 517.274,601.125 517.43,601.058C517.586,600.991 517.753,600.957 517.931,600.957L522.3,600.957ZM517.931,605.677L522.3,605.677L522.3,602.233L517.931,602.233L517.931,605.677Z" style="fill-rule:nonzero;"/>
                <path d="M517.931,597.545L523.582,597.545L523.582,598.821L516.649,598.821L516.649,597.545L517.873,597.545C517.704,597.537 517.544,597.498 517.394,597.428C517.245,597.359 517.114,597.267 517.004,597.152C516.893,597.037 516.806,596.903 516.743,596.751C516.68,596.599 516.649,596.436 516.649,596.263L516.649,594.902C516.649,594.724 516.682,594.558 516.75,594.404C516.817,594.25 516.908,594.114 517.023,593.997C517.138,593.88 517.274,593.788 517.43,593.721C517.586,593.653 517.753,593.62 517.931,593.62L519.103,593.62L519.103,594.902L517.931,594.902L517.931,597.545Z" style="fill-rule:nonzero;"/>
            </g>
        </g>
        <g id="long-side-1" serif:id="long side 1">
            <path d="M194.802,370.504C198.728,413.241 201.142,461.485 201.621,512.741L212.96,512.741L212.96,550.536L201.621,550.536C201.139,602.197 198.69,650.794 194.709,693.779L110.29,693.768L110.291,693.77L110.097,696.73L109.519,699.639L108.565,702.448L107.253,705.108L105.605,707.575L103.649,709.805L101.419,711.761L98.953,713.409L96.292,714.721L93.484,715.674L90.574,716.253L87.614,716.447L64.937,716.447L63.457,716.35L62.002,716.061L60.598,715.584L59.268,714.928L58.035,714.104L56.92,713.126L55.942,712.011L55.118,710.778L54.462,709.447L53.985,708.043L53.696,706.588L53.599,705.108L64.937,705.108L65.917,704.979L66.385,704.821L66.828,704.602L67.239,704.327L67.611,704.001L67.937,703.63L68.212,703.219L68.431,702.775L68.589,702.307L68.718,701.329L68.718,697.716L68.257,695.484L68.004,694.969L67.699,694.484L67.347,694.031L66.95,693.617L66.513,693.245L66.041,692.919L65.01,692.42L53.6,688.267L53.603,374.989L65.17,370.779L65.676,370.565L66.157,370.301L66.61,369.989L67.028,369.633L67.408,369.236L67.745,368.803L68.037,368.338L68.28,367.845L68.472,367.33L68.61,366.799L68.694,366.256L68.72,365.707L68.72,361.928L68.686,361.434L68.59,360.949L68.431,360.481L68.212,360.038L67.937,359.627L67.611,359.255L67.24,358.929L66.828,358.654L66.385,358.435L65.917,358.276L65.432,358.18L64.939,358.146L53.6,358.146L53.665,353.38L53.857,352.41L54.175,351.474L54.613,350.587L55.162,349.765L55.814,349.021L56.557,348.37L57.379,347.82L58.266,347.383L59.203,347.065L60.172,346.872L61.159,346.808L87.616,346.808L90.576,347.002L93.485,347.58L96.294,348.534L98.954,349.846L101.421,351.494L103.651,353.449L105.607,355.68L107.255,358.146L108.567,360.806L109.52,363.615L110.293,366.525L110.293,369.485L194.709,369.496L194.802,370.504ZM76.657,482.619L64.562,482.619L64.562,444.824L76.657,444.824L76.657,482.619ZM64.562,580.635L76.657,580.635L76.657,618.431L64.562,618.431L64.562,580.635ZM136.468,646.521C137.251,646.521 137.885,645.887 137.885,645.104C137.885,639.139 137.885,616.108 137.885,610.143C137.885,609.36 137.251,608.726 136.468,608.726C129.699,608.726 100.716,608.726 93.948,608.726C93.165,608.726 92.531,609.36 92.531,610.143C92.531,616.108 92.531,639.139 92.531,645.104C92.531,645.887 93.165,646.521 93.948,646.521C100.716,646.521 129.699,646.521 136.468,646.521ZM142.137,584.465C142.513,584.465 142.873,584.316 143.139,584.05C143.405,583.784 143.554,583.423 143.554,583.048C143.554,574.686 143.554,531.881 143.554,523.52C143.554,523.144 143.405,522.784 143.139,522.518C142.873,522.252 142.513,522.103 142.137,522.103C134.809,522.103 101.276,522.103 93.948,522.103C93.572,522.103 93.212,522.252 92.946,522.518C92.68,522.784 92.531,523.144 92.531,523.52C92.531,531.881 92.531,574.686 92.531,583.048C92.531,583.423 92.68,583.784 92.946,584.05C93.212,584.316 93.572,584.465 93.948,584.465C101.276,584.465 134.809,584.465 142.137,584.465ZM164.814,468.856C165.19,468.856 165.551,468.706 165.816,468.441C166.082,468.175 166.232,467.814 166.232,467.438C166.232,460.293 166.232,428.284 166.232,421.139C166.232,420.763 166.082,420.403 165.816,420.137C165.551,419.871 165.19,419.722 164.814,419.722C158.849,419.722 135.819,419.722 129.854,419.722C129.478,419.722 129.117,419.871 128.851,420.137C128.586,420.403 128.436,420.763 128.436,421.139C128.436,428.284 128.436,460.293 128.436,467.438C128.436,467.814 128.586,468.175 128.851,468.441C129.117,468.706 129.478,468.856 129.854,468.856C135.819,468.856 158.849,468.856 164.814,468.856Z" style="fill:none;stroke:black;stroke-width:1.33px;"/>
            <g>
                <path d="M123.469,661.729C123.79,658.574 126.459,656.108 129.698,656.108C133.154,656.108 135.96,658.914 135.96,662.37C135.96,665.826 133.154,668.632 129.698,668.632C126.459,668.632 123.79,666.166 123.469,663.011L118.316,663.011C118.019,664.455 116.739,665.543 115.208,665.543C113.457,665.543 112.035,664.121 112.035,662.37C112.035,660.619 113.457,659.197 115.208,659.197C116.739,659.197 118.019,660.285 118.316,661.729L123.469,661.729ZM106.947,663.011C106.626,666.166 103.957,668.632 100.718,668.632C97.262,668.632 94.456,665.826 94.456,662.37C94.456,658.914 97.262,656.108 100.718,656.108C103.957,656.108 106.626,658.574 106.947,661.729L108.979,661.729C109.3,658.574 111.968,656.108 115.208,656.108C116.936,656.108 118.501,656.81 119.635,657.943L118.7,658.878C117.806,657.984 116.571,657.431 115.208,657.431C112.482,657.431 110.269,659.644 110.269,662.37C110.269,665.096 112.482,667.309 115.208,667.309C116.571,667.309 117.806,666.755 118.7,665.861L119.635,666.797C118.501,667.93 116.936,668.632 115.208,668.632C111.968,668.632 109.3,666.166 108.979,663.011L106.947,663.011ZM129.698,657.431C132.424,657.431 134.637,659.644 134.637,662.37C134.637,665.096 132.424,667.309 129.698,667.309C126.972,667.309 124.759,665.096 124.759,662.37C124.759,659.644 126.972,657.431 129.698,657.431ZM100.718,657.431C103.444,657.431 105.657,659.644 105.657,662.37C105.657,665.096 103.444,667.309 100.718,667.309C97.992,667.309 95.779,665.096 95.779,662.37C95.779,659.644 97.992,657.431 100.718,657.431ZM130.336,658.727L130.336,661.729L133.338,661.729L133.338,663.011L130.336,663.011L130.336,666.012L129.06,666.012L129.06,663.011L126.059,663.011L126.059,661.729L129.06,661.729L129.06,658.727L130.336,658.727ZM100.076,666.006L100.076,658.727L101.359,658.727L101.359,666.006L100.076,666.006Z"/>
                <path d="M119.841,430.799L119.841,432.134L111.839,432.134L111.839,437.466L119.841,437.466L119.841,438.801L111.839,438.801C111.657,438.801 111.485,438.766 111.322,438.696C111.159,438.627 111.017,438.531 110.895,438.41C110.774,438.288 110.678,438.146 110.609,437.983C110.539,437.821 110.505,437.648 110.505,437.466L110.505,432.134C110.505,431.952 110.539,431.779 110.609,431.616C110.678,431.454 110.774,431.311 110.895,431.19C111.017,431.068 111.159,430.973 111.322,430.903C111.485,430.834 111.657,430.799 111.839,430.799L119.841,430.799Z" style="fill-rule:nonzero;"/>
                <path d="M114.502,442.531C114.502,442.349 114.538,442.176 114.61,442.013C114.681,441.851 114.777,441.709 114.896,441.587C115.015,441.465 115.156,441.37 115.319,441.301C115.482,441.231 115.655,441.196 115.837,441.196L118.506,441.196C118.688,441.196 118.861,441.231 119.024,441.301C119.186,441.37 119.327,441.465 119.447,441.587C119.566,441.709 119.662,441.851 119.733,442.013C119.805,442.176 119.841,442.349 119.841,442.531L119.841,447.062C119.841,447.245 119.805,447.417 119.733,447.58C119.662,447.743 119.566,447.885 119.447,448.006C119.327,448.128 119.186,448.223 119.024,448.293C118.861,448.362 118.688,448.397 118.506,448.397L117.302,448.397L117.302,447.062L118.506,447.062L118.506,442.531L115.837,442.531L115.837,447.062C115.837,447.245 115.802,447.417 115.733,447.58C115.663,447.743 115.568,447.885 115.446,448.006C115.325,448.128 115.183,448.223 115.02,448.293C114.857,448.362 114.684,448.397 114.502,448.397L111.839,448.397C111.657,448.397 111.485,448.362 111.322,448.293C111.159,448.223 111.017,448.128 110.895,448.006C110.774,447.885 110.678,447.743 110.609,447.58C110.539,447.417 110.505,447.245 110.505,447.062L110.505,442.401C110.505,442.219 110.539,442.046 110.609,441.883C110.678,441.72 110.774,441.578 110.895,441.457C111.017,441.335 111.159,441.24 111.322,441.17C111.485,441.101 111.657,441.066 111.839,441.066L113.037,441.066L113.037,442.401L111.839,442.401L111.839,447.062L114.502,447.062L114.502,442.531Z" style="fill-rule:nonzero;"/>
                <path d="M115.375,456.88C115.314,457.075 115.227,457.253 115.114,457.414C115.001,457.574 114.857,457.711 114.681,457.824C114.505,457.937 114.298,458.024 114.059,458.084C113.821,458.145 113.547,458.176 113.239,458.176L112.77,458.176C111.26,458.176 110.505,457.42 110.505,455.91L110.505,450.799L119.841,450.799L119.841,455.643C119.841,457.153 119.083,457.909 117.569,457.909L117.399,457.909C116.874,457.909 116.446,457.825 116.113,457.658C115.781,457.491 115.535,457.232 115.375,456.88ZM114.574,452.108L111.813,452.108L111.813,455.871C111.813,456.222 111.896,456.476 112.061,456.633C112.226,456.789 112.484,456.867 112.835,456.867L113.558,456.867C113.914,456.867 114.172,456.789 114.333,456.633C114.493,456.476 114.574,456.222 114.574,455.871L114.574,452.108ZM118.532,452.108L115.876,452.108L115.876,455.695C115.889,456.016 115.977,456.247 116.14,456.388C116.302,456.53 116.553,456.6 116.891,456.6L117.503,456.6C117.859,456.6 118.12,456.522 118.285,456.366C118.45,456.209 118.532,455.956 118.532,455.604L118.532,452.108Z" style="fill-rule:nonzero;"/>
                <path d="M147.709,615.003C146.949,614.99 146.382,614.799 146.006,614.43C145.631,614.061 145.443,613.497 145.443,612.737L145.443,610.231C145.443,608.716 146.199,607.959 147.709,607.959L148.269,607.959L148.269,609.267L147.774,609.267C147.423,609.267 147.164,609.346 146.999,609.502C146.834,609.658 146.752,609.914 146.752,610.27L146.752,612.692C146.752,613.048 146.834,613.304 146.999,613.46C147.164,613.616 147.423,613.695 147.774,613.695L149.031,613.695C149.382,613.695 149.639,613.616 149.802,613.46C149.965,613.304 150.046,613.048 150.046,612.692L150.046,608.226L154.779,608.226L154.779,614.762L153.445,614.762L153.445,609.56L151.348,609.56L151.348,612.737C151.348,613.501 151.163,614.07 150.792,614.443C150.421,614.816 149.851,615.003 149.083,615.003L147.709,615.003Z" style="fill-rule:nonzero;"/>
                <path d="M149.844,616.872L149.844,619.99L148.562,619.99L148.562,616.872L149.844,616.872Z" style="fill-rule:nonzero;"/>
                <path d="M148.659,621.325L154.779,625.928L154.779,627.497L148.659,627.497L148.659,628.753L147.377,628.753L147.377,627.497L145.443,627.497L145.443,626.162L147.377,626.162L147.377,621.325L148.659,621.325ZM148.659,626.162L153.165,626.162L148.659,622.777L148.659,626.162Z" style="fill-rule:nonzero;"/>
                <path d="M153.445,630.348C153.627,630.348 153.799,630.383 153.962,630.452C154.125,630.522 154.266,630.617 154.385,630.739C154.505,630.86 154.6,631.002 154.672,631.165C154.743,631.328 154.779,631.501 154.779,631.683L154.779,635.947C154.779,636.129 154.743,636.302 154.672,636.465C154.6,636.627 154.505,636.77 154.385,636.891C154.266,637.013 154.125,637.108 153.962,637.178C153.799,637.247 153.627,637.282 153.445,637.282L152.24,637.282L152.24,635.947L153.445,635.947L153.445,631.683L150.775,631.683L150.775,635.947C150.775,636.129 150.741,636.302 150.671,636.465C150.602,636.627 150.506,636.77 150.385,636.891C150.263,637.013 150.121,637.108 149.958,637.178C149.796,637.247 149.623,637.282 149.441,637.282L146.778,637.282C146.596,637.282 146.423,637.247 146.26,637.178C146.098,637.108 145.956,637.013 145.834,636.891C145.712,636.77 145.617,636.627 145.548,636.465C145.478,636.302 145.443,636.129 145.443,635.947L145.443,631.683C145.443,631.501 145.478,631.328 145.548,631.165C145.617,631.002 145.712,630.86 145.834,630.739C145.956,630.617 146.098,630.522 146.26,630.452C146.423,630.383 146.596,630.348 146.778,630.348L153.445,630.348ZM149.441,631.683L146.778,631.683L146.778,635.947L149.441,635.947L149.441,631.683Z" style="fill-rule:nonzero;"/>
                <path d="M145.443,642.484L154.779,638.883L154.779,640.316L147.097,643.219L154.779,646.129L154.779,647.555L145.443,643.955L145.443,642.484Z" style="fill-rule:nonzero;"/>
                <g transform="matrix(8.16431e-17,1.33333,-1.33333,8.16431e-17,1114,130.87)">
                    <g transform="matrix(10,0,0,10,302.029,710.162)">
                        <path d="M0.19,-0.3C0.176,-0.3 0.163,-0.302 0.151,-0.308C0.139,-0.313 0.128,-0.32 0.119,-0.329C0.11,-0.338 0.103,-0.349 0.098,-0.361C0.092,-0.373 0.09,-0.386 0.09,-0.4L0.09,-0.6C0.09,-0.614 0.092,-0.627 0.098,-0.639C0.103,-0.651 0.11,-0.662 0.119,-0.671C0.128,-0.68 0.139,-0.687 0.151,-0.692C0.163,-0.698 0.176,-0.7 0.19,-0.7L0.53,-0.7C0.543,-0.7 0.556,-0.698 0.569,-0.692C0.581,-0.687 0.591,-0.68 0.601,-0.671C0.61,-0.662 0.617,-0.651 0.622,-0.639C0.627,-0.627 0.63,-0.614 0.63,-0.6L0.63,-0.51L0.53,-0.51L0.53,-0.6L0.19,-0.6L0.19,-0.4L0.53,-0.4C0.543,-0.4 0.556,-0.397 0.569,-0.392C0.581,-0.387 0.591,-0.38 0.601,-0.371C0.61,-0.361 0.617,-0.351 0.622,-0.339C0.627,-0.326 0.63,-0.313 0.63,-0.3L0.63,-0.1C0.63,-0.086 0.627,-0.073 0.622,-0.061C0.617,-0.049 0.61,-0.038 0.601,-0.029C0.591,-0.02 0.581,-0.013 0.569,-0.008C0.556,-0.003 0.543,-0 0.53,-0L0.18,-0C0.167,-0 0.154,-0.003 0.141,-0.008C0.129,-0.013 0.118,-0.02 0.109,-0.029C0.1,-0.038 0.093,-0.049 0.088,-0.061C0.083,-0.073 0.08,-0.086 0.08,-0.1L0.08,-0.19L0.18,-0.19L0.18,-0.1L0.53,-0.1L0.53,-0.3L0.19,-0.3Z" style="fill-rule:nonzero;"/>
                    </g>
                    <g transform="matrix(10,0,0,10,309.231,710.162)">
                        <path d="M0.05,-0.52L0.177,-0.52L0.177,-0.68L0.273,-0.68L0.273,-0.52L0.444,-0.52L0.444,-0.424L0.273,-0.424L0.273,-0.096L0.444,-0.096L0.444,-0L0.273,-0C0.26,-0 0.248,-0.003 0.236,-0.008C0.224,-0.013 0.214,-0.019 0.205,-0.028C0.196,-0.037 0.189,-0.047 0.184,-0.059C0.179,-0.07 0.177,-0.083 0.177,-0.096L0.177,-0.424L0.05,-0.424L0.05,-0.52Z" style="fill-rule:nonzero;"/>
                    </g>
                    <g transform="matrix(10,0,0,10,314.471,710.162)">
                        <path d="M0.08,-0.227C0.08,-0.24 0.083,-0.253 0.088,-0.264C0.093,-0.276 0.1,-0.286 0.108,-0.295C0.117,-0.304 0.127,-0.311 0.139,-0.316C0.15,-0.321 0.163,-0.323 0.176,-0.323L0.424,-0.323L0.424,-0.424L0.11,-0.424L0.11,-0.52L0.424,-0.52C0.437,-0.52 0.45,-0.517 0.461,-0.512C0.473,-0.507 0.483,-0.501 0.492,-0.492C0.501,-0.483 0.507,-0.473 0.512,-0.461C0.517,-0.45 0.52,-0.437 0.52,-0.424L0.52,-0L0.424,-0L0.424,-0.088C0.423,-0.076 0.42,-0.064 0.414,-0.054C0.409,-0.043 0.401,-0.034 0.393,-0.026C0.384,-0.018 0.374,-0.011 0.363,-0.007C0.352,-0.002 0.34,-0 0.328,-0L0.176,-0C0.163,-0 0.15,-0.003 0.139,-0.008C0.127,-0.013 0.117,-0.019 0.108,-0.028C0.1,-0.037 0.093,-0.047 0.088,-0.059C0.083,-0.07 0.08,-0.083 0.08,-0.096L0.08,-0.227ZM0.176,-0.096L0.424,-0.096L0.424,-0.227L0.176,-0.227L0.176,-0.096Z" style="fill-rule:nonzero;"/>
                    </g>
                    <g transform="matrix(10,0,0,10,320.472,710.162)">
                        <path d="M0.05,-0.52L0.177,-0.52L0.177,-0.68L0.273,-0.68L0.273,-0.52L0.444,-0.52L0.444,-0.424L0.273,-0.424L0.273,-0.096L0.444,-0.096L0.444,-0L0.273,-0C0.26,-0 0.248,-0.003 0.236,-0.008C0.224,-0.013 0.214,-0.019 0.205,-0.028C0.196,-0.037 0.189,-0.047 0.184,-0.059C0.179,-0.07 0.177,-0.083 0.177,-0.096L0.177,-0.424L0.05,-0.424L0.05,-0.52Z" style="fill-rule:nonzero;"/>
                    </g>
                    <g transform="matrix(10,0,0,10,325.711,710.162)">
                        <path d="M0.52,-0.211L0.176,-0.211L0.176,-0.096L0.52,-0.096L0.52,-0L0.176,-0C0.163,-0 0.15,-0.003 0.139,-0.008C0.127,-0.013 0.117,-0.019 0.108,-0.028C0.1,-0.037 0.093,-0.047 0.088,-0.059C0.083,-0.07 0.08,-0.083 0.08,-0.096L0.08,-0.424C0.08,-0.437 0.083,-0.45 0.088,-0.461C0.093,-0.473 0.1,-0.483 0.108,-0.492C0.117,-0.501 0.127,-0.507 0.139,-0.512C0.15,-0.517 0.163,-0.52 0.176,-0.52L0.424,-0.52C0.437,-0.52 0.45,-0.517 0.461,-0.512C0.473,-0.507 0.483,-0.501 0.492,-0.492C0.501,-0.483 0.507,-0.473 0.512,-0.461C0.517,-0.45 0.52,-0.437 0.52,-0.424L0.52,-0.211ZM0.176,-0.424L0.176,-0.307L0.424,-0.307L0.424,-0.424L0.176,-0.424Z" style="fill-rule:nonzero;"/>
                    </g>
                    <g transform="matrix(10,0,0,10,295.677,720.641)">
                        <path d="M0.451,-0L0.19,-0.513L0.19,-0L0.09,-0L0.09,-0.7L0.199,-0.7L0.466,-0.173L0.733,-0.7L0.842,-0.7L0.842,-0L0.742,-0L0.742,-0.513L0.481,-0L0.451,-0Z" style="fill-rule:nonzero;"/>
                    </g>
                    <g transform="matrix(10,0,0,10,304.998,720.641)">
                        <path d="M0.08,-0.227C0.08,-0.24 0.083,-0.253 0.088,-0.264C0.093,-0.276 0.1,-0.286 0.108,-0.295C0.117,-0.304 0.127,-0.311 0.139,-0.316C0.15,-0.321 0.163,-0.323 0.176,-0.323L0.424,-0.323L0.424,-0.424L0.11,-0.424L0.11,-0.52L0.424,-0.52C0.437,-0.52 0.45,-0.517 0.461,-0.512C0.473,-0.507 0.483,-0.501 0.492,-0.492C0.501,-0.483 0.507,-0.473 0.512,-0.461C0.517,-0.45 0.52,-0.437 0.52,-0.424L0.52,-0L0.424,-0L0.424,-0.088C0.423,-0.076 0.42,-0.064 0.414,-0.054C0.409,-0.043 0.401,-0.034 0.393,-0.026C0.384,-0.018 0.374,-0.011 0.363,-0.007C0.352,-0.002 0.34,-0 0.328,-0L0.176,-0C0.163,-0 0.15,-0.003 0.139,-0.008C0.127,-0.013 0.117,-0.019 0.108,-0.028C0.1,-0.037 0.093,-0.047 0.088,-0.059C0.083,-0.07 0.08,-0.083 0.08,-0.096L0.08,-0.227ZM0.176,-0.096L0.424,-0.096L0.424,-0.227L0.176,-0.227L0.176,-0.096Z" style="fill-rule:nonzero;"/>
                    </g>
                    <g transform="matrix(10,0,0,10,310.999,720.641)">
                        <path d="M0.176,-0.424L0.176,-0.096L0.424,-0.096L0.424,-0.184L0.52,-0.184L0.52,-0.096C0.52,-0.083 0.517,-0.07 0.512,-0.059C0.507,-0.047 0.501,-0.037 0.492,-0.028C0.483,-0.019 0.473,-0.013 0.461,-0.008C0.45,-0.003 0.437,-0 0.424,-0L0.176,-0C0.163,-0 0.15,-0.003 0.139,-0.008C0.127,-0.013 0.117,-0.019 0.108,-0.028C0.1,-0.037 0.093,-0.047 0.088,-0.059C0.083,-0.07 0.08,-0.083 0.08,-0.096L0.08,-0.424C0.08,-0.437 0.083,-0.45 0.088,-0.461C0.093,-0.473 0.1,-0.483 0.108,-0.492C0.117,-0.501 0.127,-0.507 0.139,-0.512C0.15,-0.517 0.163,-0.52 0.176,-0.52L0.424,-0.52C0.437,-0.52 0.45,-0.517 0.461,-0.512C0.473,-0.507 0.483,-0.501 0.492,-0.492C0.501,-0.483 0.507,-0.473 0.512,-0.461C0.517,-0.45 0.52,-0.437 0.52,-0.424L0.52,-0.336L0.424,-0.336L0.424,-0.424L0.176,-0.424Z" style="fill-rule:nonzero;"/>
                    </g>
                    <g transform="matrix(10,0,0,10,317,720.641)">
                        <path d="M0.54,-0L0.444,-0L0.444,-0.424L0.176,-0.424L0.176,-0L0.08,-0L0.08,-0.72L0.176,-0.72L0.176,-0.428C0.176,-0.441 0.179,-0.453 0.185,-0.464C0.19,-0.475 0.197,-0.485 0.205,-0.493C0.214,-0.502 0.224,-0.508 0.235,-0.513C0.247,-0.518 0.259,-0.52 0.272,-0.52L0.444,-0.52C0.457,-0.52 0.47,-0.517 0.481,-0.512C0.493,-0.507 0.503,-0.501 0.512,-0.492C0.521,-0.483 0.527,-0.473 0.532,-0.461C0.538,-0.45 0.54,-0.437 0.54,-0.424L0.54,-0Z" style="fill-rule:nonzero;"/>
                    </g>
                    <g transform="matrix(10,0,0,10,323.201,720.641)">
                        <path d="M0.181,-0.52L0.181,-0L0.085,-0L0.085,-0.52L0.181,-0.52ZM0.08,-0.72L0.186,-0.72L0.186,-0.62L0.08,-0.62L0.08,-0.72Z" style="fill-rule:nonzero;"/>
                    </g>
                    <g transform="matrix(10,0,0,10,325.862,720.641)">
                        <path d="M0.54,-0L0.444,-0L0.444,-0.424L0.176,-0.424L0.176,-0L0.08,-0L0.08,-0.52L0.176,-0.52L0.176,-0.428C0.176,-0.441 0.179,-0.453 0.185,-0.464C0.19,-0.475 0.197,-0.485 0.205,-0.493C0.214,-0.502 0.224,-0.508 0.235,-0.513C0.247,-0.518 0.259,-0.52 0.272,-0.52L0.444,-0.52C0.457,-0.52 0.47,-0.517 0.481,-0.512C0.493,-0.507 0.503,-0.501 0.512,-0.492C0.521,-0.483 0.527,-0.473 0.532,-0.461C0.538,-0.45 0.54,-0.437 0.54,-0.424L0.54,-0Z" style="fill-rule:nonzero;"/>
                    </g>
                    <g transform="matrix(10,0,0,10,332.063,720.641)">
                        <path d="M0.52,-0.211L0.176,-0.211L0.176,-0.096L0.52,-0.096L0.52,-0L0.176,-0C0.163,-0 0.15,-0.003 0.139,-0.008C0.127,-0.013 0.117,-0.019 0.108,-0.028C0.1,-0.037 0.093,-0.047 0.088,-0.059C0.083,-0.07 0.08,-0.083 0.08,-0.096L0.08,-0.424C0.08,-0.437 0.083,-0.45 0.088,-0.461C0.093,-0.473 0.1,-0.483 0.108,-0.492C0.117,-0.501 0.127,-0.507 0.139,-0.512C0.15,-0.517 0.163,-0.52 0.176,-0.52L0.424,-0.52C0.437,-0.52 0.45,-0.517 0.461,-0.512C0.473,-0.507 0.483,-0.501 0.492,-0.492C0.501,-0.483 0.507,-0.473 0.512,-0.461C0.517,-0.45 0.52,-0.437 0.52,-0.424L0.52,-0.211ZM0.176,-0.424L0.176,-0.307L0.424,-0.307L0.424,-0.424L0.176,-0.424Z" style="fill-rule:nonzero;"/>
                    </g>
                </g>
            </g>
        </g>
        <g id="short-side-2" serif:id="short side 2">
            <path id="short-side-21" serif:id="short side 2" d="M492.929,82.194L492.929,54.209L492.993,53.222L493.186,52.253L493.504,51.316L493.941,50.43L494.49,49.607L495.142,48.864L495.886,48.212L496.708,47.663L497.595,47.225L498.531,46.908L499.501,46.715L500.487,46.65L649.495,46.65L652.455,46.844L655.364,47.423L658.173,48.376L660.834,49.688L663.3,51.336L665.53,53.292L667.486,55.522L669.134,57.989L670.446,60.649L671.4,63.458L671.978,66.367L672.172,69.327L672.172,320.351L671.978,323.311L671.399,326.22L670.446,329.029L669.134,331.69L667.486,334.156L665.53,336.386L663.3,338.342L660.834,339.99L658.173,341.302L655.364,342.255L652.455,342.834L649.495,343.028L500.487,343.028L499.501,342.963L498.531,342.771L497.595,342.453L496.708,342.016L495.886,341.466L495.142,340.814L494.49,340.071L493.941,339.249L493.504,338.362L493.186,337.426L492.993,336.456L492.928,335.469L492.928,307.485C499.735,284.305 504.28,242.508 504.28,194.839C504.28,147.17 499.735,105.374 492.929,82.194ZM560.96,70.839L515.606,70.839L515.606,58.745L560.96,58.745L560.96,70.839ZM515.606,318.839L560.96,318.839L560.96,330.934L515.606,330.934L515.606,318.839ZM540.211,278.604C539.71,278.604 539.229,278.405 538.875,278.051C538.52,277.696 538.321,277.216 538.321,276.714C538.321,259.488 538.321,129.909 538.321,112.683C538.321,112.182 538.52,111.701 538.875,111.347C539.229,110.992 539.71,110.793 540.211,110.793C545.586,110.793 560.915,110.793 566.29,110.793C566.791,110.793 567.272,110.992 567.626,111.347C567.98,111.701 568.18,112.182 568.18,112.683C568.18,129.909 568.18,259.488 568.18,276.714C568.18,277.216 567.98,277.696 567.626,278.051C567.272,278.405 566.791,278.604 566.29,278.604C560.915,278.604 545.586,278.604 540.211,278.604ZM653.275,313.548L653.275,301.075L657.054,301.075L657.054,88.603L653.275,88.603L653.275,76.13L641.558,76.13L641.558,313.548L653.275,313.548Z" style="fill:none;stroke:black;stroke-width:1.33px;"/>
            <g>
                <path d="M587.018,269.211C587.01,269.667 586.896,270.007 586.674,270.233C586.453,270.458 586.115,270.571 585.659,270.571L584.155,270.571C583.246,270.571 582.792,270.117 582.792,269.211L582.792,268.875L583.577,268.875L583.577,269.172C583.577,269.383 583.624,269.538 583.717,269.637C583.811,269.736 583.965,269.785 584.178,269.785L585.631,269.785C585.845,269.785 585.999,269.736 586.092,269.637C586.186,269.538 586.233,269.383 586.233,269.172L586.233,268.418C586.233,268.207 586.186,268.053 586.092,267.955C585.999,267.858 585.845,267.809 585.631,267.809L582.952,267.809L582.952,264.969L586.874,264.969L586.874,265.77L583.753,265.77L583.753,267.028L585.659,267.028C586.117,267.028 586.458,267.139 586.682,267.362C586.906,267.584 587.018,267.926 587.018,268.387L587.018,269.211Z" style="fill-rule:nonzero;"/>
                <path d="M589.897,270.571L587.737,264.969L588.596,264.969L590.339,269.578L592.085,264.969L592.94,264.969L590.78,270.571L589.897,270.571Z" style="fill-rule:nonzero;"/>
                <path d="M582.792,255.653L583.577,255.653L583.577,255.95C583.577,256.161 583.624,256.316 583.717,256.415C583.811,256.514 583.965,256.564 584.178,256.564L585.792,256.564C586.005,256.564 586.159,256.514 586.253,256.415C586.346,256.316 586.393,256.161 586.393,255.95L586.393,255.517C586.393,255.303 586.346,255.148 586.253,255.052C586.159,254.956 586.005,254.907 585.792,254.907L584.135,254.907L584.135,254.126L585.768,254.126C585.964,254.118 586.103,254.066 586.188,253.968C586.273,253.87 586.315,253.72 586.315,253.517L586.315,253.15C586.315,252.936 586.268,252.78 586.172,252.681C586.077,252.582 585.924,252.532 585.714,252.532L584.256,252.532C584.046,252.532 583.893,252.582 583.799,252.681C583.706,252.78 583.659,252.936 583.659,253.15L583.659,253.446L582.874,253.446L582.874,253.111C582.874,252.202 583.327,251.747 584.233,251.747L585.737,251.747C586.198,251.747 586.54,251.859 586.762,252.083C586.985,252.307 587.096,252.65 587.096,253.111L587.096,253.212C587.096,253.527 587.041,253.787 586.93,253.991C586.82,254.196 586.659,254.347 586.448,254.446C586.685,254.517 586.866,254.657 586.991,254.868C587.116,255.079 587.178,255.359 587.178,255.708L587.178,255.989C587.178,256.896 586.725,257.349 585.819,257.349L584.155,257.349C583.246,257.349 582.792,256.896 582.792,255.989L582.792,255.653Z" style="fill-rule:nonzero;"/>
                <rect x="588.299" y="256.181" width="1.168" height="1.168" style="fill-rule:nonzero;"/>
                <path d="M590.506,255.653L591.292,255.653L591.292,255.95C591.292,256.161 591.339,256.316 591.432,256.415C591.526,256.514 591.68,256.564 591.893,256.564L593.506,256.564C593.72,256.564 593.874,256.514 593.967,256.415C594.061,256.316 594.108,256.161 594.108,255.95L594.108,255.517C594.108,255.303 594.061,255.148 593.967,255.052C593.874,254.956 593.72,254.907 593.506,254.907L591.85,254.907L591.85,254.126L593.483,254.126C593.678,254.118 593.818,254.066 593.903,253.968C593.988,253.87 594.03,253.72 594.03,253.517L594.03,253.15C594.03,252.936 593.982,252.78 593.887,252.681C593.792,252.582 593.639,252.532 593.428,252.532L591.971,252.532C591.76,252.532 591.608,252.582 591.514,252.681C591.421,252.78 591.374,252.936 591.374,253.15L591.374,253.446L590.589,253.446L590.589,253.111C590.589,252.202 591.042,251.747 591.948,251.747L593.452,251.747C593.913,251.747 594.255,251.859 594.477,252.083C594.7,252.307 594.811,252.65 594.811,253.111L594.811,253.212C594.811,253.527 594.756,253.787 594.645,253.991C594.534,254.196 594.374,254.347 594.163,254.446C594.4,254.517 594.581,254.657 594.706,254.868C594.831,255.079 594.893,255.359 594.893,255.708L594.893,255.989C594.893,256.896 594.44,257.349 593.534,257.349L591.87,257.349C590.961,257.349 590.506,256.896 590.506,255.989L590.506,255.653Z" style="fill-rule:nonzero;"/>
                <path d="M597.772,257.349L595.612,251.747L596.471,251.747L598.214,256.357L599.96,251.747L600.815,251.747L598.655,257.349L597.772,257.349Z" style="fill-rule:nonzero;"/>
                <path d="M582.792,242.432L583.577,242.432L583.577,242.729C583.577,242.939 583.624,243.094 583.717,243.193C583.811,243.292 583.965,243.342 584.178,243.342L585.792,243.342C586.005,243.342 586.159,243.292 586.253,243.193C586.346,243.094 586.393,242.939 586.393,242.729L586.393,242.295C586.393,242.081 586.346,241.926 586.253,241.83C586.159,241.734 586.005,241.686 585.792,241.686L584.135,241.686L584.135,240.904L585.768,240.904C585.964,240.897 586.103,240.844 586.188,240.746C586.273,240.648 586.315,240.498 586.315,240.295L586.315,239.928C586.315,239.714 586.268,239.558 586.172,239.459C586.077,239.36 585.924,239.311 585.714,239.311L584.256,239.311C584.046,239.311 583.893,239.36 583.799,239.459C583.706,239.558 583.659,239.714 583.659,239.928L583.659,240.225L582.874,240.225L582.874,239.889C582.874,238.98 583.327,238.525 584.233,238.525L585.737,238.525C586.198,238.525 586.54,238.637 586.762,238.861C586.985,239.085 587.096,239.428 587.096,239.889L587.096,239.99C587.096,240.305 587.041,240.565 586.93,240.77C586.82,240.974 586.659,241.126 586.448,241.225C586.685,241.295 586.866,241.436 586.991,241.647C587.116,241.857 587.178,242.137 587.178,242.486L587.178,242.768C587.178,243.674 586.725,244.127 585.819,244.127L584.155,244.127C583.246,244.127 582.792,243.674 582.792,242.768L582.792,242.432Z" style="fill-rule:nonzero;"/>
                <rect x="588.299" y="242.959" width="1.168" height="1.168" style="fill-rule:nonzero;"/>
                <path d="M590.506,242.432L591.292,242.432L591.292,242.729C591.292,242.939 591.339,243.094 591.432,243.193C591.526,243.292 591.68,243.342 591.893,243.342L593.506,243.342C593.72,243.342 593.874,243.292 593.967,243.193C594.061,243.094 594.108,242.939 594.108,242.729L594.108,242.295C594.108,242.081 594.061,241.926 593.967,241.83C593.874,241.734 593.72,241.686 593.506,241.686L591.85,241.686L591.85,240.904L593.483,240.904C593.678,240.897 593.818,240.844 593.903,240.746C593.988,240.648 594.03,240.498 594.03,240.295L594.03,239.928C594.03,239.714 593.982,239.558 593.887,239.459C593.792,239.36 593.639,239.311 593.428,239.311L591.971,239.311C591.76,239.311 591.608,239.36 591.514,239.459C591.421,239.558 591.374,239.714 591.374,239.928L591.374,240.225L590.589,240.225L590.589,239.889C590.589,238.98 591.042,238.525 591.948,238.525L593.452,238.525C593.913,238.525 594.255,238.637 594.477,238.861C594.7,239.085 594.811,239.428 594.811,239.889L594.811,239.99C594.811,240.305 594.756,240.565 594.645,240.77C594.534,240.974 594.374,241.126 594.163,241.225C594.4,241.295 594.581,241.436 594.706,241.647C594.831,241.857 594.893,242.137 594.893,242.486L594.893,242.768C594.893,243.674 594.44,244.127 593.534,244.127L591.87,244.127C590.961,244.127 590.506,243.674 590.506,242.768L590.506,242.432Z" style="fill-rule:nonzero;"/>
                <path d="M597.772,244.127L595.612,238.525L596.471,238.525L598.214,243.135L599.96,238.525L600.815,238.525L598.655,244.127L597.772,244.127Z" style="fill-rule:nonzero;"/>
                <path d="M583.112,226.104C583.112,225.995 583.133,225.891 583.174,225.794C583.216,225.696 583.273,225.612 583.346,225.54C583.419,225.468 583.505,225.411 583.602,225.368C583.7,225.325 583.803,225.304 583.913,225.304L586.952,225.304C587.061,225.304 587.165,225.325 587.262,225.368C587.36,225.411 587.445,225.468 587.518,225.54C587.591,225.612 587.648,225.696 587.69,225.794C587.732,225.891 587.753,225.995 587.753,226.104L587.753,226.827L586.952,226.827L586.952,226.104L583.913,226.104L583.913,230.104L586.952,230.104L586.952,228.745L585.432,228.745L585.432,227.944L587.753,227.944L587.753,230.104C587.753,230.214 587.732,230.317 587.69,230.415C587.648,230.513 587.591,230.598 587.518,230.671C587.445,230.744 587.36,230.801 587.262,230.843C587.165,230.884 587.061,230.905 586.952,230.905L583.913,230.905C583.803,230.905 583.7,230.884 583.602,230.843C583.505,230.801 583.419,230.744 583.346,230.671C583.273,230.598 583.216,230.513 583.174,230.415C583.133,230.317 583.112,230.214 583.112,230.104L583.112,226.104Z" style="fill-rule:nonzero;"/>
                <path d="M589.991,230.905L589.19,230.905L589.19,225.304L589.991,225.304L593.358,229.647L593.358,225.304L594.159,225.304L594.159,230.905L593.358,230.905L589.991,226.561L589.991,230.905Z" style="fill-rule:nonzero;"/>
                <path d="M598.444,230.104C598.816,230.104 599.103,230.004 599.303,229.804C599.504,229.603 599.604,229.317 599.604,228.944L599.604,227.265C599.604,227.082 599.578,226.919 599.526,226.776C599.474,226.633 599.398,226.511 599.297,226.411C599.197,226.311 599.075,226.235 598.932,226.183C598.789,226.13 598.626,226.104 598.444,226.104L596.397,226.104L596.397,230.104L598.444,230.104ZM595.596,230.905L595.596,225.304L598.444,225.304C598.743,225.304 599.014,225.35 599.255,225.442C599.495,225.535 599.701,225.666 599.872,225.837C600.042,226.007 600.174,226.214 600.266,226.456C600.359,226.698 600.405,226.968 600.405,227.265L600.405,228.944C600.405,229.241 600.359,229.511 600.266,229.753C600.174,229.995 600.042,230.201 599.872,230.372C599.701,230.543 599.495,230.674 599.255,230.766C599.014,230.859 598.743,230.905 598.444,230.905L595.596,230.905Z" style="fill-rule:nonzero;"/>
                <rect x="583.112" y="212.082" width="0.801" height="5.602" style="fill-rule:nonzero;"/>
                <path d="M590.151,216.883C590.151,216.992 590.13,217.095 590.089,217.193C590.047,217.291 589.99,217.376 589.917,217.449C589.844,217.522 589.758,217.579 589.661,217.621C589.563,217.663 589.46,217.683 589.35,217.683L586.151,217.683C586.042,217.683 585.938,217.663 585.84,217.621C585.743,217.579 585.658,217.522 585.585,217.449C585.512,217.376 585.454,217.291 585.413,217.193C585.371,217.095 585.35,216.992 585.35,216.883L585.35,212.883C585.35,212.773 585.371,212.67 585.413,212.572C585.454,212.474 585.512,212.39 585.585,212.318C585.658,212.246 585.743,212.189 585.84,212.146C585.938,212.103 586.042,212.082 586.151,212.082L589.35,212.082C589.46,212.082 589.563,212.103 589.661,212.146C589.758,212.189 589.844,212.246 589.917,212.318C589.99,212.39 590.047,212.474 590.089,212.572C590.13,212.67 590.151,212.773 590.151,212.883L590.151,216.883ZM586.151,212.883L586.151,216.883L589.35,216.883L589.35,212.883L586.151,212.883Z" style="fill-rule:nonzero;"/>
                <path d="M591.589,212.883C591.589,212.773 591.609,212.67 591.651,212.572C591.693,212.474 591.75,212.39 591.823,212.318C591.896,212.246 591.981,212.189 592.079,212.146C592.176,212.103 592.28,212.082 592.389,212.082L594.948,212.082C595.057,212.082 595.161,212.103 595.258,212.146C595.356,212.189 595.441,212.246 595.514,212.318C595.587,212.39 595.644,212.474 595.686,212.572C595.728,212.67 595.749,212.773 595.749,212.883L595.749,213.605L594.948,213.605L594.948,212.883L592.389,212.883L592.389,214.484L594.948,214.484C595.057,214.484 595.161,214.505 595.258,214.547C595.356,214.588 595.441,214.646 595.514,214.719C595.587,214.791 595.644,214.877 595.686,214.974C595.728,215.072 595.749,215.176 595.749,215.285L595.749,216.883C595.749,216.992 595.728,217.095 595.686,217.193C595.644,217.291 595.587,217.376 595.514,217.449C595.441,217.522 595.356,217.579 595.258,217.621C595.161,217.663 595.057,217.683 594.948,217.683L592.389,217.683C592.28,217.683 592.176,217.663 592.079,217.621C591.981,217.579 591.896,217.522 591.823,217.449C591.75,217.376 591.693,217.291 591.651,217.193C591.609,217.095 591.589,216.992 591.589,216.883L591.589,212.883ZM592.389,215.285L592.389,216.883L594.948,216.883L594.948,215.285L592.389,215.285Z" style="fill-rule:nonzero;"/>
                <rect x="583.112" y="198.86" width="0.801" height="5.602" style="fill-rule:nonzero;"/>
                <path d="M590.151,203.661C590.151,203.77 590.13,203.874 590.089,203.971C590.047,204.069 589.99,204.154 589.917,204.227C589.844,204.3 589.758,204.357 589.661,204.399C589.563,204.441 589.46,204.462 589.35,204.462L586.151,204.462C586.042,204.462 585.938,204.441 585.84,204.399C585.743,204.357 585.658,204.3 585.585,204.227C585.512,204.154 585.454,204.069 585.413,203.971C585.371,203.874 585.35,203.77 585.35,203.661L585.35,199.661C585.35,199.551 585.371,199.448 585.413,199.35C585.454,199.253 585.512,199.168 585.585,199.096C585.658,199.025 585.743,198.967 585.84,198.924C585.938,198.881 586.042,198.86 586.151,198.86L589.35,198.86C589.46,198.86 589.563,198.881 589.661,198.924C589.758,198.967 589.844,199.025 589.917,199.096C589.99,199.168 590.047,199.253 590.089,199.35C590.13,199.448 590.151,199.551 590.151,199.661L590.151,203.661ZM586.151,199.661L586.151,203.661L589.35,203.661L589.35,199.661L586.151,199.661Z" style="fill-rule:nonzero;"/>
                <path d="M595.495,203.102C595.487,203.558 595.372,203.898 595.151,204.124C594.93,204.349 594.591,204.462 594.135,204.462L592.631,204.462C591.723,204.462 591.268,204.008 591.268,203.102L591.268,202.766L592.053,202.766L592.053,203.063C592.053,203.274 592.1,203.429 592.194,203.528C592.288,203.627 592.441,203.676 592.655,203.676L594.108,203.676C594.322,203.676 594.475,203.627 594.569,203.528C594.663,203.429 594.71,203.274 594.71,203.063L594.71,202.309C594.71,202.098 594.663,201.944 594.569,201.846C594.475,201.749 594.322,201.7 594.108,201.7L591.428,201.7L591.428,198.86L595.35,198.86L595.35,199.661L592.229,199.661L592.229,200.919L594.135,200.919C594.594,200.919 594.935,201.03 595.159,201.253C595.383,201.475 595.495,201.817 595.495,202.278L595.495,203.102Z" style="fill-rule:nonzero;"/>
                <path d="M583.112,186.439C583.112,186.33 583.133,186.226 583.174,186.128C583.216,186.031 583.273,185.946 583.346,185.874C583.419,185.803 583.505,185.746 583.602,185.703C583.7,185.66 583.803,185.638 583.913,185.638L586.952,185.638C587.061,185.638 587.165,185.66 587.262,185.703C587.36,185.746 587.445,185.803 587.518,185.874C587.591,185.946 587.648,186.031 587.69,186.128C587.732,186.226 587.753,186.33 587.753,186.439L587.753,187.162L586.952,187.162L586.952,186.439L583.913,186.439L583.913,190.439L586.952,190.439L586.952,189.08L585.432,189.08L585.432,188.279L587.753,188.279L587.753,190.439C587.753,190.548 587.732,190.652 587.69,190.749C587.648,190.847 587.591,190.932 587.518,191.005C587.445,191.078 587.36,191.136 587.262,191.177C587.165,191.219 587.061,191.24 586.952,191.24L583.913,191.24C583.803,191.24 583.7,191.219 583.602,191.177C583.505,191.136 583.419,191.078 583.346,191.005C583.273,190.932 583.216,190.847 583.174,190.749C583.133,190.652 583.112,190.548 583.112,190.439L583.112,186.439Z" style="fill-rule:nonzero;"/>
                <path d="M589.991,191.24L589.19,191.24L589.19,185.638L589.991,185.638L593.358,189.982L593.358,185.638L594.159,185.638L594.159,191.24L593.358,191.24L589.991,186.896L589.991,191.24Z" style="fill-rule:nonzero;"/>
                <path d="M598.444,190.439C598.816,190.439 599.103,190.339 599.303,190.138C599.504,189.938 599.604,189.651 599.604,189.279L599.604,187.599C599.604,187.417 599.578,187.254 599.526,187.111C599.474,186.968 599.398,186.846 599.297,186.746C599.197,186.645 599.075,186.569 598.932,186.517C598.789,186.465 598.626,186.439 598.444,186.439L596.397,186.439L596.397,190.439L598.444,190.439ZM595.596,191.24L595.596,185.638L598.444,185.638C598.743,185.638 599.014,185.684 599.255,185.777C599.495,185.869 599.701,186.001 599.872,186.171C600.042,186.342 600.174,186.548 600.266,186.79C600.359,187.033 600.405,187.302 600.405,187.599L600.405,189.279C600.405,189.576 600.359,189.845 600.266,190.087C600.174,190.33 600.042,190.536 599.872,190.707C599.701,190.877 599.495,191.009 599.255,191.101C599.014,191.193 598.743,191.24 598.444,191.24L595.596,191.24Z" style="fill-rule:nonzero;"/>
                <rect x="583.112" y="172.416" width="0.801" height="5.602" style="fill-rule:nonzero;"/>
                <path d="M590.151,177.217C590.151,177.326 590.13,177.43 590.089,177.528C590.047,177.625 589.99,177.711 589.917,177.784C589.844,177.856 589.758,177.914 589.661,177.955C589.563,177.997 589.46,178.018 589.35,178.018L586.151,178.018C586.042,178.018 585.938,177.997 585.84,177.955C585.743,177.914 585.658,177.856 585.585,177.784C585.512,177.711 585.454,177.625 585.413,177.528C585.371,177.43 585.35,177.326 585.35,177.217L585.35,173.217C585.35,173.108 585.371,173.004 585.413,172.907C585.454,172.809 585.512,172.724 585.585,172.653C585.658,172.581 585.743,172.524 585.84,172.481C585.938,172.438 586.042,172.416 586.151,172.416L589.35,172.416C589.46,172.416 589.563,172.438 589.661,172.481C589.758,172.524 589.844,172.581 589.917,172.653C589.99,172.724 590.047,172.809 590.089,172.907C590.13,173.004 590.151,173.108 590.151,173.217L590.151,177.217ZM586.151,173.217L586.151,177.217L589.35,177.217L589.35,173.217L586.151,173.217Z" style="fill-rule:nonzero;"/>
                <path d="M591.03,176.088L593.792,172.416L594.733,172.416L594.733,176.088L595.487,176.088L595.487,176.858L594.733,176.858L594.733,178.018L593.932,178.018L593.932,176.858L591.03,176.858L591.03,176.088ZM593.932,176.088L593.932,173.385L591.901,176.088L593.932,176.088Z" style="fill-rule:nonzero;"/>
                <rect x="583.112" y="159.195" width="0.801" height="5.602" style="fill-rule:nonzero;"/>
                <path d="M590.151,163.995C590.151,164.105 590.13,164.208 590.089,164.306C590.047,164.403 589.99,164.489 589.917,164.562C589.844,164.635 589.758,164.692 589.661,164.734C589.563,164.775 589.46,164.796 589.35,164.796L586.151,164.796C586.042,164.796 585.938,164.775 585.84,164.734C585.743,164.692 585.658,164.635 585.585,164.562C585.512,164.489 585.454,164.403 585.413,164.306C585.371,164.208 585.35,164.105 585.35,163.995L585.35,159.995C585.35,159.886 585.371,159.782 585.413,159.685C585.454,159.587 585.512,159.502 585.585,159.431C585.658,159.359 585.743,159.302 585.84,159.259C585.938,159.216 586.042,159.195 586.151,159.195L589.35,159.195C589.46,159.195 589.563,159.216 589.661,159.259C589.758,159.302 589.844,159.359 589.917,159.431C589.99,159.502 590.047,159.587 590.089,159.685C590.13,159.782 590.151,159.886 590.151,159.995L590.151,163.995ZM586.151,159.995L586.151,163.995L589.35,163.995L589.35,159.995L586.151,159.995Z" style="fill-rule:nonzero;"/>
                <path d="M591.268,163.101L592.053,163.101L592.053,163.398C592.053,163.609 592.1,163.764 592.194,163.862C592.288,163.961 592.441,164.011 592.655,164.011L594.268,164.011C594.482,164.011 594.635,163.961 594.729,163.862C594.823,163.764 594.87,163.609 594.87,163.398L594.87,162.964C594.87,162.75 594.823,162.596 594.729,162.499C594.635,162.403 594.482,162.355 594.268,162.355L592.612,162.355L592.612,161.573L594.245,161.573C594.44,161.566 594.58,161.513 594.665,161.415C594.749,161.318 594.792,161.167 594.792,160.964L594.792,160.597C594.792,160.383 594.744,160.227 594.649,160.128C594.554,160.029 594.401,159.98 594.19,159.98L592.733,159.98C592.522,159.98 592.37,160.029 592.276,160.128C592.182,160.227 592.135,160.383 592.135,160.597L592.135,160.894L591.35,160.894L591.35,160.558C591.35,159.649 591.803,159.195 592.71,159.195L594.214,159.195C594.674,159.195 595.016,159.306 595.239,159.53C595.462,159.754 595.573,160.097 595.573,160.558L595.573,160.659C595.573,160.974 595.518,161.234 595.407,161.439C595.296,161.643 595.135,161.795 594.924,161.894C595.161,161.964 595.342,162.105 595.467,162.316C595.592,162.527 595.655,162.806 595.655,163.155L595.655,163.437C595.655,164.343 595.202,164.796 594.296,164.796L592.631,164.796C591.723,164.796 591.268,164.343 591.268,163.437L591.268,163.101Z" style="fill-rule:nonzero;"/>
                <path d="M583.112,146.773C583.112,146.664 583.133,146.561 583.174,146.463C583.216,146.365 583.273,146.281 583.346,146.209C583.419,146.137 583.505,146.08 583.602,146.037C583.7,145.994 583.803,145.973 583.913,145.973L586.952,145.973C587.061,145.973 587.165,145.994 587.262,146.037C587.36,146.08 587.445,146.137 587.518,146.209C587.591,146.281 587.648,146.365 587.69,146.463C587.732,146.561 587.753,146.664 587.753,146.773L587.753,147.496L586.952,147.496L586.952,146.773L583.913,146.773L583.913,150.773L586.952,150.773L586.952,149.414L585.432,149.414L585.432,148.613L587.753,148.613L587.753,150.773C587.753,150.883 587.732,150.986 587.69,151.084C587.648,151.182 587.591,151.267 587.518,151.34C587.445,151.413 587.36,151.47 587.262,151.512C587.165,151.553 587.061,151.574 586.952,151.574L583.913,151.574C583.803,151.574 583.7,151.553 583.602,151.512C583.505,151.47 583.419,151.413 583.346,151.34C583.273,151.267 583.216,151.182 583.174,151.084C583.133,150.986 583.112,150.883 583.112,150.773L583.112,146.773Z" style="fill-rule:nonzero;"/>
                <path d="M589.991,151.574L589.19,151.574L589.19,145.973L589.991,145.973L593.358,150.316L593.358,145.973L594.159,145.973L594.159,151.574L593.358,151.574L589.991,147.231L589.991,151.574Z" style="fill-rule:nonzero;"/>
                <path d="M598.444,150.773C598.816,150.773 599.103,150.673 599.303,150.473C599.504,150.272 599.604,149.986 599.604,149.613L599.604,147.934C599.604,147.751 599.578,147.589 599.526,147.445C599.474,147.302 599.398,147.18 599.297,147.08C599.197,146.98 599.075,146.904 598.932,146.852C598.789,146.8 598.626,146.773 598.444,146.773L596.397,146.773L596.397,150.773L598.444,150.773ZM595.596,151.574L595.596,145.973L598.444,145.973C598.743,145.973 599.014,146.019 599.255,146.111C599.495,146.204 599.701,146.335 599.872,146.506C600.042,146.676 600.174,146.883 600.266,147.125C600.359,147.367 600.405,147.637 600.405,147.934L600.405,149.613C600.405,149.91 600.359,150.18 600.266,150.422C600.174,150.664 600.042,150.87 599.872,151.041C599.701,151.212 599.495,151.343 599.255,151.436C599.014,151.528 598.743,151.574 598.444,151.574L595.596,151.574Z" style="fill-rule:nonzero;"/>
                <rect x="583.112" y="132.751" width="0.801" height="5.602" style="fill-rule:nonzero;"/>
                <path d="M590.151,137.552C590.151,137.661 590.13,137.765 590.089,137.862C590.047,137.96 589.99,138.045 589.917,138.118C589.844,138.191 589.758,138.248 589.661,138.29C589.563,138.332 589.46,138.352 589.35,138.352L586.151,138.352C586.042,138.352 585.938,138.332 585.84,138.29C585.743,138.248 585.658,138.191 585.585,138.118C585.512,138.045 585.454,137.96 585.413,137.862C585.371,137.765 585.35,137.661 585.35,137.552L585.35,133.552C585.35,133.442 585.371,133.339 585.413,133.241C585.454,133.143 585.512,133.059 585.585,132.987C585.658,132.916 585.743,132.858 585.84,132.815C585.938,132.772 586.042,132.751 586.151,132.751L589.35,132.751C589.46,132.751 589.563,132.772 589.661,132.815C589.758,132.858 589.844,132.916 589.917,132.987C589.99,133.059 590.047,133.143 590.089,133.241C590.13,133.339 590.151,133.442 590.151,133.552L590.151,137.552ZM586.151,133.552L586.151,137.552L589.35,137.552L589.35,133.552L586.151,133.552Z" style="fill-rule:nonzero;"/>
                <path d="M592.311,133.552L592.311,134.274L591.51,134.274L591.51,133.552C591.51,133.442 591.531,133.339 591.573,133.241C591.615,133.143 591.672,133.059 591.745,132.987C591.818,132.916 591.903,132.858 592.001,132.815C592.098,132.772 592.202,132.751 592.311,132.751L594.846,132.751C594.956,132.751 595.059,132.772 595.157,132.815C595.255,132.858 595.339,132.916 595.411,132.987C595.482,133.059 595.54,133.143 595.583,133.241C595.626,133.339 595.647,133.442 595.647,133.552L595.647,134.575C595.647,134.684 595.637,134.782 595.616,134.868C595.595,134.954 595.562,135.031 595.516,135.1C595.471,135.169 595.413,135.231 595.342,135.286C595.272,135.341 595.186,135.393 595.085,135.442L592.311,136.743L592.311,137.552L594.948,137.552L594.948,136.833L595.749,136.833L595.749,138.352L591.51,138.352L591.51,136.88C591.51,136.77 591.521,136.673 591.544,136.587C591.566,136.501 591.599,136.424 591.643,136.356C591.687,136.289 591.745,136.227 591.817,136.171C591.889,136.115 591.973,136.063 592.069,136.016L594.846,134.712L594.846,133.552L592.311,133.552Z" style="fill-rule:nonzero;"/>
                <rect x="583.112" y="119.529" width="0.801" height="5.602" style="fill-rule:nonzero;"/>
                <path d="M590.151,124.33C590.151,124.439 590.13,124.543 590.089,124.64C590.047,124.738 589.99,124.823 589.917,124.896C589.844,124.969 589.758,125.026 589.661,125.068C589.563,125.11 589.46,125.131 589.35,125.131L586.151,125.131C586.042,125.131 585.938,125.11 585.84,125.068C585.743,125.026 585.658,124.969 585.585,124.896C585.512,124.823 585.454,124.738 585.413,124.64C585.371,124.543 585.35,124.439 585.35,124.33L585.35,120.33C585.35,120.22 585.371,120.117 585.413,120.019C585.454,119.922 585.512,119.837 585.585,119.765C585.658,119.694 585.743,119.636 585.84,119.594C585.938,119.551 586.042,119.529 586.151,119.529L589.35,119.529C589.46,119.529 589.563,119.551 589.661,119.594C589.758,119.636 589.844,119.694 589.917,119.765C589.99,119.837 590.047,119.922 590.089,120.019C590.13,120.117 590.151,120.22 590.151,120.33L590.151,124.33ZM586.151,120.33L586.151,124.33L589.35,124.33L589.35,120.33L586.151,120.33Z" style="fill-rule:nonzero;"/>
                <path d="M592.87,119.529L592.87,125.131L592.069,125.131L592.069,120.33L591.108,120.33L591.108,119.529L592.87,119.529Z" style="fill-rule:nonzero;"/>
            </g>
        </g>
        <path id="short-side-1" serif:id="short side 1" d="M196.509,307.485L196.509,335.469L196.445,336.456L196.252,337.425L195.934,338.362L195.497,339.249L194.947,340.071L194.295,340.814L193.552,341.466L192.73,342.015L191.843,342.453L190.907,342.771L189.937,342.963L188.95,343.028L40.235,343.028L37.275,342.834L34.366,342.255L31.557,341.302L28.896,339.99L26.43,338.342L24.2,336.386L22.244,334.156L20.596,331.69L19.284,329.029L18.331,326.22L17.752,323.311L17.558,320.351L17.558,69.327L17.752,66.367L18.331,63.458L19.284,60.649L20.596,57.989L22.244,55.522L24.2,53.292L26.43,51.336L28.897,49.688L31.557,48.376L34.366,47.423L37.275,46.844L40.235,46.65L188.95,46.65L189.937,46.715L190.907,46.907L191.843,47.225L192.73,47.663L193.552,48.212L194.296,48.864L194.948,49.607L195.497,50.429L195.934,51.316L196.252,52.253L196.445,53.222L196.509,54.209L196.509,82.193C189.703,105.373 185.157,147.17 185.157,194.839C185.157,242.508 189.703,284.305 196.509,307.485ZM128.478,318.839L173.832,318.839L173.832,330.934L128.478,330.934L128.478,318.839ZM36.456,76.13L36.456,88.603L32.676,88.603L32.676,301.075L36.456,301.075L36.456,313.548L48.172,313.548L48.172,76.13L36.456,76.13ZM113.845,304.338C113.845,302.252 112.151,300.559 110.065,300.559L67.07,300.559C64.984,300.559 63.29,302.252 63.29,304.338C63.29,306.424 64.984,308.118 67.07,308.118L110.065,308.118C112.151,308.118 113.845,306.424 113.845,304.338ZM109.771,286.089C109.771,284.003 108.078,282.309 105.992,282.309L67.07,282.309C64.984,282.309 63.29,284.003 63.29,286.089C63.29,288.174 64.984,289.868 67.07,289.868L105.992,289.868C108.078,289.868 109.771,288.174 109.771,286.089ZM107.108,267.839C107.108,265.753 105.415,264.059 103.329,264.059L67.07,264.059C64.984,264.059 63.29,265.753 63.29,267.839C63.29,269.925 64.984,271.618 67.07,271.618L103.329,271.618C105.415,271.618 107.108,269.925 107.108,267.839ZM105.388,249.589C105.388,247.503 103.695,245.809 101.609,245.809L67.07,245.809C64.984,245.809 63.29,247.503 63.29,249.589C63.29,251.675 64.984,253.368 67.07,253.368L101.609,253.368C103.695,253.368 105.388,251.675 105.388,249.589ZM104.17,231.339C104.17,229.253 102.476,227.559 100.39,227.559L67.07,227.559C64.984,227.559 63.29,229.253 63.29,231.339C63.29,233.425 64.984,235.118 67.07,235.118L100.39,235.118C102.476,235.118 104.17,233.425 104.17,231.339ZM103.424,213.089C103.424,211.003 101.73,209.309 99.645,209.309L67.07,209.309C64.984,209.309 63.29,211.003 63.29,213.089C63.29,215.175 64.984,216.868 67.07,216.868L99.645,216.868C101.73,216.868 103.424,215.175 103.424,213.089ZM103.143,194.839C103.143,192.753 101.449,191.06 99.363,191.06L67.07,191.06C64.984,191.06 63.29,192.753 63.29,194.839C63.29,196.925 64.984,198.619 67.07,198.619L99.363,198.619C101.449,198.619 103.143,196.925 103.143,194.839ZM103.424,176.589C103.424,174.503 101.73,172.81 99.645,172.81L67.07,172.81C64.984,172.81 63.29,174.503 63.29,176.589C63.29,178.675 64.984,180.369 67.07,180.369L99.645,180.369C101.73,180.369 103.424,178.675 103.424,176.589ZM104.17,158.339C104.17,156.253 102.476,154.56 100.39,154.56L67.07,154.56C64.984,154.56 63.29,156.253 63.29,158.339C63.29,160.425 64.984,162.119 67.07,162.119L100.39,162.119C102.476,162.119 104.17,160.425 104.17,158.339ZM105.388,140.089C105.388,138.003 103.695,136.31 101.609,136.31L67.07,136.31C64.984,136.31 63.29,138.003 63.29,140.089C63.29,142.175 64.984,143.869 67.07,143.869L101.609,143.869C103.695,143.869 105.388,142.175 105.388,140.089ZM107.108,121.84C107.108,119.754 105.415,118.06 103.329,118.06L67.07,118.06C64.984,118.06 63.29,119.754 63.29,121.84C63.29,123.925 64.984,125.619 67.07,125.619L103.329,125.619C105.415,125.619 107.108,123.925 107.108,121.84ZM109.771,103.59C109.771,101.504 108.078,99.81 105.992,99.81L67.07,99.81C64.984,99.81 63.29,101.504 63.29,103.59C63.29,105.676 64.984,107.369 67.07,107.369L105.992,107.369C108.078,107.369 109.771,105.676 109.771,103.59ZM113.845,85.34C113.845,83.254 112.151,81.56 110.065,81.56L67.07,81.56C64.984,81.56 63.29,83.254 63.29,85.34C63.29,87.426 64.984,89.119 67.07,89.119L110.065,89.119C112.151,89.119 113.845,87.426 113.845,85.34ZM173.832,70.839L128.478,70.839L128.478,58.744L173.832,58.744L173.832,70.839Z" style="fill:none;stroke:black;stroke-width:1.33px;"/>
        <path id="bottom" d="M468.739,716.447L220.698,716.447L220.698,641.108L209.36,641.108L209.36,603.312L220.698,603.312L220.698,505.296L209.36,505.296L209.36,467.501L220.698,467.501L220.698,392.163L468.739,392.163L468.739,467.501L480.078,467.501L480.078,505.296L468.739,505.296L468.739,603.312L480.078,603.312L480.078,641.108L468.739,641.108L468.739,716.447ZM442.113,695.902C442.113,692.565 444.822,689.855 448.16,689.855C451.497,689.855 454.207,692.565 454.207,695.902C454.207,699.24 451.497,701.95 448.16,701.95C444.822,701.95 442.113,699.24 442.113,695.902ZM235.713,695.902C235.713,692.565 238.422,689.855 241.76,689.855C245.097,689.855 247.807,692.565 247.807,695.902C247.807,699.24 245.097,701.95 241.76,701.95C238.422,701.95 235.713,699.24 235.713,695.902ZM367.396,609.108C367.396,604.936 364.009,601.549 359.837,601.549C355.665,601.549 352.278,604.936 352.278,609.108L352.278,665.801C352.278,669.973 355.665,673.36 359.837,673.36C364.009,673.36 367.396,669.973 367.396,665.801L367.396,609.108ZM337.16,609.108C337.16,604.936 333.773,601.549 329.601,601.549C325.429,601.549 322.042,604.936 322.042,609.108L322.042,665.801C322.042,669.973 325.429,673.36 329.601,673.36C333.773,673.36 337.16,669.973 337.16,665.801L337.16,609.108ZM412.75,525.83C412.75,521.658 409.363,518.271 405.191,518.271C401.019,518.271 397.632,521.658 397.632,525.83L397.632,582.523C397.632,586.695 401.019,590.082 405.191,590.082C409.363,590.082 412.75,586.695 412.75,582.523L412.75,525.83ZM382.514,525.83C382.514,521.658 379.127,518.271 374.955,518.271C370.783,518.271 367.396,521.658 367.396,525.83L367.396,582.523C367.396,586.695 370.783,590.082 374.955,590.082C379.127,590.082 382.514,586.695 382.514,582.523L382.514,525.83ZM352.278,525.83C352.278,521.658 348.891,518.271 344.719,518.271C340.547,518.271 337.16,521.658 337.16,525.83L337.16,582.523C337.16,586.695 340.547,590.082 344.719,590.082C348.891,590.082 352.278,586.695 352.278,582.523L352.278,525.83ZM291.806,525.83C291.806,521.658 288.418,518.271 284.246,518.271C280.075,518.271 276.687,521.658 276.687,525.83L276.687,582.523C276.687,586.695 280.075,590.082 284.246,590.082C288.418,590.082 291.806,586.695 291.806,582.523L291.806,525.83ZM322.042,525.83C322.042,521.658 318.655,518.271 314.483,518.271C310.311,518.271 306.924,521.658 306.924,525.83L306.924,582.523C306.924,586.695 310.311,590.082 314.483,590.082C318.655,590.082 322.042,586.695 322.042,582.523L322.042,525.83ZM367.396,442.809C367.396,438.637 364.009,435.25 359.837,435.25C355.665,435.25 352.278,438.637 352.278,442.809L352.278,499.502C352.278,503.674 355.665,507.061 359.837,507.061C364.009,507.061 367.396,503.674 367.396,499.502L367.396,442.809ZM337.16,442.809C337.16,438.637 333.773,435.25 329.601,435.25C325.429,435.25 322.042,438.637 322.042,442.809L322.042,499.502C322.042,503.674 325.429,507.061 329.601,507.061C333.773,507.061 337.16,503.674 337.16,499.502L337.16,442.809ZM442.113,412.702C442.113,409.365 444.822,406.655 448.16,406.655C451.497,406.655 454.207,409.365 454.207,412.702C454.207,416.04 451.497,418.75 448.16,418.75C444.822,418.75 442.113,416.04 442.113,412.702ZM235.713,412.702C235.713,409.365 238.422,406.655 241.76,406.655C245.097,406.655 247.807,409.365 247.807,412.702C247.807,416.04 245.097,418.75 241.76,418.75C238.422,418.75 235.713,416.04 235.713,412.702Z" style="fill:none;stroke:black;stroke-width:1.33px;stroke-miterlimit:1.5;"/>
        <g id="top">
            <path id="face0-cut-3" d="M231.657,18.198L231.164,18.232L230.679,18.329L230.211,18.488L229.768,18.706L229.357,18.981L228.985,19.307L228.659,19.679L228.384,20.09L228.165,20.534L228.006,21.002L227.91,21.487L227.88,21.98L227.88,29.539L239.218,29.539L239.218,40.878L206.515,40.878L196.509,154.263L196.509,252.092L206.515,365.478L239.218,365.478L239.218,376.816L227.88,376.816L227.88,384.376L227.914,384.869L228.01,385.354L228.169,385.822L228.388,386.265L228.663,386.676L228.988,387.048L229.36,387.374L229.771,387.648L230.215,387.867L230.683,388.026L231.168,388.122L231.659,388.156L457.777,388.156L458.27,388.122L458.755,388.026L459.223,387.867L459.667,387.648L460.078,387.374L460.449,387.048L460.776,386.676L461.05,386.265L461.269,385.822L461.428,385.354L461.524,384.869L461.558,384.377L461.558,376.818L450.22,376.818L450.22,365.479L482.922,365.479L492.928,252.092L492.928,154.263L482.922,40.878L450.22,40.878L450.22,29.539L461.558,29.539L461.558,21.98L461.524,21.487L461.428,21.002L461.269,20.534L461.05,20.09L460.776,19.679L460.449,19.308L460.078,18.981L459.667,18.707L459.223,18.488L458.755,18.329L458.27,18.232L457.777,18.198L231.658,18.198M468.738,222.294L468.738,183.743L480.832,183.743L480.832,222.294L468.738,222.294M220.697,183.743L220.697,222.294L208.602,222.294L208.602,183.743L220.697,183.743" style="fill:none;fill-rule:nonzero;stroke:black;stroke-width:1.33px;"/>
            <g>
                <path d="M298.479,100.559C277.261,100.559 260.035,117.785 260.035,139.003C260.035,160.221 277.261,177.447 298.479,177.447C319.697,177.447 336.923,160.221 336.923,139.003C336.923,117.785 319.697,100.559 298.479,100.559ZM298.479,103.885C317.861,103.885 333.597,119.621 333.597,139.003C333.597,158.385 317.861,174.121 298.479,174.121C279.097,174.121 263.361,158.385 263.361,139.003C263.361,119.621 279.097,103.885 298.479,103.885ZM317.803,148.95L279.155,148.95C278.702,148.95 278.273,149.039 277.868,149.217C277.463,149.395 277.11,149.633 276.808,149.929C276.506,150.226 276.268,150.577 276.095,150.981C275.923,151.386 275.836,151.815 275.836,152.268L275.836,158.263L279.155,158.263L279.155,152.268L317.803,152.268C318.257,152.268 318.685,152.179 319.09,152.001C319.495,151.823 319.848,151.586 320.15,151.289C320.453,150.992 320.69,150.642 320.863,150.237C321.035,149.832 321.122,149.403 321.122,148.95L321.122,142.955L317.803,142.955L317.803,148.95ZM297.993,142.955L289.333,125.942L289.333,142.955L286.015,142.955L286.015,119.743L289.641,119.743L298.479,137.225L307.334,119.743L310.943,119.743L310.943,142.955L307.641,142.955L307.641,125.942L298.981,142.955L297.993,142.955Z" style="fill-rule:nonzero;"/>
                <g transform="matrix(1.3123,-1.17694e-32,-2.22308e-32,1.3123,226.989,-898.343)">
                    <g transform="matrix(15.1639,0,0,15.1639,91.2406,772.104)">
                        <path d="M0.546,-0.365C0.561,-0.361 0.574,-0.354 0.586,-0.346C0.598,-0.337 0.608,-0.326 0.617,-0.313C0.625,-0.3 0.632,-0.285 0.636,-0.267C0.641,-0.249 0.643,-0.228 0.643,-0.205L0.643,-0.17C0.643,-0.057 0.586,-0 0.473,-0L0.09,-0L0.09,-0.7L0.453,-0.7C0.566,-0.7 0.623,-0.643 0.623,-0.53L0.623,-0.517C0.623,-0.478 0.617,-0.446 0.604,-0.421C0.592,-0.396 0.572,-0.377 0.546,-0.365ZM0.188,-0.305L0.188,-0.098L0.47,-0.098C0.497,-0.098 0.516,-0.104 0.527,-0.117C0.539,-0.129 0.545,-0.148 0.545,-0.175L0.545,-0.229C0.545,-0.256 0.539,-0.275 0.527,-0.287C0.516,-0.299 0.497,-0.305 0.47,-0.305L0.188,-0.305ZM0.188,-0.602L0.188,-0.403L0.457,-0.403C0.481,-0.404 0.498,-0.41 0.509,-0.423C0.52,-0.435 0.525,-0.454 0.525,-0.479L0.525,-0.525C0.525,-0.552 0.519,-0.571 0.507,-0.583C0.496,-0.596 0.477,-0.602 0.45,-0.602L0.188,-0.602Z" style="fill-rule:nonzero;"/>
                    </g>
                    <g transform="matrix(15.1639,0,0,15.1639,101.903,772.104)">
                        <path d="M0.54,-0.096C0.54,-0.083 0.538,-0.07 0.532,-0.059C0.527,-0.047 0.521,-0.037 0.512,-0.028C0.503,-0.019 0.493,-0.013 0.481,-0.008C0.47,-0.003 0.457,-0 0.444,-0L0.176,-0L0.176,0.21L0.08,0.21L0.08,-0.52L0.176,-0.52L0.176,-0.432C0.177,-0.444 0.18,-0.456 0.186,-0.467C0.191,-0.477 0.198,-0.486 0.207,-0.494C0.215,-0.502 0.225,-0.509 0.236,-0.513C0.247,-0.518 0.259,-0.52 0.272,-0.52L0.444,-0.52C0.457,-0.52 0.47,-0.517 0.481,-0.512C0.493,-0.507 0.503,-0.501 0.512,-0.492C0.521,-0.483 0.527,-0.473 0.532,-0.461C0.538,-0.45 0.54,-0.437 0.54,-0.424L0.54,-0.096ZM0.444,-0.096L0.444,-0.424L0.176,-0.424L0.176,-0.096L0.444,-0.096Z" style="fill-rule:nonzero;"/>
                    </g>
                    <g transform="matrix(15.1639,0,0,15.1639,111.306,772.104)">
                        <path d="M0.53,-0.096C0.53,-0.083 0.527,-0.07 0.522,-0.059C0.517,-0.047 0.51,-0.037 0.502,-0.028C0.493,-0.019 0.483,-0.013 0.471,-0.008C0.46,-0.003 0.447,-0 0.434,-0L0.176,-0C0.163,-0 0.15,-0.003 0.139,-0.008C0.127,-0.013 0.117,-0.019 0.108,-0.028C0.1,-0.037 0.093,-0.047 0.088,-0.059C0.083,-0.07 0.08,-0.083 0.08,-0.096L0.08,-0.424C0.08,-0.437 0.083,-0.45 0.088,-0.461C0.093,-0.473 0.1,-0.483 0.108,-0.492C0.117,-0.501 0.127,-0.507 0.139,-0.512C0.15,-0.517 0.163,-0.52 0.176,-0.52L0.434,-0.52C0.447,-0.52 0.46,-0.517 0.471,-0.512C0.483,-0.507 0.493,-0.501 0.502,-0.492C0.51,-0.483 0.517,-0.473 0.522,-0.461C0.527,-0.45 0.53,-0.437 0.53,-0.424L0.53,-0.096ZM0.176,-0.424L0.176,-0.096L0.434,-0.096L0.434,-0.424L0.176,-0.424Z" style="fill-rule:nonzero;"/>
                    </g>
                    <g transform="matrix(15.1639,0,0,15.1639,120.554,772.104)">
                        <path d="M0.08,-0.424C0.08,-0.437 0.083,-0.45 0.088,-0.461C0.093,-0.473 0.1,-0.483 0.108,-0.492C0.117,-0.501 0.127,-0.507 0.139,-0.512C0.15,-0.517 0.163,-0.52 0.176,-0.52L0.444,-0.52L0.444,-0.72L0.54,-0.72L0.54,-0L0.444,-0L0.444,-0.088C0.443,-0.076 0.44,-0.064 0.434,-0.054C0.429,-0.043 0.421,-0.034 0.413,-0.026C0.404,-0.018 0.394,-0.011 0.383,-0.007C0.372,-0.002 0.361,-0 0.348,-0L0.176,-0C0.163,-0 0.15,-0.003 0.139,-0.008C0.127,-0.013 0.117,-0.019 0.108,-0.028C0.1,-0.037 0.093,-0.047 0.088,-0.059C0.083,-0.07 0.08,-0.083 0.08,-0.096L0.08,-0.424ZM0.176,-0.096L0.444,-0.096L0.444,-0.424L0.176,-0.424L0.176,-0.096Z" style="fill-rule:nonzero;"/>
                    </g>
                    <g transform="matrix(15.1639,0,0,15.1639,91.2406,787.994)">
                        <path d="M0.19,-0.3C0.176,-0.3 0.163,-0.302 0.151,-0.308C0.139,-0.313 0.128,-0.32 0.119,-0.329C0.11,-0.338 0.103,-0.349 0.098,-0.361C0.092,-0.373 0.09,-0.386 0.09,-0.4L0.09,-0.6C0.09,-0.614 0.092,-0.627 0.098,-0.639C0.103,-0.651 0.11,-0.662 0.119,-0.671C0.128,-0.68 0.139,-0.687 0.151,-0.692C0.163,-0.698 0.176,-0.7 0.19,-0.7L0.53,-0.7C0.543,-0.7 0.556,-0.698 0.569,-0.692C0.581,-0.687 0.591,-0.68 0.601,-0.671C0.61,-0.662 0.617,-0.651 0.622,-0.639C0.627,-0.627 0.63,-0.614 0.63,-0.6L0.63,-0.51L0.53,-0.51L0.53,-0.6L0.19,-0.6L0.19,-0.4L0.53,-0.4C0.543,-0.4 0.556,-0.397 0.569,-0.392C0.581,-0.387 0.591,-0.38 0.601,-0.371C0.61,-0.361 0.617,-0.351 0.622,-0.339C0.627,-0.326 0.63,-0.313 0.63,-0.3L0.63,-0.1C0.63,-0.086 0.627,-0.073 0.622,-0.061C0.617,-0.049 0.61,-0.038 0.601,-0.029C0.591,-0.02 0.581,-0.013 0.569,-0.008C0.556,-0.003 0.543,-0 0.53,-0L0.18,-0C0.167,-0 0.154,-0.003 0.141,-0.008C0.129,-0.013 0.118,-0.02 0.109,-0.029C0.1,-0.038 0.093,-0.049 0.088,-0.061C0.083,-0.073 0.08,-0.086 0.08,-0.1L0.08,-0.19L0.18,-0.19L0.18,-0.1L0.53,-0.1L0.53,-0.3L0.19,-0.3Z" style="fill-rule:nonzero;"/>
                    </g>
                    <g transform="matrix(15.1639,0,0,15.1639,102.162,787.994)">
                        <path d="M0.05,-0.52L0.177,-0.52L0.177,-0.68L0.273,-0.68L0.273,-0.52L0.444,-0.52L0.444,-0.424L0.273,-0.424L0.273,-0.096L0.444,-0.096L0.444,-0L0.273,-0C0.26,-0 0.248,-0.003 0.236,-0.008C0.224,-0.013 0.214,-0.019 0.205,-0.028C0.196,-0.037 0.189,-0.047 0.184,-0.059C0.179,-0.07 0.177,-0.083 0.177,-0.096L0.177,-0.424L0.05,-0.424L0.05,-0.52Z" style="fill-rule:nonzero;"/>
                    </g>
                    <g transform="matrix(15.1639,0,0,15.1639,110.107,787.994)">
                        <path d="M0.52,-0.211L0.176,-0.211L0.176,-0.096L0.52,-0.096L0.52,-0L0.176,-0C0.163,-0 0.15,-0.003 0.139,-0.008C0.127,-0.013 0.117,-0.019 0.108,-0.028C0.1,-0.037 0.093,-0.047 0.088,-0.059C0.083,-0.07 0.08,-0.083 0.08,-0.096L0.08,-0.424C0.08,-0.437 0.083,-0.45 0.088,-0.461C0.093,-0.473 0.1,-0.483 0.108,-0.492C0.117,-0.501 0.127,-0.507 0.139,-0.512C0.15,-0.517 0.163,-0.52 0.176,-0.52L0.424,-0.52C0.437,-0.52 0.45,-0.517 0.461,-0.512C0.473,-0.507 0.483,-0.501 0.492,-0.492C0.501,-0.483 0.507,-0.473 0.512,-0.461C0.517,-0.45 0.52,-0.437 0.52,-0.424L0.52,-0.211ZM0.176,-0.424L0.176,-0.307L0.424,-0.307L0.424,-0.424L0.176,-0.424Z" style="fill-rule:nonzero;"/>
                    </g>
                    <g transform="matrix(15.1639,0,0,15.1639,119.206,787.994)">
                        <path d="M0.54,-0.096C0.54,-0.083 0.538,-0.07 0.532,-0.059C0.527,-0.047 0.521,-0.037 0.512,-0.028C0.503,-0.019 0.493,-0.013 0.481,-0.008C0.47,-0.003 0.457,-0 0.444,-0L0.176,-0L0.176,0.21L0.08,0.21L0.08,-0.52L0.176,-0.52L0.176,-0.432C0.177,-0.444 0.18,-0.456 0.186,-0.467C0.191,-0.477 0.198,-0.486 0.207,-0.494C0.215,-0.502 0.225,-0.509 0.236,-0.513C0.247,-0.518 0.259,-0.52 0.272,-0.52L0.444,-0.52C0.457,-0.52 0.47,-0.517 0.481,-0.512C0.493,-0.507 0.503,-0.501 0.512,-0.492C0.521,-0.483 0.527,-0.473 0.532,-0.461C0.538,-0.45 0.54,-0.437 0.54,-0.424L0.54,-0.096ZM0.444,-0.096L0.444,-0.424L0.176,-0.424L0.176,-0.096L0.444,-0.096Z" style="fill-rule:nonzero;"/>
                    </g>
                    <g transform="matrix(15.1639,0,0,15.1639,128.61,787.994)">
                        <path d="M0.54,-0.096C0.54,-0.083 0.538,-0.07 0.532,-0.059C0.527,-0.047 0.521,-0.037 0.512,-0.028C0.503,-0.019 0.493,-0.013 0.481,-0.008C0.47,-0.003 0.457,-0 0.444,-0L0.176,-0L0.176,0.21L0.08,0.21L0.08,-0.52L0.176,-0.52L0.176,-0.432C0.177,-0.444 0.18,-0.456 0.186,-0.467C0.191,-0.477 0.198,-0.486 0.207,-0.494C0.215,-0.502 0.225,-0.509 0.236,-0.513C0.247,-0.518 0.259,-0.52 0.272,-0.52L0.444,-0.52C0.457,-0.52 0.47,-0.517 0.481,-0.512C0.493,-0.507 0.503,-0.501 0.512,-0.492C0.521,-0.483 0.527,-0.473 0.532,-0.461C0.538,-0.45 0.54,-0.437 0.54,-0.424L0.54,-0.096ZM0.444,-0.096L0.444,-0.424L0.176,-0.424L0.176,-0.096L0.444,-0.096Z" style="fill-rule:nonzero;"/>
                    </g>
                    <g transform="matrix(15.1639,0,0,15.1639,138.013,787.994)">
                        <path d="M0.52,-0.211L0.176,-0.211L0.176,-0.096L0.52,-0.096L0.52,-0L0.176,-0C0.163,-0 0.15,-0.003 0.139,-0.008C0.127,-0.013 0.117,-0.019 0.108,-0.028C0.1,-0.037 0.093,-0.047 0.088,-0.059C0.083,-0.07 0.08,-0.083 0.08,-0.096L0.08,-0.424C0.08,-0.437 0.083,-0.45 0.088,-0.461C0.093,-0.473 0.1,-0.483 0.108,-0.492C0.117,-0.501 0.127,-0.507 0.139,-0.512C0.15,-0.517 0.163,-0.52 0.176,-0.52L0.424,-0.52C0.437,-0.52 0.45,-0.517 0.461,-0.512C0.473,-0.507 0.483,-0.501 0.492,-0.492C0.501,-0.483 0.507,-0.473 0.512,-0.461C0.517,-0.45 0.52,-0.437 0.52,-0.424L0.52,-0.211ZM0.176,-0.424L0.176,-0.307L0.424,-0.307L0.424,-0.424L0.176,-0.424Z" style="fill-rule:nonzero;"/>
                    </g>
                    <g transform="matrix(15.1639,0,0,15.1639,147.113,787.994)">
                        <path d="M0.176,-0.424L0.176,-0L0.08,-0L0.08,-0.52L0.176,-0.52L0.176,-0.428C0.176,-0.441 0.179,-0.453 0.185,-0.464C0.19,-0.475 0.197,-0.485 0.205,-0.493C0.214,-0.502 0.224,-0.508 0.235,-0.513C0.247,-0.518 0.259,-0.52 0.272,-0.52L0.374,-0.52C0.387,-0.52 0.4,-0.517 0.411,-0.512C0.423,-0.507 0.433,-0.501 0.442,-0.492C0.451,-0.483 0.458,-0.473 0.463,-0.461C0.468,-0.45 0.47,-0.437 0.47,-0.424L0.47,-0.336L0.374,-0.336L0.374,-0.424L0.176,-0.424Z" style="fill-rule:nonzero;"/>
                    </g>
                    <g transform="matrix(15.1639,0,0,15.1639,91.2406,803.883)">
                        <path d="M0.451,-0L0.19,-0.513L0.19,-0L0.09,-0L0.09,-0.7L0.199,-0.7L0.466,-0.173L0.733,-0.7L0.842,-0.7L0.842,-0L0.742,-0L0.742,-0.513L0.481,-0L0.451,-0Z" style="fill-rule:nonzero;"/>
                    </g>
                    <g transform="matrix(15.1639,0,0,15.1639,105.375,803.883)">
                        <path d="M0.53,-0.096C0.53,-0.083 0.527,-0.07 0.522,-0.059C0.517,-0.047 0.51,-0.037 0.502,-0.028C0.493,-0.019 0.483,-0.013 0.471,-0.008C0.46,-0.003 0.447,-0 0.434,-0L0.176,-0C0.163,-0 0.15,-0.003 0.139,-0.008C0.127,-0.013 0.117,-0.019 0.108,-0.028C0.1,-0.037 0.093,-0.047 0.088,-0.059C0.083,-0.07 0.08,-0.083 0.08,-0.096L0.08,-0.424C0.08,-0.437 0.083,-0.45 0.088,-0.461C0.093,-0.473 0.1,-0.483 0.108,-0.492C0.117,-0.501 0.127,-0.507 0.139,-0.512C0.15,-0.517 0.163,-0.52 0.176,-0.52L0.434,-0.52C0.447,-0.52 0.46,-0.517 0.471,-0.512C0.483,-0.507 0.493,-0.501 0.502,-0.492C0.51,-0.483 0.517,-0.473 0.522,-0.461C0.527,-0.45 0.53,-0.437 0.53,-0.424L0.53,-0.096ZM0.176,-0.424L0.176,-0.096L0.434,-0.096L0.434,-0.424L0.176,-0.424Z" style="fill-rule:nonzero;"/>
                    </g>
                    <g transform="matrix(15.1639,0,0,15.1639,114.623,803.883)">
                        <path d="M0.05,-0.52L0.177,-0.52L0.177,-0.68L0.273,-0.68L0.273,-0.52L0.444,-0.52L0.444,-0.424L0.273,-0.424L0.273,-0.096L0.444,-0.096L0.444,-0L0.273,-0C0.26,-0 0.248,-0.003 0.236,-0.008C0.224,-0.013 0.214,-0.019 0.205,-0.028C0.196,-0.037 0.189,-0.047 0.184,-0.059C0.179,-0.07 0.177,-0.083 0.177,-0.096L0.177,-0.424L0.05,-0.424L0.05,-0.52Z" style="fill-rule:nonzero;"/>
                    </g>
                    <g transform="matrix(15.1639,0,0,15.1639,122.568,803.883)">
                        <path d="M0.53,-0.096C0.53,-0.083 0.527,-0.07 0.522,-0.059C0.517,-0.047 0.51,-0.037 0.502,-0.028C0.493,-0.019 0.483,-0.013 0.471,-0.008C0.46,-0.003 0.447,-0 0.434,-0L0.176,-0C0.163,-0 0.15,-0.003 0.139,-0.008C0.127,-0.013 0.117,-0.019 0.108,-0.028C0.1,-0.037 0.093,-0.047 0.088,-0.059C0.083,-0.07 0.08,-0.083 0.08,-0.096L0.08,-0.424C0.08,-0.437 0.083,-0.45 0.088,-0.461C0.093,-0.473 0.1,-0.483 0.108,-0.492C0.117,-0.501 0.127,-0.507 0.139,-0.512C0.15,-0.517 0.163,-0.52 0.176,-0.52L0.434,-0.52C0.447,-0.52 0.46,-0.517 0.471,-0.512C0.483,-0.507 0.493,-0.501 0.502,-0.492C0.51,-0.483 0.517,-0.473 0.522,-0.461C0.527,-0.45 0.53,-0.437 0.53,-0.424L0.53,-0.096ZM0.176,-0.424L0.176,-0.096L0.434,-0.096L0.434,-0.424L0.176,-0.424Z" style="fill-rule:nonzero;"/>
                    </g>
                    <g transform="matrix(15.1639,0,0,15.1639,131.816,803.883)">
                        <path d="M0.176,-0.424L0.176,-0L0.08,-0L0.08,-0.52L0.176,-0.52L0.176,-0.428C0.176,-0.441 0.179,-0.453 0.185,-0.464C0.19,-0.475 0.197,-0.485 0.205,-0.493C0.214,-0.502 0.224,-0.508 0.235,-0.513C0.247,-0.518 0.259,-0.52 0.272,-0.52L0.374,-0.52C0.387,-0.52 0.4,-0.517 0.411,-0.512C0.423,-0.507 0.433,-0.501 0.442,-0.492C0.451,-0.483 0.458,-0.473 0.463,-0.461C0.468,-0.45 0.47,-0.437 0.47,-0.424L0.47,-0.336L0.374,-0.336L0.374,-0.424L0.176,-0.424Z" style="fill-rule:nonzero;"/>
                    </g>
                    <g transform="matrix(15.1639,0,0,15.1639,91.2406,819.773)">
                        <path d="M0.451,-0L0.19,-0.513L0.19,-0L0.09,-0L0.09,-0.7L0.199,-0.7L0.466,-0.173L0.733,-0.7L0.842,-0.7L0.842,-0L0.742,-0L0.742,-0.513L0.481,-0L0.451,-0Z" style="fill-rule:nonzero;"/>
                    </g>
                    <g transform="matrix(15.1639,0,0,15.1639,105.375,819.773)">
                        <path d="M0.53,-0.096C0.53,-0.083 0.527,-0.07 0.522,-0.059C0.517,-0.047 0.51,-0.037 0.502,-0.028C0.493,-0.019 0.483,-0.013 0.471,-0.008C0.46,-0.003 0.447,-0 0.434,-0L0.176,-0C0.163,-0 0.15,-0.003 0.139,-0.008C0.127,-0.013 0.117,-0.019 0.108,-0.028C0.1,-0.037 0.093,-0.047 0.088,-0.059C0.083,-0.07 0.08,-0.083 0.08,-0.096L0.08,-0.424C0.08,-0.437 0.083,-0.45 0.088,-0.461C0.093,-0.473 0.1,-0.483 0.108,-0.492C0.117,-0.501 0.127,-0.507 0.139,-0.512C0.15,-0.517 0.163,-0.52 0.176,-0.52L0.434,-0.52C0.447,-0.52 0.46,-0.517 0.471,-0.512C0.483,-0.507 0.493,-0.501 0.502,-0.492C0.51,-0.483 0.517,-0.473 0.522,-0.461C0.527,-0.45 0.53,-0.437 0.53,-0.424L0.53,-0.096ZM0.176,-0.424L0.176,-0.096L0.434,-0.096L0.434,-0.424L0.176,-0.424Z" style="fill-rule:nonzero;"/>
                    </g>
                    <g transform="matrix(15.1639,0,0,15.1639,114.623,819.773)">
                        <path d="M0.08,-0.424C0.08,-0.437 0.083,-0.45 0.088,-0.461C0.093,-0.473 0.1,-0.483 0.108,-0.492C0.117,-0.501 0.127,-0.507 0.139,-0.512C0.15,-0.517 0.163,-0.52 0.176,-0.52L0.444,-0.52L0.444,-0.72L0.54,-0.72L0.54,-0L0.444,-0L0.444,-0.088C0.443,-0.076 0.44,-0.064 0.434,-0.054C0.429,-0.043 0.421,-0.034 0.413,-0.026C0.404,-0.018 0.394,-0.011 0.383,-0.007C0.372,-0.002 0.361,-0 0.348,-0L0.176,-0C0.163,-0 0.15,-0.003 0.139,-0.008C0.127,-0.013 0.117,-0.019 0.108,-0.028C0.1,-0.037 0.093,-0.047 0.088,-0.059C0.083,-0.07 0.08,-0.083 0.08,-0.096L0.08,-0.424ZM0.176,-0.096L0.444,-0.096L0.444,-0.424L0.176,-0.424L0.176,-0.096Z" style="fill-rule:nonzero;"/>
                    </g>
                    <g transform="matrix(15.1639,0,0,15.1639,124.027,819.773)">
                        <path d="M0.08,-0.52L0.176,-0.52L0.176,-0.096L0.444,-0.096L0.444,-0.52L0.54,-0.52L0.54,-0L0.444,-0L0.444,-0.088C0.443,-0.076 0.44,-0.064 0.434,-0.054C0.429,-0.043 0.421,-0.034 0.413,-0.026C0.404,-0.018 0.394,-0.011 0.383,-0.007C0.372,-0.002 0.361,-0 0.348,-0L0.176,-0C0.163,-0 0.15,-0.003 0.139,-0.008C0.127,-0.013 0.117,-0.019 0.108,-0.028C0.1,-0.037 0.093,-0.047 0.088,-0.059C0.083,-0.07 0.08,-0.083 0.08,-0.096L0.08,-0.52Z" style="fill-rule:nonzero;"/>
                    </g>
                    <g transform="matrix(15.1639,0,0,15.1639,133.43,819.773)">
                        <rect x="0.08" y="-0.72" width="0.096" height="0.72" style="fill-rule:nonzero;"/>
                    </g>
                    <g transform="matrix(15.1639,0,0,15.1639,137.31,819.773)">
                        <path d="M0.52,-0.211L0.176,-0.211L0.176,-0.096L0.52,-0.096L0.52,-0L0.176,-0C0.163,-0 0.15,-0.003 0.139,-0.008C0.127,-0.013 0.117,-0.019 0.108,-0.028C0.1,-0.037 0.093,-0.047 0.088,-0.059C0.083,-0.07 0.08,-0.083 0.08,-0.096L0.08,-0.424C0.08,-0.437 0.083,-0.45 0.088,-0.461C0.093,-0.473 0.1,-0.483 0.108,-0.492C0.117,-0.501 0.127,-0.507 0.139,-0.512C0.15,-0.517 0.163,-0.52 0.176,-0.52L0.424,-0.52C0.437,-0.52 0.45,-0.517 0.461,-0.512C0.473,-0.507 0.483,-0.501 0.492,-0.492C0.501,-0.483 0.507,-0.473 0.512,-0.461C0.517,-0.45 0.52,-0.437 0.52,-0.424L0.52,-0.211ZM0.176,-0.424L0.176,-0.307L0.424,-0.307L0.424,-0.424L0.176,-0.424Z" style="fill-rule:nonzero;"/>
                    </g>
                </g>
            </g>
        </g>
        <path id="washers" d="M655.334,380.408C646.062,380.408 638.534,372.88 638.534,363.608C638.534,354.335 646.062,346.808 655.334,346.808C664.607,346.808 672.134,354.335 672.134,363.608C672.134,372.88 664.607,380.408 655.334,380.408ZM655.334,369.655C651.997,369.655 649.287,366.945 649.287,363.608C649.287,360.27 651.997,357.56 655.334,357.56C658.672,357.56 661.382,360.27 661.382,363.608C661.382,366.945 658.672,369.655 655.334,369.655ZM655.334,417.787C646.062,417.787 638.534,410.259 638.534,400.987C638.534,391.715 646.062,384.187 655.334,384.187C664.607,384.187 672.134,391.715 672.134,400.987C672.134,410.259 664.607,417.787 655.334,417.787ZM655.334,407.034C651.997,407.034 649.287,404.325 649.287,400.987C649.287,397.65 651.997,394.94 655.334,394.94C658.672,394.94 661.382,397.65 661.382,400.987C661.382,404.325 658.672,407.034 655.334,407.034ZM655.334,455.167C646.062,455.167 638.534,447.639 638.534,438.367C638.534,429.094 646.062,421.567 655.334,421.567C664.607,421.567 672.134,429.094 672.134,438.367C672.134,447.639 664.607,455.167 655.334,455.167ZM655.334,444.414C651.997,444.414 649.287,441.704 649.287,438.367C649.287,435.029 651.997,432.319 655.334,432.319C658.672,432.319 661.382,435.029 661.382,438.367C661.382,441.704 658.672,444.414 655.334,444.414ZM655.334,492.546C646.062,492.546 638.534,485.018 638.534,475.746C638.534,466.474 646.062,458.946 655.334,458.946C664.607,458.946 672.134,466.474 672.134,475.746C672.134,485.018 664.607,492.546 655.334,492.546ZM655.334,481.793C651.997,481.793 649.287,479.084 649.287,475.746C649.287,472.409 651.997,469.699 655.334,469.699C658.672,469.699 661.382,472.409 661.382,475.746C661.382,479.084 658.672,481.793 655.334,481.793Z" style="fill:none;stroke:black;stroke-width:1.33px;stroke-miterlimit:1.5;"/>
    </g>
</svg>
