<?xml version="1.0" encoding="UTF-8" standalone="no"?>
<!DOCTYPE svg PUBLIC "-//W3C//DTD SVG 1.1//EN" "http://www.w3.org/Graphics/SVG/1.1/DTD/svg11.dtd">
<svg width="698px" height="735px" version="1.1" xmlns="http://www.w3.org/2000/svg" xmlns:xlink="http://www.w3.org/1999/xlink" xml:space="preserve" xmlns:serif="http://www.serif.com/" style="fill-rule:evenodd;clip-rule:evenodd;stroke-linecap:round;stroke-linejoin:round;">
    <g id="Artboard1" transform="matrix(1.06605,0,0,1.05124,-482.694,-32.9141)">
        <rect x="452.787" y="31.31" width="654.614" height="698.249" style="fill:none;"/>
        <g id="V1.5" transform="matrix(1.25072,0,0,1.26835,246.22,-352.814)">
            <g id="long-side-2" serif:id="long side 2" transform="matrix(6.12323e-17,-1,1,6.12323e-17,-179.904,404.605)">
                <path d="M-178.354,829.046L-415.584,829.046L-418.576,820.826L-427.08,820.826L-427.08,829.046L-427.135,829.046C-431.803,829.017 -435.584,825.218 -435.584,820.543L-435.584,803.535C-435.584,794.148 -427.963,786.527 -418.576,786.527L-418.576,786.527L-418.576,723.317L-417.819,723.248C-385.766,720.303 -349.584,718.492 -311.142,718.133L-311.142,709.629L-282.795,709.629L-282.795,718.133C-244.049,718.495 -207.601,720.331 -175.363,723.317C-175.363,723.317 -175.363,786.527 -175.363,786.527L-175.362,786.527C-165.975,786.527 -158.354,794.148 -158.354,803.535L-158.354,820.543C-158.354,825.218 -162.135,829.017 -166.803,829.046L-166.858,829.046L-166.858,820.826L-175.362,820.826L-178.354,829.046ZM-333.536,811.755L-333.536,820.826L-361.883,820.826L-361.883,811.755L-333.536,811.755ZM-260.402,820.826L-260.402,811.755L-232.056,811.755L-232.056,820.826L-260.402,820.826ZM-369.872,772.922C-370.248,772.922 -370.609,772.773 -370.875,772.507C-371.14,772.241 -371.29,771.881 -371.29,771.505C-371.29,770.621 -371.29,769.487 -371.29,768.603C-371.29,767.82 -371.924,767.186 -372.707,767.186C-374.653,767.186 -378.131,767.186 -380.077,767.186C-380.86,767.186 -381.494,767.82 -381.494,768.603C-381.494,769.487 -381.494,770.621 -381.494,771.505C-381.494,772.288 -382.129,772.922 -382.912,772.922C-385.315,772.922 -390.164,772.922 -392.567,772.922C-393.35,772.922 -393.984,773.557 -393.984,774.34C-393.984,779.286 -393.984,795.753 -393.984,800.699C-393.984,801.482 -393.35,802.117 -392.567,802.117C-383.724,802.117 -336.215,802.117 -327.373,802.117C-326.59,802.117 -325.955,801.482 -325.955,800.699C-325.955,795.753 -325.955,779.286 -325.955,774.34C-325.955,773.557 -326.59,772.922 -327.373,772.922C-329.767,772.922 -334.587,772.922 -336.982,772.922C-337.765,772.922 -338.399,772.288 -338.399,771.505L-338.399,768.603C-338.399,767.82 -339.034,767.186 -339.817,767.186C-341.762,767.186 -345.241,767.186 -347.187,767.186C-347.969,767.186 -348.604,767.82 -348.604,768.603C-348.604,769.487 -348.604,770.621 -348.604,771.505C-348.604,771.881 -348.753,772.241 -349.019,772.507C-349.285,772.773 -349.645,772.922 -350.021,772.922C-354.094,772.922 -365.8,772.922 -369.872,772.922Z" style="fill:none;stroke:black;stroke-width:0.5px;"/>
                <g transform="matrix(1,0,0,1,-0.902608,-3.45816)">
                    <g transform="matrix(1,0,0,1,-702.514,-17.7934)">
                        <text x="362.785px" y="774.486px" style="font-family:'Aldrich';font-size:8px;fill:rgb(255,0,0);">+</text>
                    </g>
                    <g transform="matrix(2.33403,-5.67846e-32,1.106e-32,1,-1204.42,-17.7934)">
                        <text x="364.033px" y="774.486px" style="font-family:'Aldrich';font-size:8px;fill:rgb(255,0,0);">-</text>
                    </g>
                    <g transform="matrix(2.33403,-7.39557e-32,2.87691e-32,1,-1218.59,-17.7934)">
                        <text x="364.033px" y="774.486px" style="font-family:'Aldrich';font-size:8px;fill:rgb(255,0,0);">-</text>
                    </g>
                    <g transform="matrix(1,0,0,1,-745.034,-17.7934)">
                        <text x="362.785px" y="774.486px" style="font-family:'Aldrich';font-size:8px;fill:rgb(255,0,0);">+</text>
                    </g>
                    <g transform="matrix(1,0,0,1,-737.826,-17.7934)">
                        <text x="364.209px" y="774.486px" style="font-family:'Aldrich';font-size:8px;fill:rgb(255,0,0);">1</text>
                    </g>
                    <g transform="matrix(1,0,0,1,-709.319,-17.7934)">
                        <text x="362.849px" y="774.486px" style="font-family:'Aldrich';font-size:8px;fill:rgb(255,0,0);">2</text>
                    </g>
                    <g transform="matrix(4.59243e-17,0.75,-0.75,4.59243e-17,102.654,348.521)">
                        <path d="M526.716,630.173C525.649,630.817 524.935,631.987 524.935,633.323C524.935,634.658 525.649,635.829 526.716,636.472C525.649,637.116 524.935,638.286 524.935,639.622C524.935,641.651 526.583,643.298 528.612,643.298C528.612,643.298 535.116,643.298 535.116,643.298L535.116,642.245L528.612,642.245C527.164,642.245 525.989,641.069 525.989,639.622C525.989,638.174 527.164,636.999 528.612,636.999L528.612,635.946C527.164,635.946 525.989,634.77 525.989,633.323C525.989,631.875 527.164,630.7 528.612,630.7L528.612,629.646C527.164,629.646 525.989,628.471 525.989,627.023C525.989,625.576 527.164,624.4 528.612,624.4C528.612,624.4 535.116,624.4 535.116,624.4L535.116,623.347L528.612,623.347C526.583,623.347 524.935,624.994 524.935,627.023C524.935,628.359 525.649,629.529 526.716,630.173ZM526.716,592.378C525.649,593.021 524.935,594.192 524.935,595.527C524.935,596.863 525.649,598.033 526.716,598.677C525.649,599.321 524.935,600.491 524.935,601.827C524.935,603.856 526.583,605.503 528.612,605.503L535.116,605.503L535.116,604.449L528.612,604.449C527.164,604.449 525.989,603.274 525.989,601.827C525.989,600.379 527.164,599.204 528.612,599.204L528.612,598.15C527.164,598.15 525.989,596.975 525.989,595.527C525.989,594.08 527.164,592.904 528.612,592.904L528.612,591.851C527.164,591.851 525.989,590.676 525.989,589.228C525.989,587.78 527.164,586.605 528.612,586.605C528.612,586.605 535.116,586.605 535.116,586.605L535.116,585.552L528.612,585.552C526.583,585.552 524.935,587.199 524.935,589.228C524.935,590.564 525.649,591.734 526.716,592.378Z" style="fill:rgb(255,0,0);"/>
                    </g>
                    <g transform="matrix(1,0,0,1,-675.287,27.8263)">
                        <text x="300.943px" y="710.162px" style="font-family:'Aldrich';font-size:10px;fill:rgb(255,0,0);">Motor</text>
                    </g>
                </g>
            </g>
            <g id="long-side-1" serif:id="long side 1" transform="matrix(6.12323e-17,1,-1,6.12323e-17,1034.35,998.543)">
                <path d="M-178.354,828.943L-415.584,828.943L-418.576,820.723L-427.08,820.723L-427.08,828.943L-427.135,828.943C-431.803,828.913 -435.584,825.114 -435.584,820.439L-435.584,803.431C-435.584,794.044 -427.963,786.423 -418.576,786.423L-418.576,786.423L-418.576,723.214L-417.819,723.144C-385.766,720.199 -349.584,718.389 -311.142,718.03L-311.142,709.526L-282.795,709.526L-282.795,718.03C-244.049,718.392 -207.601,720.228 -175.363,723.214C-175.363,723.214 -175.363,786.423 -175.363,786.423L-175.362,786.423C-165.975,786.423 -158.354,794.044 -158.354,803.431L-158.354,820.439C-158.354,825.114 -162.135,828.913 -166.803,828.943L-166.858,828.943L-166.858,820.723L-175.362,820.723L-178.354,828.943ZM-260.402,820.723L-260.402,811.652L-232.055,811.652L-232.055,820.723L-260.402,820.723ZM-333.536,811.652L-333.536,820.723L-361.882,820.723L-361.882,811.652L-333.536,811.652ZM-209.381,767.148C-209.381,766.365 -210.016,765.73 -210.798,765.73C-215.992,765.73 -233.951,765.73 -239.145,765.73C-239.928,765.73 -240.562,766.365 -240.562,767.148C-240.562,772.943 -240.562,794.802 -240.562,800.597C-240.562,801.379 -239.928,802.014 -239.145,802.014C-233.951,802.014 -215.992,802.014 -210.798,802.014C-210.016,802.014 -209.381,801.379 -209.381,800.597C-209.381,794.802 -209.381,772.943 -209.381,767.148ZM-256.008,761.762C-256.008,760.979 -256.643,760.345 -257.426,760.345C-264.6,760.345 -296.853,760.345 -304.027,760.345C-304.81,760.345 -305.445,760.979 -305.445,761.762C-305.445,768.148 -305.445,794.211 -305.445,800.597C-305.445,801.379 -304.81,802.014 -304.027,802.014C-296.853,802.014 -264.6,802.014 -257.426,802.014C-256.643,802.014 -256.008,801.379 -256.008,800.597C-256.008,794.211 -256.008,768.148 -256.008,761.762ZM-345.131,744.572C-345.131,743.789 -345.765,743.155 -346.548,743.155C-352.407,743.155 -374.704,743.155 -380.564,743.155C-381.346,743.155 -381.981,743.789 -381.981,744.572C-381.981,749.411 -381.981,765.245 -381.981,770.084C-381.981,770.867 -381.346,771.501 -380.564,771.501C-374.704,771.501 -352.407,771.501 -346.548,771.501C-345.765,771.501 -345.131,770.867 -345.131,770.084C-345.131,765.245 -345.131,749.411 -345.131,744.572Z" style="fill:none;stroke:rgb(19,19,19);stroke-width:0.5px;"/>
                <g>
                    <g transform="matrix(4.59243e-17,-0.75,0.75,4.59243e-17,-708.381,869.861)">
                        <path d="M124.289,678.651C124.611,675.496 127.279,673.03 130.519,673.03C133.974,673.03 136.78,675.836 136.78,679.292C136.78,682.748 133.974,685.554 130.519,685.554C127.279,685.554 124.611,683.088 124.289,679.933L119.136,679.933C118.839,681.377 117.56,682.465 116.028,682.465C114.277,682.465 112.855,681.043 112.855,679.292C112.855,677.541 114.277,676.119 116.028,676.119C117.56,676.119 118.839,677.207 119.136,678.651L124.289,678.651ZM107.767,679.933C107.446,683.088 104.778,685.554 101.538,685.554C98.082,685.554 95.276,682.748 95.276,679.292C95.276,675.836 98.082,673.03 101.538,673.03C104.778,673.03 107.446,675.496 107.767,678.651L109.799,678.651C110.12,675.496 112.789,673.03 116.028,673.03C117.756,673.03 119.322,673.732 120.455,674.865L119.52,675.8C118.626,674.906 117.391,674.353 116.028,674.353C113.302,674.353 111.089,676.566 111.089,679.292C111.089,682.018 113.302,684.231 116.028,684.231C117.391,684.231 118.626,683.677 119.52,682.783L120.455,683.719C119.322,684.852 117.756,685.554 116.028,685.554C112.789,685.554 110.12,683.088 109.799,679.933L107.767,679.933ZM130.519,674.353C133.244,674.353 135.457,676.566 135.457,679.292C135.457,682.018 133.244,684.231 130.519,684.231C127.793,684.231 125.58,682.018 125.58,679.292C125.58,676.566 127.793,674.353 130.519,674.353ZM101.538,674.353C104.264,674.353 106.477,676.566 106.477,679.292C106.477,682.018 104.264,684.231 101.538,684.231C98.812,684.231 96.599,682.018 96.599,679.292C96.599,676.566 98.812,674.353 101.538,674.353ZM131.157,675.649L131.157,678.651L134.158,678.651L134.158,679.933L131.157,679.933L131.157,682.934L129.881,682.934L129.881,679.933L126.879,679.933L126.879,678.651L129.881,678.651L129.881,675.649L131.157,675.649ZM100.897,682.928L100.897,675.649L102.179,675.649L102.179,682.928L100.897,682.928Z" style="fill:rgb(255,0,0);"/>
                    </g>
                    <g transform="matrix(1,0,0,1,-680.575,74.01)">
                        <text x="305.855px" y="710.162px" style="font-family:'Aldrich';font-size:10px;fill:rgb(255,0,0);">USB</text>
                    </g>
                    <g transform="matrix(1,0,0,1,-541.942,49.8987)">
                        <text x="294.915px" y="710.162px" style="font-family:'Aldrich';font-size:10px;fill:rgb(255,0,0);">5.5–24V</text>
                    </g>
                    <g transform="matrix(1,0,0,1,-597.646,34.0343)">
                        <text x="302.029px" y="710.162px" style="font-family:'Aldrich';font-size:10px;fill:rgb(255,0,0);">State</text>
                        <text x="295.677px" y="720.641px" style="font-family:'Aldrich';font-size:10px;fill:rgb(255,0,0);">Machine</text>
                    </g>
                </g>
            </g>
            <g id="short-side-2" serif:id="short side 2" transform="matrix(6.12323e-17,1,-1,6.12323e-17,1136.1,17.9973)">
                <g transform="matrix(0.75,1.2326e-32,0,0.75,-157.455,288.308)">
                    <g transform="matrix(8.16431e-17,-1.33333,1.33333,8.16431e-17,-176.329,799.129)">
                        <text x="359.129px" y="774.486px" style="font-family:'Aldrich';font-size:8px;fill:rgb(255,0,0);">5V</text>
                    </g>
                    <g transform="matrix(8.16431e-17,-1.33333,1.33333,8.16431e-17,-189.558,799.129)">
                        <text x="359.129px" y="774.486px" style="font-family:'Aldrich';font-size:8px;fill:rgb(255,0,0);">3.3V</text>
                    </g>
                    <g transform="matrix(8.16431e-17,-1.33333,1.33333,8.16431e-17,-202.786,799.129)">
                        <text x="359.129px" y="774.486px" style="font-family:'Aldrich';font-size:8px;fill:rgb(255,0,0);">3.3V</text>
                    </g>
                    <g transform="matrix(8.16431e-17,-1.33333,1.33333,8.16431e-17,-216.014,799.129)">
                        <text x="359.129px" y="774.486px" style="font-family:'Aldrich';font-size:8px;fill:rgb(255,0,0);">GND</text>
                    </g>
                    <g transform="matrix(8.16431e-17,-1.33333,1.33333,8.16431e-17,-229.243,799.129)">
                        <text x="359.129px" y="774.486px" style="font-family:'Aldrich';font-size:8px;fill:rgb(255,0,0);">IO 6</text>
                    </g>
                    <g transform="matrix(8.16431e-17,-1.33333,1.33333,8.16431e-17,-242.471,799.129)">
                        <text x="359.129px" y="774.486px" style="font-family:'Aldrich';font-size:8px;fill:rgb(255,0,0);">IO 5</text>
                    </g>
                    <g transform="matrix(8.16431e-17,-1.33333,1.33333,8.16431e-17,-255.699,799.129)">
                        <text x="359.129px" y="774.486px" style="font-family:'Aldrich';font-size:8px;fill:rgb(255,0,0);">GND</text>
                    </g>
                    <g transform="matrix(8.16431e-17,-1.33333,1.33333,8.16431e-17,-268.928,799.129)">
                        <text x="359.129px" y="774.486px" style="font-family:'Aldrich';font-size:8px;fill:rgb(255,0,0);">IO 4</text>
                    </g>
                    <g transform="matrix(8.16431e-17,-1.33333,1.33333,8.16431e-17,-282.156,799.129)">
                        <text x="359.129px" y="774.486px" style="font-family:'Aldrich';font-size:8px;fill:rgb(255,0,0);">IO 3</text>
                    </g>
                    <g transform="matrix(8.16431e-17,-1.33333,1.33333,8.16431e-17,-295.384,799.129)">
                        <text x="359.129px" y="774.486px" style="font-family:'Aldrich';font-size:8px;fill:rgb(255,0,0);">GND</text>
                    </g>
                    <g transform="matrix(8.16431e-17,-1.33333,1.33333,8.16431e-17,-308.613,799.129)">
                        <text x="359.129px" y="774.486px" style="font-family:'Aldrich';font-size:8px;fill:rgb(255,0,0);">IO 2</text>
                    </g>
                    <g transform="matrix(8.16431e-17,-1.33333,1.33333,8.16431e-17,-321.841,799.129)">
                        <text x="359.129px" y="774.486px" style="font-family:'Aldrich';font-size:8px;fill:rgb(255,0,0);">IO 1</text>
                    </g>
                </g>
                <path d="M339.18,593.971L318.191,593.971C315.063,593.971 312.523,591.431 312.523,588.302L312.523,473.501C312.523,464.115 320.144,456.494 329.531,456.494L525.014,456.494C534.401,456.494 542.022,464.115 542.022,473.501L542.022,588.302C542.022,591.431 539.482,593.971 536.353,593.971L515.365,593.971C497.98,588.866 462.993,585.457 427.241,585.457C391.489,585.457 356.565,588.866 339.18,593.971ZM330.664,542.664L330.664,576.963L321.594,576.963L321.594,542.664L330.664,542.664ZM523.881,576.963L523.881,542.664L532.951,542.664L532.951,576.963L523.881,576.963ZM364.312,533.026C363.936,533.026 363.575,533.176 363.309,533.441C363.044,533.707 362.894,534.068 362.894,534.444C362.894,538.871 362.894,552.41 362.894,556.837C362.894,557.213 363.044,557.574 363.309,557.839C363.575,558.105 363.936,558.255 364.312,558.255C377.404,558.255 477.078,558.255 490.17,558.255C490.546,558.255 490.906,558.105 491.172,557.839C491.438,557.574 491.587,557.213 491.587,556.837C491.587,552.41 491.587,538.871 491.587,534.444C491.587,534.068 491.438,533.707 491.172,533.441C490.906,533.176 490.546,533.026 490.17,533.026C477.078,533.026 377.404,533.026 364.312,533.026ZM519.912,470.667L510.558,470.667L510.558,467.832L343.987,467.832L343.987,470.667L334.633,470.667L334.633,479.454L519.912,479.454L519.912,470.667Z" style="fill:none;stroke:rgb(19,19,19);stroke-width:0.5px;"/>
            </g>
            <g id="short-side-1" serif:id="short side 1" transform="matrix(1,0,0,1,-7.11897,0)">
                <path d="M320.032,533.362L320.033,554.351C320.033,557.479 317.492,560.02 314.363,560.02L199.563,560.02C190.176,560.02 182.555,552.399 182.555,543.012L182.555,347.528C182.555,338.141 190.176,330.52 199.563,330.52L314.363,330.52C317.492,330.52 320.033,333.06 320.033,336.189L320.033,357.177C314.928,374.562 311.519,409.486 311.519,445.238C311.519,480.99 314.928,515.977 320.032,533.362ZM268.725,541.878L303.025,541.878L303.025,550.949L268.725,550.949L268.725,541.878ZM196.728,352.63L196.728,361.984L193.894,361.984L193.894,528.555L196.728,528.555L196.728,537.909L205.516,537.909L205.516,352.63L196.728,352.63ZM257.815,527.394C257.815,525.83 256.545,524.56 254.98,524.56L219.689,524.56C218.124,524.56 216.854,525.83 216.854,527.394C216.854,528.959 218.124,530.229 219.689,530.229L254.98,530.229C256.545,530.229 257.815,528.959 257.815,527.394ZM254.76,513.707C254.76,512.142 253.489,510.872 251.925,510.872L219.689,510.872C218.124,510.872 216.854,512.142 216.854,513.707C216.854,515.271 218.124,516.541 219.689,516.541L251.925,516.541C253.489,516.541 254.76,515.271 254.76,513.707ZM252.762,500.019C252.762,498.455 251.492,497.185 249.928,497.185L219.689,497.185C218.124,497.185 216.854,498.455 216.854,500.019C216.854,501.584 218.124,502.854 219.689,502.854L249.928,502.854C251.492,502.854 252.762,501.584 252.762,500.019ZM251.472,486.332C251.472,484.768 250.202,483.497 248.638,483.497L219.689,483.497C218.124,483.497 216.854,484.768 216.854,486.332C216.854,487.896 218.124,489.167 219.689,489.167L248.638,489.167C250.202,489.167 251.472,487.896 251.472,486.332ZM250.559,472.645C250.559,471.08 249.289,469.81 247.724,469.81L219.689,469.81C218.124,469.81 216.854,471.08 216.854,472.645C216.854,474.209 218.124,475.479 219.689,475.479L247.724,475.479C249.289,475.479 250.559,474.209 250.559,472.645ZM249.999,458.957C249.999,457.393 248.729,456.123 247.165,456.123L219.689,456.123C218.124,456.123 216.854,457.393 216.854,458.957C216.854,460.522 218.124,461.792 219.689,461.792L247.165,461.792C248.729,461.792 249.999,460.522 249.999,458.957ZM249.789,445.27C249.789,443.705 248.518,442.435 246.954,442.435L219.689,442.435C218.124,442.435 216.854,443.705 216.854,445.27C216.854,446.834 218.124,448.104 219.689,448.104L246.954,448.104C248.518,448.104 249.789,446.834 249.789,445.27ZM249.999,431.582C249.999,430.018 248.729,428.748 247.165,428.748L219.689,428.748C218.124,428.748 216.854,430.018 216.854,431.582C216.854,433.147 218.124,434.417 219.689,434.417L247.165,434.417C248.729,434.417 249.999,433.147 249.999,431.582ZM250.559,417.895C250.559,416.33 249.289,415.06 247.724,415.06L219.689,415.06C218.124,415.06 216.854,416.33 216.854,417.895C216.854,419.459 218.124,420.73 219.689,420.73L247.724,420.73C249.289,420.73 250.559,419.459 250.559,417.895ZM251.472,404.207C251.472,402.643 250.202,401.373 248.638,401.373L219.689,401.373C218.124,401.373 216.854,402.643 216.854,404.207C216.854,405.772 218.124,407.042 219.689,407.042L248.638,407.042C250.202,407.042 251.472,405.772 251.472,404.207ZM252.762,390.52C252.762,388.956 251.492,387.685 249.928,387.685L219.689,387.685C218.124,387.685 216.854,388.956 216.854,390.52C216.854,392.085 218.124,393.355 219.689,393.355L249.928,393.355C251.492,393.355 252.762,392.085 252.762,390.52ZM254.76,376.833C254.76,375.268 253.489,373.998 251.925,373.998L219.689,373.998C218.124,373.998 216.854,375.268 216.854,376.833C216.854,378.397 218.124,379.667 219.689,379.667L251.925,379.667C253.489,379.667 254.76,378.397 254.76,376.833ZM257.815,363.145C257.815,361.581 256.545,360.311 254.98,360.311L219.689,360.311C218.124,360.311 216.854,361.581 216.854,363.145C216.854,364.71 218.124,365.98 219.689,365.98L254.98,365.98C256.545,365.98 257.815,364.71 257.815,363.145ZM303.025,348.662L268.725,348.662L268.725,339.591L303.025,339.591L303.025,348.662Z" style="fill:none;stroke:rgb(19,19,19);stroke-width:0.5px;"/>
            </g>
            <g id="bottom" transform="matrix(0.75,0,0,0.75,-153.991,293.02)">
                <path d="M903.969,729.558L646.354,729.558L646.354,653.968L635.015,653.968L635.015,616.173L646.354,616.173L646.354,518.661L635.015,518.661L635.015,480.866L646.354,480.866L646.354,405.275L903.969,405.275L903.969,480.866L915.307,480.866L915.307,518.661L903.969,518.661L903.969,616.173L915.307,616.173L915.307,653.968L903.969,653.968L903.969,729.558ZM877.342,709.014C877.342,705.676 880.052,702.967 883.389,702.967C886.727,702.967 889.437,705.676 889.437,709.014C889.437,712.351 886.727,715.061 883.389,715.061C880.052,715.061 877.342,712.351 877.342,709.014ZM661.368,709.014C661.368,705.676 664.078,702.967 667.415,702.967C670.753,702.967 673.463,705.676 673.463,709.014C673.463,712.351 670.753,715.061 667.415,715.061C664.078,715.061 661.368,712.351 661.368,709.014ZM797.8,622.22C797.8,618.048 794.412,614.661 790.24,614.661C786.069,614.661 782.681,618.048 782.681,622.22L782.681,678.913C782.681,683.085 786.069,686.472 790.24,686.472C794.412,686.472 797.8,683.085 797.8,678.913L797.8,622.22ZM767.563,622.22C767.563,618.048 764.176,614.661 760.004,614.661C755.832,614.661 752.445,618.048 752.445,622.22L752.445,678.913C752.445,683.085 755.832,686.472 760.004,686.472C764.176,686.472 767.563,683.085 767.563,678.913L767.563,622.22ZM843.154,538.942C843.154,534.77 839.767,531.383 835.595,531.383C831.423,531.383 828.036,534.77 828.036,538.942L828.036,595.635C828.036,599.807 831.423,603.194 835.595,603.194C839.767,603.194 843.154,599.807 843.154,595.635L843.154,538.942ZM812.918,538.942C812.918,534.77 809.531,531.383 805.359,531.383C801.187,531.383 797.8,534.77 797.8,538.942L797.8,595.635C797.8,599.807 801.187,603.194 805.359,603.194C809.531,603.194 812.918,599.807 812.918,595.635L812.918,538.942ZM782.681,538.942C782.681,534.77 779.294,531.383 775.122,531.383C770.95,531.383 767.563,534.77 767.563,538.942L767.563,595.635C767.563,599.807 770.95,603.194 775.122,603.194C779.294,603.194 782.681,599.807 782.681,595.635L782.681,538.942ZM722.209,538.942C722.209,534.77 718.822,531.383 714.65,531.383C710.478,531.383 707.091,534.77 707.091,538.942L707.091,595.635C707.091,599.807 710.478,603.194 714.65,603.194C718.822,603.194 722.209,599.807 722.209,595.635L722.209,538.942ZM752.445,538.942C752.445,534.77 749.058,531.383 744.886,531.383C740.714,531.383 737.327,534.77 737.327,538.942L737.327,595.635C737.327,599.807 740.714,603.194 744.886,603.194C749.058,603.194 752.445,599.807 752.445,595.635L752.445,538.942ZM797.8,455.921C797.8,451.749 794.412,448.362 790.24,448.362C786.069,448.362 782.681,451.749 782.681,455.921L782.681,512.614C782.681,516.786 786.069,520.173 790.24,520.173C794.412,520.173 797.8,516.786 797.8,512.614L797.8,455.921ZM767.563,455.921C767.563,451.749 764.176,448.362 760.004,448.362C755.832,448.362 752.445,451.749 752.445,455.921L752.445,512.614C752.445,516.786 755.832,520.173 760.004,520.173C764.176,520.173 767.563,516.786 767.563,512.614L767.563,455.921ZM877.342,425.814C877.342,422.476 880.052,419.767 883.389,419.767C886.727,419.767 889.437,422.476 889.437,425.814C889.437,429.151 886.727,431.861 883.389,431.861C880.052,431.861 877.342,429.151 877.342,425.814ZM661.368,425.814C661.368,422.476 664.078,419.767 667.415,419.767C670.753,419.767 673.463,422.476 673.463,425.814C673.463,429.151 670.753,431.861 667.415,431.861C664.078,431.861 661.368,429.151 661.368,425.814Z" style="fill:none;stroke:rgb(19,19,19);stroke-width:0.67px;stroke-miterlimit:1.5;"/>
            </g>
            <g id="top" transform="matrix(2.2532,-2.02078e-32,-2.77728e-32,1.63945,1579.74,-626.386)">
                <g id="face0-cut-3" transform="matrix(0.443813,6.08116e-48,1.90221e-48,0.609959,-742.924,343.94)">
                    <path d="M434.726,379.014C433.599,379.014 432.517,379.462 431.72,380.26C430.922,381.057 430.474,382.139 430.474,383.266C430.474,385.393 430.474,387.52 430.474,387.52L438.978,387.52L438.978,396.024L414.451,396.024L406.947,481.063L406.947,554.435L414.451,639.474L438.978,639.474L438.978,647.978L430.474,647.978L430.474,652.231C430.474,654.579 432.378,656.483 434.726,656.483C459.396,656.483 583.895,656.483 608.565,656.483C610.913,656.483 612.817,654.579 612.817,652.231C612.817,650.105 612.817,647.979 612.817,647.979L604.313,647.979L604.313,639.475L628.84,639.475L636.344,554.435L636.344,481.063L628.84,396.024L604.313,396.024L604.313,387.52L612.817,387.52L612.817,383.266C612.817,382.139 612.369,381.057 611.571,380.26C610.774,379.462 609.692,379.014 608.565,379.014C583.895,379.014 459.396,379.014 434.726,379.014ZM618.201,532.086L618.201,503.173L627.272,503.173L627.272,532.086L618.201,532.086M425.088,503.173L425.088,532.086L416.017,532.086L416.017,503.173L425.088,503.173" style="fill:none;fill-rule:nonzero;stroke:black;stroke-width:0.5px;"/>
                </g>
                <g transform="matrix(1,0,0,1,-1.61743,0)">
                    <g transform="matrix(0.33286,4.10282e-33,5.63875e-33,0.45747,-600.574,556.355)">
                        <text x="268.79px" y="344.909px" style="font-family:'Arial-BoldMT', 'Arial', sans-serif;font-weight:700;font-size:14.667px;fill:rgb(255,0,0);">×</text>
                        <text x="220.515px" y="360.056px" style="font-family:'Arial-BoldMT', 'Arial', sans-serif;font-weight:700;font-size:14.667px;fill:rgb(255,0,0);">The Poulet Lab</text>
                    </g>
                    <g id="path2565" transform="matrix(0.0205479,1.19306e-33,-6.89989e-34,-0.0282402,-515.125,692.61)">
                        <path d="M-0.266,-6.538C-3.756,-6.44 -6.573,-3.542 -6.573,-0.05C-6.573,2.222 -5.379,4.336 -3.433,5.509C11.082,14.548 15.732,33.252 8.089,47.076C1.091,59.739 -14.942,66.015 -29.67,60.934C-30.351,60.699 -31.067,60.579 -31.787,60.579C-35.349,60.579 -38.28,63.509 -38.28,67.071C-38.28,69.833 -36.516,72.307 -33.905,73.208C-13.336,80.305 9.303,71.714 19.449,53.355C30.532,33.31 23.693,7.109 3.433,-5.509C2.332,-6.217 1.042,-6.576 -0.266,-6.538ZM571.429,-6.538C570.186,-6.538 568.97,-6.18 567.924,-5.509C547.664,7.109 540.825,33.31 551.907,53.355C562.053,71.714 584.69,80.304 605.262,73.208C607.877,72.31 609.645,69.834 609.645,67.069C609.645,63.508 606.714,60.577 603.153,60.577C602.431,60.577 601.714,60.698 601.032,60.934C586.301,66.015 570.266,59.739 563.268,47.076C555.625,33.252 560.274,14.548 574.789,5.509C576.734,4.335 577.926,2.223 577.926,-0.048C577.926,-3.609 574.996,-6.538 571.435,-6.538C571.433,-6.538 571.431,-6.538 571.429,-6.538ZM546.291,77.896L527.347,32.754L509.874,40.087L528.818,85.229L546.291,77.896ZM25.066,77.896L44.01,32.754L61.483,40.087L42.542,85.229L25.066,77.896ZM56.375,91.034L75.319,45.892L92.791,53.225L73.847,98.367L56.375,91.034ZM87.682,104.172L106.625,59.03L124.098,66.363L105.157,111.505L87.682,104.172ZM127.004,115.454C120.187,105.589 122.656,92.065 132.52,85.245C142.388,78.428 155.912,80.9 162.729,90.764C169.546,100.632 167.077,114.156 157.213,120.973C147.345,127.79 133.821,125.319 127.004,115.454M514.982,91.034L496.038,45.892L478.565,53.225L497.509,98.367L514.982,91.034ZM483.676,104.172L464.732,59.03L447.257,66.363L466.201,111.505L483.676,104.172ZM444.354,115.454C451.171,105.589 448.7,92.065 438.838,85.245C428.971,78.428 415.446,80.9 408.626,90.764C401.809,100.632 404.278,114.156 414.145,120.973C424.01,127.79 437.537,125.319 444.354,115.454M392.917,-55.751L342.383,-55.751L342.383,-36.799L392.917,-36.799L392.917,-55.751ZM392.917,-23.377L342.383,-23.377L342.383,-4.427L392.917,-4.427L392.917,-23.377ZM229.318,-55.751L178.782,-55.751L178.782,-36.799L229.318,-36.799L229.318,-55.751ZM229.318,-23.377L178.782,-23.377L178.782,-4.427L229.318,-4.427L229.318,-23.377ZM178.398,-71.662L154.635,-115.884C97.964,-121.205 41.434,-128.083 -14.383,-138.231C-133.726,-159.499 -251.628,-192.66 -356.194,-245.946C-245.798,-202.475 -128.57,-175.696 -9.929,-158.427C49.492,-150.096 109.269,-143.568 169.338,-139.59C229.349,-135.375 289.652,-132.777 349.85,-132.342C410.04,-131.524 470.233,-132.923 530.117,-137.042C590.043,-140.848 649.567,-148.086 708.365,-158.313C825.671,-179.216 940.209,-215.572 1040.47,-274.521C994.452,-240.574 942.077,-212.812 886.895,-190.23C831.535,-167.867 773.263,-150.72 713.763,-138.175C654.313,-125.293 593.558,-117.451 532.684,-112.09C491.98,-108.785 451.16,-107.044 410.342,-106.315L393.544,-71.662L341.432,-71.662L322.219,-106.523C297.628,-107.126 273.057,-108.01 248.515,-109.259L230.528,-71.661L178.398,-71.662ZM1065.24,-473.826L1065.24,-431.898L985.97,-431.898C981.327,-431.898 976.973,-431.018 972.9,-429.265C968.823,-427.512 965.289,-425.135 962.289,-422.139C959.291,-419.137 956.915,-415.602 955.16,-411.526C953.406,-407.453 952.53,-403.099 952.53,-398.455L952.53,-359.924C952.53,-355.287 953.406,-350.93 955.16,-346.854C956.915,-342.783 959.29,-339.242 962.289,-336.246C965.288,-333.244 968.823,-330.869 972.9,-329.114C976.973,-327.361 981.327,-326.485 985.97,-326.485L1091.72,-326.485L1091.72,-359.925L985.97,-359.925L985.97,-398.456L1065.24,-398.456C1069.88,-398.456 1074.21,-399.337 1078.23,-401.09C1082.24,-402.843 1085.78,-405.22 1088.83,-408.216C1091.89,-411.218 1094.3,-414.753 1096.05,-418.829C1097.8,-422.902 1098.68,-427.257 1098.68,-431.899L1098.68,-473.827C1098.68,-478.467 1097.8,-482.824 1096.05,-486.895C1094.3,-490.971 1091.89,-494.505 1088.83,-497.507C1085.78,-500.502 1082.24,-502.882 1078.23,-504.634C1074.21,-506.387 1069.88,-507.267 1065.24,-507.267L952.53,-507.267L952.53,-473.827L1065.24,-473.826ZM884.801,-507.266L798.568,-430.03L798.568,-507.266L765.301,-507.266L765.301,-256.89L798.568,-256.89L798.568,-397.777L877.842,-326.486L924.86,-326.486L827.765,-413.734L931.819,-507.266L884.801,-507.266ZM621.353,-359.925L621.353,-507.267L588.086,-507.267L588.086,-326.485L690.269,-326.485C694.91,-326.485 699.241,-327.365 703.258,-329.114C707.274,-330.868 710.812,-333.244 713.868,-336.244C716.921,-339.242 719.327,-342.78 721.082,-346.854C722.834,-350.927 723.709,-355.284 723.709,-359.924L723.709,-390.476L690.269,-390.476L690.269,-359.924L621.353,-359.925ZM409.341,-473.827L499.137,-473.827L499.137,-359.925L409.341,-359.925L409.341,-473.827ZM532.407,-473.827C532.407,-478.465 531.531,-482.821 529.776,-486.895C528.022,-490.968 525.646,-494.503 522.647,-497.505C519.645,-500.504 516.139,-502.882 512.122,-504.634C508.105,-506.387 503.777,-507.264 499.137,-507.264L409.341,-507.264C404.819,-507.264 400.517,-506.387 396.446,-504.634C392.37,-502.881 388.832,-500.504 385.833,-497.505C382.837,-494.503 380.459,-490.968 378.707,-486.895C376.952,-482.821 376.073,-478.465 376.073,-473.827L376.073,-359.925C376.073,-355.285 376.952,-350.928 378.707,-346.855C380.458,-342.782 382.837,-339.244 385.833,-336.245C388.832,-333.246 392.37,-330.87 396.446,-329.116C400.517,-327.363 404.819,-326.486 409.341,-326.486L499.137,-326.486C503.777,-326.486 508.105,-327.366 512.122,-329.116C516.139,-330.869 519.645,-333.246 522.647,-336.245C525.646,-339.243 528.022,-342.782 529.776,-346.855C531.531,-350.928 532.407,-355.285 532.407,-359.925L532.407,-473.827ZM132.658,-507.266L74.264,-326.486L108.045,-326.486L150.82,-462.793L190.709,-326.486L224.829,-326.486L264.718,-462.793L307.496,-326.486L341.277,-326.486L282.883,-507.266L248.085,-507.266L207.685,-374.522L167.456,-507.266L132.658,-507.266ZM39.466,-507.266L6.026,-507.266L6.026,-359.924L-87.163,-359.924L-87.163,-507.266L-120.436,-507.266L-120.436,-326.486L6.026,-326.486C10.666,-326.486 15.023,-327.363 19.096,-329.112C23.17,-330.865 26.707,-333.242 29.707,-336.244C32.705,-339.243 35.081,-342.781 36.836,-346.851C38.59,-350.927 39.466,-355.284 39.466,-359.922L39.466,-507.266ZM-295.783,-473.827L-209.553,-473.827L-209.553,-428.334L-295.783,-428.334L-295.783,-473.827ZM-329.053,-428.334C-329.053,-423.694 -328.175,-419.365 -326.423,-415.348C-324.668,-411.332 -322.293,-407.794 -319.291,-404.736C-316.294,-401.682 -312.757,-399.279 -308.684,-397.524C-304.61,-395.771 -300.31,-394.894 -295.783,-394.894L-209.553,-394.894L-209.553,-359.926L-318.698,-359.926L-318.698,-326.486L-209.553,-326.486C-204.91,-326.486 -200.556,-327.366 -196.48,-329.115C-192.406,-330.869 -188.872,-333.246 -185.873,-336.245C-182.874,-339.243 -180.498,-342.781 -178.741,-346.855C-176.989,-350.928 -176.11,-355.285 -176.11,-359.925L-176.11,-507.264L-295.783,-507.264C-300.31,-507.264 -304.61,-506.388 -308.684,-504.635C-312.757,-502.881 -316.295,-500.504 -319.291,-497.505C-322.293,-494.503 -324.668,-490.968 -326.423,-486.895C-328.175,-482.822 -329.053,-478.465 -329.053,-473.828L-329.053,-428.334ZM-541.236,-403.04C-545.99,-403.04 -550.488,-402.108 -554.732,-400.238C-558.975,-398.372 -562.68,-395.882 -565.849,-392.769C-569.019,-389.657 -571.507,-385.977 -573.319,-381.734C-575.13,-377.49 -576.034,-372.995 -576.034,-368.244L-576.034,-298.645C-576.034,-293.891 -575.13,-289.393 -573.319,-285.149C-571.507,-280.906 -569.018,-277.229 -565.849,-274.12C-562.68,-271.004 -558.975,-268.515 -554.732,-266.65C-550.488,-264.784 -545.99,-263.845 -541.236,-263.845L-423.094,-263.845L-401.874,-264.028C-394.18,-263.808 -390.246,-266.066 -390.076,-270.82C-389.904,-275.57 -389.82,-284.851 -389.82,-298.656L-541.236,-298.656L-541.236,-368.255L-423.093,-368.255C-418.34,-368.255 -413.841,-369.16 -409.597,-370.972C-405.354,-372.78 -401.646,-375.269 -398.48,-378.438C-395.311,-381.608 -392.822,-385.312 -391.011,-389.556C-389.199,-393.799 -388.292,-398.298 -388.292,-403.051L-388.292,-472.478C-388.292,-477.231 -389.199,-481.73 -391.011,-485.973C-392.822,-490.217 -395.311,-493.925 -398.48,-497.091C-401.646,-500.261 -405.354,-502.749 -409.597,-504.56C-413.841,-506.372 -418.34,-507.277 -423.093,-507.277L-544.631,-507.277L-572.128,-507.46C-575.637,-504.403 -577.732,-501.547 -578.409,-498.888C-579.09,-496.229 -579.43,-487.374 -579.43,-472.324L-544.631,-472.507L-423.093,-472.507L-423.093,-403.081L-541.236,-403.04ZM181.512,120.646L181.512,11.687L390.43,11.687L390.43,120.646L181.512,120.646ZM212.258,100.394L280.129,100.394C286.452,100.394 291.548,95.313 291.548,89.013L291.548,66.912L200.858,66.912L200.858,89.013C200.858,95.313 205.935,100.394 212.258,100.394ZM328.312,93.921L328.318,93.921C334.052,93.921 338.771,89.202 338.771,83.467L338.771,83.462C338.771,77.727 334.052,73.009 328.318,73.009L328.312,73.009C322.577,73.009 317.859,77.727 317.859,83.462L317.859,83.467C317.859,89.202 322.577,93.921 328.312,93.921ZM364.588,93.921L364.594,93.921C370.329,93.921 375.047,89.202 375.047,83.467L375.047,83.462C375.047,77.727 370.329,73.009 364.594,73.009L364.588,73.009C358.854,73.009 354.135,77.727 354.135,83.462L354.135,83.467C354.135,89.202 358.854,93.921 364.588,93.921ZM200.858,61.91L291.548,61.91L291.548,40.828C291.548,34.527 286.452,29.446 280.129,29.446L212.258,29.446C205.935,29.446 200.858,34.527 200.858,40.828L200.858,61.91ZM328.312,56.512L328.318,56.512C334.052,56.512 338.771,51.793 338.771,46.059C338.771,46.058 338.771,46.057 338.771,46.056C338.763,40.326 334.045,35.617 328.315,35.618C322.585,35.617 317.867,40.326 317.859,46.056C317.859,46.057 317.859,46.058 317.859,46.059C317.859,51.793 322.577,56.512 328.312,56.512ZM364.588,56.512L364.594,56.512C370.329,56.512 375.047,51.793 375.047,46.059C375.047,46.058 375.047,46.057 375.047,46.056C375.039,40.326 370.321,35.617 364.591,35.618C358.861,35.617 354.143,40.326 354.135,46.056C354.135,46.057 354.135,46.058 354.135,46.059C354.135,51.793 358.854,56.512 364.588,56.512ZM288.566,284.455C225.933,285.84 173.045,233.433 171.282,170.399L171.15,170.399L171.15,167.7C171.148,167.282 171.091,166.874 171.093,166.454L171.15,166.454L171.15,136.444L400.905,136.444L400.905,170.399L400.773,170.399C399.991,232.061 349.989,283.092 288.566,284.455L288.566,284.455ZM231.434,224.945C243.056,224.945 252.479,215.523 252.479,203.901C252.479,192.281 243.056,182.875 231.434,182.875C219.815,182.875 210.408,192.281 210.408,203.901C210.408,215.523 219.815,224.945 231.434,224.945ZM340.715,224.662C352.337,224.589 361.706,215.126 361.647,203.504C361.585,191.885 352.13,182.513 340.508,182.572C328.888,182.646 319.517,192.111 319.576,203.731C319.638,215.352 329.096,224.722 340.715,224.662Z" style="fill:rgb(255,0,0);fill-rule:nonzero;"/>
                    </g>
                </g>
                <g transform="matrix(1,5.47382e-48,-5.47382e-48,1,2.43521,-20.1784)">
                    <g transform="matrix(0.33286,4.10282e-33,5.63875e-33,0.45747,-626.102,585.097)">
                        <path d="M290.87,103.668C269.653,103.668 252.427,120.894 252.427,142.112C252.427,163.329 269.653,180.555 290.87,180.555C312.088,180.555 329.314,163.329 329.314,142.112C329.314,120.894 312.088,103.668 290.87,103.668ZM290.87,106.994C310.252,106.994 325.988,122.73 325.988,142.112C325.988,161.494 310.252,177.229 290.87,177.229C271.488,177.229 255.753,161.494 255.753,142.112C255.753,122.73 271.488,106.994 290.87,106.994ZM310.195,152.059L271.546,152.059C271.093,152.059 270.664,152.148 270.259,152.326C269.855,152.504 269.501,152.741 269.199,153.038C268.897,153.335 268.66,153.686 268.487,154.09C268.314,154.495 268.228,154.924 268.228,155.377L268.228,161.372L271.546,161.372L271.546,155.377L310.195,155.377C310.648,155.377 311.077,155.288 311.482,155.11C311.886,154.932 312.24,154.695 312.542,154.398C312.844,154.101 313.081,153.75 313.254,153.346C313.427,152.941 313.513,152.512 313.513,152.059L313.513,146.064L310.195,146.064L310.195,152.059ZM290.385,146.064L281.725,129.051L281.725,146.064L278.406,146.064L278.406,122.851L282.032,122.851L290.87,140.334L299.725,122.851L303.335,122.851L303.335,146.064L300.032,146.064L300.032,129.051L291.372,146.064L290.385,146.064Z" style="fill:rgb(255,0,0);fill-rule:nonzero;"/>
                    </g>
                    <g transform="matrix(0.436813,1.80286e-48,-1.64307e-48,0.600338,-553.08,180.324)">
                        <text x="91.241px" y="772.104px" style="font-family:'Aldrich';font-size:15.164px;fill:rgb(255,0,0);">Bpod</text>
                        <text x="91.241px" y="787.994px" style="font-family:'Aldrich';font-size:15.164px;fill:rgb(255,0,0);">Stepper</text>
                        <text x="91.241px" y="803.883px" style="font-family:'Aldrich';font-size:15.164px;fill:rgb(255,0,0);">Module</text>
                    </g>
                </g>
            </g>
            <g id="washers" transform="matrix(1,0,0,1,8.56806,-6.25371)">
                <path d="M655.364,594.413C648.41,594.413 642.764,588.767 642.764,581.813C642.764,574.859 648.41,569.213 655.364,569.213C662.318,569.213 667.964,574.859 667.964,581.813C667.964,588.767 662.318,594.413 655.364,594.413ZM655.364,586.349C652.861,586.349 650.829,584.316 650.829,581.813C650.829,579.31 652.861,577.278 655.364,577.278C657.867,577.278 659.899,579.31 659.899,581.813C659.899,584.316 657.867,586.349 655.364,586.349ZM655.364,622.448C648.41,622.448 642.764,616.802 642.764,609.848C642.764,602.894 648.41,597.248 655.364,597.248C662.318,597.248 667.964,602.894 667.964,609.848C667.964,616.802 662.318,622.448 655.364,622.448ZM655.364,614.383C652.861,614.383 650.829,612.351 650.829,609.848C650.829,607.345 652.861,605.312 655.364,605.312C657.867,605.312 659.899,607.345 659.899,609.848C659.899,612.351 657.867,614.383 655.364,614.383ZM655.364,650.483C648.41,650.483 642.764,644.837 642.764,637.883C642.764,630.928 648.41,625.283 655.364,625.283C662.318,625.283 667.964,630.928 667.964,637.883C667.964,644.837 662.318,650.483 655.364,650.483ZM655.364,642.418C652.861,642.418 650.829,640.386 650.829,637.883C650.829,635.379 652.861,633.347 655.364,633.347C657.867,633.347 659.899,635.379 659.899,637.883C659.899,640.386 657.867,642.418 655.364,642.418ZM655.364,678.517C648.41,678.517 642.764,672.871 642.764,665.917C642.764,658.963 648.41,653.317 655.364,653.317C662.318,653.317 667.964,658.963 667.964,665.917C667.964,672.871 662.318,678.517 655.364,678.517ZM655.364,670.453C652.861,670.453 650.829,668.42 650.829,665.917C650.829,663.414 652.861,661.382 655.364,661.382C657.867,661.382 659.899,663.414 659.899,665.917C659.899,668.42 657.867,670.453 655.364,670.453Z" style="fill:none;stroke:black;stroke-width:0.5px;stroke-miterlimit:1.5;"/>
            </g>
        </g>
    </g>
</svg>
