<?xml version="1.0" encoding="UTF-8" standalone="no"?>
<!DOCTYPE svg PUBLIC "-//W3C//DTD SVG 1.1//EN" "http://www.w3.org/Graphics/SVG/1.1/DTD/svg11.dtd">
<svg width="919px" height="980px" version="1.1" xmlns="http://www.w3.org/2000/svg" xmlns:xlink="http://www.w3.org/1999/xlink" xml:space="preserve" xmlns:serif="http://www.serif.com/" style="fill-rule:evenodd;clip-rule:evenodd;stroke-linecap:round;stroke-linejoin:round;">
    <g transform="matrix(1.33333,0,0,1.33333,0,0)">
        <rect id="Artboard1" x="0" y="0" width="688.155" height="734.025" style="fill:none;"/>
        <g id="V1.0">
            <g id="long-side-2" serif:id="long side 2">
                <path d="M490.706,692.76C486.78,650.024 484.365,601.78 483.887,550.524L472.548,550.524L472.548,512.729L483.887,512.729C484.369,461.068 486.818,412.471 490.799,369.486L563.806,369.486L563.805,369.485L563.999,366.525L564.577,363.615L565.531,360.806L566.843,358.146L568.491,355.68L570.447,353.449L572.677,351.494L575.143,349.846L577.804,348.534L580.612,347.58L583.522,347.002L586.482,346.808L609.159,346.808L610.639,346.905L612.094,347.194L613.498,347.671L614.828,348.327L616.061,349.151L617.177,350.129L618.154,351.244L618.978,352.477L619.634,353.807L620.111,355.211L620.4,356.666L620.497,358.146L609.159,358.146L608.179,358.275L607.711,358.434L607.268,358.653L606.857,358.927L606.485,359.253L606.159,359.625L605.884,360.036L605.665,360.479L605.507,360.947L605.378,361.925L605.378,365.538L605.839,367.771L606.092,368.285L606.397,368.771L606.75,369.223L607.146,369.638L607.583,370.01L608.055,370.335L609.086,370.834L620.496,374.987L620.493,688.265L608.926,692.475L608.42,692.689L607.939,692.953L607.486,693.265L607.068,693.621L606.688,694.018L606.351,694.451L606.059,694.917L605.816,695.41L605.624,695.924L605.486,696.456L605.403,696.999L605.376,697.547L605.376,701.327L605.41,701.82L605.506,702.305L605.665,702.773L605.884,703.217L606.159,703.628L606.485,704L606.857,704.326L607.268,704.6L607.711,704.819L608.179,704.978L608.664,705.074L609.157,705.108L620.496,705.108L620.431,709.875L620.239,710.844L619.921,711.781L619.483,712.668L618.934,713.49L618.282,714.233L617.539,714.885L616.717,715.434L615.83,715.872L614.893,716.189L613.924,716.382L612.937,716.447L586.48,716.447L583.52,716.253L580.611,715.674L577.802,714.721L575.142,713.409L572.675,711.761L570.445,709.805L568.489,707.575L566.841,705.108L565.529,702.448L564.576,699.639L563.803,696.73L563.803,693.77L490.799,693.769L490.706,692.76ZM597.439,580.635L609.534,580.635L609.534,618.431L597.439,618.431L597.439,580.635ZM609.534,482.619L597.439,482.619L597.439,444.824L609.534,444.824L609.534,482.619ZM558.416,532.681C557.633,532.681 556.998,533.316 556.998,534.099L556.998,562.752C556.998,563.535 557.633,564.169 558.416,564.169L574.479,564.169C575.261,564.169 575.896,563.535 575.896,562.752L575.896,534.099C575.896,533.316 575.261,532.681 574.479,532.681L558.416,532.681ZM558.416,489.481C557.633,489.481 556.998,490.116 556.998,490.899L556.998,519.552C556.998,520.335 557.633,520.969 558.416,520.969L574.479,520.969C575.261,520.969 575.896,520.335 575.896,519.552L575.896,490.899C575.896,490.116 575.261,489.481 574.479,489.481L558.416,489.481ZM549.723,576.63C548.94,576.63 548.305,577.265 548.305,578.047L548.305,650.803C548.305,651.586 548.94,652.221 549.723,652.221L569.565,652.221C570.348,652.221 570.983,651.586 570.983,650.803L570.983,578.047C570.983,577.265 570.348,576.63 569.565,576.63L549.723,576.63Z" style="fill:none;stroke:black;stroke-width:1.33px;"/>
                <g>
                    <path d="M549.578,556.273C549.586,555.817 549.7,555.476 549.922,555.251C550.143,555.026 550.482,554.913 550.937,554.913L552.441,554.913C553.35,554.913 553.804,555.366 553.804,556.273L553.804,556.609L553.019,556.609L553.019,556.312C553.019,556.101 552.972,555.946 552.879,555.847C552.785,555.748 552.631,555.698 552.418,555.698L550.965,555.698C550.751,555.698 550.597,555.748 550.504,555.847C550.41,555.946 550.363,556.101 550.363,556.312L550.363,557.066C550.363,557.277 550.41,557.431 550.504,557.528C550.597,557.626 550.751,557.675 550.965,557.675L553.644,557.675L553.644,560.515L549.722,560.515L549.722,559.714L552.843,559.714L552.843,558.456L550.937,558.456C550.479,558.456 550.138,558.345 549.914,558.122C549.69,557.9 549.578,557.558 549.578,557.097L549.578,556.273Z" style="fill-rule:nonzero;"/>
                    <path d="M546.699,554.913L548.859,560.515L548,560.515L546.258,555.905L544.511,560.515L543.656,560.515L545.816,554.913L546.699,554.913Z" style="fill-rule:nonzero;"/>
                    <path d="M552.683,550.915L552.683,546.114L549.804,546.114L549.804,545.313L553.484,545.313L553.484,550.915L552.683,550.915Z" style="fill-rule:nonzero;"/>
                    <path d="M548.043,547.712C548.152,547.712 548.256,547.733 548.353,547.776C548.451,547.819 548.536,547.876 548.609,547.948C548.682,548.02 548.739,548.104 548.781,548.202C548.823,548.3 548.843,548.403 548.843,548.512L548.843,550.114C548.843,550.223 548.823,550.327 548.781,550.425C548.739,550.522 548.682,550.607 548.609,550.678C548.536,550.75 548.451,550.807 548.353,550.85C548.256,550.893 548.152,550.915 548.043,550.915L545.324,550.915C545.215,550.915 545.111,550.893 545.013,550.85C544.916,550.807 544.83,550.75 544.758,550.678C544.685,550.607 544.627,550.522 544.586,550.425C544.544,550.327 544.523,550.223 544.523,550.114L544.523,549.391L545.324,549.391L545.324,550.114L548.043,550.114L548.043,548.512L545.324,548.512C545.215,548.512 545.111,548.492 545.013,548.45C544.916,548.408 544.83,548.351 544.758,548.278C544.685,548.205 544.627,548.12 544.586,548.022C544.544,547.925 544.523,547.821 544.523,547.712L544.523,546.114C544.523,546.005 544.544,545.901 544.586,545.803C544.627,545.706 544.685,545.621 544.758,545.548C544.83,545.475 544.916,545.417 545.013,545.376C545.111,545.334 545.215,545.313 545.324,545.313L548.121,545.313C548.23,545.313 548.334,545.334 548.431,545.376C548.529,545.417 548.614,545.475 548.687,545.548C548.76,545.621 548.817,545.706 548.859,545.803C548.901,545.901 548.922,546.005 548.922,546.114L548.922,546.833L548.121,546.833L548.121,546.114L545.324,546.114L545.324,547.712L548.043,547.712Z" style="fill-rule:nonzero;"/>
                    <path d="M541.801,550.915L541.801,545.313L542.601,545.313L542.601,550.114L543.562,550.114L543.562,550.915L541.801,550.915Z" style="fill-rule:nonzero;"/>
                    <path d="M553.484,540.518C553.484,540.627 553.463,540.731 553.422,540.829C553.38,540.926 553.323,541.011 553.25,541.082C553.177,541.154 553.092,541.211 552.994,541.254C552.896,541.297 552.793,541.319 552.683,541.319L549.644,541.319C549.535,541.319 549.431,541.297 549.334,541.254C549.236,541.211 549.151,541.154 549.078,541.082C549.005,541.011 548.948,540.926 548.906,540.829C548.864,540.731 548.843,540.627 548.843,540.518L548.843,539.795L549.644,539.795L549.644,540.518L552.683,540.518L552.683,536.518L549.644,536.518L549.644,537.877L551.164,537.877L551.164,538.678L548.843,538.678L548.843,536.518C548.843,536.409 548.864,536.305 548.906,536.207C548.948,536.11 549.005,536.025 549.078,535.952C549.151,535.879 549.236,535.821 549.334,535.78C549.431,535.738 549.535,535.717 549.644,535.717L552.683,535.717C552.793,535.717 552.896,535.738 552.994,535.78C553.092,535.821 553.177,535.879 553.25,535.952C553.323,536.025 553.38,536.11 553.422,536.207C553.463,536.305 553.484,536.409 553.484,536.518L553.484,540.518Z" style="fill-rule:nonzero;"/>
                    <path d="M546.605,535.717L547.406,535.717L547.406,541.319L546.605,541.319L543.238,536.975L543.238,541.319L542.437,541.319L542.437,535.717L543.238,535.717L546.605,540.061L546.605,535.717Z" style="fill-rule:nonzero;"/>
                    <path d="M538.152,536.518C537.78,536.518 537.493,536.618 537.293,536.819C537.092,537.019 536.992,537.306 536.992,537.678L536.992,539.358C536.992,539.54 537.018,539.703 537.07,539.846C537.122,539.989 537.198,540.111 537.299,540.211C537.399,540.312 537.521,540.388 537.664,540.44C537.807,540.492 537.97,540.518 538.152,540.518L540.199,540.518L540.199,536.518L538.152,536.518ZM541,535.717L541,541.319L538.152,541.319C537.853,541.319 537.582,541.273 537.342,541.18C537.101,541.088 536.895,540.956 536.724,540.786C536.554,540.615 536.422,540.409 536.33,540.166C536.237,539.924 536.191,539.655 536.191,539.358L536.191,537.678C536.191,537.381 536.237,537.112 536.33,536.87C536.422,536.627 536.554,536.421 536.724,536.25C536.895,536.08 537.101,535.948 537.342,535.856C537.582,535.763 537.853,535.717 538.152,535.717L541,535.717Z" style="fill-rule:nonzero;"/>
                    <path d="M549.578,513.073C549.586,512.617 549.7,512.276 549.922,512.051C550.143,511.826 550.482,511.713 550.937,511.713L552.441,511.713C553.35,511.713 553.804,512.166 553.804,513.073L553.804,513.409L553.019,513.409L553.019,513.112C553.019,512.901 552.972,512.746 552.879,512.647C552.785,512.548 552.631,512.498 552.418,512.498L550.965,512.498C550.751,512.498 550.597,512.548 550.504,512.647C550.41,512.746 550.363,512.901 550.363,513.112L550.363,513.866C550.363,514.077 550.41,514.231 550.504,514.328C550.597,514.426 550.751,514.475 550.965,514.475L553.644,514.475L553.644,517.315L549.722,517.315L549.722,516.514L552.843,516.514L552.843,515.256L550.937,515.256C550.479,515.256 550.138,515.145 549.914,514.922C549.69,514.7 549.578,514.358 549.578,513.897L549.578,513.073Z" style="fill-rule:nonzero;"/>
                    <path d="M546.699,511.713L548.859,517.315L548,517.315L546.258,512.705L544.511,517.315L543.656,517.315L545.816,511.713L546.699,511.713Z" style="fill-rule:nonzero;"/>
                    <path d="M552.683,507.715L552.683,502.914L549.804,502.914L549.804,502.113L553.484,502.113L553.484,507.715L552.683,507.715Z" style="fill-rule:nonzero;"/>
                    <path d="M548.043,504.512C548.152,504.512 548.256,504.533 548.353,504.576C548.451,504.619 548.536,504.676 548.609,504.748C548.682,504.82 548.739,504.904 548.781,505.002C548.823,505.1 548.843,505.203 548.843,505.312L548.843,506.914C548.843,507.023 548.823,507.127 548.781,507.225C548.739,507.322 548.682,507.407 548.609,507.478C548.536,507.55 548.451,507.607 548.353,507.65C548.256,507.693 548.152,507.715 548.043,507.715L545.324,507.715C545.215,507.715 545.111,507.693 545.013,507.65C544.916,507.607 544.83,507.55 544.758,507.478C544.685,507.407 544.627,507.322 544.586,507.225C544.544,507.127 544.523,507.023 544.523,506.914L544.523,506.191L545.324,506.191L545.324,506.914L548.043,506.914L548.043,505.312L545.324,505.312C545.215,505.312 545.111,505.292 545.013,505.25C544.916,505.208 544.83,505.151 544.758,505.078C544.685,505.005 544.627,504.92 544.586,504.822C544.544,504.725 544.523,504.621 544.523,504.512L544.523,502.914C544.523,502.805 544.544,502.701 544.586,502.603C544.627,502.506 544.685,502.421 544.758,502.348C544.83,502.275 544.916,502.217 545.013,502.176C545.111,502.134 545.215,502.113 545.324,502.113L548.121,502.113C548.23,502.113 548.334,502.134 548.431,502.176C548.529,502.217 548.614,502.275 548.687,502.348C548.76,502.421 548.817,502.506 548.859,502.603C548.901,502.701 548.922,502.805 548.922,502.914L548.922,503.633L548.121,503.633L548.121,502.914L545.324,502.914L545.324,504.512L548.043,504.512Z" style="fill-rule:nonzero;"/>
                    <path d="M542.359,506.914L542.359,506.191L543.16,506.191L543.16,506.914C543.16,507.023 543.139,507.127 543.097,507.225C543.056,507.322 542.998,507.407 542.926,507.478C542.853,507.55 542.767,507.607 542.67,507.65C542.572,507.693 542.468,507.715 542.359,507.715L539.824,507.715C539.715,507.715 539.611,507.693 539.513,507.65C539.416,507.607 539.331,507.55 539.26,507.478C539.188,507.407 539.131,507.322 539.088,507.225C539.045,507.127 539.023,507.023 539.023,506.914L539.023,505.891C539.023,505.781 539.034,505.684 539.054,505.598C539.075,505.512 539.108,505.434 539.154,505.365C539.2,505.296 539.258,505.234 539.328,505.18C539.398,505.125 539.484,505.073 539.586,505.023L542.359,503.723L542.359,502.914L539.722,502.914L539.722,503.633L538.922,503.633L538.922,502.113L543.16,502.113L543.16,503.586C543.16,503.695 543.149,503.793 543.127,503.879C543.105,503.965 543.071,504.042 543.027,504.109C542.983,504.177 542.925,504.239 542.853,504.295C542.782,504.351 542.698,504.402 542.601,504.449L539.824,505.754L539.824,506.914L542.359,506.914Z" style="fill-rule:nonzero;"/>
                    <path d="M553.484,497.318C553.484,497.427 553.463,497.531 553.422,497.629C553.38,497.726 553.323,497.811 553.25,497.882C553.177,497.954 553.092,498.011 552.994,498.054C552.896,498.097 552.793,498.119 552.683,498.119L549.644,498.119C549.535,498.119 549.431,498.097 549.334,498.054C549.236,498.011 549.151,497.954 549.078,497.882C549.005,497.811 548.948,497.726 548.906,497.629C548.864,497.531 548.843,497.427 548.843,497.318L548.843,496.595L549.644,496.595L549.644,497.318L552.683,497.318L552.683,493.318L549.644,493.318L549.644,494.677L551.164,494.677L551.164,495.478L548.843,495.478L548.843,493.318C548.843,493.209 548.864,493.105 548.906,493.007C548.948,492.91 549.005,492.825 549.078,492.752C549.151,492.679 549.236,492.621 549.334,492.58C549.431,492.538 549.535,492.517 549.644,492.517L552.683,492.517C552.793,492.517 552.896,492.538 552.994,492.58C553.092,492.621 553.177,492.679 553.25,492.752C553.323,492.825 553.38,492.91 553.422,493.007C553.463,493.105 553.484,493.209 553.484,493.318L553.484,497.318Z" style="fill-rule:nonzero;"/>
                    <path d="M546.605,492.517L547.406,492.517L547.406,498.119L546.605,498.119L543.238,493.775L543.238,498.119L542.437,498.119L542.437,492.517L543.238,492.517L546.605,496.861L546.605,492.517Z" style="fill-rule:nonzero;"/>
                    <path d="M538.152,493.318C537.78,493.318 537.493,493.418 537.293,493.619C537.092,493.819 536.992,494.106 536.992,494.478L536.992,496.158C536.992,496.34 537.018,496.503 537.07,496.646C537.122,496.789 537.198,496.911 537.299,497.011C537.399,497.112 537.521,497.188 537.664,497.24C537.807,497.292 537.97,497.318 538.152,497.318L540.199,497.318L540.199,493.318L538.152,493.318ZM541,492.517L541,498.119L538.152,498.119C537.853,498.119 537.582,498.073 537.342,497.98C537.101,497.888 536.895,497.756 536.724,497.586C536.554,497.415 536.422,497.209 536.33,496.966C536.237,496.724 536.191,496.455 536.191,496.158L536.191,494.478C536.191,494.181 536.237,493.912 536.33,493.67C536.422,493.427 536.554,493.221 536.724,493.05C536.895,492.88 537.101,492.748 537.342,492.656C537.582,492.563 537.853,492.517 538.152,492.517L541,492.517Z" style="fill-rule:nonzero;"/>
                    <path d="M539.25,589.996L539.973,589.996L539.973,590.797L539.25,590.797C539.141,590.797 539.037,590.776 538.94,590.734C538.842,590.693 538.757,590.635 538.686,590.563C538.614,590.49 538.557,590.404 538.514,590.307C538.471,590.209 538.449,590.105 538.449,589.996L538.449,587.461C538.449,587.352 538.471,587.248 538.514,587.15C538.557,587.053 538.614,586.968 538.686,586.897C538.757,586.825 538.842,586.768 538.94,586.725C539.037,586.682 539.141,586.66 539.25,586.66L540.274,586.66C540.383,586.66 540.481,586.671 540.566,586.691C540.652,586.712 540.73,586.745 540.799,586.791C540.868,586.837 540.93,586.895 540.984,586.965C541.039,587.035 541.091,587.121 541.141,587.223L542.441,589.996L543.25,589.996L543.25,587.359L542.531,587.359L542.531,586.559L544.051,586.559L544.051,590.797L542.578,590.797C542.469,590.797 542.371,590.786 542.285,590.764C542.199,590.742 542.122,590.708 542.055,590.664C541.987,590.62 541.925,590.562 541.869,590.49C541.813,590.419 541.762,590.335 541.715,590.238L540.41,587.461L539.25,587.461L539.25,589.996Z" style="fill-rule:nonzero;"/>
                    <path d="M541.129,581.551C541.165,581.434 541.218,581.327 541.285,581.23C541.353,581.134 541.44,581.052 541.545,580.984C541.65,580.917 541.775,580.865 541.918,580.828C542.061,580.792 542.225,580.773 542.41,580.773L542.691,580.773C543.598,580.773 544.051,581.227 544.051,582.133L544.051,585.199L538.449,585.199L538.449,582.293C538.449,581.387 538.904,580.934 539.813,580.934L539.914,580.934C540.229,580.934 540.486,580.984 540.686,581.084C540.885,581.184 541.033,581.34 541.129,581.551ZM541.609,584.414L543.266,584.414L543.266,582.156C543.266,581.945 543.216,581.793 543.117,581.699C543.018,581.605 542.863,581.559 542.652,581.559L542.219,581.559C542.005,581.559 541.85,581.605 541.754,581.699C541.658,581.793 541.609,581.945 541.609,582.156L541.609,584.414ZM539.234,584.414L540.828,584.414L540.828,582.262C540.82,582.069 540.768,581.93 540.67,581.846C540.572,581.761 540.422,581.719 540.219,581.719L539.852,581.719C539.638,581.719 539.482,581.766 539.383,581.859C539.284,581.953 539.234,582.105 539.234,582.316L539.234,584.414Z" style="fill-rule:nonzero;"/>
                    <path d="M539.25,609.184L539.973,609.184L539.973,609.985L539.25,609.985C539.141,609.985 539.037,609.964 538.94,609.923C538.842,609.881 538.757,609.824 538.686,609.751C538.614,609.678 538.557,609.593 538.514,609.495C538.471,609.397 538.449,609.294 538.449,609.184L538.449,606.649C538.449,606.54 538.471,606.436 538.514,606.339C538.557,606.241 538.614,606.156 538.686,606.085C538.757,606.013 538.842,605.956 538.94,605.913C539.037,605.87 539.141,605.848 539.25,605.848L540.274,605.848C540.383,605.848 540.481,605.859 540.566,605.88C540.652,605.901 540.73,605.934 540.799,605.979C540.868,606.025 540.93,606.083 540.984,606.153C541.039,606.223 541.091,606.309 541.141,606.411L542.441,609.184L543.25,609.184L543.25,606.548L542.531,606.548L542.531,605.747L544.051,605.747L544.051,609.985L542.578,609.985C542.469,609.985 542.371,609.974 542.285,609.952C542.199,609.93 542.122,609.897 542.055,609.852C541.987,609.808 541.925,609.75 541.869,609.679C541.813,609.607 541.762,609.523 541.715,609.427L540.41,606.649L539.25,606.649L539.25,609.184Z" style="fill-rule:nonzero;"/>
                    <path d="M538.449,601.907L544.051,599.747L544.051,600.548L542.762,601.044L542.762,603.571L544.051,604.067L544.051,604.868L538.449,602.708L538.449,601.907ZM541.961,603.266L541.961,601.352L539.492,602.305L541.961,603.266Z" style="fill-rule:nonzero;"/>
                    <path d="M538.449,626.466L544.051,626.466L544.051,627.267L539.25,627.267L539.25,628.228L538.449,628.228L538.449,626.466Z" style="fill-rule:nonzero;"/>
                    <path d="M538.449,622.466L544.051,620.306L544.051,621.107L542.762,621.603L542.762,624.13L544.051,624.627L544.051,625.427L538.449,623.267L538.449,622.466ZM541.961,623.826L541.961,621.912L539.492,622.865L541.961,623.826Z" style="fill-rule:nonzero;"/>
                    <path d="M538.543,644.686L544.051,644.686L544.051,645.473L539.33,645.473L539.33,646.418L538.543,646.418L538.543,644.686Z" style="fill-rule:nonzero;"/>
                    <path d="M541.178,639.604C541.214,639.488 541.265,639.383 541.331,639.289C541.398,639.194 541.483,639.113 541.587,639.047C541.69,638.98 541.813,638.929 541.954,638.893C542.094,638.857 542.256,638.839 542.438,638.839L542.714,638.839C543.605,638.839 544.051,639.285 544.051,640.176L544.051,643.191L538.543,643.191L538.543,640.334C538.543,639.442 538.99,638.997 539.883,638.997L539.983,638.997C540.293,638.997 540.546,639.046 540.742,639.145C540.938,639.243 541.083,639.396 541.178,639.604ZM541.65,642.419L543.279,642.419L543.279,640.199C543.279,639.992 543.23,639.842 543.133,639.75C543.036,639.657 542.883,639.611 542.676,639.611L542.249,639.611C542.039,639.611 541.887,639.657 541.792,639.75C541.698,639.842 541.65,639.992 541.65,640.199L541.65,642.419ZM539.315,642.419L540.882,642.419L540.882,640.303C540.874,640.113 540.822,639.977 540.726,639.894C540.63,639.81 540.482,639.769 540.283,639.769L539.922,639.769C539.712,639.769 539.558,639.815 539.461,639.907C539.363,639.999 539.315,640.149 539.315,640.357L539.315,642.419Z" style="fill-rule:nonzero;"/>
                    <g transform="matrix(8.16431e-17,-1.33333,1.33333,8.16431e-17,-436.419,1036.82)">
                        <g transform="matrix(10,0,0,10,300.943,710.162)">
                            <path d="M0.451,-0L0.19,-0.513L0.19,-0L0.09,-0L0.09,-0.7L0.199,-0.7L0.466,-0.173L0.733,-0.7L0.842,-0.7L0.842,-0L0.742,-0L0.742,-0.513L0.481,-0L0.451,-0Z" style="fill-rule:nonzero;"/>
                        </g>
                        <g transform="matrix(10,0,0,10,310.264,710.162)">
                            <path d="M0.53,-0.096C0.53,-0.083 0.527,-0.07 0.522,-0.059C0.517,-0.047 0.51,-0.037 0.502,-0.028C0.493,-0.019 0.483,-0.013 0.471,-0.008C0.46,-0.003 0.447,-0 0.434,-0L0.176,-0C0.163,-0 0.15,-0.003 0.139,-0.008C0.127,-0.013 0.117,-0.019 0.108,-0.028C0.1,-0.037 0.093,-0.047 0.088,-0.059C0.083,-0.07 0.08,-0.083 0.08,-0.096L0.08,-0.424C0.08,-0.437 0.083,-0.45 0.088,-0.461C0.093,-0.473 0.1,-0.483 0.108,-0.492C0.117,-0.501 0.127,-0.507 0.139,-0.512C0.15,-0.517 0.163,-0.52 0.176,-0.52L0.434,-0.52C0.447,-0.52 0.46,-0.517 0.471,-0.512C0.483,-0.507 0.493,-0.501 0.502,-0.492C0.51,-0.483 0.517,-0.473 0.522,-0.461C0.527,-0.45 0.53,-0.437 0.53,-0.424L0.53,-0.096ZM0.176,-0.424L0.176,-0.096L0.434,-0.096L0.434,-0.424L0.176,-0.424Z" style="fill-rule:nonzero;"/>
                        </g>
                        <g transform="matrix(10,0,0,10,316.363,710.162)">
                            <path d="M0.05,-0.52L0.177,-0.52L0.177,-0.68L0.273,-0.68L0.273,-0.52L0.444,-0.52L0.444,-0.424L0.273,-0.424L0.273,-0.096L0.444,-0.096L0.444,-0L0.273,-0C0.26,-0 0.248,-0.003 0.236,-0.008C0.224,-0.013 0.214,-0.019 0.205,-0.028C0.196,-0.037 0.189,-0.047 0.184,-0.059C0.179,-0.07 0.177,-0.083 0.177,-0.096L0.177,-0.424L0.05,-0.424L0.05,-0.52Z" style="fill-rule:nonzero;"/>
                        </g>
                        <g transform="matrix(10,0,0,10,321.602,710.162)">
                            <path d="M0.53,-0.096C0.53,-0.083 0.527,-0.07 0.522,-0.059C0.517,-0.047 0.51,-0.037 0.502,-0.028C0.493,-0.019 0.483,-0.013 0.471,-0.008C0.46,-0.003 0.447,-0 0.434,-0L0.176,-0C0.163,-0 0.15,-0.003 0.139,-0.008C0.127,-0.013 0.117,-0.019 0.108,-0.028C0.1,-0.037 0.093,-0.047 0.088,-0.059C0.083,-0.07 0.08,-0.083 0.08,-0.096L0.08,-0.424C0.08,-0.437 0.083,-0.45 0.088,-0.461C0.093,-0.473 0.1,-0.483 0.108,-0.492C0.117,-0.501 0.127,-0.507 0.139,-0.512C0.15,-0.517 0.163,-0.52 0.176,-0.52L0.434,-0.52C0.447,-0.52 0.46,-0.517 0.471,-0.512C0.483,-0.507 0.493,-0.501 0.502,-0.492C0.51,-0.483 0.517,-0.473 0.522,-0.461C0.527,-0.45 0.53,-0.437 0.53,-0.424L0.53,-0.096ZM0.176,-0.424L0.176,-0.096L0.434,-0.096L0.434,-0.424L0.176,-0.424Z" style="fill-rule:nonzero;"/>
                        </g>
                        <g transform="matrix(10,0,0,10,327.701,710.162)">
                            <path d="M0.176,-0.424L0.176,-0L0.08,-0L0.08,-0.52L0.176,-0.52L0.176,-0.428C0.176,-0.441 0.179,-0.453 0.185,-0.464C0.19,-0.475 0.197,-0.485 0.205,-0.493C0.214,-0.502 0.224,-0.508 0.235,-0.513C0.247,-0.518 0.259,-0.52 0.272,-0.52L0.374,-0.52C0.387,-0.52 0.4,-0.517 0.411,-0.512C0.423,-0.507 0.433,-0.501 0.442,-0.492C0.451,-0.483 0.458,-0.473 0.463,-0.461C0.468,-0.45 0.47,-0.437 0.47,-0.424L0.47,-0.336L0.374,-0.336L0.374,-0.424L0.176,-0.424Z" style="fill-rule:nonzero;"/>
                        </g>
                        <g transform="matrix(10,0,0,10,295.63,720.641)">
                            <path d="M0.69,-0.1C0.69,-0.086 0.687,-0.073 0.682,-0.061C0.677,-0.049 0.67,-0.038 0.661,-0.029C0.652,-0.02 0.641,-0.013 0.629,-0.008C0.616,-0.003 0.604,-0 0.59,-0L0.19,-0C0.176,-0 0.163,-0.003 0.151,-0.008C0.139,-0.013 0.128,-0.02 0.119,-0.029C0.11,-0.038 0.103,-0.049 0.098,-0.061C0.092,-0.073 0.09,-0.086 0.09,-0.1L0.09,-0.6C0.09,-0.614 0.092,-0.627 0.098,-0.639C0.103,-0.651 0.11,-0.662 0.119,-0.671C0.128,-0.68 0.139,-0.687 0.151,-0.692C0.163,-0.698 0.176,-0.7 0.19,-0.7L0.59,-0.7C0.604,-0.7 0.616,-0.698 0.629,-0.692C0.641,-0.687 0.652,-0.68 0.661,-0.671C0.67,-0.662 0.677,-0.651 0.682,-0.639C0.687,-0.627 0.69,-0.614 0.69,-0.6L0.69,-0.1ZM0.19,-0.6L0.19,-0.1L0.59,-0.1L0.59,-0.6L0.19,-0.6Z" style="fill-rule:nonzero;"/>
                        </g>
                        <g transform="matrix(10,0,0,10,303.428,720.641)">
                            <path d="M0.08,-0.52L0.176,-0.52L0.176,-0.096L0.444,-0.096L0.444,-0.52L0.54,-0.52L0.54,-0L0.444,-0L0.444,-0.088C0.443,-0.076 0.44,-0.064 0.434,-0.054C0.429,-0.043 0.421,-0.034 0.413,-0.026C0.404,-0.018 0.394,-0.011 0.383,-0.007C0.372,-0.002 0.361,-0 0.348,-0L0.176,-0C0.163,-0 0.15,-0.003 0.139,-0.008C0.127,-0.013 0.117,-0.019 0.108,-0.028C0.1,-0.037 0.093,-0.047 0.088,-0.059C0.083,-0.07 0.08,-0.083 0.08,-0.096L0.08,-0.52Z" style="fill-rule:nonzero;"/>
                        </g>
                        <g transform="matrix(10,0,0,10,309.629,720.641)">
                            <path d="M0.05,-0.52L0.177,-0.52L0.177,-0.68L0.273,-0.68L0.273,-0.52L0.444,-0.52L0.444,-0.424L0.273,-0.424L0.273,-0.096L0.444,-0.096L0.444,-0L0.273,-0C0.26,-0 0.248,-0.003 0.236,-0.008C0.224,-0.013 0.214,-0.019 0.205,-0.028C0.196,-0.037 0.189,-0.047 0.184,-0.059C0.179,-0.07 0.177,-0.083 0.177,-0.096L0.177,-0.424L0.05,-0.424L0.05,-0.52Z" style="fill-rule:nonzero;"/>
                        </g>
                        <g transform="matrix(10,0,0,10,314.869,720.641)">
                            <path d="M0.54,-0.096C0.54,-0.083 0.538,-0.07 0.532,-0.059C0.527,-0.047 0.521,-0.037 0.512,-0.028C0.503,-0.019 0.493,-0.013 0.481,-0.008C0.47,-0.003 0.457,-0 0.444,-0L0.176,-0L0.176,0.21L0.08,0.21L0.08,-0.52L0.176,-0.52L0.176,-0.432C0.177,-0.444 0.18,-0.456 0.186,-0.467C0.191,-0.477 0.198,-0.486 0.207,-0.494C0.215,-0.502 0.225,-0.509 0.236,-0.513C0.247,-0.518 0.259,-0.52 0.272,-0.52L0.444,-0.52C0.457,-0.52 0.47,-0.517 0.481,-0.512C0.493,-0.507 0.503,-0.501 0.512,-0.492C0.521,-0.483 0.527,-0.473 0.532,-0.461C0.538,-0.45 0.54,-0.437 0.54,-0.424L0.54,-0.096ZM0.444,-0.096L0.444,-0.424L0.176,-0.424L0.176,-0.096L0.444,-0.096Z" style="fill-rule:nonzero;"/>
                        </g>
                        <g transform="matrix(10,0,0,10,321.07,720.641)">
                            <path d="M0.08,-0.52L0.176,-0.52L0.176,-0.096L0.444,-0.096L0.444,-0.52L0.54,-0.52L0.54,-0L0.444,-0L0.444,-0.088C0.443,-0.076 0.44,-0.064 0.434,-0.054C0.429,-0.043 0.421,-0.034 0.413,-0.026C0.404,-0.018 0.394,-0.011 0.383,-0.007C0.372,-0.002 0.361,-0 0.348,-0L0.176,-0C0.163,-0 0.15,-0.003 0.139,-0.008C0.127,-0.013 0.117,-0.019 0.108,-0.028C0.1,-0.037 0.093,-0.047 0.088,-0.059C0.083,-0.07 0.08,-0.083 0.08,-0.096L0.08,-0.52Z" style="fill-rule:nonzero;"/>
                        </g>
                        <g transform="matrix(10,0,0,10,327.271,720.641)">
                            <path d="M0.05,-0.52L0.177,-0.52L0.177,-0.68L0.273,-0.68L0.273,-0.52L0.444,-0.52L0.444,-0.424L0.273,-0.424L0.273,-0.096L0.444,-0.096L0.444,-0L0.273,-0C0.26,-0 0.248,-0.003 0.236,-0.008C0.224,-0.013 0.214,-0.019 0.205,-0.028C0.196,-0.037 0.189,-0.047 0.184,-0.059C0.179,-0.07 0.177,-0.083 0.177,-0.096L0.177,-0.424L0.05,-0.424L0.05,-0.52Z" style="fill-rule:nonzero;"/>
                        </g>
                        <g transform="matrix(10,0,0,10,332.51,720.641)">
                            <path d="M0.394,-0.096L0.394,-0.217L0.166,-0.217C0.153,-0.217 0.14,-0.219 0.128,-0.224C0.117,-0.229 0.107,-0.236 0.098,-0.245C0.089,-0.253 0.082,-0.264 0.077,-0.275C0.072,-0.287 0.07,-0.3 0.07,-0.313L0.07,-0.424C0.07,-0.437 0.072,-0.45 0.077,-0.461C0.082,-0.473 0.089,-0.483 0.098,-0.492C0.107,-0.501 0.117,-0.507 0.128,-0.512C0.14,-0.517 0.153,-0.52 0.166,-0.52L0.47,-0.52L0.47,-0.424L0.166,-0.424L0.166,-0.313L0.394,-0.313C0.407,-0.313 0.42,-0.31 0.431,-0.305C0.443,-0.3 0.453,-0.294 0.462,-0.285C0.471,-0.276 0.478,-0.266 0.483,-0.254C0.488,-0.243 0.49,-0.23 0.49,-0.217L0.49,-0.096C0.49,-0.083 0.488,-0.07 0.483,-0.059C0.478,-0.047 0.471,-0.037 0.462,-0.028C0.453,-0.019 0.443,-0.013 0.431,-0.008C0.42,-0.003 0.407,-0 0.394,-0L0.07,-0L0.07,-0.096L0.394,-0.096Z" style="fill-rule:nonzero;"/>
                        </g>
                    </g>
                    <g transform="matrix(8.16431e-17,-1.33333,1.33333,8.16431e-17,-436.419,949.223)">
                        <g transform="matrix(10,0,0,10,304.249,710.162)">
                            <path d="M0.19,-0.7L0.19,-0.1L0.55,-0.1L0.55,-0L0.09,-0L0.09,-0.7L0.19,-0.7Z" style="fill-rule:nonzero;"/>
                        </g>
                        <g transform="matrix(10,0,0,10,310.049,710.162)">
                            <path d="M0.181,-0.52L0.181,-0L0.085,-0L0.085,-0.52L0.181,-0.52ZM0.08,-0.72L0.186,-0.72L0.186,-0.62L0.08,-0.62L0.08,-0.72Z" style="fill-rule:nonzero;"/>
                        </g>
                        <g transform="matrix(10,0,0,10,312.71,710.162)">
                            <path d="M0.492,-0.424L0.492,-0L0.396,-0L0.396,-0.424L0.176,-0.424L0.176,-0L0.08,-0L0.08,-0.52L0.176,-0.52L0.176,-0.428C0.176,-0.441 0.179,-0.453 0.185,-0.464C0.19,-0.475 0.197,-0.485 0.205,-0.493C0.214,-0.502 0.224,-0.508 0.235,-0.513C0.247,-0.518 0.259,-0.52 0.272,-0.52L0.396,-0.52C0.409,-0.52 0.421,-0.518 0.432,-0.513C0.444,-0.508 0.454,-0.502 0.462,-0.493C0.471,-0.485 0.478,-0.475 0.484,-0.464C0.489,-0.453 0.492,-0.441 0.492,-0.428C0.493,-0.441 0.496,-0.453 0.501,-0.464C0.506,-0.475 0.513,-0.485 0.521,-0.493C0.53,-0.502 0.54,-0.508 0.551,-0.513C0.563,-0.518 0.575,-0.52 0.588,-0.52L0.712,-0.52C0.725,-0.52 0.738,-0.517 0.75,-0.512C0.761,-0.507 0.771,-0.501 0.78,-0.492C0.789,-0.483 0.795,-0.473 0.801,-0.461C0.806,-0.45 0.808,-0.437 0.808,-0.424L0.808,-0L0.712,-0L0.712,-0.424L0.492,-0.424Z" style="fill-rule:nonzero;"/>
                        </g>
                        <g transform="matrix(10,0,0,10,321.592,710.162)">
                            <path d="M0.181,-0.52L0.181,-0L0.085,-0L0.085,-0.52L0.181,-0.52ZM0.08,-0.72L0.186,-0.72L0.186,-0.62L0.08,-0.62L0.08,-0.72Z" style="fill-rule:nonzero;"/>
                        </g>
                        <g transform="matrix(10,0,0,10,324.253,710.162)">
                            <path d="M0.05,-0.52L0.177,-0.52L0.177,-0.68L0.273,-0.68L0.273,-0.52L0.444,-0.52L0.444,-0.424L0.273,-0.424L0.273,-0.096L0.444,-0.096L0.444,-0L0.273,-0C0.26,-0 0.248,-0.003 0.236,-0.008C0.224,-0.013 0.214,-0.019 0.205,-0.028C0.196,-0.037 0.189,-0.047 0.184,-0.059C0.179,-0.07 0.177,-0.083 0.177,-0.096L0.177,-0.424L0.05,-0.424L0.05,-0.52Z" style="fill-rule:nonzero;"/>
                        </g>
                        <g transform="matrix(10,0,0,10,293.377,720.641)">
                            <path d="M0.19,-0.3C0.176,-0.3 0.163,-0.302 0.151,-0.308C0.139,-0.313 0.128,-0.32 0.119,-0.329C0.11,-0.338 0.103,-0.349 0.098,-0.361C0.092,-0.373 0.09,-0.386 0.09,-0.4L0.09,-0.6C0.09,-0.614 0.092,-0.627 0.098,-0.639C0.103,-0.651 0.11,-0.662 0.119,-0.671C0.128,-0.68 0.139,-0.687 0.151,-0.692C0.163,-0.698 0.176,-0.7 0.19,-0.7L0.53,-0.7C0.543,-0.7 0.556,-0.698 0.569,-0.692C0.581,-0.687 0.591,-0.68 0.601,-0.671C0.61,-0.662 0.617,-0.651 0.622,-0.639C0.627,-0.627 0.63,-0.614 0.63,-0.6L0.63,-0.51L0.53,-0.51L0.53,-0.6L0.19,-0.6L0.19,-0.4L0.53,-0.4C0.543,-0.4 0.556,-0.397 0.569,-0.392C0.581,-0.387 0.591,-0.38 0.601,-0.371C0.61,-0.361 0.617,-0.351 0.622,-0.339C0.627,-0.326 0.63,-0.313 0.63,-0.3L0.63,-0.1C0.63,-0.086 0.627,-0.073 0.622,-0.061C0.617,-0.049 0.61,-0.038 0.601,-0.029C0.591,-0.02 0.581,-0.013 0.569,-0.008C0.556,-0.003 0.543,-0 0.53,-0L0.18,-0C0.167,-0 0.154,-0.003 0.141,-0.008C0.129,-0.013 0.118,-0.02 0.109,-0.029C0.1,-0.038 0.093,-0.049 0.088,-0.061C0.083,-0.073 0.08,-0.086 0.08,-0.1L0.08,-0.19L0.18,-0.19L0.18,-0.1L0.53,-0.1L0.53,-0.3L0.19,-0.3Z" style="fill-rule:nonzero;"/>
                        </g>
                        <g transform="matrix(10,0,0,10,300.579,720.641)">
                            <path d="M0.188,-0L0.02,-0.52L0.117,-0.52L0.24,-0.128L0.355,-0.52L0.453,-0.52L0.568,-0.128L0.691,-0.52L0.788,-0.52L0.62,-0L0.52,-0L0.404,-0.382L0.288,-0L0.188,-0Z" style="fill-rule:nonzero;"/>
                        </g>
                        <g transform="matrix(10,0,0,10,308.66,720.641)">
                            <path d="M0.181,-0.52L0.181,-0L0.085,-0L0.085,-0.52L0.181,-0.52ZM0.08,-0.72L0.186,-0.72L0.186,-0.62L0.08,-0.62L0.08,-0.72Z" style="fill-rule:nonzero;"/>
                        </g>
                        <g transform="matrix(10,0,0,10,311.321,720.641)">
                            <path d="M0.05,-0.52L0.177,-0.52L0.177,-0.68L0.273,-0.68L0.273,-0.52L0.444,-0.52L0.444,-0.424L0.273,-0.424L0.273,-0.096L0.444,-0.096L0.444,-0L0.273,-0C0.26,-0 0.248,-0.003 0.236,-0.008C0.224,-0.013 0.214,-0.019 0.205,-0.028C0.196,-0.037 0.189,-0.047 0.184,-0.059C0.179,-0.07 0.177,-0.083 0.177,-0.096L0.177,-0.424L0.05,-0.424L0.05,-0.52Z" style="fill-rule:nonzero;"/>
                        </g>
                        <g transform="matrix(10,0,0,10,316.561,720.641)">
                            <path d="M0.176,-0.424L0.176,-0.096L0.424,-0.096L0.424,-0.184L0.52,-0.184L0.52,-0.096C0.52,-0.083 0.517,-0.07 0.512,-0.059C0.507,-0.047 0.501,-0.037 0.492,-0.028C0.483,-0.019 0.473,-0.013 0.461,-0.008C0.45,-0.003 0.437,-0 0.424,-0L0.176,-0C0.163,-0 0.15,-0.003 0.139,-0.008C0.127,-0.013 0.117,-0.019 0.108,-0.028C0.1,-0.037 0.093,-0.047 0.088,-0.059C0.083,-0.07 0.08,-0.083 0.08,-0.096L0.08,-0.424C0.08,-0.437 0.083,-0.45 0.088,-0.461C0.093,-0.473 0.1,-0.483 0.108,-0.492C0.117,-0.501 0.127,-0.507 0.139,-0.512C0.15,-0.517 0.163,-0.52 0.176,-0.52L0.424,-0.52C0.437,-0.52 0.45,-0.517 0.461,-0.512C0.473,-0.507 0.483,-0.501 0.492,-0.492C0.501,-0.483 0.507,-0.473 0.512,-0.461C0.517,-0.45 0.52,-0.437 0.52,-0.424L0.52,-0.336L0.424,-0.336L0.424,-0.424L0.176,-0.424Z" style="fill-rule:nonzero;"/>
                        </g>
                        <g transform="matrix(10,0,0,10,322.562,720.641)">
                            <path d="M0.54,-0L0.444,-0L0.444,-0.424L0.176,-0.424L0.176,-0L0.08,-0L0.08,-0.72L0.176,-0.72L0.176,-0.428C0.176,-0.441 0.179,-0.453 0.185,-0.464C0.19,-0.475 0.197,-0.485 0.205,-0.493C0.214,-0.502 0.224,-0.508 0.235,-0.513C0.247,-0.518 0.259,-0.52 0.272,-0.52L0.444,-0.52C0.457,-0.52 0.47,-0.517 0.481,-0.512C0.493,-0.507 0.503,-0.501 0.512,-0.492C0.521,-0.483 0.527,-0.473 0.532,-0.461C0.538,-0.45 0.54,-0.437 0.54,-0.424L0.54,-0Z" style="fill-rule:nonzero;"/>
                        </g>
                        <g transform="matrix(10,0,0,10,328.763,720.641)">
                            <path d="M0.52,-0.211L0.176,-0.211L0.176,-0.096L0.52,-0.096L0.52,-0L0.176,-0C0.163,-0 0.15,-0.003 0.139,-0.008C0.127,-0.013 0.117,-0.019 0.108,-0.028C0.1,-0.037 0.093,-0.047 0.088,-0.059C0.083,-0.07 0.08,-0.083 0.08,-0.096L0.08,-0.424C0.08,-0.437 0.083,-0.45 0.088,-0.461C0.093,-0.473 0.1,-0.483 0.108,-0.492C0.117,-0.501 0.127,-0.507 0.139,-0.512C0.15,-0.517 0.163,-0.52 0.176,-0.52L0.424,-0.52C0.437,-0.52 0.45,-0.517 0.461,-0.512C0.473,-0.507 0.483,-0.501 0.492,-0.492C0.501,-0.483 0.507,-0.473 0.512,-0.461C0.517,-0.45 0.52,-0.437 0.52,-0.424L0.52,-0.211ZM0.176,-0.424L0.176,-0.307L0.424,-0.307L0.424,-0.424L0.176,-0.424Z" style="fill-rule:nonzero;"/>
                        </g>
                        <g transform="matrix(10,0,0,10,334.764,720.641)">
                            <path d="M0.394,-0.096L0.394,-0.217L0.166,-0.217C0.153,-0.217 0.14,-0.219 0.128,-0.224C0.117,-0.229 0.107,-0.236 0.098,-0.245C0.089,-0.253 0.082,-0.264 0.077,-0.275C0.072,-0.287 0.07,-0.3 0.07,-0.313L0.07,-0.424C0.07,-0.437 0.072,-0.45 0.077,-0.461C0.082,-0.473 0.089,-0.483 0.098,-0.492C0.107,-0.501 0.117,-0.507 0.128,-0.512C0.14,-0.517 0.153,-0.52 0.166,-0.52L0.47,-0.52L0.47,-0.424L0.166,-0.424L0.166,-0.313L0.394,-0.313C0.407,-0.313 0.42,-0.31 0.431,-0.305C0.443,-0.3 0.453,-0.294 0.462,-0.285C0.471,-0.276 0.478,-0.266 0.483,-0.254C0.488,-0.243 0.49,-0.23 0.49,-0.217L0.49,-0.096C0.49,-0.083 0.488,-0.07 0.483,-0.059C0.478,-0.047 0.471,-0.037 0.462,-0.028C0.453,-0.019 0.443,-0.013 0.431,-0.008C0.42,-0.003 0.407,-0 0.394,-0L0.07,-0L0.07,-0.096L0.394,-0.096Z" style="fill-rule:nonzero;"/>
                        </g>
                    </g>
                </g>
            </g>
            <g id="long-side-1" serif:id="long side 1">
                <path d="M198.686,370.504C202.613,413.241 205.027,461.485 205.505,512.741L216.844,512.741L216.844,550.536L205.505,550.536C205.023,602.197 202.574,650.794 198.593,693.779L125.586,693.768L125.587,693.77L125.394,696.73L124.815,699.639L123.861,702.448L122.549,705.108L120.901,707.575L118.946,709.805L116.715,711.761L114.249,713.409L111.589,714.721L108.78,715.674L105.87,716.253L102.91,716.447L80.233,716.447L78.753,716.35L77.299,716.061L75.894,715.584L74.564,714.928L73.331,714.104L72.216,713.126L71.238,712.011L70.414,710.778L69.758,709.447L69.281,708.043L68.992,706.588L68.895,705.108L80.233,705.108L81.213,704.979L81.681,704.821L82.124,704.602L82.535,704.327L82.907,704.001L83.233,703.63L83.508,703.219L83.727,702.775L83.886,702.307L84.014,701.329L84.014,697.716L83.554,695.484L83.3,694.969L82.995,694.484L82.643,694.031L82.246,693.617L81.809,693.245L81.337,692.919L80.306,692.42L68.896,688.267L68.899,374.989L80.466,370.779L80.972,370.565L81.454,370.301L81.906,369.989L82.324,369.633L82.704,369.236L83.041,368.803L83.333,368.338L83.576,367.845L83.768,367.33L83.906,366.799L83.99,366.256L84.016,365.707L84.016,361.928L83.982,361.434L83.886,360.949L83.727,360.481L83.508,360.038L83.233,359.627L82.908,359.255L82.536,358.929L82.125,358.654L81.681,358.435L81.213,358.276L80.728,358.18L80.235,358.146L68.896,358.146L68.961,353.38L69.154,352.41L69.471,351.474L69.909,350.587L70.458,349.765L71.11,349.021L71.853,348.37L72.676,347.82L73.562,347.383L74.499,347.065L75.468,346.872L76.455,346.808L102.912,346.808L105.872,347.002L108.781,347.58L111.59,348.534L114.25,349.846L116.717,351.494L118.947,353.449L120.903,355.68L122.551,358.146L123.863,360.806L124.816,363.615L125.589,366.525L125.589,369.485L198.593,369.496L198.686,370.504ZM91.953,482.619L79.858,482.619L79.858,444.824L91.953,444.824L91.953,482.619ZM79.858,580.635L91.953,580.635L91.953,618.431L79.858,618.431L79.858,580.635ZM151.764,646.521C152.547,646.521 153.181,645.887 153.181,645.104L153.181,610.143C153.181,609.36 152.547,608.726 151.764,608.726L109.244,608.726C108.461,608.726 107.827,609.36 107.827,610.143L107.827,645.104C107.827,645.887 108.461,646.521 109.244,646.521L151.764,646.521ZM157.433,582.005C157.809,582.005 158.17,581.855 158.435,581.59C158.701,581.324 158.851,580.963 158.851,580.587L158.851,521.06C158.851,520.684 158.701,520.323 158.435,520.058C158.17,519.792 157.809,519.642 157.433,519.642L109.244,519.642C108.868,519.642 108.508,519.792 108.242,520.058C107.976,520.323 107.827,520.684 107.827,521.06L107.827,580.587C107.827,580.963 107.976,581.324 108.242,581.59C108.508,581.855 108.868,582.005 109.244,582.005L157.433,582.005ZM180.11,468.856C180.486,468.856 180.847,468.706 181.113,468.441C181.378,468.175 181.528,467.814 181.528,467.438L181.528,421.139C181.528,420.763 181.378,420.403 181.113,420.137C180.847,419.871 180.486,419.722 180.11,419.722L145.15,419.722C144.774,419.722 144.413,419.871 144.148,420.137C143.882,420.403 143.732,420.763 143.732,421.139L143.732,467.438C143.732,467.814 143.882,468.175 144.148,468.441C144.413,468.706 144.774,468.856 145.15,468.856L180.11,468.856Z" style="fill:none;stroke:black;stroke-width:1.33px;"/>
                <g>
                    <path d="M138.765,661.729C139.086,658.574 141.755,656.108 144.994,656.108C148.45,656.108 151.256,658.914 151.256,662.37C151.256,665.826 148.45,668.632 144.994,668.632C141.755,668.632 139.086,666.166 138.765,663.011L133.612,663.011C133.315,664.455 132.036,665.543 130.504,665.543C128.753,665.543 127.331,664.121 127.331,662.37C127.331,660.619 128.753,659.197 130.504,659.197C132.036,659.197 133.315,660.285 133.612,661.729L138.765,661.729ZM122.243,663.011C121.922,666.166 119.253,668.632 116.014,668.632C112.558,668.632 109.752,665.826 109.752,662.37C109.752,658.914 112.558,656.108 116.014,656.108C119.253,656.108 121.922,658.574 122.243,661.729L124.275,661.729C124.596,658.574 127.264,656.108 130.504,656.108C132.232,656.108 133.797,656.81 134.931,657.943L133.996,658.878C133.102,657.984 131.867,657.431 130.504,657.431C127.778,657.431 125.565,659.644 125.565,662.37C125.565,665.096 127.778,667.309 130.504,667.309C131.867,667.309 133.102,666.755 133.996,665.861L134.931,666.797C133.797,667.93 132.232,668.632 130.504,668.632C127.264,668.632 124.596,666.166 124.275,663.011L122.243,663.011ZM144.994,657.431C147.72,657.431 149.933,659.644 149.933,662.37C149.933,665.096 147.72,667.309 144.994,667.309C142.268,667.309 140.055,665.096 140.055,662.37C140.055,659.644 142.268,657.431 144.994,657.431ZM116.014,657.431C118.74,657.431 120.953,659.644 120.953,662.37C120.953,665.096 118.74,667.309 116.014,667.309C113.288,667.309 111.075,665.096 111.075,662.37C111.075,659.644 113.288,657.431 116.014,657.431ZM145.632,658.727L145.632,661.729L148.634,661.729L148.634,663.011L145.632,663.011L145.632,666.012L144.356,666.012L144.356,663.011L141.355,663.011L141.355,661.729L144.356,661.729L144.356,658.727L145.632,658.727ZM115.373,666.006L115.373,658.727L116.655,658.727L116.655,666.006L115.373,666.006Z"/>
                    <path d="M135.137,430.799L135.137,432.134L127.136,432.134L127.136,437.466L135.137,437.466L135.137,438.801L127.136,438.801C126.953,438.801 126.781,438.766 126.618,438.696C126.455,438.627 126.313,438.531 126.192,438.41C126.07,438.288 125.974,438.146 125.905,437.983C125.836,437.821 125.801,437.648 125.801,437.466L125.801,432.134C125.801,431.952 125.836,431.779 125.905,431.616C125.974,431.454 126.07,431.311 126.192,431.19C126.313,431.068 126.455,430.973 126.618,430.903C126.781,430.834 126.953,430.799 127.136,430.799L135.137,430.799Z" style="fill-rule:nonzero;"/>
                    <path d="M129.798,442.531C129.798,442.349 129.834,442.176 129.906,442.013C129.977,441.851 130.073,441.709 130.192,441.587C130.312,441.465 130.453,441.37 130.615,441.301C130.778,441.231 130.951,441.196 131.133,441.196L133.802,441.196C133.984,441.196 134.157,441.231 134.32,441.301C134.483,441.37 134.624,441.465 134.743,441.587C134.862,441.709 134.958,441.851 135.029,442.013C135.101,442.176 135.137,442.349 135.137,442.531L135.137,447.062C135.137,447.245 135.101,447.417 135.029,447.58C134.958,447.743 134.862,447.885 134.743,448.006C134.624,448.128 134.483,448.223 134.32,448.293C134.157,448.362 133.984,448.397 133.802,448.397L132.598,448.397L132.598,447.062L133.802,447.062L133.802,442.531L131.133,442.531L131.133,447.062C131.133,447.245 131.098,447.417 131.029,447.58C130.959,447.743 130.864,447.885 130.742,448.006C130.621,448.128 130.479,448.223 130.316,448.293C130.153,448.362 129.981,448.397 129.798,448.397L127.136,448.397C126.953,448.397 126.781,448.362 126.618,448.293C126.455,448.223 126.313,448.128 126.192,448.006C126.07,447.885 125.974,447.743 125.905,447.58C125.836,447.417 125.801,447.245 125.801,447.062L125.801,442.401C125.801,442.219 125.836,442.046 125.905,441.883C125.974,441.72 126.07,441.578 126.192,441.457C126.313,441.335 126.455,441.24 126.618,441.17C126.781,441.101 126.953,441.066 127.136,441.066L128.333,441.066L128.333,442.401L127.136,442.401L127.136,447.062L129.798,447.062L129.798,442.531Z" style="fill-rule:nonzero;"/>
                    <path d="M130.671,456.88C130.61,457.075 130.523,457.253 130.41,457.414C130.297,457.574 130.153,457.711 129.977,457.824C129.802,457.937 129.594,458.024 129.356,458.084C129.117,458.145 128.843,458.176 128.535,458.176L128.067,458.176C126.556,458.176 125.801,457.42 125.801,455.91L125.801,450.799L135.137,450.799L135.137,455.643C135.137,457.153 134.379,457.909 132.865,457.909L132.695,457.909C132.17,457.909 131.742,457.825 131.41,457.658C131.078,457.491 130.831,457.232 130.671,456.88ZM129.87,452.108L127.109,452.108L127.109,455.871C127.109,456.222 127.192,456.476 127.357,456.633C127.522,456.789 127.78,456.867 128.132,456.867L128.854,456.867C129.21,456.867 129.468,456.789 129.629,456.633C129.79,456.476 129.87,456.222 129.87,455.871L129.87,452.108ZM133.828,452.108L131.172,452.108L131.172,455.695C131.185,456.016 131.273,456.247 131.436,456.388C131.598,456.53 131.849,456.6 132.188,456.6L132.8,456.6C133.155,456.6 133.416,456.522 133.581,456.366C133.746,456.209 133.828,455.956 133.828,455.604L133.828,452.108Z" style="fill-rule:nonzero;"/>
                    <path d="M163.005,615.003C162.246,614.99 161.678,614.799 161.303,614.43C160.927,614.061 160.739,613.497 160.739,612.737L160.739,610.231C160.739,608.716 161.495,607.959 163.005,607.959L163.565,607.959L163.565,609.267L163.07,609.267C162.719,609.267 162.46,609.346 162.295,609.502C162.131,609.658 162.048,609.914 162.048,610.27L162.048,612.692C162.048,613.048 162.131,613.304 162.295,613.46C162.46,613.616 162.719,613.695 163.07,613.695L164.327,613.695C164.678,613.695 164.935,613.616 165.098,613.46C165.261,613.304 165.342,613.048 165.342,612.692L165.342,608.226L170.075,608.226L170.075,614.762L168.741,614.762L168.741,609.56L166.644,609.56L166.644,612.737C166.644,613.501 166.459,614.07 166.088,614.443C165.717,614.816 165.147,615.003 164.379,615.003L163.005,615.003Z" style="fill-rule:nonzero;"/>
                    <rect x="163.858" y="616.872" width="1.283" height="3.118" style="fill-rule:nonzero;"/>
                    <path d="M163.956,621.325L170.075,625.928L170.075,627.497L163.956,627.497L163.956,628.753L162.673,628.753L162.673,627.497L160.739,627.497L160.739,626.162L162.673,626.162L162.673,621.325L163.956,621.325ZM163.956,626.162L168.461,626.162L163.956,622.777L163.956,626.162Z" style="fill-rule:nonzero;"/>
                    <path d="M168.741,630.348C168.923,630.348 169.096,630.383 169.258,630.452C169.421,630.522 169.562,630.617 169.682,630.739C169.801,630.86 169.896,631.002 169.968,631.165C170.04,631.328 170.075,631.501 170.075,631.683L170.075,635.947C170.075,636.129 170.04,636.302 169.968,636.465C169.896,636.627 169.801,636.77 169.682,636.891C169.562,637.013 169.421,637.108 169.258,637.178C169.096,637.247 168.923,637.282 168.741,637.282L167.536,637.282L167.536,635.947L168.741,635.947L168.741,631.683L166.071,631.683L166.071,635.947C166.071,636.129 166.037,636.302 165.967,636.465C165.898,636.627 165.802,636.77 165.681,636.891C165.559,637.013 165.417,637.108 165.254,637.178C165.092,637.247 164.919,637.282 164.737,637.282L162.074,637.282C161.892,637.282 161.719,637.247 161.557,637.178C161.394,637.108 161.252,637.013 161.13,636.891C161.009,636.77 160.913,636.627 160.844,636.465C160.774,636.302 160.739,636.129 160.739,635.947L160.739,631.683C160.739,631.501 160.774,631.328 160.844,631.165C160.913,631.002 161.009,630.86 161.13,630.739C161.252,630.617 161.394,630.522 161.557,630.452C161.719,630.383 161.892,630.348 162.074,630.348L168.741,630.348ZM164.737,631.683L162.074,631.683L162.074,635.947L164.737,635.947L164.737,631.683Z" style="fill-rule:nonzero;"/>
                    <path d="M160.739,642.484L170.075,638.883L170.075,640.316L162.393,643.219L170.075,646.129L170.075,647.555L160.739,643.955L160.739,642.484Z" style="fill-rule:nonzero;"/>
                    <g transform="matrix(8.16431e-17,1.33333,-1.33333,8.16431e-17,1129.29,128.329)">
                        <g transform="matrix(10,0,0,10,302.029,710.162)">
                            <path d="M0.19,-0.3C0.176,-0.3 0.163,-0.302 0.151,-0.308C0.139,-0.313 0.128,-0.32 0.119,-0.329C0.11,-0.338 0.103,-0.349 0.098,-0.361C0.092,-0.373 0.09,-0.386 0.09,-0.4L0.09,-0.6C0.09,-0.614 0.092,-0.627 0.098,-0.639C0.103,-0.651 0.11,-0.662 0.119,-0.671C0.128,-0.68 0.139,-0.687 0.151,-0.692C0.163,-0.698 0.176,-0.7 0.19,-0.7L0.53,-0.7C0.543,-0.7 0.556,-0.698 0.569,-0.692C0.581,-0.687 0.591,-0.68 0.601,-0.671C0.61,-0.662 0.617,-0.651 0.622,-0.639C0.627,-0.627 0.63,-0.614 0.63,-0.6L0.63,-0.51L0.53,-0.51L0.53,-0.6L0.19,-0.6L0.19,-0.4L0.53,-0.4C0.543,-0.4 0.556,-0.397 0.569,-0.392C0.581,-0.387 0.591,-0.38 0.601,-0.371C0.61,-0.361 0.617,-0.351 0.622,-0.339C0.627,-0.326 0.63,-0.313 0.63,-0.3L0.63,-0.1C0.63,-0.086 0.627,-0.073 0.622,-0.061C0.617,-0.049 0.61,-0.038 0.601,-0.029C0.591,-0.02 0.581,-0.013 0.569,-0.008C0.556,-0.003 0.543,-0 0.53,-0L0.18,-0C0.167,-0 0.154,-0.003 0.141,-0.008C0.129,-0.013 0.118,-0.02 0.109,-0.029C0.1,-0.038 0.093,-0.049 0.088,-0.061C0.083,-0.073 0.08,-0.086 0.08,-0.1L0.08,-0.19L0.18,-0.19L0.18,-0.1L0.53,-0.1L0.53,-0.3L0.19,-0.3Z" style="fill-rule:nonzero;"/>
                        </g>
                        <g transform="matrix(10,0,0,10,309.231,710.162)">
                            <path d="M0.05,-0.52L0.177,-0.52L0.177,-0.68L0.273,-0.68L0.273,-0.52L0.444,-0.52L0.444,-0.424L0.273,-0.424L0.273,-0.096L0.444,-0.096L0.444,-0L0.273,-0C0.26,-0 0.248,-0.003 0.236,-0.008C0.224,-0.013 0.214,-0.019 0.205,-0.028C0.196,-0.037 0.189,-0.047 0.184,-0.059C0.179,-0.07 0.177,-0.083 0.177,-0.096L0.177,-0.424L0.05,-0.424L0.05,-0.52Z" style="fill-rule:nonzero;"/>
                        </g>
                        <g transform="matrix(10,0,0,10,314.471,710.162)">
                            <path d="M0.08,-0.227C0.08,-0.24 0.083,-0.253 0.088,-0.264C0.093,-0.276 0.1,-0.286 0.108,-0.295C0.117,-0.304 0.127,-0.311 0.139,-0.316C0.15,-0.321 0.163,-0.323 0.176,-0.323L0.424,-0.323L0.424,-0.424L0.11,-0.424L0.11,-0.52L0.424,-0.52C0.437,-0.52 0.45,-0.517 0.461,-0.512C0.473,-0.507 0.483,-0.501 0.492,-0.492C0.501,-0.483 0.507,-0.473 0.512,-0.461C0.517,-0.45 0.52,-0.437 0.52,-0.424L0.52,-0L0.424,-0L0.424,-0.088C0.423,-0.076 0.42,-0.064 0.414,-0.054C0.409,-0.043 0.401,-0.034 0.393,-0.026C0.384,-0.018 0.374,-0.011 0.363,-0.007C0.352,-0.002 0.34,-0 0.328,-0L0.176,-0C0.163,-0 0.15,-0.003 0.139,-0.008C0.127,-0.013 0.117,-0.019 0.108,-0.028C0.1,-0.037 0.093,-0.047 0.088,-0.059C0.083,-0.07 0.08,-0.083 0.08,-0.096L0.08,-0.227ZM0.176,-0.096L0.424,-0.096L0.424,-0.227L0.176,-0.227L0.176,-0.096Z" style="fill-rule:nonzero;"/>
                        </g>
                        <g transform="matrix(10,0,0,10,320.472,710.162)">
                            <path d="M0.05,-0.52L0.177,-0.52L0.177,-0.68L0.273,-0.68L0.273,-0.52L0.444,-0.52L0.444,-0.424L0.273,-0.424L0.273,-0.096L0.444,-0.096L0.444,-0L0.273,-0C0.26,-0 0.248,-0.003 0.236,-0.008C0.224,-0.013 0.214,-0.019 0.205,-0.028C0.196,-0.037 0.189,-0.047 0.184,-0.059C0.179,-0.07 0.177,-0.083 0.177,-0.096L0.177,-0.424L0.05,-0.424L0.05,-0.52Z" style="fill-rule:nonzero;"/>
                        </g>
                        <g transform="matrix(10,0,0,10,325.711,710.162)">
                            <path d="M0.52,-0.211L0.176,-0.211L0.176,-0.096L0.52,-0.096L0.52,-0L0.176,-0C0.163,-0 0.15,-0.003 0.139,-0.008C0.127,-0.013 0.117,-0.019 0.108,-0.028C0.1,-0.037 0.093,-0.047 0.088,-0.059C0.083,-0.07 0.08,-0.083 0.08,-0.096L0.08,-0.424C0.08,-0.437 0.083,-0.45 0.088,-0.461C0.093,-0.473 0.1,-0.483 0.108,-0.492C0.117,-0.501 0.127,-0.507 0.139,-0.512C0.15,-0.517 0.163,-0.52 0.176,-0.52L0.424,-0.52C0.437,-0.52 0.45,-0.517 0.461,-0.512C0.473,-0.507 0.483,-0.501 0.492,-0.492C0.501,-0.483 0.507,-0.473 0.512,-0.461C0.517,-0.45 0.52,-0.437 0.52,-0.424L0.52,-0.211ZM0.176,-0.424L0.176,-0.307L0.424,-0.307L0.424,-0.424L0.176,-0.424Z" style="fill-rule:nonzero;"/>
                        </g>
                        <g transform="matrix(10,0,0,10,295.677,720.641)">
                            <path d="M0.451,-0L0.19,-0.513L0.19,-0L0.09,-0L0.09,-0.7L0.199,-0.7L0.466,-0.173L0.733,-0.7L0.842,-0.7L0.842,-0L0.742,-0L0.742,-0.513L0.481,-0L0.451,-0Z" style="fill-rule:nonzero;"/>
                        </g>
                        <g transform="matrix(10,0,0,10,304.998,720.641)">
                            <path d="M0.08,-0.227C0.08,-0.24 0.083,-0.253 0.088,-0.264C0.093,-0.276 0.1,-0.286 0.108,-0.295C0.117,-0.304 0.127,-0.311 0.139,-0.316C0.15,-0.321 0.163,-0.323 0.176,-0.323L0.424,-0.323L0.424,-0.424L0.11,-0.424L0.11,-0.52L0.424,-0.52C0.437,-0.52 0.45,-0.517 0.461,-0.512C0.473,-0.507 0.483,-0.501 0.492,-0.492C0.501,-0.483 0.507,-0.473 0.512,-0.461C0.517,-0.45 0.52,-0.437 0.52,-0.424L0.52,-0L0.424,-0L0.424,-0.088C0.423,-0.076 0.42,-0.064 0.414,-0.054C0.409,-0.043 0.401,-0.034 0.393,-0.026C0.384,-0.018 0.374,-0.011 0.363,-0.007C0.352,-0.002 0.34,-0 0.328,-0L0.176,-0C0.163,-0 0.15,-0.003 0.139,-0.008C0.127,-0.013 0.117,-0.019 0.108,-0.028C0.1,-0.037 0.093,-0.047 0.088,-0.059C0.083,-0.07 0.08,-0.083 0.08,-0.096L0.08,-0.227ZM0.176,-0.096L0.424,-0.096L0.424,-0.227L0.176,-0.227L0.176,-0.096Z" style="fill-rule:nonzero;"/>
                        </g>
                        <g transform="matrix(10,0,0,10,310.999,720.641)">
                            <path d="M0.176,-0.424L0.176,-0.096L0.424,-0.096L0.424,-0.184L0.52,-0.184L0.52,-0.096C0.52,-0.083 0.517,-0.07 0.512,-0.059C0.507,-0.047 0.501,-0.037 0.492,-0.028C0.483,-0.019 0.473,-0.013 0.461,-0.008C0.45,-0.003 0.437,-0 0.424,-0L0.176,-0C0.163,-0 0.15,-0.003 0.139,-0.008C0.127,-0.013 0.117,-0.019 0.108,-0.028C0.1,-0.037 0.093,-0.047 0.088,-0.059C0.083,-0.07 0.08,-0.083 0.08,-0.096L0.08,-0.424C0.08,-0.437 0.083,-0.45 0.088,-0.461C0.093,-0.473 0.1,-0.483 0.108,-0.492C0.117,-0.501 0.127,-0.507 0.139,-0.512C0.15,-0.517 0.163,-0.52 0.176,-0.52L0.424,-0.52C0.437,-0.52 0.45,-0.517 0.461,-0.512C0.473,-0.507 0.483,-0.501 0.492,-0.492C0.501,-0.483 0.507,-0.473 0.512,-0.461C0.517,-0.45 0.52,-0.437 0.52,-0.424L0.52,-0.336L0.424,-0.336L0.424,-0.424L0.176,-0.424Z" style="fill-rule:nonzero;"/>
                        </g>
                        <g transform="matrix(10,0,0,10,317,720.641)">
                            <path d="M0.54,-0L0.444,-0L0.444,-0.424L0.176,-0.424L0.176,-0L0.08,-0L0.08,-0.72L0.176,-0.72L0.176,-0.428C0.176,-0.441 0.179,-0.453 0.185,-0.464C0.19,-0.475 0.197,-0.485 0.205,-0.493C0.214,-0.502 0.224,-0.508 0.235,-0.513C0.247,-0.518 0.259,-0.52 0.272,-0.52L0.444,-0.52C0.457,-0.52 0.47,-0.517 0.481,-0.512C0.493,-0.507 0.503,-0.501 0.512,-0.492C0.521,-0.483 0.527,-0.473 0.532,-0.461C0.538,-0.45 0.54,-0.437 0.54,-0.424L0.54,-0Z" style="fill-rule:nonzero;"/>
                        </g>
                        <g transform="matrix(10,0,0,10,323.201,720.641)">
                            <path d="M0.181,-0.52L0.181,-0L0.085,-0L0.085,-0.52L0.181,-0.52ZM0.08,-0.72L0.186,-0.72L0.186,-0.62L0.08,-0.62L0.08,-0.72Z" style="fill-rule:nonzero;"/>
                        </g>
                        <g transform="matrix(10,0,0,10,325.862,720.641)">
                            <path d="M0.54,-0L0.444,-0L0.444,-0.424L0.176,-0.424L0.176,-0L0.08,-0L0.08,-0.52L0.176,-0.52L0.176,-0.428C0.176,-0.441 0.179,-0.453 0.185,-0.464C0.19,-0.475 0.197,-0.485 0.205,-0.493C0.214,-0.502 0.224,-0.508 0.235,-0.513C0.247,-0.518 0.259,-0.52 0.272,-0.52L0.444,-0.52C0.457,-0.52 0.47,-0.517 0.481,-0.512C0.493,-0.507 0.503,-0.501 0.512,-0.492C0.521,-0.483 0.527,-0.473 0.532,-0.461C0.538,-0.45 0.54,-0.437 0.54,-0.424L0.54,-0Z" style="fill-rule:nonzero;"/>
                        </g>
                        <g transform="matrix(10,0,0,10,332.063,720.641)">
                            <path d="M0.52,-0.211L0.176,-0.211L0.176,-0.096L0.52,-0.096L0.52,-0L0.176,-0C0.163,-0 0.15,-0.003 0.139,-0.008C0.127,-0.013 0.117,-0.019 0.108,-0.028C0.1,-0.037 0.093,-0.047 0.088,-0.059C0.083,-0.07 0.08,-0.083 0.08,-0.096L0.08,-0.424C0.08,-0.437 0.083,-0.45 0.088,-0.461C0.093,-0.473 0.1,-0.483 0.108,-0.492C0.117,-0.501 0.127,-0.507 0.139,-0.512C0.15,-0.517 0.163,-0.52 0.176,-0.52L0.424,-0.52C0.437,-0.52 0.45,-0.517 0.461,-0.512C0.473,-0.507 0.483,-0.501 0.492,-0.492C0.501,-0.483 0.507,-0.473 0.512,-0.461C0.517,-0.45 0.52,-0.437 0.52,-0.424L0.52,-0.211ZM0.176,-0.424L0.176,-0.307L0.424,-0.307L0.424,-0.424L0.176,-0.424Z" style="fill-rule:nonzero;"/>
                        </g>
                    </g>
                </g>
            </g>
            <path id="short-side-2" serif:id="short side 2" d="M492.929,82.194L492.929,54.209L492.993,53.222L493.186,52.253L493.504,51.316L493.941,50.43L494.49,49.607L495.142,48.864L495.886,48.212L496.708,47.663L497.595,47.225L498.531,46.908L499.501,46.715L500.487,46.65L638.033,46.65L640.993,46.844L643.902,47.423L646.711,48.376L649.372,49.688L651.838,51.336L654.068,53.292L656.024,55.522L657.672,57.989L658.984,60.649L659.938,63.458L660.516,66.367L660.71,69.327L660.71,320.351L660.516,323.311L659.938,326.22L658.984,329.029L657.672,331.69L656.024,334.156L654.068,336.386L651.838,338.342L649.372,339.99L646.711,341.302L643.902,342.255L640.993,342.834L638.033,343.028L500.487,343.028L499.501,342.963L498.531,342.771L497.595,342.453L496.708,342.016L495.886,341.466L495.142,340.814L494.49,340.071L493.941,339.249L493.504,338.362L493.186,337.426L492.993,336.456L492.928,335.469L492.928,307.485C499.735,284.305 504.28,242.508 504.28,194.839C504.28,147.17 499.735,105.374 492.929,82.194ZM560.96,70.839L515.606,70.839L515.606,58.745L560.96,58.745L560.96,70.839ZM641.813,313.548L641.813,301.075L645.592,301.075L645.592,88.603L641.813,88.603L641.813,76.13L630.096,76.13L630.096,313.548L641.813,313.548ZM515.606,318.839L560.96,318.839L560.96,330.934L515.606,330.934L515.606,318.839Z" style="fill:none;stroke:black;stroke-width:1.33px;"/>
            <path id="short-side-1" serif:id="short side 1" d="M196.509,307.485L196.509,335.469L196.445,336.456L196.252,337.425L195.934,338.362L195.497,339.249L194.947,340.071L194.295,340.814L193.552,341.466L192.73,342.015L191.843,342.453L190.907,342.771L189.937,342.963L188.95,343.028L51.405,343.028L48.445,342.834L45.535,342.255L42.726,341.302L40.066,339.99L37.6,338.342L35.369,336.386L33.414,334.156L31.766,331.69L30.454,329.029L29.5,326.22L28.921,323.311L28.728,320.351L28.728,69.327L28.922,66.367L29.5,63.458L30.454,60.649L31.766,57.989L33.414,55.522L35.37,53.292L37.6,51.336L40.066,49.688L42.727,48.376L45.535,47.423L48.445,46.844L51.405,46.65L188.95,46.65L189.937,46.715L190.907,46.907L191.843,47.225L192.73,47.663L193.552,48.212L194.296,48.864L194.948,49.607L195.497,50.429L195.934,51.316L196.252,52.253L196.445,53.222L196.509,54.209L196.509,82.193C189.703,105.373 185.157,147.17 185.157,194.839C185.157,242.508 189.703,284.305 196.509,307.485ZM128.478,318.839L173.832,318.839L173.832,330.934L128.478,330.934L128.478,318.839ZM47.625,76.13L47.625,88.603L43.846,88.603L43.846,301.075L47.625,301.075L47.625,313.548L59.342,313.548L59.342,76.13L47.625,76.13ZM173.832,70.839L128.478,70.839L128.478,58.744L173.832,58.744L173.832,70.839Z" style="fill:none;stroke:black;stroke-width:1.33px;"/>
            <path id="bottom" d="M468.739,716.447L220.698,716.447L220.698,641.108L209.36,641.108L209.36,603.312L220.698,603.312L220.698,505.296L209.36,505.296L209.36,467.501L220.698,467.501L220.698,392.163L468.739,392.163L468.739,467.501L480.078,467.501L480.078,505.296L468.739,505.296L468.739,603.312L480.078,603.312L480.078,641.108L468.739,641.108L468.739,716.447ZM442.113,412.702C442.113,409.365 444.822,406.655 448.16,406.655C451.497,406.655 454.207,409.365 454.207,412.702C454.207,416.04 451.497,418.75 448.16,418.75C444.822,418.75 442.113,416.04 442.113,412.702ZM442.113,695.902C442.113,692.565 444.822,689.855 448.16,689.855C451.497,689.855 454.207,692.565 454.207,695.902C454.207,699.24 451.497,701.95 448.16,701.95C444.822,701.95 442.113,699.24 442.113,695.902ZM235.713,412.702C235.713,409.365 238.422,406.655 241.76,406.655C245.097,406.655 247.807,409.365 247.807,412.702C247.807,416.04 245.097,418.75 241.76,418.75C238.422,418.75 235.713,416.04 235.713,412.702ZM235.713,695.902C235.713,692.565 238.422,689.855 241.76,689.855C245.097,689.855 247.807,692.565 247.807,695.902C247.807,699.24 245.097,701.95 241.76,701.95C238.422,701.95 235.713,699.24 235.713,695.902Z" style="fill:none;stroke:black;stroke-width:1.33px;stroke-miterlimit:1.5;"/>
            <g id="top">
                <path d="M231.657,18.198L231.164,18.232L230.679,18.329L230.211,18.488L229.768,18.706L229.357,18.981L228.985,19.307L228.659,19.679L228.384,20.09L228.165,20.534L228.006,21.002L227.91,21.487L227.88,21.98L227.88,29.539L239.218,29.539L239.218,40.878L206.515,40.878L196.509,154.263L196.509,252.092L206.515,365.478L239.218,365.478L239.218,376.816L227.88,376.816L227.88,384.376L227.914,384.869L228.01,385.354L228.169,385.822L228.388,386.265L228.663,386.676L228.988,387.048L229.36,387.374L229.771,387.648L230.215,387.867L230.683,388.026L231.168,388.122L231.659,388.156L457.777,388.156L458.27,388.122L458.755,388.026L459.223,387.867L459.667,387.648L460.078,387.374L460.449,387.048L460.776,386.676L461.05,386.265L461.269,385.822L461.428,385.354L461.524,384.869L461.558,384.377L461.558,376.818L450.22,376.818L450.22,365.479L482.922,365.479L492.928,252.092L492.928,154.263L482.922,40.878L450.22,40.878L450.22,29.539L461.558,29.539L461.558,21.98L461.524,21.487L461.428,21.002L461.269,20.534L461.05,20.09L460.776,19.679L460.449,19.308L460.078,18.981L459.667,18.707L459.223,18.488L458.755,18.329L458.27,18.232L457.777,18.198L231.657,18.198ZM415.02,268.724C415.02,265.592 412.481,263.054 409.35,263.054L352.657,263.054C349.526,263.054 346.988,265.592 346.988,268.724L346.988,325.416C346.988,328.548 349.526,331.086 352.657,331.086L409.35,331.086C412.481,331.086 415.02,328.548 415.02,325.416L415.02,268.724ZM458.932,257.867C458.932,252.649 454.702,248.419 449.484,248.419L449.482,248.419C444.264,248.419 440.034,252.649 440.034,257.867L440.034,314.562C440.034,319.78 444.264,324.01 449.482,324.01L449.484,324.01C454.702,324.01 458.932,319.78 458.932,314.562L458.932,257.867ZM454.205,210.147C454.205,208.894 453.707,207.693 452.821,206.807C451.935,205.921 450.734,205.423 449.481,205.423L449.48,205.423C448.227,205.423 447.026,205.921 446.14,206.807C445.254,207.693 444.756,208.894 444.756,210.147L444.756,229.802C444.756,231.055 445.254,232.256 446.14,233.142C447.026,234.028 448.227,234.526 449.48,234.526L449.481,234.526C450.734,234.526 451.935,234.028 452.821,233.142C453.707,232.256 454.205,231.055 454.205,229.802L454.205,210.147ZM468.738,222.294L468.738,183.743L480.832,183.743L480.832,222.294L468.738,222.294ZM220.697,183.743L220.697,222.294L208.602,222.294L208.602,183.743L220.697,183.743ZM454.207,166.947C454.207,165.694 453.71,164.493 452.824,163.607C451.938,162.721 450.736,162.223 449.483,162.223L449.482,162.223C448.23,162.223 447.028,162.721 446.142,163.607C445.256,164.493 444.758,165.694 444.758,166.947L444.758,186.602C444.758,187.855 445.256,189.056 446.142,189.942C447.028,190.828 448.23,191.326 449.482,191.326L449.483,191.326C450.736,191.326 451.938,190.828 452.824,189.942C453.71,189.056 454.207,187.855 454.207,186.602L454.207,166.947Z" style="fill:none;stroke:black;stroke-width:1.33px;"/>
                <g>
                    <path d="M298.479,99.559C277.261,99.559 260.035,116.785 260.035,138.003C260.035,159.221 277.261,176.447 298.479,176.447C319.697,176.447 336.923,159.221 336.923,138.003C336.923,116.785 319.697,99.559 298.479,99.559ZM298.479,102.885C317.861,102.885 333.597,118.621 333.597,138.003C333.597,157.385 317.861,173.121 298.479,173.121C279.097,173.121 263.361,157.385 263.361,138.003C263.361,118.621 279.097,102.885 298.479,102.885ZM317.803,147.95L279.155,147.95C278.702,147.95 278.273,148.039 277.868,148.217C277.463,148.395 277.11,148.633 276.808,148.929C276.506,149.226 276.268,149.577 276.095,149.981C275.923,150.386 275.836,150.815 275.836,151.268L275.836,157.263L279.155,157.263L279.155,151.268L317.803,151.268C318.257,151.268 318.685,151.179 319.09,151.001C319.495,150.823 319.848,150.586 320.15,150.289C320.453,149.992 320.69,149.642 320.863,149.237C321.035,148.832 321.122,148.403 321.122,147.95L321.122,141.955L317.803,141.955L317.803,147.95ZM297.993,141.955L289.333,124.942L289.333,141.955L286.015,141.955L286.015,118.743L289.641,118.743L298.479,136.225L307.334,118.743L310.943,118.743L310.943,141.955L307.641,141.955L307.641,124.942L298.981,141.955L297.993,141.955Z" style="fill-rule:nonzero;"/>
                    <g transform="matrix(1.3123,-1.17694e-32,-2.22308e-32,1.3123,226.989,-899.343)">
                        <g transform="matrix(15.1639,0,0,15.1639,91.2406,772.104)">
                            <path d="M0.546,-0.365C0.561,-0.361 0.574,-0.354 0.586,-0.346C0.598,-0.337 0.608,-0.326 0.617,-0.313C0.625,-0.3 0.632,-0.285 0.636,-0.267C0.641,-0.249 0.643,-0.228 0.643,-0.205L0.643,-0.17C0.643,-0.057 0.586,-0 0.473,-0L0.09,-0L0.09,-0.7L0.453,-0.7C0.566,-0.7 0.623,-0.643 0.623,-0.53L0.623,-0.517C0.623,-0.478 0.617,-0.446 0.604,-0.421C0.592,-0.396 0.572,-0.377 0.546,-0.365ZM0.188,-0.305L0.188,-0.098L0.47,-0.098C0.497,-0.098 0.516,-0.104 0.527,-0.117C0.539,-0.129 0.545,-0.148 0.545,-0.175L0.545,-0.229C0.545,-0.256 0.539,-0.275 0.527,-0.287C0.516,-0.299 0.497,-0.305 0.47,-0.305L0.188,-0.305ZM0.188,-0.602L0.188,-0.403L0.457,-0.403C0.481,-0.404 0.498,-0.41 0.509,-0.423C0.52,-0.435 0.525,-0.454 0.525,-0.479L0.525,-0.525C0.525,-0.552 0.519,-0.571 0.507,-0.583C0.496,-0.596 0.477,-0.602 0.45,-0.602L0.188,-0.602Z" style="fill-rule:nonzero;"/>
                        </g>
                        <g transform="matrix(15.1639,0,0,15.1639,101.903,772.104)">
                            <path d="M0.54,-0.096C0.54,-0.083 0.538,-0.07 0.532,-0.059C0.527,-0.047 0.521,-0.037 0.512,-0.028C0.503,-0.019 0.493,-0.013 0.481,-0.008C0.47,-0.003 0.457,-0 0.444,-0L0.176,-0L0.176,0.21L0.08,0.21L0.08,-0.52L0.176,-0.52L0.176,-0.432C0.177,-0.444 0.18,-0.456 0.186,-0.467C0.191,-0.477 0.198,-0.486 0.207,-0.494C0.215,-0.502 0.225,-0.509 0.236,-0.513C0.247,-0.518 0.259,-0.52 0.272,-0.52L0.444,-0.52C0.457,-0.52 0.47,-0.517 0.481,-0.512C0.493,-0.507 0.503,-0.501 0.512,-0.492C0.521,-0.483 0.527,-0.473 0.532,-0.461C0.538,-0.45 0.54,-0.437 0.54,-0.424L0.54,-0.096ZM0.444,-0.096L0.444,-0.424L0.176,-0.424L0.176,-0.096L0.444,-0.096Z" style="fill-rule:nonzero;"/>
                        </g>
                        <g transform="matrix(15.1639,0,0,15.1639,111.306,772.104)">
                            <path d="M0.53,-0.096C0.53,-0.083 0.527,-0.07 0.522,-0.059C0.517,-0.047 0.51,-0.037 0.502,-0.028C0.493,-0.019 0.483,-0.013 0.471,-0.008C0.46,-0.003 0.447,-0 0.434,-0L0.176,-0C0.163,-0 0.15,-0.003 0.139,-0.008C0.127,-0.013 0.117,-0.019 0.108,-0.028C0.1,-0.037 0.093,-0.047 0.088,-0.059C0.083,-0.07 0.08,-0.083 0.08,-0.096L0.08,-0.424C0.08,-0.437 0.083,-0.45 0.088,-0.461C0.093,-0.473 0.1,-0.483 0.108,-0.492C0.117,-0.501 0.127,-0.507 0.139,-0.512C0.15,-0.517 0.163,-0.52 0.176,-0.52L0.434,-0.52C0.447,-0.52 0.46,-0.517 0.471,-0.512C0.483,-0.507 0.493,-0.501 0.502,-0.492C0.51,-0.483 0.517,-0.473 0.522,-0.461C0.527,-0.45 0.53,-0.437 0.53,-0.424L0.53,-0.096ZM0.176,-0.424L0.176,-0.096L0.434,-0.096L0.434,-0.424L0.176,-0.424Z" style="fill-rule:nonzero;"/>
                        </g>
                        <g transform="matrix(15.1639,0,0,15.1639,120.554,772.104)">
                            <path d="M0.08,-0.424C0.08,-0.437 0.083,-0.45 0.088,-0.461C0.093,-0.473 0.1,-0.483 0.108,-0.492C0.117,-0.501 0.127,-0.507 0.139,-0.512C0.15,-0.517 0.163,-0.52 0.176,-0.52L0.444,-0.52L0.444,-0.72L0.54,-0.72L0.54,-0L0.444,-0L0.444,-0.088C0.443,-0.076 0.44,-0.064 0.434,-0.054C0.429,-0.043 0.421,-0.034 0.413,-0.026C0.404,-0.018 0.394,-0.011 0.383,-0.007C0.372,-0.002 0.361,-0 0.348,-0L0.176,-0C0.163,-0 0.15,-0.003 0.139,-0.008C0.127,-0.013 0.117,-0.019 0.108,-0.028C0.1,-0.037 0.093,-0.047 0.088,-0.059C0.083,-0.07 0.08,-0.083 0.08,-0.096L0.08,-0.424ZM0.176,-0.096L0.444,-0.096L0.444,-0.424L0.176,-0.424L0.176,-0.096Z" style="fill-rule:nonzero;"/>
                        </g>
                        <g transform="matrix(15.1639,0,0,15.1639,91.2406,787.994)">
                            <path d="M0.19,-0.3C0.176,-0.3 0.163,-0.302 0.151,-0.308C0.139,-0.313 0.128,-0.32 0.119,-0.329C0.11,-0.338 0.103,-0.349 0.098,-0.361C0.092,-0.373 0.09,-0.386 0.09,-0.4L0.09,-0.6C0.09,-0.614 0.092,-0.627 0.098,-0.639C0.103,-0.651 0.11,-0.662 0.119,-0.671C0.128,-0.68 0.139,-0.687 0.151,-0.692C0.163,-0.698 0.176,-0.7 0.19,-0.7L0.53,-0.7C0.543,-0.7 0.556,-0.698 0.569,-0.692C0.581,-0.687 0.591,-0.68 0.601,-0.671C0.61,-0.662 0.617,-0.651 0.622,-0.639C0.627,-0.627 0.63,-0.614 0.63,-0.6L0.63,-0.51L0.53,-0.51L0.53,-0.6L0.19,-0.6L0.19,-0.4L0.53,-0.4C0.543,-0.4 0.556,-0.397 0.569,-0.392C0.581,-0.387 0.591,-0.38 0.601,-0.371C0.61,-0.361 0.617,-0.351 0.622,-0.339C0.627,-0.326 0.63,-0.313 0.63,-0.3L0.63,-0.1C0.63,-0.086 0.627,-0.073 0.622,-0.061C0.617,-0.049 0.61,-0.038 0.601,-0.029C0.591,-0.02 0.581,-0.013 0.569,-0.008C0.556,-0.003 0.543,-0 0.53,-0L0.18,-0C0.167,-0 0.154,-0.003 0.141,-0.008C0.129,-0.013 0.118,-0.02 0.109,-0.029C0.1,-0.038 0.093,-0.049 0.088,-0.061C0.083,-0.073 0.08,-0.086 0.08,-0.1L0.08,-0.19L0.18,-0.19L0.18,-0.1L0.53,-0.1L0.53,-0.3L0.19,-0.3Z" style="fill-rule:nonzero;"/>
                        </g>
                        <g transform="matrix(15.1639,0,0,15.1639,102.162,787.994)">
                            <path d="M0.05,-0.52L0.177,-0.52L0.177,-0.68L0.273,-0.68L0.273,-0.52L0.444,-0.52L0.444,-0.424L0.273,-0.424L0.273,-0.096L0.444,-0.096L0.444,-0L0.273,-0C0.26,-0 0.248,-0.003 0.236,-0.008C0.224,-0.013 0.214,-0.019 0.205,-0.028C0.196,-0.037 0.189,-0.047 0.184,-0.059C0.179,-0.07 0.177,-0.083 0.177,-0.096L0.177,-0.424L0.05,-0.424L0.05,-0.52Z" style="fill-rule:nonzero;"/>
                        </g>
                        <g transform="matrix(15.1639,0,0,15.1639,110.107,787.994)">
                            <path d="M0.52,-0.211L0.176,-0.211L0.176,-0.096L0.52,-0.096L0.52,-0L0.176,-0C0.163,-0 0.15,-0.003 0.139,-0.008C0.127,-0.013 0.117,-0.019 0.108,-0.028C0.1,-0.037 0.093,-0.047 0.088,-0.059C0.083,-0.07 0.08,-0.083 0.08,-0.096L0.08,-0.424C0.08,-0.437 0.083,-0.45 0.088,-0.461C0.093,-0.473 0.1,-0.483 0.108,-0.492C0.117,-0.501 0.127,-0.507 0.139,-0.512C0.15,-0.517 0.163,-0.52 0.176,-0.52L0.424,-0.52C0.437,-0.52 0.45,-0.517 0.461,-0.512C0.473,-0.507 0.483,-0.501 0.492,-0.492C0.501,-0.483 0.507,-0.473 0.512,-0.461C0.517,-0.45 0.52,-0.437 0.52,-0.424L0.52,-0.211ZM0.176,-0.424L0.176,-0.307L0.424,-0.307L0.424,-0.424L0.176,-0.424Z" style="fill-rule:nonzero;"/>
                        </g>
                        <g transform="matrix(15.1639,0,0,15.1639,119.206,787.994)">
                            <path d="M0.54,-0.096C0.54,-0.083 0.538,-0.07 0.532,-0.059C0.527,-0.047 0.521,-0.037 0.512,-0.028C0.503,-0.019 0.493,-0.013 0.481,-0.008C0.47,-0.003 0.457,-0 0.444,-0L0.176,-0L0.176,0.21L0.08,0.21L0.08,-0.52L0.176,-0.52L0.176,-0.432C0.177,-0.444 0.18,-0.456 0.186,-0.467C0.191,-0.477 0.198,-0.486 0.207,-0.494C0.215,-0.502 0.225,-0.509 0.236,-0.513C0.247,-0.518 0.259,-0.52 0.272,-0.52L0.444,-0.52C0.457,-0.52 0.47,-0.517 0.481,-0.512C0.493,-0.507 0.503,-0.501 0.512,-0.492C0.521,-0.483 0.527,-0.473 0.532,-0.461C0.538,-0.45 0.54,-0.437 0.54,-0.424L0.54,-0.096ZM0.444,-0.096L0.444,-0.424L0.176,-0.424L0.176,-0.096L0.444,-0.096Z" style="fill-rule:nonzero;"/>
                        </g>
                        <g transform="matrix(15.1639,0,0,15.1639,128.61,787.994)">
                            <path d="M0.54,-0.096C0.54,-0.083 0.538,-0.07 0.532,-0.059C0.527,-0.047 0.521,-0.037 0.512,-0.028C0.503,-0.019 0.493,-0.013 0.481,-0.008C0.47,-0.003 0.457,-0 0.444,-0L0.176,-0L0.176,0.21L0.08,0.21L0.08,-0.52L0.176,-0.52L0.176,-0.432C0.177,-0.444 0.18,-0.456 0.186,-0.467C0.191,-0.477 0.198,-0.486 0.207,-0.494C0.215,-0.502 0.225,-0.509 0.236,-0.513C0.247,-0.518 0.259,-0.52 0.272,-0.52L0.444,-0.52C0.457,-0.52 0.47,-0.517 0.481,-0.512C0.493,-0.507 0.503,-0.501 0.512,-0.492C0.521,-0.483 0.527,-0.473 0.532,-0.461C0.538,-0.45 0.54,-0.437 0.54,-0.424L0.54,-0.096ZM0.444,-0.096L0.444,-0.424L0.176,-0.424L0.176,-0.096L0.444,-0.096Z" style="fill-rule:nonzero;"/>
                        </g>
                        <g transform="matrix(15.1639,0,0,15.1639,138.013,787.994)">
                            <path d="M0.52,-0.211L0.176,-0.211L0.176,-0.096L0.52,-0.096L0.52,-0L0.176,-0C0.163,-0 0.15,-0.003 0.139,-0.008C0.127,-0.013 0.117,-0.019 0.108,-0.028C0.1,-0.037 0.093,-0.047 0.088,-0.059C0.083,-0.07 0.08,-0.083 0.08,-0.096L0.08,-0.424C0.08,-0.437 0.083,-0.45 0.088,-0.461C0.093,-0.473 0.1,-0.483 0.108,-0.492C0.117,-0.501 0.127,-0.507 0.139,-0.512C0.15,-0.517 0.163,-0.52 0.176,-0.52L0.424,-0.52C0.437,-0.52 0.45,-0.517 0.461,-0.512C0.473,-0.507 0.483,-0.501 0.492,-0.492C0.501,-0.483 0.507,-0.473 0.512,-0.461C0.517,-0.45 0.52,-0.437 0.52,-0.424L0.52,-0.211ZM0.176,-0.424L0.176,-0.307L0.424,-0.307L0.424,-0.424L0.176,-0.424Z" style="fill-rule:nonzero;"/>
                        </g>
                        <g transform="matrix(15.1639,0,0,15.1639,147.113,787.994)">
                            <path d="M0.176,-0.424L0.176,-0L0.08,-0L0.08,-0.52L0.176,-0.52L0.176,-0.428C0.176,-0.441 0.179,-0.453 0.185,-0.464C0.19,-0.475 0.197,-0.485 0.205,-0.493C0.214,-0.502 0.224,-0.508 0.235,-0.513C0.247,-0.518 0.259,-0.52 0.272,-0.52L0.374,-0.52C0.387,-0.52 0.4,-0.517 0.411,-0.512C0.423,-0.507 0.433,-0.501 0.442,-0.492C0.451,-0.483 0.458,-0.473 0.463,-0.461C0.468,-0.45 0.47,-0.437 0.47,-0.424L0.47,-0.336L0.374,-0.336L0.374,-0.424L0.176,-0.424Z" style="fill-rule:nonzero;"/>
                        </g>
                        <g transform="matrix(15.1639,0,0,15.1639,91.2406,803.883)">
                            <path d="M0.451,-0L0.19,-0.513L0.19,-0L0.09,-0L0.09,-0.7L0.199,-0.7L0.466,-0.173L0.733,-0.7L0.842,-0.7L0.842,-0L0.742,-0L0.742,-0.513L0.481,-0L0.451,-0Z" style="fill-rule:nonzero;"/>
                        </g>
                        <g transform="matrix(15.1639,0,0,15.1639,105.375,803.883)">
                            <path d="M0.53,-0.096C0.53,-0.083 0.527,-0.07 0.522,-0.059C0.517,-0.047 0.51,-0.037 0.502,-0.028C0.493,-0.019 0.483,-0.013 0.471,-0.008C0.46,-0.003 0.447,-0 0.434,-0L0.176,-0C0.163,-0 0.15,-0.003 0.139,-0.008C0.127,-0.013 0.117,-0.019 0.108,-0.028C0.1,-0.037 0.093,-0.047 0.088,-0.059C0.083,-0.07 0.08,-0.083 0.08,-0.096L0.08,-0.424C0.08,-0.437 0.083,-0.45 0.088,-0.461C0.093,-0.473 0.1,-0.483 0.108,-0.492C0.117,-0.501 0.127,-0.507 0.139,-0.512C0.15,-0.517 0.163,-0.52 0.176,-0.52L0.434,-0.52C0.447,-0.52 0.46,-0.517 0.471,-0.512C0.483,-0.507 0.493,-0.501 0.502,-0.492C0.51,-0.483 0.517,-0.473 0.522,-0.461C0.527,-0.45 0.53,-0.437 0.53,-0.424L0.53,-0.096ZM0.176,-0.424L0.176,-0.096L0.434,-0.096L0.434,-0.424L0.176,-0.424Z" style="fill-rule:nonzero;"/>
                        </g>
                        <g transform="matrix(15.1639,0,0,15.1639,114.623,803.883)">
                            <path d="M0.05,-0.52L0.177,-0.52L0.177,-0.68L0.273,-0.68L0.273,-0.52L0.444,-0.52L0.444,-0.424L0.273,-0.424L0.273,-0.096L0.444,-0.096L0.444,-0L0.273,-0C0.26,-0 0.248,-0.003 0.236,-0.008C0.224,-0.013 0.214,-0.019 0.205,-0.028C0.196,-0.037 0.189,-0.047 0.184,-0.059C0.179,-0.07 0.177,-0.083 0.177,-0.096L0.177,-0.424L0.05,-0.424L0.05,-0.52Z" style="fill-rule:nonzero;"/>
                        </g>
                        <g transform="matrix(15.1639,0,0,15.1639,122.568,803.883)">
                            <path d="M0.53,-0.096C0.53,-0.083 0.527,-0.07 0.522,-0.059C0.517,-0.047 0.51,-0.037 0.502,-0.028C0.493,-0.019 0.483,-0.013 0.471,-0.008C0.46,-0.003 0.447,-0 0.434,-0L0.176,-0C0.163,-0 0.15,-0.003 0.139,-0.008C0.127,-0.013 0.117,-0.019 0.108,-0.028C0.1,-0.037 0.093,-0.047 0.088,-0.059C0.083,-0.07 0.08,-0.083 0.08,-0.096L0.08,-0.424C0.08,-0.437 0.083,-0.45 0.088,-0.461C0.093,-0.473 0.1,-0.483 0.108,-0.492C0.117,-0.501 0.127,-0.507 0.139,-0.512C0.15,-0.517 0.163,-0.52 0.176,-0.52L0.434,-0.52C0.447,-0.52 0.46,-0.517 0.471,-0.512C0.483,-0.507 0.493,-0.501 0.502,-0.492C0.51,-0.483 0.517,-0.473 0.522,-0.461C0.527,-0.45 0.53,-0.437 0.53,-0.424L0.53,-0.096ZM0.176,-0.424L0.176,-0.096L0.434,-0.096L0.434,-0.424L0.176,-0.424Z" style="fill-rule:nonzero;"/>
                        </g>
                        <g transform="matrix(15.1639,0,0,15.1639,131.816,803.883)">
                            <path d="M0.176,-0.424L0.176,-0L0.08,-0L0.08,-0.52L0.176,-0.52L0.176,-0.428C0.176,-0.441 0.179,-0.453 0.185,-0.464C0.19,-0.475 0.197,-0.485 0.205,-0.493C0.214,-0.502 0.224,-0.508 0.235,-0.513C0.247,-0.518 0.259,-0.52 0.272,-0.52L0.374,-0.52C0.387,-0.52 0.4,-0.517 0.411,-0.512C0.423,-0.507 0.433,-0.501 0.442,-0.492C0.451,-0.483 0.458,-0.473 0.463,-0.461C0.468,-0.45 0.47,-0.437 0.47,-0.424L0.47,-0.336L0.374,-0.336L0.374,-0.424L0.176,-0.424Z" style="fill-rule:nonzero;"/>
                        </g>
                        <g transform="matrix(15.1639,0,0,15.1639,91.2406,819.773)">
                            <path d="M0.451,-0L0.19,-0.513L0.19,-0L0.09,-0L0.09,-0.7L0.199,-0.7L0.466,-0.173L0.733,-0.7L0.842,-0.7L0.842,-0L0.742,-0L0.742,-0.513L0.481,-0L0.451,-0Z" style="fill-rule:nonzero;"/>
                        </g>
                        <g transform="matrix(15.1639,0,0,15.1639,105.375,819.773)">
                            <path d="M0.53,-0.096C0.53,-0.083 0.527,-0.07 0.522,-0.059C0.517,-0.047 0.51,-0.037 0.502,-0.028C0.493,-0.019 0.483,-0.013 0.471,-0.008C0.46,-0.003 0.447,-0 0.434,-0L0.176,-0C0.163,-0 0.15,-0.003 0.139,-0.008C0.127,-0.013 0.117,-0.019 0.108,-0.028C0.1,-0.037 0.093,-0.047 0.088,-0.059C0.083,-0.07 0.08,-0.083 0.08,-0.096L0.08,-0.424C0.08,-0.437 0.083,-0.45 0.088,-0.461C0.093,-0.473 0.1,-0.483 0.108,-0.492C0.117,-0.501 0.127,-0.507 0.139,-0.512C0.15,-0.517 0.163,-0.52 0.176,-0.52L0.434,-0.52C0.447,-0.52 0.46,-0.517 0.471,-0.512C0.483,-0.507 0.493,-0.501 0.502,-0.492C0.51,-0.483 0.517,-0.473 0.522,-0.461C0.527,-0.45 0.53,-0.437 0.53,-0.424L0.53,-0.096ZM0.176,-0.424L0.176,-0.096L0.434,-0.096L0.434,-0.424L0.176,-0.424Z" style="fill-rule:nonzero;"/>
                        </g>
                        <g transform="matrix(15.1639,0,0,15.1639,114.623,819.773)">
                            <path d="M0.08,-0.424C0.08,-0.437 0.083,-0.45 0.088,-0.461C0.093,-0.473 0.1,-0.483 0.108,-0.492C0.117,-0.501 0.127,-0.507 0.139,-0.512C0.15,-0.517 0.163,-0.52 0.176,-0.52L0.444,-0.52L0.444,-0.72L0.54,-0.72L0.54,-0L0.444,-0L0.444,-0.088C0.443,-0.076 0.44,-0.064 0.434,-0.054C0.429,-0.043 0.421,-0.034 0.413,-0.026C0.404,-0.018 0.394,-0.011 0.383,-0.007C0.372,-0.002 0.361,-0 0.348,-0L0.176,-0C0.163,-0 0.15,-0.003 0.139,-0.008C0.127,-0.013 0.117,-0.019 0.108,-0.028C0.1,-0.037 0.093,-0.047 0.088,-0.059C0.083,-0.07 0.08,-0.083 0.08,-0.096L0.08,-0.424ZM0.176,-0.096L0.444,-0.096L0.444,-0.424L0.176,-0.424L0.176,-0.096Z" style="fill-rule:nonzero;"/>
                        </g>
                        <g transform="matrix(15.1639,0,0,15.1639,124.027,819.773)">
                            <path d="M0.08,-0.52L0.176,-0.52L0.176,-0.096L0.444,-0.096L0.444,-0.52L0.54,-0.52L0.54,-0L0.444,-0L0.444,-0.088C0.443,-0.076 0.44,-0.064 0.434,-0.054C0.429,-0.043 0.421,-0.034 0.413,-0.026C0.404,-0.018 0.394,-0.011 0.383,-0.007C0.372,-0.002 0.361,-0 0.348,-0L0.176,-0C0.163,-0 0.15,-0.003 0.139,-0.008C0.127,-0.013 0.117,-0.019 0.108,-0.028C0.1,-0.037 0.093,-0.047 0.088,-0.059C0.083,-0.07 0.08,-0.083 0.08,-0.096L0.08,-0.52Z" style="fill-rule:nonzero;"/>
                        </g>
                        <g transform="matrix(15.1639,0,0,15.1639,133.43,819.773)">
                            <rect x="0.08" y="-0.72" width="0.096" height="0.72"/>
                        </g>
                        <g transform="matrix(15.1639,0,0,15.1639,137.31,819.773)">
                            <path d="M0.52,-0.211L0.176,-0.211L0.176,-0.096L0.52,-0.096L0.52,-0L0.176,-0C0.163,-0 0.15,-0.003 0.139,-0.008C0.127,-0.013 0.117,-0.019 0.108,-0.028C0.1,-0.037 0.093,-0.047 0.088,-0.059C0.083,-0.07 0.08,-0.083 0.08,-0.096L0.08,-0.424C0.08,-0.437 0.083,-0.45 0.088,-0.461C0.093,-0.473 0.1,-0.483 0.108,-0.492C0.117,-0.501 0.127,-0.507 0.139,-0.512C0.15,-0.517 0.163,-0.52 0.176,-0.52L0.424,-0.52C0.437,-0.52 0.45,-0.517 0.461,-0.512C0.473,-0.507 0.483,-0.501 0.492,-0.492C0.501,-0.483 0.507,-0.473 0.512,-0.461C0.517,-0.45 0.52,-0.437 0.52,-0.424L0.52,-0.211ZM0.176,-0.424L0.176,-0.307L0.424,-0.307L0.424,-0.424L0.176,-0.424Z" style="fill-rule:nonzero;"/>
                        </g>
                    </g>
                </g>
            </g>
            <path id="washers" d="M643.91,380.408C634.638,380.408 627.11,372.88 627.11,363.608C627.11,354.335 634.638,346.808 643.91,346.808C653.182,346.808 660.71,354.335 660.71,363.608C660.71,372.88 653.182,380.408 643.91,380.408ZM643.91,369.655C640.573,369.655 637.863,366.945 637.863,363.608C637.863,360.27 640.573,357.56 643.91,357.56C647.248,357.56 649.958,360.27 649.958,363.608C649.958,366.945 647.248,369.655 643.91,369.655ZM643.91,417.787C634.638,417.787 627.11,410.259 627.11,400.987C627.11,391.715 634.638,384.187 643.91,384.187C653.182,384.187 660.71,391.715 660.71,400.987C660.71,410.259 653.182,417.787 643.91,417.787ZM643.91,407.034C640.573,407.034 637.863,404.325 637.863,400.987C637.863,397.65 640.573,394.94 643.91,394.94C647.248,394.94 649.958,397.65 649.958,400.987C649.958,404.325 647.248,407.034 643.91,407.034ZM643.91,455.167C634.638,455.167 627.11,447.639 627.11,438.367C627.11,429.094 634.638,421.567 643.91,421.567C653.182,421.567 660.71,429.094 660.71,438.367C660.71,447.639 653.182,455.167 643.91,455.167ZM643.91,444.414C640.573,444.414 637.863,441.704 637.863,438.367C637.863,435.029 640.573,432.319 643.91,432.319C647.248,432.319 649.958,435.029 649.958,438.367C649.958,441.704 647.248,444.414 643.91,444.414ZM643.91,492.546C634.638,492.546 627.11,485.018 627.11,475.746C627.11,466.474 634.638,458.946 643.91,458.946C653.182,458.946 660.71,466.474 660.71,475.746C660.71,485.018 653.182,492.546 643.91,492.546ZM643.91,481.793C640.573,481.793 637.863,479.084 637.863,475.746C637.863,472.409 640.573,469.699 643.91,469.699C647.248,469.699 649.958,472.409 649.958,475.746C649.958,479.084 647.248,481.793 643.91,481.793Z" style="fill:none;stroke:black;stroke-width:1.33px;stroke-miterlimit:1.5;"/>
        </g>
    </g>
</svg>
